<svg xmlns="http://www.w3.org/2000/svg" viewBox="0 0 140 60.42" width="113" height="48"><defs><style>.cls-1{fill:#fff}</style></defs><g id="Layer_2" data-name="Layer 2"><g id="logo"><g id="Alaska"><path class="cls-1" d="m68.65 1.66-16 26.82a19.44 19.44 0 0 0-2.82 8.24h-6.24c.42-3.39 1.75-6.62 4.5-11.25L59.27 6.73c2.24-3.72 4.46-5.07 8.5-5.07zM67.42 29.82c-1.17 1.08-3.43 2.72-5.35 2.77-1.31-.05-1.36-1.29-.48-3 3.38-6.46 6.92-9.88 11.3-9.87h.79zm5.9-13.72c-8.1 0-13.08 4.72-17.48 15-1.1 2.59-1.73 5.81 2 5.77A17.22 17.22 0 0 0 66.07 34a9.08 9.08 0 0 0-.23 2.73h5.68a21.48 21.48 0 0 1 2.92-8.33l7.11-11.86a77.11 77.11 0 0 0-8.23-.44zM125.87 29.82c-1.17 1.08-3.44 2.72-5.35 2.77-1.31-.05-1.36-1.29-.48-3 3.38-6.46 6.92-9.88 11.3-9.87h.79zm5.9-13.72c-8.1 0-13.08 4.72-17.48 15-1.1 2.59-1.73 5.81 2 5.77a17.22 17.22 0 0 0 8.23-2.87 9.08 9.08 0 0 0-.23 2.73H130a21.48 21.48 0 0 1 2.92-8.33L140 16.53a77.11 77.11 0 0 0-8.23-.43z"/><path class="cls-1" d="M113.29 42.44h-1.86a5.36 5.36 0 0 1-5.17-3.94l-2.83-10.66-5.28 8.88h-6.06L109 8.1c2.18-3.72 4.46-5.1 8.5-5.1h.62l-11.24 19 8.43-5.8h6.76L107.91 26zM57.49 0c-5.71 0-8.65 1.51-14.25 5.55L24.3 19.2H12.18c-3.51 0-6.31.14-8.53 2.23l-3.13 2.9 17.62-.68L0 36.72h7.84l18.55-13.39c3.59-.13 6.09-.23 6.11-.22 4.32-.12 6.72-3.91 6.72-3.91h-7.11l15-10.81L36 26.44c-2.38 4.14-3.53 7.1-3.93 10.28h6.44a19.6 19.6 0 0 1 2.83-8.24L56.48 3.16c1.05-1.74 2-3.16 2-3.16zM87.68 21.9c-.08.54.15.87 1.23 1.58l1.74 1.14a4.89 4.89 0 0 1 2.42 4.62c-.63 4.24-3.75 7.66-10.38 7.66a37.32 37.32 0 0 1-7.69-.67l2.57-4.33a30.64 30.64 0 0 0 5.56.63c2.5 0 3.49-1.13 3.63-2.05.08-.55-.18-1.18-1.36-2l-1.38-1c-2.21-1.58-2.79-2.83-2.5-4.78.56-3.76 4.9-6.63 10.94-6.63a58.89 58.89 0 0 1 6.22.35l-2.42 4.1c-1.49-.12-3.9-.23-5.6-.17s-2.85.65-2.98 1.55z"/></g><path class="cls-1" d="M134.94 34.11a1.33 1.33 0 1 1-1.31 1.33 1.33 1.33 0 0 1 1.31-1.33zm0 2.4a1.07 1.07 0 1 0-1-1.07 1 1 0 0 0 1 1.07zm-.17-.36h-.27v-1.44h.5a.46.46 0 0 1 .49.45.45.45 0 0 1-.32.43l.33.56h-.32l-.3-.54h-.11zm.19-.77c.16 0 .25-.08.25-.22s-.09-.16-.21-.16h-.19v.43zM17.54 57.67h-4.47l-.92 2.52H9.89l4.22-11h2.48l4.2 11h-2.33zm-3.76-2h3l-1.52-4.16zM28.41 60.19v-11h2.17v11zM43.12 56H42v4.24h-2.15v-11h4.3a3.3 3.3 0 0 1 3.51 3.38 3.12 3.12 0 0 1-2.35 3.12l2.37 4.51h-2.4zm.63-1.85a1.54 1.54 0 1 0 0-3.06H42v3.01zM56.31 60.19v-11h2.14v9h4.91v2zM71.75 60.19v-11h2.18v11zM90.34 60.19l-5-7.81v7.81h-2.15v-11h2.67l4.59 7.28v-7.29h2.14v11zM101.86 60.19v-11h6.89v2H104v2.52h4.3v1.91H104v2.55h4.75v2zM123.12 52.39a1.87 1.87 0 0 0-2-1.55 1.56 1.56 0 0 0-1.72 1.4c0 .6.39 1.08 1.19 1.24l1.54.29c2 .39 3.08 1.7 3.08 3.25s-1.42 3.4-4 3.4c-2.92 0-4.21-1.88-4.38-3.45l2-.53a2.21 2.21 0 0 0 2.41 2.07c1.14 0 1.78-.58 1.78-1.35s-.48-1.14-1.33-1.31l-1.54-.31a3.2 3.2 0 0 1-2.89-3.15 3.64 3.64 0 0 1 3.84-3.45c2.67 0 3.69 1.62 3.94 2.86z"/></g></g></svg>