<?xml version="1.0" encoding="utf-8"?>
<!-- Generator: Adobe Illustrator 18.0.0, SVG Export Plug-In . SVG Version: 6.00 Build 0)  -->
<!DOCTYPE svg PUBLIC "-//W3C//DTD SVG 1.0//EN" "http://www.w3.org/TR/2001/REC-SVG-20010904/DTD/svg10.dtd" [
	<!ENTITY ns_extend "http://ns.adobe.com/Extensibility/1.0/">
	<!ENTITY ns_ai "http://ns.adobe.com/AdobeIllustrator/10.0/">
	<!ENTITY ns_graphs "http://ns.adobe.com/Graphs/1.0/">
	<!ENTITY ns_vars "http://ns.adobe.com/Variables/1.0/">
	<!ENTITY ns_imrep "http://ns.adobe.com/ImageReplacement/1.0/">
	<!ENTITY ns_sfw "http://ns.adobe.com/SaveForWeb/1.0/">
	<!ENTITY ns_custom "http://ns.adobe.com/GenericCustomNamespace/1.0/">
	<!ENTITY ns_adobe_xpath "http://ns.adobe.com/XPath/1.0/">
]>
<svg version="1.0" id="Layer_1" xmlns:x="&ns_extend;" xmlns:i="&ns_ai;" xmlns:graph="&ns_graphs;"
	 xmlns="http://www.w3.org/2000/svg" xmlns:xlink="http://www.w3.org/1999/xlink" x="0px" y="0px" viewBox="0 0 476.6 150.2"
	 enable-background="new 0 0 476.6 150.2" xml:space="preserve">
<switch>
<g>
	<g>
		<path fill-rule="evenodd" clip-rule="evenodd" fill="#FF610C" d="M141.2,101c-4.9-4.6-8.1-5.3-12.1-8.2
			c-12.2-8.9-15.1-27.6-5.8-39.7c2.7-3.5,6-5.9,9.7-8.4c3.9-2.6,7.4-6.3,9.3-10.2c3.7-7.8,2.8-17.7-2.9-25.1
			c-5.4-7-14-10.7-23.3-8.9c-4.4,0.8-8.1,2.6-11.9,6c-3.8,3.4-4.8,7-9.2,11.3c-6.9,6.8-15.2,10.1-25.1,9.5
			c-4.8-0.3-8.9-1.5-13.7-4.2c-5.2-2.9-7.3-6.5-11.3-7.4c-4.2-1-8.8,0.2-11.6,3.4c-3.8,4.4-3.3,8.4-1.6,13.6
			c1.6,4.9,2.9,9.7,3.2,14.9c0.3,5.1-0.3,10.3-1.8,15.2c-2.7,9-9.2,17.4-15.5,23c-5.2,4.6-8.8,5.3-12.2,8.5
			C2.1,97.3,0,101.6,0,106.4c0,8.4,6,15.4,13.9,16.8c6.2,1.2,12.1-1.7,14-2.3c12.9-4.1,29.1-3.6,40.8-0.2c9.7,2.8,18,7.8,25.8,14.1
			c3.8,3,6.6,7.1,10.6,9.9c10.2,7.2,27.7,8.7,38.9-5.8C151.6,129.3,153.4,112.4,141.2,101"/>
		<path fill-rule="evenodd" clip-rule="evenodd" fill="#FFFFFF" d="M93,48.2c-3.8,0-5.2,3-5.2,5.2v4c-3.9-5.3-9.2-8.7-16.4-8.7
			c-5.9,0-10.9,2.4-15,7.1c-4.1,4.7-6.2,10.5-6.2,17.1c0,6.7,2.1,12.4,6.2,17.1c4.2,4.8,9.2,7.1,15,7.1c7.7,0,13.1-4.2,16.4-8.8
			v4.3c0,1.9,1.6,5,5.2,5c3.6,0,5.1-3.1,5.1-5.2V53.3C98.1,50,95.2,48.2,93,48.2 M74.2,87.6c-7.9,0-13.6-7.2-13.6-14.9
			c0-8.2,5.8-14.9,13.6-14.9c8.3,0,13.6,7.5,13.6,14.9C87.8,80.5,82.2,87.6,74.2,87.6"/>
		<g>
			<path fill-rule="evenodd" clip-rule="evenodd" fill="#131039" d="M294.3,39.1c-4.8-1.9-8.4,1.7-9.3,4.1l-17.4,45.6l-17.4-45.6
				c-0.9-2.3-4.5-6-9.3-4.1c-5.2,2-4.9,6.9-4.1,9.1c0,0,14.5,38,19.2,50.3c2.7,7.1,8,8.6,11.5,8.6c3.5,0,8.8-1.5,11.5-8.6
				c4.7-12.3,19.2-50.3,19.2-50.3C299.3,46,299.5,41.1,294.3,39.1"/>
			<path fill-rule="evenodd" clip-rule="evenodd" fill="#131039" d="M220.6,38.5c-5.2,0-7.3,4.1-7.3,7.1v5.6
				c-5.4-7.3-12.7-12.1-22.7-12.1c-8.1,0-15.1,3.3-20.8,9.8c-5.7,6.6-8.6,14.5-8.6,23.8c0,9.2,2.9,17.1,8.6,23.7
				c5.7,6.6,12.7,9.9,20.8,9.9c10.7,0,18.1-5.8,22.7-12.2v6c0,2.7,2.2,6.9,7.2,6.9c5,0,7.1-4.3,7.1-7.1V45.7
				C227.7,41.1,223.7,38.5,220.6,38.5 M194.4,93.4c-10.9,0-18.8-10-18.8-20.7c0-11.3,8.1-20.6,18.8-20.6
				c11.5,0,18.8,10.3,18.8,20.6C213.2,83.6,205.4,93.4,194.4,93.4"/>
			<path fill-rule="evenodd" clip-rule="evenodd" fill="#131039" d="M361.1,38.5c-5.2,0-7.3,4.1-7.3,7.1v5.6
				c-5.4-7.3-12.7-12.1-22.7-12.1c-8.1,0-15.1,3.3-20.8,9.8c-5.7,6.6-8.6,14.5-8.6,23.8c0,9.2,2.9,17.1,8.6,23.7
				c5.7,6.6,12.7,9.9,20.8,9.9c10.7,0,18.1-5.8,22.7-12.2v6c0,2.7,2.2,6.9,7.2,6.9c5,0,7.1-4.3,7.1-7.1V45.7
				C368.1,41.1,364.2,38.5,361.1,38.5 M334.9,93.4c-10.9,0-18.8-10-18.8-20.7c0-11.3,8.1-20.6,18.8-20.6
				c11.5,0,18.8,10.3,18.8,20.6C353.6,83.6,345.9,93.4,334.9,93.4"/>
			<g>
				<path fill="#131039" d="M380.2,99.1c-1.6-0.9-2.9-2.8-2.9-5.3c0-3.4,2.6-6.1,6.1-6.1c1.3,0,2.4,0.4,3.3,0.9
					c6.4,4.3,13,6.4,19,6.4c6.5,0,10.3-2.8,10.3-7.1v-0.3c0-5.1-7-6.6-14.8-9c-9.8-2.8-20.7-7-20.7-19.7v-0.3
					c0-12.5,10.4-20.2,23.5-20.2c7,0,14.4,2,20.8,5.4c2.1,1.1,3.6,3.1,3.6,5.8c0,3.5-2.8,6.1-6.3,6.1c-1.3,0-2-0.3-3-0.8
					c-5.4-2.8-10.9-4.5-15.5-4.5c-5.9,0-9.3,2.8-9.3,6.5v0.3c0,4.9,7.1,6.6,14.9,9.1c9.6,3,20.5,7.6,20.5,19.5v0.3
					c0,13.9-10.8,20.8-24.5,20.8C397,107,387.8,104.4,380.2,99.1z"/>
			</g>
			<g>
				<path fill="#131039" d="M443.6,87.8V53.4h-2.9c-3.6,0-6.5-2.9-6.5-6.5c0-3.6,2.9-6.5,6.5-6.5h2.9V30.2c0-4.1,3-7.5,7.2-7.5
					c4.1,0,7.1,3.4,7.1,7.5v10.2h11.3c3.6,0,6.6,2.9,6.6,6.5c0,3.6-3,6.5-6.6,6.5h-11.3v32c0,5.9,3.4,8.2,8.5,8.2
					c1.8,0,3.3-0.4,3.8-0.4c3.4,0,6.4,2.7,6.4,6.2c0,2.7-1.9,5-4,5.9c-3.3,1.1-6.4,1.7-10.4,1.7
					C451.1,107.1,443.6,102.2,443.6,87.8z"/>
			</g>
		</g>
	</g>
</g>
</switch>
</svg>
