<svg viewBox="0 0 109 31" xmlns="http://www.w3.org/2000/svg"><path d="M19.2 25.6c-1.5-.4-2.9-1.3-4-2.4-1.9-2.1-2.9-4.9-2.7-7.7-.1-2.1.5-4.2 1.5-6L13 9a4.96 4.96 0 1 0-6.9-1.2c.3.5.7.9 1.2 1.2-.7.4-2.5 1.4-3 1.7-.1.1-.1.3-.1.3 0 .7.2 1.4.5 2 1 .2 2 .3 2.9.3-.2 2.3-.5 4.7-.9 7-.4 1.3-4.6 1.5-5.3 3.1-.1.3-.2.6-.2.9 0 .4.1.8.4 1.2.1.1-1.5.5-1.5 2-.1.5.2 1.1.6 1.5.9.6 1.9 1.1 3 1.4 2.1.5 4.2.7 6.3.7s4.3-.2 6.4-.7c1.1-.2 2.1-.7 3-1.4.4-.4.7-1 .7-1.6 0-.7-.3-1.4-.9-1.8z" fill="#4e7838"/><path d="M8.4 27.9c-1.4-.2-5.9-.9-7-2.5-.4.2-.7.4-1 .8 0 1.7 5.5 2.5 8 2.2.9-.1.5-.4 0-.5zm1.7-13c-.4-.2-2.6-1-2.6-1-.2 2.1-.5 4.2-.8 6.2-.4 1.3-4.6 1.5-5.3 3.1-.3.8 1.3 1.8 5.1 1.8 3.6 0 4-4.9 4.6-8.7.1-.7-.6-1.2-1-1.4zm1.9-4.2c-.7-.6-1.5-1.2-2.3-1.7 2.3-.6 3.9-2.7 3.8-5 0-3-1.9-4-3.3-4h-.1C7.4.1 5.2 2.4 5.3 5.2c.1 1.5.8 2.9 2 3.8-.7.4-2.5 1.4-3 1.7-.1.1-.1.3-.1.3 0 .7.2 1.4.5 2 1.7.3 3.4.4 5.1.4h1.8c.3 0 .5-1.9.5-2.3 0-.1 0-.3-.1-.4z" fill="#6c9d40"/><path d="M9.3 1.2c2.2.3-1 2.8-2 2.7s0-3 2-2.7zm13.1 22.9c-2.2.1-4.3-.7-5.9-2.2a9 9 0 0 1-2.2-6.3c-.1-2.3.7-4.5 2.2-6.3C18 7.7 20.2 6.9 22.4 7c.6 0 1.2 0 1.8.1l1.5.3c.4.1.9.3 1.3.5s.8.4 1.1.5v3.9h-.4l-.8-.6c-.3-.3-.7-.5-1-.7-.4-.2-.8-.4-1.3-.6a4.15 4.15 0 0 0-3.1 0c-.5.2-1 .6-1.4 1-.5.5-.8 1.1-1.1 1.7-.3.8-.4 1.7-.4 2.5 0 .9.1 1.8.4 2.6.2.6.6 1.2 1.1 1.7a4.2 4.2 0 0 0 3 1.2c.5 0 1.1-.1 1.6-.3.4-.2.9-.4 1.2-.6.4-.2.7-.4 1-.7l.7-.6h.4v3.9l-1 .5c-.4.2-.8.3-1.2.5-.5.2-1 .3-1.5.4-.6-.1-1.2-.1-1.9-.1zm19.3-.3h-3.9v-6.2c0-.5 0-1-.1-1.5 0-.4-.1-.7-.2-1.1a.9.9 0 0 0-.6-.6c-.3-.1-.7-.2-1-.2s-.7.1-1 .2c-.4.1-.7.3-1 .6v8.8H30V6.9h4v5.8c.6-.5 1.2-.9 1.8-1.3.6-.3 1.3-.5 2-.4 1.1-.1 2.2.4 2.9 1.2.7 1 1.1 2.2 1 3.5zm9.1.3c-1.9.1-3.9-.5-5.4-1.7-1.3-1.2-2-3-1.9-4.8-.1-1.8.5-3.5 1.8-4.9 1.3-1.3 3.1-1.9 4.9-1.8 1.6-.1 3.1.4 4.3 1.5 1 1.2 1.5 2.8 1.4 4.4v1.4h-8.5c0 .5.1 1 .4 1.5.2.4.5.7.8.9.4.2.7.4 1.2.5s1 .2 1.5.1c.4 0 .9-.1 1.3-.1.4-.1.8-.2 1.2-.4.3-.1.6-.3.9-.5.2-.1.4-.3.7-.4h.4V23l-.9.4-1.1.3-1.3.3c-.6.1-1.2.1-1.7.1zm1.3-8.2c0-.7-.2-1.4-.6-1.9s-1-.7-1.7-.6c-.7 0-1.3.2-1.8.7-.4.5-.7 1.2-.7 1.9zm9.9 8.2c-.9 0-1.7-.1-2.6-.3-.7-.2-1.4-.4-2-.7v-3.3h.3l.6.5c.3.2.6.4 1 .5.4.2.8.3 1.2.4.5.1 1 .2 1.5.2s1-.1 1.4-.2.6-.4.6-.8c0-.3-.1-.5-.3-.7-.3-.2-.7-.3-1.1-.4-.3-.1-.7-.1-1.1-.2l-1.2-.3c-.8-.2-1.6-.7-2.2-1.3-.5-.7-.8-1.5-.7-2.3 0-.5.1-1.1.4-1.6s.7-1 1.1-1.3c.5-.4 1.2-.7 1.8-.9a9.86 9.86 0 0 1 4.8 0c.6.1 1.3.3 1.8.6v3H67c-.2-.1-.4-.3-.6-.4-.3-.2-.6-.3-.8-.4-.4-.2-.7-.3-1.1-.4s-.8-.1-1.2-.1c-.5 0-1 .1-1.4.3-.3.1-.6.4-.6.8 0 .3.1.5.3.7.4.2.8.4 1.2.5.3.1.7.2 1.1.2l1.2.3c.8.2 1.5.7 2 1.3s.8 1.4.7 2.2c0 .6-.1 1.1-.4 1.7-.3.5-.7 1-1.2 1.3-.6.4-1.2.7-1.9.9-.6.1-1.4.2-2.3.2zm11.9 0c-.9 0-1.7-.1-2.6-.3-.7-.2-1.4-.4-2-.7v-3.3h.3l.6.5c.3.2.6.4 1 .5.4.2.8.3 1.2.4.5.1 1 .2 1.5.2s1-.1 1.4-.2.6-.4.6-.8c0-.3-.1-.5-.3-.7-.3-.2-.7-.3-1.1-.4-.3-.1-.7-.1-1.1-.2l-1.2-.3c-.8-.2-1.6-.7-2.2-1.3-.5-.7-.8-1.5-.7-2.3 0-.5.1-1.1.4-1.6s.7-1 1.1-1.3c.5-.4 1.2-.7 1.8-.9a9.86 9.86 0 0 1 4.8 0c.6.1 1.3.3 1.8.6v3h-.3c-.2-.1-.4-.3-.6-.4-.3-.2-.6-.3-.8-.4-.4-.2-.7-.3-1.1-.4s-.8-.1-1.2-.1c-.5 0-1 .1-1.4.3-.3.1-.6.4-.6.8 0 .3.1.5.3.7.4.2.8.4 1.2.5.3.1.7.2 1.1.2l1.2.3c.8.2 1.5.7 2 1.3s.7 1.4.7 2.2c0 .6-.1 1.1-.4 1.7-.3.5-.7 1-1.2 1.3-.6.4-1.2.7-1.9.9-.6.1-1.4.2-2.3.2zm7.7-.4H81c-.3 0-.5-.2-.5-.5v-1c0-.3.2-.5.5-.5h.6c.3 0 .5.2.5.5v1c.1.3-.2.5-.5.5zm5 .2c-.5 0-1-.1-1.5-.2-.4-.2-.8-.4-1.2-.8-.3-.4-.6-.8-.8-1.3a5.66 5.66 0 0 1 0-3.6c.2-.5.4-.9.7-1.3.3-.3.7-.6 1.2-.7.5-.2 1-.3 1.5-.3.4 0 .8.1 1.2.2s.7.2 1.1.4v1.5h-.1c-.1-.1-.2-.2-.4-.3s-.4-.2-.5-.3c-.2-.1-.4-.2-.7-.2-.2-.1-.5-.1-.7-.1-.6 0-1.3.3-1.7.8-.5.6-.7 1.4-.6 2.2 0 .8.2 1.5.6 2.2.4.5 1 .8 1.7.8.4 0 .9-.1 1.2-.3.4-.2.7-.4 1-.7h.1v1.5l-.5.2c-.2.1-.4.1-.5.2l-.6.1zm10.2-4.1c.1 1.1-.3 2.2-1 3-.6.7-1.6 1.1-2.5 1.1-1 0-1.9-.4-2.6-1.1-.7-.9-1-1.9-.9-3-.1-1.1.3-2.2 1-3a3.6 3.6 0 0 1 5-.1l.1.1c.6.9 1 2 .9 3zm-1.4 0c.1-.8-.1-1.6-.6-2.2-.7-.9-2.1-1-2.9-.2l-.2.2c-.4.7-.6 1.5-.6 2.2-.1.8.1 1.6.6 2.2.7.9 2 1 2.9.3l.3-.3c.4-.6.6-1.4.5-2.2zm11.5 4.1v-5.6c0-.3-.1-.5-.2-.7s-.2-.3-.4-.4-.5-.2-.7-.1c-.3 0-.6.1-.9.2-.4.2-.7.5-1 .8v6h-1.4v-5.7c0-.3-.1-.5-.2-.7s-.2-.3-.4-.4-.5-.1-.8-.1-.6.1-.9.3-.7.4-.9.7v6h-1.4v-8h1.4v.9c.3-.3.7-.6 1.1-.9.3-.2.7-.3 1.2-.3.4 0 .9.1 1.3.3s.7.6.8 1.1c.3-.4.8-.7 1.2-1 .4-.2.8-.4 1.3-.4.3 0 .6.1.9.2s.5.3.7.5c.2.3.4.6.5.9.1.4.2.9.2 1.4V24z" fill="#fff"/></svg>