<?xml version="1.0" encoding="utf-8"?>
<!-- Generator: Adobe Illustrator 14.0.0, SVG Export Plug-In . SVG Version: 6.00 Build 43363)  -->
<!DOCTYPE svg PUBLIC "-//W3C//DTD SVG 1.1//EN" "http://www.w3.org/Graphics/SVG/1.1/DTD/svg11.dtd">
<svg version="1.1" id="Calque_1" xmlns="http://www.w3.org/2000/svg" xmlns:xlink="http://www.w3.org/1999/xlink" x="0px" y="0px"
	 width="141.73px" height="33.17px" viewBox="0 0 141.73 33.17" enable-background="new 0 0 141.73 33.17" xml:space="preserve">
<g>
	<g>
		<g>
			<g>
				<path fill-rule="evenodd" clip-rule="evenodd" fill="#150C00" d="M8.771,5.902v16.63c0,1.566,0.474,2.334,2.481,2.334h2.406
					c2.735,0,4.012-1.059,4.96-3.064l0.875-1.932l1.386,0.4l-1.094,6.346H0.274v-1.385c3.428-0.73,3.61-0.84,3.61-2.188V5.902
					c0-1.386-0.183-1.458-3.61-2.151V2.364h12.217V3.75C8.953,4.443,8.771,4.516,8.771,5.902 M36.125,13.269
					c0,2.225-1.276,4.814-9.738,5.215c0.219,3.428,1.97,5.689,4.924,5.689c1.641,0,3.136-0.654,4.485-1.934l0.766,0.914
					c-1.532,2.26-4.048,3.828-6.966,3.828c-4.704,0-8.133-3.391-8.133-8.68c0-5.142,4.158-9.19,9.045-9.19
					C34.52,9.111,36.125,11.554,36.125,13.269 M30.289,10.57c-2.662,0-3.83,2.845-3.939,6.492c5.8-0.876,6.019-3.101,6.019-4.377
					C32.369,11.19,31.165,10.57,30.289,10.57 M43.419,26.981c-4.23,0-5.799-1.713-5.799-3.463c0-1.352,1.35-2.555,3.064-2.191
					l0.474,0.584c-1.094,1.896-0.292,3.611,2.479,3.611c1.75,0,2.99-0.949,2.99-2.406c0-1.715-1.422-2.408-3.609-3.283
					c-3.101-1.24-4.924-2.662-4.924-5.507c0-2.809,2.48-5.215,6.236-5.215c4.011,0,5.799,1.896,5.799,3.537
					c0,1.313-1.167,2.589-3.21,2.152l-0.401-0.583c1.24-1.678,0.62-3.647-2.115-3.647c-1.642,0-2.736,1.021-2.736,2.37
					c0,1.605,1.714,2.371,3.683,3.064c3.064,1.058,5.581,2.479,5.581,5.616C50.932,24.794,48.671,26.981,43.419,26.981
					 M54.616,2.364h19.476l0.182,6.382H72.96l-0.655-2.005c-0.656-2.006-2.08-2.626-4.121-2.626h-5.07v9.045h4.996
					c1.059,0,1.131-0.182,1.86-3.319h1.386v8.752H69.97c-0.729-3.026-0.802-3.464-1.86-3.464h-4.996v7.404
					c0,1.566,0.475,2.334,2.48,2.334h2.407c2.735,0,4.012-1.059,4.959-3.064l0.876-1.932l1.386,0.4l-1.093,6.346H54.616v-1.385
					c3.428-0.73,3.611-0.84,3.611-2.188V5.902c0-1.386-0.183-1.458-3.611-2.151V2.364z M90.212,22.239l0.766,0.914
					c-1.531,2.26-4.048,3.828-6.966,3.828c-4.704,0-8.132-3.391-8.132-8.68c0-5.142,3.792-9.19,8.752-9.19
					c3.902,0,5.652,2.115,5.652,3.792c0,1.386-0.874,2.808-3.392,2.372l-0.401-0.621c0.657-1.641,0.949-4.121-1.786-4.121
					c-2.808,0-3.938,3.209-3.938,7.112c0,3.865,1.824,6.527,4.96,6.527C87.366,24.173,88.862,23.519,90.212,22.239 M102.977,24.647
					v-9.41c0-1.969-0.729-2.845-2.151-2.845c-2.188,0-4.049,3.428-4.049,8.608v5.615h-4.595V3.896c0-1.35-0.109-1.422-2.333-2.151
					V0.358h7.11c-0.183,1.459-0.183,12.837-0.183,13.603h0.073c1.168-2.881,3.283-4.85,6.237-4.85c2.625,0,4.485,1.787,4.485,5.251
					v8.535c0,1.604,0.255,1.75,2.698,2.334v1.385c-2.078,0.219-3.719,0.365-4.74,0.365
					C103.853,26.981,102.977,26.251,102.977,24.647 M118.551,25.522c3.064,0,3.902-3.574,3.902-7.221
					c0-3.976-0.584-7.732-3.902-7.732c-3.062,0-3.902,3.574-3.902,7.222C114.648,21.767,115.304,25.522,118.551,25.522
					 M118.187,26.981c-4.961,0-8.425-3.283-8.425-8.389c0-5.689,3.574-9.481,9.153-9.481c4.961,0,8.424,3.282,8.424,8.388
					C127.339,23.188,123.766,26.981,118.187,26.981 M134.015,26.981c-4.23,0-5.799-1.713-5.799-3.463
					c0-1.352,1.349-2.555,3.064-2.191l0.474,0.584c-1.094,1.896-0.292,3.611,2.479,3.611c1.75,0,2.99-0.949,2.99-2.406
					c0-1.715-1.423-2.408-3.609-3.283c-3.101-1.24-4.924-2.662-4.924-5.507c0-2.809,2.48-5.215,6.236-5.215
					c4.012,0,5.799,1.896,5.799,3.537c0,1.313-1.168,2.589-3.209,2.152l-0.402-0.583c1.241-1.678,0.62-3.647-2.115-3.647
					c-1.641,0-2.735,1.021-2.735,2.37c0,1.605,1.714,2.371,3.685,3.064c3.062,1.058,5.579,2.479,5.579,5.616
					C141.527,24.794,139.267,26.981,134.015,26.981"/>
			</g>
		</g>
	</g>
</g>
<rect x="0.223" y="31.044" fill="#C91716" width="141.268" height="1.768"/>
</svg>
