<svg height="30" width="140" xmlns="http://www.w3.org/2000/svg"><clipPath id="a"><path d="M0 0h140v30H0z"/></clipPath><g clip-path="url(#a)"><path d="M49.403 3.481h-7.032v9.157h-7.32V3.481h-7.033v23.037h7.032v-9.062h7.32v9.062h7.032zm24.461 18.406V3.479h-7.032v23.037h12.715l1.057-4.629zM61.633 3.479h-7.032v23.037h7.032zm28.508 0h-7.029v23.037h7.029zm34.669 5.88c0-1.254 1.254-1.833 3.274-1.833a17.614 17.614 0 0 1 6.263 1.162l-.576-5.016a27.507 27.507 0 0 0-6.453-.674c-5.683 0-9.536 2.243-9.536 6.94 0 8.1 10.983 6.459 10.983 10.217 0 1.444-1.064 2.213-3.663 2.213a21.033 21.033 0 0 1-7.995-1.83l.773 5.3a23.209 23.209 0 0 0 7.32 1.156c5.873 0 10.689-1.928 10.689-7.713 0-7.706-11.078-6.263-11.078-9.926m-19.836 11.664c6.544 0 10.689-3.375 10.689-9.255 0-6.456-4.43-8.77-11.655-8.77a79.383 79.383 0 0 0-8.571.481v23.037h7.032v-5.493zm3.755-9.157c0 2.986-1.444 5.012-5.107 5.012h-1.152v-9.52c.409-.023.792-.023 1.152-.023 3.467 0 5.107 1.637 5.107 4.531m-94.193 9.157c6.548 0 10.689-3.375 10.689-9.255 0-6.456-4.429-8.77-11.651-8.77a79.448 79.448 0 0 0-8.574.481v23.037h7.032v-5.493zm3.758-9.157c0 2.986-1.447 5.012-5.107 5.012h-1.156v-9.52c.409-.023.8-.023 1.156-.023 3.467 0 5.107 1.637 5.107 4.531" fill="#0b5ed7"/></g></svg>