<?xml version="1.0" encoding="utf-8"?>
<!-- Generator: Adobe Illustrator 22.1.0, SVG Export Plug-In . SVG Version: 6.00 Build 0)  -->
<svg version="1.1" id="logo" xmlns="http://www.w3.org/2000/svg" xmlns:xlink="http://www.w3.org/1999/xlink" x="0px" y="0px"
	 viewBox="0 0 165.9 49.4" style="enable-background:new 0 0 165.9 49.4;" xml:space="preserve">
<style type="text/css">
	.st0{fill:#BF0000;}
</style>
<polygon id="shape" class="st0" points="133.5,41.4 33.2,41.4 41.2,49.4 "/>
<path id="n" class="st0" d="M149.6,36.3v-16c0-3,2.1-5.5,5.1-5.5c3,0,5.1,2.5,5.1,5.5v16h6.2v-16c0-6.6-4.5-11.9-11.1-11.9
	c-3,0-5.3,1.7-5.3,1.7V9h-6.2v27.2H149.6z"/>
<path id="e" class="st0" d="M129.1,8.3c-7.2,0-12.3,6.3-12.3,14.3c0,8.4,6.4,14.3,12.9,14.3c3.3,0,7.4-1.1,10.9-6.1l-5.5-3.2
	c-4.2,6.2-11.3,3.1-12.1-3.2l17.8,0C142.4,14.8,136.1,8.3,129.1,8.3z M134.5,19.1h-11.1C124.7,12.8,133.3,12.4,134.5,19.1z"/>
<path id="t" class="st0" d="M114.8,29.8c-0.6,0.4-1.3,0.7-2.1,0.7c-1,0-2.9-0.8-2.9-3.3V15.5h5.3V9h-5.3l0-6.8h-6.2l0,6.8h-3.3v6.5
	h3.3v11.7c0,6.1,4.6,9.7,9.2,9.7c1.7,0,4.1-0.6,6-1.7L114.8,29.8z"/>
<path id="u" class="st0" d="M92,9v16c0,3-2.1,5.5-5.1,5.5c-3,0-5.1-2.5-5.1-5.5V9h-6.2v16c0,6.6,4.5,11.9,11.1,11.9
	c3,0,5.3-1.7,5.3-1.7v1h6.2V9H92z"/>
<polygon id="k" class="st0" points="64,21.8 74.6,9 66,9 58.5,18.5 58.5,0 52.2,0 52.2,36.3 58.5,36.3 58.5,25.1 67.7,36.3 
	76.3,36.3 "/>
<path id="a" class="st0" d="M42.5,9v1.2c-1.9-1.2-3.5-1.9-5.8-1.9c-7,0-12.4,6.4-12.4,14.3c0,7.9,5.3,14.3,12.4,14.3
	c2.3,0,4-0.7,5.8-1.9v1.2h6.2V9H42.5z M36.6,30.4c-3.5,0-6-3.4-6-7.7c0-4.3,2.5-7.7,6-7.7c3.5,0,5.9,3.4,5.9,7.7
	C42.6,27,40.1,30.4,36.6,30.4z"/>
<path id="R" class="st0" d="M6.5,36.3V25.7H11l7.9,10.5H27l-9.6-12.7c3-2.1,4.9-5.6,4.9-9.6c0-6.5-5.3-11.7-11.7-11.7H0v34H6.5z
	 M6.5,8.7h4.2c2.9,0,5.3,2.4,5.3,5.3c0,2.9-2.4,5.3-5.3,5.3H6.5V8.7z"/>
</svg>
