<svg width="88" height="27" viewBox="0 0 88 27" fill="none" xmlns="http://www.w3.org/2000/svg">
<path d="M10 4.59999C8 3.69999 6.8 3.39999 5.6 3.39999C4.4 3.39999 3.6 3.79999 3.6 4.49999C3.6 6.59999 10.6 5.99999 10.6 10.8C10.6 13.5 8.4 15 5.3 15C2.9 15 1.7 14.4 0.300003 13.7V10.7C2.3 12 3.5 12.5 5 12.5C6.3 12.5 7 12 7 11.2C7 8.89999 0 9.79999 0 4.79999C0 2.39999 2.1 0.799988 5.3 0.799988C6.8 0.799988 8.2 1.09999 10 1.89999V4.59999V4.59999ZM19.9 14.4C18.7 14.8 17.7 15 16.7 15C13.4 15 11.3 13.1 11.3 10.2C11.3 7.39999 13.5 5.29999 16.6 5.29999C17.5 5.29999 18.8 5.49999 19.7 5.89999V8.09999C18.9 7.69999 18 7.49999 17.3 7.49999C15.5 7.49999 14.4 8.59999 14.4 10.2C14.4 11.9 15.5 12.9 17.2 12.9C17.9 12.9 18.5 12.7 19.8 12.3V14.4H19.9ZM47.2 5.29999C44.3 5.29999 42.3 7.29999 42.3 10.2C42.3 13.1 44.4 15 47.7 15C48.4 15 50.2 15 51.9 13.8V11.9C50.5 12.9 49.6 13.2 48.5 13.2C46.7 13.2 45.5 12.2 45.4 10.6H52C52.1 7.29999 49.9 5.29999 47.2 5.29999V5.29999ZM45.4 9.09999C45.5 7.79999 46.3 7.09999 47.4 7.09999C48.5 7.09999 49.3 7.89999 49.4 9.09999H45.4V9.09999ZM53.1 14.8H56.1V5.49999H53.1V14.8ZM64.2 0.999988V5.89999C63.4 5.49999 62.6 5.29999 61.8 5.29999C59.1 5.29999 57.3 7.29999 57.3 10.1C57.3 12.9 59.1 14.9 61.6 14.9C62.6 14.9 63.4 14.6 64.2 14V14.8H67.1V0.999988H64.2ZM64.2 12.3C63.6 12.8 63.1 13 62.5 13C61.1 13 60.3 11.9 60.3 10.2C60.3 8.29999 61.2 7.29999 62.6 7.29999C63.1 7.29999 63.8 7.49999 64.2 7.79999V12.3V12.3ZM73.3 5.29999C70.4 5.29999 68.4 7.29999 68.4 10.2C68.4 13.1 70.5 15 73.8 15C74.5 15 76.3 15 78 13.8V11.9C76.6 12.9 75.7 13.2 74.5 13.2C72.7 13.2 71.5 12.2 71.4 10.6H78.1C78.2 7.29999 76 5.29999 73.3 5.29999V5.29999ZM71.5 9.09999C71.6 7.79999 72.4 7.09999 73.5 7.09999C74.6 7.09999 75.4 7.89999 75.5 9.09999H71.5ZM82.5 8.19999C83.4 6.29999 84.4 5.29999 85.5 5.29999C86.1 5.29999 86.6 5.49999 87.4 6.19999L86.6 8.79999C85.8 8.29999 85.3 8.09999 84.9 8.09999C83.8 8.09999 83.1 9.09999 82.5 10.8V14.8H79.6V5.49999H82.5V8.19999ZM56.2 1.59999C56.5 2.29999 56 3.29999 55.1 3.89999C54.2 4.39999 53.3 4.29999 53 3.49999C52.7 2.79999 53.2 1.79999 54.1 1.19999C55 0.699987 55.9 0.799988 56.2 1.59999ZM30.4 8.89999C30.4 6.39999 28.7 5.29999 27 5.29999C25.8 5.29999 24.9 5.79999 24.1 6.89999V0.999988H21.2V14.8H24V8.89999C24.7 7.89999 25.3 7.49999 26 7.49999C26.9 7.49999 27.5 8.09999 27.5 9.49999V12.8C28.5 12.3 29.5 12 30.4 11.9V8.89999V8.89999ZM37.7 5.29999C36.5 5.29999 35.6 5.69999 34.7 6.79999V5.49999H31.8V11.8C32.8 11.9 34.1 12.4 34.7 13.1V8.79999C35.5 7.59999 36 7.29999 36.7 7.29999C37.5 7.29999 38.2 7.79999 38.2 9.19999V14.9H41.1V8.89999C41.1 6.09999 39.2 5.29999 37.7 5.29999V5.29999ZM42.7 17.5H39.3V19.9H42.6V20.9H39.3V23.4H42.8V24.5H38.2V16.4H42.7V17.5ZM45.5 24.5H46.6V16.4H45.5V24.5ZM50.3 22H54C54 20 53.1 19.1 51.7 19.1C50.2 19.1 49.2 20.2 49.2 21.8C49.2 23.3 50.1 24.6 51.8 24.6C52.7 24.6 53.3 24.4 53.9 24V23C53.3 23.4 52.7 23.6 52.1 23.6C51 23.6 50.4 23 50.3 22V22ZM51.7 20C52.4 20 52.9 20.5 52.9 21.3H50.2C50.4 20.4 50.9 20 51.7 20ZM60.8 20.6C60.2 20.2 59.8 20.1 59.3 20.1C58.3 20.1 57.7 20.8 57.7 21.9C57.7 23 58.4 23.6 59.5 23.6C59.9 23.6 60.4 23.5 60.9 23.2V24.2C60.5 24.4 59.9 24.5 59.3 24.5C57.7 24.5 56.6 23.4 56.6 21.9C56.6 20.2 57.6 19 59.2 19C59.8 19 60.2 19.1 60.7 19.4V20.6H60.8ZM65.5 19.2H67.2V20.1H65.5V22.8C65.5 23.4 65.9 23.6 66.3 23.6C66.7 23.6 67.1 23.5 67.5 23.2V24.2C67.1 24.4 66.6 24.6 66.2 24.6C65.1 24.6 64.5 23.9 64.5 22.9V20.1H63.6V20L65.6 18.1V19.2H65.5ZM71.2 19.2V20.4C71.7 19.5 72.2 19.1 72.7 19.1C73.1 19.1 73.5 19.3 74 19.7L73.4 20.6C73.1 20.3 72.7 20.1 72.4 20.1C71.7 20.1 71.1 20.8 71.1 21.7V24.5H70.1V19.2H71.2ZM84.7 20.6C84.1 20.2 83.7 20.1 83.2 20.1C82.2 20.1 81.6 20.8 81.6 21.9C81.6 23 82.3 23.6 83.4 23.6C83.8 23.6 84.3 23.5 84.8 23.2V24.2C84.4 24.4 83.8 24.5 83.2 24.5C81.6 24.5 80.5 23.4 80.5 21.9C80.5 20.2 81.5 19 83.1 19C83.7 19 84.1 19.1 84.6 19.4V20.6H84.7ZM76.8 24.5H77.8V19.2H76.8V24.5ZM77.8 17.3C77.9 17.6 77.7 17.9 77.4 18.1C77.1 18.3 76.8 18.2 76.7 18C76.6 17.7 76.8 17.4 77.1 17.2C77.4 17 77.7 17 77.8 17.3ZM31.9 19.9L32.2 18.8H35C35.4 17.1 35.1 15.6 34.1 14.6C32.1 12.6 27.8 13.3 24.6 16.3C24.1 16.8 23.7 17.3 23.3 17.8H25L24.6 18.9H22.5C22.3 19.3 22.1 19.6 22 20H24.5L24.1 21.1H21.7C21.3 22.9 21.6 24.5 22.6 25.5C24.6 27.5 28.9 26.8 32.1 23.8C32.7 23.3 33.1 22.7 33.5 22.1H31.3L31.6 21H34.2C34.4 20.6 34.6 20.3 34.7 19.9H31.9V19.9ZM31.2 17.7C31 17.7 30.9 17.7 30.9 17.8C30.9 17.8 30.9 17.9 30.8 17.9L29.9 21.4C29.7 22.6 28.2 23.9 26.2 23.9H23.4L23.9 22.1H25.7C25.9 22.1 26 22 26.1 21.9C26.1 21.8 26.2 21.8 26.2 21.7L26.9 18.6C27.2 17.4 28.5 16 30.5 16H33.3L32.9 17.7H31.2V17.7Z" fill="white"/>
</svg>
