<svg width="88" height="27" fill="none" xmlns="http://www.w3.org/2000/svg"><path d="M10 4.6c-2-.9-3.2-1.2-4.4-1.2-1.2 0-2 .4-2 1.1 0 2.1 7 1.5 7 6.3 0 2.7-2.2 4.2-5.3 4.2-2.4 0-3.6-.6-5-1.3v-3c2 1.3 3.2 1.8 4.7 1.8 1.3 0 2-.5 2-1.3 0-2.3-7-1.4-7-6.4 0-2.4 2.1-4 5.3-4 1.5 0 2.9.3 4.7 1.1v2.7zm9.9 9.8c-1.2.4-2.2.6-3.2.6-3.3 0-5.4-1.9-5.4-4.8 0-2.8 2.2-4.9 5.3-4.9.9 0 2.2.2 3.1.6v2.2c-.8-.4-1.7-.6-2.4-.6-1.8 0-2.9 1.1-2.9 2.7 0 1.7 1.1 2.7 2.8 2.7.7 0 1.3-.2 2.6-.6v2.1h.1zm27.3-9.1c-2.9 0-4.9 2-4.9 4.9 0 2.9 2.1 4.8 5.4 4.8.7 0 2.5 0 4.2-1.2v-1.9c-1.4 1-2.3 1.3-3.4 1.3-1.8 0-3-1-3.1-2.6H52c.1-3.3-2.1-5.3-4.8-5.3zm-1.8 3.8c.1-1.3.9-2 2-2s1.9.8 2 2h-4zm7.7 5.7h3V5.5h-3v9.3zM64.2 1v4.9c-.8-.4-1.6-.6-2.4-.6-2.7 0-4.5 2-4.5 4.8s1.8 4.8 4.3 4.8c1 0 1.8-.3 2.6-.9v.8h2.9V1h-2.9zm0 11.3c-.6.5-1.1.7-1.7.7-1.4 0-2.2-1.1-2.2-2.8 0-1.9.9-2.9 2.3-2.9.5 0 1.2.2 1.6.5v4.5zm9.1-7c-2.9 0-4.9 2-4.9 4.9 0 2.9 2.1 4.8 5.4 4.8.7 0 2.5 0 4.2-1.2v-1.9c-1.4 1-2.3 1.3-3.5 1.3-1.8 0-3-1-3.1-2.6h6.7c.1-3.3-2.1-5.3-4.8-5.3zm-1.8 3.8c.1-1.3.9-2 2-2s1.9.8 2 2h-4zm11-.9c.9-1.9 1.9-2.9 3-2.9.6 0 1.1.2 1.9.9l-.8 2.6c-.8-.5-1.3-.7-1.7-.7-1.1 0-1.8 1-2.4 2.7v4h-2.9V5.5h2.9v2.7zM56.2 1.6c.3.7-.2 1.7-1.1 2.3-.9.5-1.8.4-2.1-.4-.3-.7.2-1.7 1.1-2.3.9-.5 1.8-.4 2.1.4zM30.4 8.9c0-2.5-1.7-3.6-3.4-3.6-1.2 0-2.1.5-2.9 1.6V1h-2.9v13.8H24V8.9c.7-1 1.3-1.4 2-1.4.9 0 1.5.6 1.5 2v3.3c1-.5 2-.8 2.9-.9v-3zm7.3-3.6c-1.2 0-2.1.4-3 1.5V5.5h-2.9v6.3c1 .1 2.3.6 2.9 1.3V8.8c.8-1.2 1.3-1.5 2-1.5.8 0 1.5.5 1.5 1.9v5.7h2.9v-6c0-2.8-1.9-3.6-3.4-3.6zm5 12.2h-3.4v2.4h3.3v1h-3.3v2.5h3.5v1.1h-4.6v-8.1h4.5v1.1zm2.8 7h1.1v-8.1h-1.1v8.1zm4.8-2.5H54c0-2-.9-2.9-2.3-2.9-1.5 0-2.5 1.1-2.5 2.7 0 1.5.9 2.8 2.6 2.8.9 0 1.5-.2 2.1-.6v-1c-.6.4-1.2.6-1.8.6-1.1 0-1.7-.6-1.8-1.6zm1.4-2c.7 0 1.2.5 1.2 1.3h-2.7c.2-.9.7-1.3 1.5-1.3zm9.1.6c-.6-.4-1-.5-1.5-.5-1 0-1.6.7-1.6 1.8s.7 1.7 1.8 1.7c.4 0 .9-.1 1.4-.4v1c-.4.2-1 .3-1.6.3-1.6 0-2.7-1.1-2.7-2.6 0-1.7 1-2.9 2.6-2.9.6 0 1 .1 1.5.4v1.2h.1zm4.7-1.4h1.7v.9h-1.7v2.7c0 .6.4.8.8.8s.8-.1 1.2-.4v1c-.4.2-.9.4-1.3.4-1.1 0-1.7-.7-1.7-1.7v-2.8h-.9V20l2-1.9v1.1h-.1zm5.7 0v1.2c.5-.9 1-1.3 1.5-1.3.4 0 .8.2 1.3.6l-.6.9c-.3-.3-.7-.5-1-.5-.7 0-1.3.7-1.3 1.6v2.8h-1v-5.3h1.1zm13.5 1.4c-.6-.4-1-.5-1.5-.5-1 0-1.6.7-1.6 1.8s.7 1.7 1.8 1.7c.4 0 .9-.1 1.4-.4v1c-.4.2-1 .3-1.6.3-1.6 0-2.7-1.1-2.7-2.6 0-1.7 1-2.9 2.6-2.9.6 0 1 .1 1.5.4v1.2h.1zm-7.9 3.9h1v-5.3h-1v5.3zm1-7.2c.1.3-.1.6-.4.8-.3.2-.6.1-.7-.1-.1-.3.1-.6.4-.8.3-.2.6-.2.7.1zm-45.9 2.6.3-1.1H35c.4-1.7.1-3.2-.9-4.2-2-2-6.3-1.3-9.5 1.7-.5.5-.9 1-1.3 1.5H25l-.4 1.1h-2.1c-.2.4-.4.7-.5 1.1h2.5l-.4 1.1h-2.4c-.4 1.8-.1 3.4.9 4.4 2 2 6.3 1.3 9.5-1.7.6-.5 1-1.1 1.4-1.7h-2.2l.3-1.1h2.6c.2-.4.4-.7.5-1.1h-2.8zm-.7-2.2c-.2 0-.3 0-.3.1 0 0 0 .1-.1.1l-.9 3.5c-.2 1.2-1.7 2.5-3.7 2.5h-2.8l.5-1.8h1.8c.2 0 .3-.1.4-.2 0-.1.1-.1.1-.2l.7-3.1c.3-1.2 1.6-2.6 3.6-2.6h2.8l-.4 1.7h-1.7z" fill="#fff"/></svg>