<svg width="239" height="60" xmlns="http://www.w3.org/2000/svg"><g fill="none"><path d="M25.641 15.978c-1.08-2.863-1.759-7.443-1.759-9.04a5.522 5.522 0 0 1 11.044 0c0 1.59-.674 6.139-1.75 9.005 9.543.514 22.807 2.959 23.417 6.211.684 3.666.945 12.881.945 21.923 0 7.842-13.972 12.964-27.81 12.964-13.845 0-27.81-5.122-27.81-12.964 0-9.042.255-18.257.945-21.923.594-3.182 13.293-5.591 22.778-6.176z" fill="#FFF"/><path d="M21.898 41.333a1.918 1.918 0 0 1-1.92 1.915 1.918 1.918 0 0 1-1.922-1.915c0-1.058.863-1.92 1.921-1.92 1.059 0 1.92.862 1.92 1.92m15.079 8.651a1.543 1.543 0 0 1-.619 2.081c-.113.054-2.693 1.427-6.647 1.427-3.96 0-6.51-1.373-6.617-1.433a1.536 1.536 0 0 1-.607-2.086 1.531 1.531 0 0 1 2.075-.607c.054.024 2.045 1.058 5.149 1.058 3.133 0 5.16-1.052 5.185-1.058a1.532 1.532 0 0 1 2.08.618m8.253-8.651a1.918 1.918 0 0 1-3.835 0c0-1.058.862-1.92 1.92-1.92 1.059 0 1.915.862 1.915 1.92" fill="#0D1419"/><path d="M41.393 45.168a5.763 5.763 0 0 1-5.755-5.755 5.764 5.764 0 0 1 5.755-5.755 5.76 5.76 0 0 1 5.755 5.755 5.76 5.76 0 0 1-5.755 5.755m0-14.388a8.632 8.632 0 0 0-8.633 8.633 8.632 8.632 0 0 0 8.633 8.633 8.632 8.632 0 0 0 8.633-8.633 8.632 8.632 0 0 0-8.633-8.633" fill="#0D1419"/><path d="M3.899 43.517c0-8.398.237-16.956.878-20.36.593-3.18 14.192-5.528 23.094-5.83v-6.098a3.825 3.825 0 0 1 1.53-7.33 3.829 3.829 0 0 1 3.832 3.825 3.82 3.82 0 0 1-2.301 3.505v6.08c8.873.207 23.136 2.592 23.747 5.847.635 3.405.878 11.963.878 20.361 0 7.284-12.977 12.04-25.83 12.04-12.858 0-25.828-4.756-25.828-12.04zm42.144-28.356c-3.479-.713-7.534-1.254-11.267-1.534v-.476a7.687 7.687 0 0 0 2.3-5.481c0-4.227-3.442-7.67-7.675-7.67-4.227 0-7.67 3.443-7.67 7.67 0 2.099.856 4.06 2.3 5.481v.53c-3.554.291-7.342.808-10.618 1.48C5.315 16.821 1.581 18.996.94 22.433.119 26.82 0 37.546 0 43.55c0 10.33 15.316 15.906 29.728 15.906s29.728-5.577 29.728-15.905c0-6.005-.125-16.73-.946-21.118-.642-3.437-4.37-5.613-12.467-7.272z" fill="#0D1419"/><path d="M18.056 45.168a5.758 5.758 0 0 1-5.749-5.755 5.759 5.759 0 0 1 5.75-5.755 5.76 5.76 0 0 1 5.755 5.755 5.76 5.76 0 0 1-5.756 5.755m0-14.388c-4.762 0-8.626 3.865-8.626 8.633 0 4.768 3.864 8.633 8.627 8.633a8.632 8.632 0 0 0 8.633-8.633 8.632 8.632 0 0 0-8.634-8.633" fill="#0D1419"/><g transform="translate(69.873 21.266)" fill="#0D1419"><path d="M17.758 4.681h-7.104V22.87H7.103V4.681H0v-3.35h17.758v3.35m10.358 4.785H23.38c-.8 0-1.185.48-1.185 1.437v11.966h-3.551V10.903c0-3.263 1.509-4.787 4.736-4.787h4.735v3.35m13.91 5.386-7.104 1.794c-1.065.268-1.184.63-1.184 1.436 0 .958.386 1.436 1.184 1.436h5.92c.799 0 1.182-.478 1.182-1.436v-3.23h.002zm3.552-3.949v7.178c0 3.258-1.509 4.785-4.734 4.785h-5.921c-3.225 0-4.735-1.527-4.735-4.785 0-1.438.474-2.423 1.51-3.022 1.065-.629 1.687-.837 3.225-1.226l7.104-1.794v-1.135c0-.958-.386-1.437-1.182-1.437h-5.92c-.8 0-1.184.48-1.184 1.437V12.1h-3.552v-1.196c0-3.262 1.51-4.787 4.735-4.787h5.92c3.225 0 4.734 1.523 4.734 4.786zm15.243 0c0-.958-.386-1.437-1.183-1.437h-5.92c-.8 0-1.185.48-1.185 1.437v11.966h-3.55V10.903c0-3.263 1.509-4.787 4.734-4.787h5.921c3.225 0 4.734 1.524 4.734 4.787v11.966h-3.552V10.903M78.28 22.87h-5.92c-3.227 0-4.735-1.528-4.735-4.788v-1.195h3.553v1.195c0 .958.384 1.436 1.181 1.436h5.922c.8 0 1.182-.478 1.182-1.436 0-.687 0-1.018-1.182-1.436l-5.922-1.496c-1.539-.39-2.16-.597-3.226-1.196-1.036-.629-1.508-1.615-1.508-3.051 0-3.263 1.508-4.787 4.734-4.787h5.922c3.225 0 4.733 1.524 4.733 4.787v1.196h-3.55v-1.196c0-.958-.385-1.437-1.182-1.437H72.36c-.799 0-1.18.48-1.18 1.437 0 .685 0 1.016 1.18 1.436l5.922 1.494c1.539.392 2.159.6 3.197 1.228 1.065.597 1.538 1.585 1.538 3.021-.001 3.26-1.51 4.787-4.736 4.787m12.134-3.352h2.958v3.349h-2.958c-2.961 0-4.143-1.196-4.143-4.188V1.329h3.551v17.35c0 .599.089.838.592.838m17.017-8.614c0-.958-.387-1.437-1.184-1.437h-5.919c-.802 0-1.183.48-1.183 1.437v7.178c0 .955.384 1.436 1.183 1.436h5.92c.799 0 1.182-.48 1.182-1.436v-7.178zm3.552 0v7.178c0 3.258-1.452 4.785-4.736 4.785h-5.919c-3.286 0-4.735-1.527-4.735-4.785v-7.178c0-3.263 1.451-4.787 4.735-4.787h5.92c3.285 0 4.735 1.524 4.735 4.787zm14.946 3.949-7.103 1.794c-1.067.268-1.185.63-1.185 1.436 0 .958.385 1.436 1.185 1.436h5.92c.798 0 1.183-.478 1.183-1.436v-3.23zm3.55-3.949v7.178c0 3.258-1.507 4.785-4.733 4.785h-5.92c-3.225 0-4.735-1.527-4.735-4.785 0-1.438.474-2.423 1.51-3.022 1.064-.629 1.685-.837 3.226-1.226l7.103-1.794v-1.135c0-.958-.387-1.437-1.184-1.437h-5.92c-.8 0-1.184.48-1.184 1.437V12.1h-3.551v-1.196c0-3.262 1.51-4.787 4.736-4.787h5.92c3.224 0 4.732 1.523 4.732 4.786zm15.095 7.179V9.467h-7.103c-.802 0-1.184.478-1.184 1.436v7.178c0 .958.384 1.436 1.184 1.436h5.92c.797 0 1.183-.477 1.183-1.435zm3.55-16.752v16.752c0 3.26-1.45 4.787-4.734 4.787h-5.92c-3.286 0-4.734-1.527-4.734-4.787v-7.178c0-3.261 1.449-4.786 4.735-4.786h7.103V1.331h3.55zm7.103 4.931v16.605h-3.55V6.26z"/><circle cx="153.323" cy="2.27" r="2.27"/><path d="M168.251 19.517v3.349h-5.327c-2.958 0-4.141-1.196-4.141-4.188V1.329h3.55v4.787h5.327v3.35h-5.327v9.21c0 .6.09.84.591.84h5.327"/></g></g></svg>