<svg xmlns="http://www.w3.org/2000/svg" width="400" height="95.374" viewBox="0 0 400 NaN" xmlns:v="https://vecta.io/nano"><path d="M9.083 3.734c-2.601.644-4.712 2.811-5.453 5.599-.269 1.011-.288 3.552-.292 37.756l-.005 36.673.389 1.185c.717 2.191 1.996 3.72 3.972 4.752l1.056.551H199.5h190.75l1.27-.621c2.073-1.013 3.468-2.753 4.06-5.066.406-1.585.299-74.822-.111-75.813-1.016-2.459-2.557-4.016-4.841-4.893-.944-.363-380.082-.485-381.545-.123m60.34 16.762c6.766.88 12.055 5.657 13.934 12.587.698 2.574.117 7.149-1.256 9.881l-.717 1.427.628 1.596c2.993 7.61.124 14.218-8.524 19.633l-2.999 1.88c-7.768 4.887-8.772 5.458-10.239 5.818l-1.583.402c-3.733.979-9.485-.387-13.084-3.106-2.086-1.576-3.416-3.136-4.849-5.688-2.117-3.767-2.118-9.356-.003-13.556.715-1.419.714-1.408.193-2.587-3.067-6.934-.346-14.608 6.659-18.785.367-.219 1.642-1.033 2.834-1.809 9.298-6.059 10.345-6.623 13.916-7.5 1.427-.351 3.324-.422 5.09-.193m-3.19 6.004c-1.741.255-2.849.792-6.483 3.139L57 31.415c-9.405 6.072-9.654 6.288-10.53 9.154-2.621 8.578 7.086 15.387 14.941 10.479C66.007 48.177 66.34 48 67.16 48c2.032 0 3.558 2.267 2.681 3.985-.373.731-.545.868-3.341 2.664l-2.917 1.877c-7.92 5.111-8.12 5.21-9.565 4.73-1.196-.397-1.878-1.338-2.255-3.112-.079-.375-.285-.506-1.408-.897a15.83 15.83 0 0 1-2.703-1.34c-1.68-1.068-1.901-1.027-2.09.384-.888 6.633 3.538 11.74 9.976 11.512 2.468-.087 3.545-.567 8.712-3.882l4.805-3.065c6.017-3.753 7.206-5.109 7.586-8.65.467-4.362-1.887-8.239-6.055-9.972-1.358-.564-5.673-.731-6.686-.258l-1.067.491c-.321.146-1.645.958-2.944 1.804-3.906 2.547-4.897 2.755-6.322 1.329-1.553-1.552-1.12-3.343 1.168-4.838l7.348-4.752 3.399-2.219c2.389-1.671 4.952-.779 5.328 1.853l.11.77 1.418.585c.78.321 2.023.941 2.763 1.376 1.984 1.168 2.26.901 2.285-2.208.047-5.833-5.357-10.518-11.153-9.667m85.003 2.434c.238.092.264 1.471.264 13.897v13.796l.507.496c.757.74.702 3.026-.076 3.234-1.547.412-3.138-.558-3.378-2.061-.157-.981-.381-1.134-.902-.614-.626.626-2.837 2.151-3.127 2.157-.151.003-.42.115-.598.25s-.481.244-.675.244-.43.079-.526.175c-.103.103-1.023.176-2.242.177-8.238.008-13.366-8.981-9.742-17.077 2.965-6.625 10.82-8.323 15.944-3.446.666.634 1.272 1.115 1.346 1.069s.136-2.765.136-6.041c0-4.411.052-6.009.2-6.157.208-.208 2.389-.283 2.869-.099m8.935.327c.286.753.205 3.583-.113 3.934-.379.419-2.466.439-2.92.029-.421-.381-.455-3.716-.043-4.129.495-.495 2.873-.366 3.076.166m103.363.483c4.736.776 7.882 3.995 8.637 8.836.544 3.496-1.221 7.826-3.85 9.444-.986.606-1.21.947-.935 1.422l1.11 1.887c.163.258 3.483 5.685 4.026 6.582.915 1.513 1.174 2.131.951 2.272-.399.253-6.584.18-6.836-.081-.121-.125-1.233-1.889-2.47-3.92l-2.919-4.73-.669-1.039h-2.665-2.664l-.043 4.75c-.038 4.228-.074 4.773-.323 4.958-.294.218-5.258.31-5.787.107-.283-.108-.416-29.912-.136-30.332.234-.35.656-.374 6.872-.384 4.666-.008 6.618.05 7.701.228m33.972.089c.09.14.142 1.355.119 2.75l-.042 2.5-7.25.084-7.25.083-.045 3.268c-.036 2.593.002 3.308.181 3.457.157.13 2.099.201 6.296.231l6.068.044.047 2.31c.062 3.084.747 2.773-6.109 2.776-3.174.001-5.941.047-6.149.103l-.379.102.045 3.521.045 3.521 7.284.084c5.656.064 7.332.131 7.5.299.3.3.41 4.784.125 5.127-.25.301-20.612.366-21.17.068-.315-.169-.322-.512-.322-15.052 0-15.464-.009-15.248.667-15.495.663-.243 20.178-.032 20.339.219m18.34-.074c.955.143 1.809.33 1.896.417a.65.65 0 0 0 .402.157c.484 0 2.679 1.526 3.52 2.446 5.311 5.811 2.805 15.275-4.544 17.16-.729.187-2.222.297-5.037.372l-4 .106-.044 4.856-.044 4.856-.372.1c-.641.171-5.459.115-5.801-.068-.315-.169-.322-.512-.322-15.052 0-15.464-.009-15.252.667-15.493.643-.23 11.972-.111 13.679.143m17.712.053c.251.209.275 1.288.275 12.342 0 9.199.048 12.161.2 12.313s2.018.2 7.38.2c6.228 0 7.229.034 7.55.259.49.343.586 5.122.107 5.306s-20.899.115-21.248-.071c-.525-.281-.503-29.814.023-30.339.429-.429 5.199-.438 5.713-.01m-163.88.527c.302.162.322.382.322 3.578 0 4.065-.23 3.75 2.733 3.75 2.436 0 2.484.032 2.4 1.629l-.05.954-2.333.083c-1.283.046-2.427.144-2.542.219-.161.104-.208 1.827-.208 7.683v7.549l.375.549c.824 1.207 2.161 1.452 4.046.743 1.409-.531 1.55-.5 1.923.424.618 1.526.515 1.745-1.177 2.479-2.544 1.104-6.125.689-7.434-.861-1.086-1.287-1.059-1.024-1.063-10.225-.003-7.465-.031-8.368-.267-8.459-.145-.055-.739-.101-1.32-.101-1.525 0-1.583-.041-1.583-1.129 0-1.306.25-1.537 1.659-1.537 1.558 0 1.508.122 1.508-3.688 0-3.893-.034-3.812 1.606-3.812.595 0 1.227.077 1.405.172m85.6 4.939c-.269.268-.122 9.182.152 9.288.737.282 7.247.102 7.868-.218 3.613-1.861 3.269-7.601-.532-8.885-.868-.293-7.223-.451-7.488-.185m52.833 0c-.268.268-.122 9.182.153 9.288.845.324 6.492.095 7.319-.298 3.59-1.701 3.234-7.614-.531-8.823-.884-.285-6.684-.424-6.941-.167m-188.194 2.589c4.643 1.536 7.75 6.099 7.75 11.38 0 1.045.437.995-9.584 1.086l-9.166.084-.051.687c-.137 1.88 2.171 5.04 4.551 6.229 2.961 1.481 7.338.429 9.111-2.19.665-.982.975-1.086 2.155-.722l1.109.34c.524.156.083 1.323-.92 2.433-1.702 1.884-4.585 3.305-7.205 3.552-1.623.153-4.964-.314-5.409-.756-.087-.086-.254-.157-.372-.157-1.156 0-4.198-2.849-5.336-5-4.964-9.372 3.573-20.208 13.367-16.966m82.45-.096c.247.126.547.229.666.229.443 0 2.362 1.11 3.313 1.917 6.633 5.624 4.857 17.488-3.013 20.123l-1.416.471c-.79.261-4.74.29-5.298.04a16.92 16.92 0 0 0-1.255-.452c-8.93-2.891-9.876-16.872-1.447-21.376 2.435-1.302 6.795-1.793 8.45-.952m27.411.248c3.099 1.463 3.57 3.287 3.668 14.216.079 8.888.232 8.092-1.557 8.096-1.906.004-1.722.713-1.726-6.64-.003-7.28-.178-9.373-.914-10.928-.44-.929-1.435-1.93-1.92-1.93a.69.69 0 0 1-.427-.165c-1.533-1.532-7.071 1.509-8.667 4.76l-.485.989-.047 6.827c-.036 5.138-.097 6.858-.25 6.955-.241.153-2.477.179-2.856.033-.347-.133-.409-22.02-.064-22.365.275-.275 2.57-.268 2.749.008.074.115.172 1.033.218 2.042l.083 1.833.584-.603c3.3-3.412 8.208-4.735 11.611-3.128m-69.66.148c.403.797.3 21.776-.107 21.994-.418.223-2.438.223-2.855 0-.47-.252-.509-21.678-.041-22.196s2.716-.367 3.003.202m-44.701 2c-.184.078-.548.148-.81.155-2.175.053-5.648 3.859-5.81 6.365l-.047.73 7.657.043c4.211.024 7.714-.015 7.786-.086.481-.481-1.111-3.827-2.439-5.124-1.617-1.58-4.956-2.677-6.337-2.083m23.416.439l-1.333.609c-3.136 1.423-5.254 6.512-4.181 10.047 1.992 6.563 8.582 8.515 13.181 3.904 1.565-1.569 1.669-1.945 1.667-6.067v-3.317l-.58-1.036c-1.709-3.057-6.345-5.249-8.754-4.14m58.383.072c-5.277 1.923-7.375 8.478-4.291 13.41 4.278 6.843 14.082 3.339 14.073-5.03-.006-5.646-5.162-10.063-9.782-8.38" fill="#fc3c04" fill-rule="evenodd"/></svg>