<svg id="svelte" xmlns="http://www.w3.org/2000/svg" width="256" height="300" viewBox="0 0 256 300">
<path id="logotype" fill="#4a4a55" d="M44.41,265.87a14,14,0,0,1-8-2.26,11.53,11.53,0,0,1-4.66-6.18l4.86-1.78a9,9,0,0,0,3.18,3.84,8.31,8.31,0,0,0,4.81,1.42,7,7,0,0,0,4.59-1.39,4.83,4.83,0,0,0,1.71-4,4.25,4.25,0,0,0-.47-2A5.93,5.93,0,0,0,49.38,252a7,7,0,0,0-1.84-1.22c-.83-.41-1.51-.73-2.06-.94s-1.35-.51-2.41-.87c-1.32-.46-2.31-.83-3-1.09a23.69,23.69,0,0,1-2.61-1.32,9.63,9.63,0,0,1-2.43-1.83,8.76,8.76,0,0,1-1.46-2.41A8.11,8.11,0,0,1,33,239a8.29,8.29,0,0,1,3-6.45A11.79,11.79,0,0,1,44,229.94a12.16,12.16,0,0,1,7,1.89,9.11,9.11,0,0,1,3.69,5L50,238.43a5.53,5.53,0,0,0-2.31-2.56,7.77,7.77,0,0,0-4-1,6.23,6.23,0,0,0-3.9,1.09,3.66,3.66,0,0,0-1.41,3.07,3.22,3.22,0,0,0,1.09,2.39A7.61,7.61,0,0,0,41.68,243c.8.34,2,.78,3.63,1.34l2.2.82c.48.19,1.19.49,2.11.92a14.36,14.36,0,0,1,2.14,1.17,19.05,19.05,0,0,1,1.73,1.41A7.66,7.66,0,0,1,55,250.46a10.77,10.77,0,0,1,.89,2.24,10.13,10.13,0,0,1,.37,2.8A9.38,9.38,0,0,1,53,263.12,13,13,0,0,1,44.41,265.87Zm31.81-.6L64.31,230.54h5.56l7.89,24.21a39.48,39.48,0,0,1,1.09,4,39.48,39.48,0,0,1,1.09-4l7.79-24.21h5.51L81.38,265.27Zm27.54,0V230.54H125.3v4.86H108.92v9.53h10.57v4.86H108.92v10.62h17.47v4.86Zm35.78,0V230.54h5.16v29.77h17v5Zm41.58-29.77v29.77H176V235.5h-9.83v-5h24.81v5Zm20.49,29.77V230.54h21.54v4.86H206.77v9.53h10.57v4.86H206.77v10.62h17.47v4.86Z"/>
<path id="back" fill="#ff3e00" d="M191.87,52.11c-16.34-23.39-48.61-30.32-71.94-15.45L79,62.77A47,47,0,0,0,57.72,94.26,49.49,49.49,0,0,0,62.6,126a47.16,47.16,0,0,0-7,17.57,50.1,50.1,0,0,0,8.56,37.89c16.34,23.38,48.61,30.31,71.94,15.45l41-26.12a47,47,0,0,0,21.24-31.49,49.51,49.51,0,0,0-4.88-31.78,47.16,47.16,0,0,0,7-17.57,50.07,50.07,0,0,0-8.56-37.88"/>
<path id="front" fill="#fff" d="M115.93,183.7A32.55,32.55,0,0,1,81,170.75,30.11,30.11,0,0,1,75.85,148a29.12,29.12,0,0,1,1-3.83l.77-2.35,2.1,1.54a52.87,52.87,0,0,0,16,8l1.52.46-.14,1.52a9.17,9.17,0,0,0,1.65,6.09,9.79,9.79,0,0,0,10.52,3.9,9,9,0,0,0,2.52-1.1l41-26.11a8.53,8.53,0,0,0,3.85-5.71,9,9,0,0,0-1.55-6.87,9.82,9.82,0,0,0-10.52-3.9,9.08,9.08,0,0,0-2.51,1.1l-15.64,10a30.08,30.08,0,0,1-8.32,3.66A32.55,32.55,0,0,1,83.15,121.4,30.15,30.15,0,0,1,78,98.61,28.24,28.24,0,0,1,90.77,79.68l41-26.12a30,30,0,0,1,8.33-3.65,32.54,32.54,0,0,1,34.93,13,30.11,30.11,0,0,1,5.15,22.78,29.12,29.12,0,0,1-1,3.83l-.77,2.35-2.1-1.54a52.64,52.64,0,0,0-16-8l-1.52-.46.14-1.52a9.2,9.2,0,0,0-1.65-6.1,9.82,9.82,0,0,0-10.52-3.9,9,9,0,0,0-2.52,1.11l-41,26.11a8.49,8.49,0,0,0-3.85,5.7,9,9,0,0,0,1.55,6.87A9.81,9.81,0,0,0,111.45,114a9,9,0,0,0,2.52-1.11l15.63-10a29.5,29.5,0,0,1,8.32-3.66,32.54,32.54,0,0,1,34.93,12.95A30.11,30.11,0,0,1,178,135a28.26,28.26,0,0,1-12.77,18.94l-41,26.11a30.27,30.27,0,0,1-8.33,3.66"/></svg>
