<?xml version="1.0" encoding="UTF-8"?>
<!DOCTYPE svg PUBLIC "-//W3C//DTD SVG 1.1//EN" "http://www.w3.org/Graphics/SVG/1.1/DTD/svg11.dtd">
<!-- Creator: CorelDRAW 2017 -->
<svg xmlns="http://www.w3.org/2000/svg" xml:space="preserve" width="7.74711in" height="1.52247in" version="1.1" style="shape-rendering:geometricPrecision; text-rendering:geometricPrecision; image-rendering:optimizeQuality; fill-rule:evenodd; clip-rule:evenodd"
viewBox="0 0 7755.55 1524.13"
 xmlns:xlink="http://www.w3.org/1999/xlink">
 <defs>
  <style type="text/css">
   <![CDATA[
    .fil3 {fill:#00AFEF}
    .fil5 {fill:#FEFEFE;fill-rule:nonzero}
    .fil4 {fill:#FEFEFE;fill-rule:nonzero}
    .fil1 {fill:#454347;fill-rule:nonzero}
    .fil0 {fill:#00AFEF;fill-rule:nonzero}
    .fil2 {fill:#00AFEF;fill-rule:nonzero}
   ]]>
  </style>
 </defs>
 <g id="Layer_x0020_1">
  <metadata id="CorelCorpID_0Corel-Layer"/>
  <path class="fil0" d="M2476.26 852.63c90.82,70.04 136.53,162.35 136.53,276.62l0 6.83c0,96.16 -34.43,178.67 -102.69,246.94 -68.57,67.96 -150.77,101.8 -246.94,101.8l-809.05 0 0 -137.42 809.05 0c57.88,0 107.74,-20.77 149.59,-62.62 41.25,-41.26 61.73,-90.52 61.73,-148.7l0 -6.83c0,-58.17 -20.48,-108.03 -61.73,-149.58 -41.84,-41.26 -91.71,-61.74 -149.59,-61.74l-809.05 0 0 -138.3 809.05 0c66.78,0 118.72,-19.89 156.42,-59.95 33.24,-35.91 49.56,-80.43 49.56,-132.96 0,-53.42 -16.32,-97.65 -49.56,-133.26 -37.7,-40.96 -89.64,-61.73 -156.42,-61.73l-765.14 0c-23.15,0 -43.33,8.6 -59.95,25.22 -11.26,11.26 -18.71,23.97 -22.43,38.21 -20.53,-44.89 -49.18,-86.22 -85.95,-123.96 3.51,-3.93 7.18,-7.8 11.03,-11.59 43.33,-43.33 95.86,-65.3 157.3,-65.3l765.14 0c106.56,0 192.33,35.02 257.32,104.47 57.88,62.62 86.97,138.6 86.97,227.94 0,113.38 -43.63,202.12 -131.19,265.93z"/>
  <path class="fil0" d="M1012.08 254.29c105.66,0 195.59,37.4 270.38,112.19 75.39,74.79 113.08,165.31 113.08,271.27l0 847.06 -138.3 0 0 -566.88 -1118.93 0 0 566.88 -138.31 0 0 -847.06c0,-105.96 37.4,-196.48 112.19,-271.27 74.79,-74.79 165.02,-112.19 271.27,-112.19l628.62 0zm245.16 525.33l0 -141.87c0,-67.67 -24.05,-125.55 -72.13,-173.92 -48.08,-48.08 -105.66,-72.12 -173.03,-72.12l-628.62 0c-67.96,0 -125.84,24.04 -173.92,72.12 -47.49,48.38 -71.23,106.25 -71.23,173.92l0 141.87 1118.93 0z"/>
  <path class="fil1" d="M3834.74 818.69c76.12,304 -108.63,612.17 -412.62,688.3 -304.01,76.13 -612.17,-108.63 -688.3,-412.64 -60.08,-239.94 42.36,-482.42 237.64,-611.41l-67.6 -269.92 -30.81 7.72c-22.41,5.61 -45.13,-8.02 -50.75,-30.43l-7.91 -31.57c-5.61,-22.4 8.02,-45.13 30.43,-50.74l426.18 -106.73c22.42,-5.61 45.14,8.02 50.76,30.43l7.9 31.57c5.62,22.41 -8.01,45.13 -30.43,50.74l-27.06 6.78 67.84 270.9c231.78,22.88 434.91,188.1 494.73,427z"/>
  <path class="fil2" d="M3007.97 147.25c8.69,0 16.06,3.06 22.17,9.17 6.12,6.11 9.18,13.51 9.18,22.17l0 37.97c0,8.61 -3.06,15.99 -9.18,22.1 -6.11,6.12 -13.48,9.18 -22.17,9.18l-36.95 0c-8.64,0 -16.01,-3.06 -22.18,-9.18 -6.11,-6.11 -9.17,-13.49 -9.17,-22.1l0 -37.97c0,-8.66 3.06,-16.06 9.17,-22.17 6.17,-6.11 13.54,-9.17 22.18,-9.17l36.95 0zm20.05 31.35c0,-5.53 -1.95,-10.26 -5.83,-14.21 -3.92,-3.93 -8.66,-5.9 -14.22,-5.9l-36.95 0c-5.56,0 -10.29,1.97 -14.22,5.9 -3.88,3.95 -5.83,8.68 -5.83,14.21l0 37.97c0,5.49 1.95,10.21 5.83,14.15 3.93,3.93 8.66,5.9 14.22,5.9l36.95 0c5.55,0 10.29,-1.96 14.22,-5.9 3.88,-3.93 5.83,-8.66 5.83,-14.15l0 -37.97z"/>
  <path class="fil2" d="M3024.07 633.3c5.08,1.95 7.62,5.7 7.62,11.17l0 123.03 -15.17 0 0 -113.23 -28.61 38.35 -12.12 -9.05 34.73 -46.55c1.54,-2.03 3.52,-3.39 5.99,-4.11 1.04,-0.33 2.08,-0.45 3.16,-0.45 1.46,0 2.93,0.26 4.39,0.84z"/>
  <path class="fil2" d="M3071.72 280.09c8.69,0 16.07,3.05 22.18,9.17 6.11,6.11 9.17,13.51 9.17,22.18l0 37.97c0,8.61 -3.06,15.99 -9.17,22.1 -6.11,6.11 -13.49,9.17 -22.18,9.17l-36.95 0c-8.63,0 -16.01,-3.05 -22.17,-9.17 -6.11,-6.12 -9.17,-13.49 -9.17,-22.1l0 -37.97c0,-8.66 3.06,-16.06 9.17,-22.18 6.17,-6.12 13.54,-9.17 22.17,-9.17l36.95 0zm20.04 31.35c0,-5.53 -1.95,-10.26 -5.82,-14.22 -3.93,-3.93 -8.67,-5.9 -14.22,-5.9l-36.95 0c-5.55,0 -10.28,1.97 -14.21,5.9 -3.88,3.95 -5.83,8.68 -5.83,14.22l0 37.97c0,5.48 1.95,10.21 5.83,14.15 3.93,3.93 8.66,5.89 14.21,5.89l36.95 0c5.55,0 10.29,-1.96 14.22,-5.89 3.87,-3.93 5.82,-8.66 5.82,-14.15l0 -37.97z"/>
  <path class="fil2" d="M3225.58 354.2c10.31,0 19.07,3.63 26.32,10.88 7.26,7.26 10.89,16.05 10.89,26.32l0 45.07c0,10.22 -3.64,18.97 -10.89,26.23 -7.25,7.26 -16.01,10.89 -26.32,10.89l-43.85 0c-10.25,0 -19,-3.63 -26.32,-10.89 -7.25,-7.26 -10.88,-16.01 -10.88,-26.23l0 -45.07c0,-10.28 3.63,-19.06 10.88,-26.32 7.32,-7.26 16.07,-10.88 26.32,-10.88l43.85 0zm23.79 37.21c0,-6.57 -2.31,-12.18 -6.91,-16.87 -4.66,-4.66 -10.28,-7 -16.88,-7l-43.85 0c-6.6,0 -12.2,2.34 -16.87,7 -4.61,4.69 -6.92,10.3 -6.92,16.87l0 45.07c0,6.51 2.31,12.12 6.92,16.79 4.67,4.67 10.27,7 16.87,7l43.85 0c6.59,0 12.22,-2.33 16.88,-7 4.6,-4.67 6.91,-10.28 6.91,-16.79l0 -45.07z"/>
  <path class="fil2" d="M3145.18 500.25c10.31,0 19.07,3.63 26.32,10.88 7.26,7.26 10.89,16.05 10.89,26.32l0 45.07c0,10.22 -3.64,18.97 -10.89,26.23 -7.25,7.26 -16.01,10.88 -26.32,10.88l-43.85 0c-10.25,0 -19,-3.63 -26.32,-10.88 -7.25,-7.26 -10.88,-16.01 -10.88,-26.23l0 -45.07c0,-10.27 3.63,-19.06 10.88,-26.32 7.32,-7.26 16.07,-10.88 26.32,-10.88l43.85 0zm23.79 37.2c0,-6.57 -2.31,-12.17 -6.91,-16.87 -4.66,-4.67 -10.29,-7 -16.88,-7l-43.85 0c-6.6,0 -12.2,2.34 -16.87,7 -4.6,4.69 -6.91,10.3 -6.91,16.87l0 45.07c0,6.51 2.31,12.12 6.91,16.79 4.67,4.67 10.27,6.99 16.87,6.99l43.85 0c6.59,0 12.22,-2.33 16.88,-6.99 4.6,-4.67 6.91,-10.28 6.91,-16.79l0 -45.07z"/>
  <path class="fil2" d="M3335.57 533.97c10.31,0 19.07,3.63 26.32,10.89 7.26,7.26 10.89,16.04 10.89,26.32l0 45.07c0,10.22 -3.63,18.97 -10.89,26.23 -7.25,7.26 -16.01,10.89 -26.32,10.89l-43.85 0c-10.24,0 -19,-3.63 -26.32,-10.89 -7.25,-7.26 -10.89,-16.01 -10.89,-26.23l0 -45.07c0,-10.28 3.63,-19.06 10.89,-26.32 7.32,-7.26 16.08,-10.89 26.32,-10.89l43.85 0zm23.79 37.21c0,-6.57 -2.31,-12.18 -6.91,-16.87 -4.66,-4.67 -10.28,-7 -16.88,-7l-43.85 0c-6.6,0 -12.21,2.34 -16.87,7 -4.61,4.69 -6.92,10.31 -6.92,16.87l0 45.07c0,6.5 2.31,12.12 6.92,16.79 4.66,4.66 10.27,7 16.87,7l43.85 0c6.59,0 12.22,-2.33 16.88,-7 4.6,-4.67 6.91,-10.28 6.91,-16.79l0 -45.07z"/>
  <path class="fil2" d="M3166.2 662.82c5.09,1.95 7.61,5.7 7.61,11.17l0 123.03 -15.17 0 0 -113.23 -28.61 38.35 -12.12 -9.05 34.74 -46.55c1.53,-2.02 3.52,-3.39 5.99,-4.1 1.04,-0.33 2.08,-0.45 3.16,-0.45 1.45,0 2.93,0.26 4.39,0.84z"/>
  <path class="fil2" d="M3317.44 700.02c6.01,2.31 9.01,6.74 9.01,13.2l0 145.4 -17.93 0 0 -133.81 -33.81 45.32 -14.32 -10.69 41.06 -55.02c1.81,-2.39 4.15,-4.01 7.07,-4.85 1.23,-0.39 2.46,-0.54 3.74,-0.54 1.72,0 3.46,0.3 5.18,1z"/>
  <path class="fil2" d="M2994.14 828.18c5.92,2.27 8.87,6.63 8.87,13l0 143.23 -17.66 0 0 -131.82 -33.31 44.64 -14.1 -10.54 40.44 -54.2c1.78,-2.35 4.09,-3.95 6.97,-4.78 1.21,-0.38 2.42,-0.53 3.69,-0.53 1.69,0 3.41,0.3 5.11,0.99z"/>
  <path class="fil2" d="M3480.47 739.35c6.87,2.64 10.29,7.71 10.29,15.1l0 166.34 -20.51 0 0 -153.1 -38.68 51.85 -16.38 -12.23 46.96 -62.94c2.08,-2.73 4.76,-4.58 8.1,-5.55 1.41,-0.45 2.81,-0.62 4.28,-0.62 1.97,0 3.96,0.35 5.93,1.15z"/>
  <path class="fil2" d="M3144.9 874.65c5.92,2.27 8.86,6.63 8.86,13l0 143.23 -17.66 0 0 -131.83 -33.31 44.65 -14.1 -10.54 40.44 -54.2c1.79,-2.35 4.1,-3.95 6.97,-4.78 1.21,-0.38 2.42,-0.53 3.68,-0.53 1.7,0 3.41,0.3 5.12,0.99z"/>
  <path class="fil3" d="M3750.84 1201.24c-42.95,0.34 -71.96,-44.7 -115.85,-44.8 -42.39,-0.09 -76.2,45.79 -116.23,44.8 -42.94,0.34 -71.95,-44.7 -115.84,-44.8 -42.4,-0.09 -76.18,45.79 -116.22,44.8 -42.95,0.34 -71.96,-44.7 -115.85,-44.8 -42.4,-0.09 -76.19,45.79 -115.07,44.8 -41.81,0.34 -70.84,-44.71 -114.7,-44.8 -42.39,-0.09 -82.97,45.79 -121.81,44.8 190.53,361.16 738.82,370.06 931.58,0z"/>
  <path class="fil2" d="M3345.49 938.44c13.09,0 24.22,4.61 33.44,13.83 9.21,9.22 13.82,20.38 13.82,33.43l0 57.26c0,12.99 -4.61,24.1 -13.82,33.33 -9.23,9.22 -20.35,13.83 -33.44,13.83l-55.71 0c-13.02,0 -24.14,-4.61 -33.44,-13.83 -9.21,-9.22 -13.83,-20.34 -13.83,-33.33l0 -57.26c0,-13.06 4.62,-24.22 13.83,-33.43 9.3,-9.22 20.42,-13.83 33.44,-13.83l55.71 0zm30.21 47.26c0,-8.34 -2.93,-15.47 -8.77,-21.43 -5.93,-5.93 -13.07,-8.9 -21.44,-8.9l-55.71 0c-8.38,0 -15.51,2.96 -21.44,8.9 -5.84,5.96 -8.78,13.09 -8.78,21.43l0 57.26c0,8.26 2.93,15.4 8.78,21.33 5.93,5.92 13.06,8.89 21.44,8.89l55.71 0c8.38,0 15.52,-2.96 21.44,-8.89 5.84,-5.93 8.77,-13.06 8.77,-21.33l0 -57.26z"/>
  <path class="fil2" d="M3536.12 1002.33c12.52,0 23.16,4.41 31.98,13.23 8.81,8.82 13.22,19.48 13.22,31.98l0 54.76c0,12.42 -4.41,23.05 -13.22,31.87 -8.82,8.82 -19.46,13.22 -31.98,13.22l-53.28 0c-12.45,0 -23.08,-4.41 -31.98,-13.22 -8.81,-8.82 -13.23,-19.45 -13.23,-31.87l0 -54.76c0,-12.49 4.41,-23.16 13.23,-31.98 8.9,-8.82 19.53,-13.23 31.98,-13.23l53.28 0zm28.89 45.2c0,-7.97 -2.8,-14.8 -8.38,-20.5 -5.67,-5.67 -12.49,-8.5 -20.51,-8.5l-53.28 0c-8.02,0 -14.84,2.83 -20.5,8.5 -5.59,5.7 -8.39,12.53 -8.39,20.5l0 54.76c0,7.91 2.8,14.73 8.39,20.4 5.67,5.66 12.49,8.5 20.5,8.5l53.28 0c8.02,0 14.84,-2.83 20.51,-8.5 5.58,-5.67 8.38,-12.49 8.38,-20.4l0 -54.76z"/>
  <path class="fil2" d="M3161.61 1073.57c14.48,0 26.79,5.1 36.99,15.3 10.2,10.2 15.29,22.54 15.29,36.99l0 63.33c0,14.37 -5.1,26.67 -15.29,36.86 -10.2,10.2 -22.5,15.3 -36.99,15.3l-61.62 0c-14.41,0 -26.7,-5.1 -36.99,-15.3 -10.19,-10.2 -15.3,-22.49 -15.3,-36.86l0 -63.33c0,-14.45 5.1,-26.79 15.3,-36.99 10.29,-10.2 22.58,-15.3 36.99,-15.3l61.62 0zm33.42 52.28c0,-9.22 -3.24,-17.12 -9.7,-23.71 -6.56,-6.56 -14.45,-9.84 -23.72,-9.84l-61.62 0c-9.27,0 -17.16,3.28 -23.71,9.84 -6.47,6.59 -9.72,14.48 -9.72,23.71l0 63.33c0,9.14 3.25,17.03 9.72,23.6 6.55,6.55 14.44,9.83 23.71,9.83l61.62 0c9.27,0 17.16,-3.28 23.72,-9.83 6.46,-6.56 9.7,-14.45 9.7,-23.6l0 -63.33z"/>
  <path class="fil4" d="M3341.79 1216.73c13.7,0 25.33,4.82 34.99,14.47 9.64,9.64 14.46,21.31 14.46,34.98l0 59.9c0,13.59 -4.83,25.22 -14.46,34.86 -9.65,9.64 -21.29,14.47 -34.99,14.47l-58.28 0c-13.63,0 -25.26,-4.82 -34.99,-14.47 -9.64,-9.65 -14.47,-21.28 -14.47,-34.86l0 -59.9c0,-13.67 4.83,-25.33 14.47,-34.98 9.73,-9.65 21.36,-14.47 34.99,-14.47l58.28 0zm31.61 49.45c0,-8.73 -3.06,-16.19 -9.17,-22.43 -6.2,-6.2 -13.66,-9.3 -22.44,-9.3l-58.28 0c-8.77,0 -16.23,3.1 -22.43,9.3 -6.12,6.24 -9.18,13.7 -9.18,22.43l0 59.9c0,8.65 3.07,16.11 9.18,22.31 6.2,6.2 13.66,9.3 22.43,9.3l58.28 0c8.77,0 16.23,-3.1 22.44,-9.3 6.11,-6.2 9.17,-13.66 9.17,-22.31l0 -59.9z"/>
  <path class="fil4" d="M3478.93 1240.93c5.99,2.3 8.97,6.71 8.97,13.15l0 144.88 -17.87 0 0 -133.35 -33.69 45.16 -14.26 -10.66 40.91 -54.82c1.81,-2.38 4.14,-3.99 7.05,-4.83 1.23,-0.39 2.45,-0.54 3.72,-0.54 1.72,0 3.45,0.31 5.17,1z"/>
  <path class="fil5" d="M3213.89 1169.85l0 19.34c0,14.37 -5.1,26.66 -15.29,36.86 -10.21,10.2 -22.5,15.3 -36.99,15.3l-61.62 0c-14.41,0 -26.69,-5.1 -36.99,-15.3 -7.31,-7.31 -12,-15.71 -14.07,-25.17 2.25,0.24 4.53,0.37 6.85,0.35 4.22,0.11 8.38,-0.34 12.49,-1.22 1.58,4.69 4.25,8.95 8,12.76 6.55,6.55 14.44,9.83 23.71,9.83l61.62 0c9.27,0 17.16,-3.28 23.73,-9.83 6.46,-6.56 9.7,-14.45 9.7,-23.59l0 -28.24c6.5,2.35 12.74,5.45 18.86,8.9z"/>
  <path class="fil1" d="M4116.12 1261.32c0,23.74 8.01,43.93 24.34,60.84 16.62,16.92 37.1,25.23 60.84,25.23l857.15 0 0 137.42 -857.15 0c-62.03,0 -114.86,-21.67 -158.19,-65.3 -43.63,-43.33 -65.3,-96.16 -65.3,-158.19l0 -1007.03 138.31 0 0 1007.03z"/>
  <path class="fil1" d="M7619.03 852.63c90.82,70.04 136.53,162.35 136.53,276.62l0 6.83c0,96.16 -34.42,178.67 -102.69,246.94 -68.57,67.96 -150.78,101.8 -246.94,101.8l-809.05 0 0 -137.42 809.05 0c57.88,0 107.74,-20.77 149.59,-62.62 41.25,-41.26 61.73,-90.52 61.73,-148.7l0 -6.83c0,-58.17 -20.48,-108.03 -61.73,-149.58 -41.85,-41.26 -91.71,-61.74 -149.59,-61.74l-809.05 0 0 -138.3 809.05 0c66.78,0 118.72,-19.89 156.41,-59.95 33.24,-35.91 49.56,-80.43 49.56,-132.96 0,-53.42 -16.32,-97.65 -49.56,-133.26 -37.7,-40.96 -89.64,-61.73 -156.41,-61.73l-765.14 0c-23.15,0 -43.33,8.6 -59.95,25.22 -11.26,11.26 -18.71,23.97 -22.43,38.21 -20.53,-44.89 -49.19,-86.23 -85.96,-123.97 3.51,-3.93 7.18,-7.8 11.03,-11.59 43.33,-43.33 95.86,-65.3 157.31,-65.3l765.14 0c106.55,0 192.33,35.02 257.32,104.47 57.88,62.62 86.96,138.6 86.96,227.94 0,113.38 -43.63,202.12 -131.19,265.93z"/>
  <path class="fil1" d="M6154.85 254.29c105.66,0 195.59,37.4 270.38,112.19 75.39,74.79 113.08,165.31 113.08,271.27l0 847.06 -138.31 0 0 -566.88 -1118.93 0 0 566.88 -138.3 0 0 -847.06c0,-105.96 37.39,-196.48 112.19,-271.27 74.79,-74.79 165.02,-112.19 271.27,-112.19l628.62 0zm245.16 525.33l0 -141.87c0,-67.67 -24.05,-125.55 -72.13,-173.92 -48.08,-48.08 -105.66,-72.12 -173.03,-72.12l-628.62 0c-67.96,0 -125.84,24.04 -173.92,72.12 -47.49,48.38 -71.23,106.25 -71.23,173.92l0 141.87 1118.93 0z"/>
 </g>
</svg>
