<svg xmlns="http://www.w3.org/2000/svg" height="102.507" width="366.013"><path d="M50.535 34.296h.17c.265-1.517.272-2.813.015-3.89-.255-1.077-.774-1.938-1.554-2.578-.486-.4-1.106-.729-1.83-1.004a10.729 10.729 0 00-1.415-.434c-1.384-.321-3.068-.48-5.056-.48h-8.487c-1.582 0-3.262.141-4.163 0-.9-.146-1.313-.539-1.534-.825-.218-.286-.452-.76-.406-1.777.045-1.02 1.393-4.372 1.393-4.372h14.124c3.873 0 7.087.396 9.642 1.187 2.556.792 4.45 1.979 5.687 3.563 1.082 1.314 1.76 3.048 2.04 5.203.275 2.156.213 4.745-.38 7.73-.688 3.467-2.286 10.354-2.961 13.824-.242 1.243-.875 4.991-.875 4.991h1.336c1.162 0 1.228.012 2.137-.151 1.595-.287 2.324-.9 2.877-1.528.55-.624 1.36-2.11 2.012-4.343.653-2.232 2.036-7.263 2.79-11.103.82-4.173 1.092-7.837.816-10.987-.277-3.151-1.104-5.787-2.476-7.912-1.732-2.578-4.247-4.811-7.824-5.884-9.277-2.78-18.271-2.382-24.235-1.614-10.62 1.37-15.32 6.112-18.644 13.884-1.441 3.371-3.232 10.145-3.857 13.956-.787 4.8-1.062 9.159-.712 12.685.354 3.525 1.35 6.427 2.992 8.706 1.953 2.772 4.951 4.881 8.996 6.328 4.041 1.449 9.13 2.234 15.257 2.358l4.57.091 6.257.087a4.309 4.309 0 014.156 5.2l-.538 2.546-7.97-.159-7.968-.161c-7.912-.16-14.469-1.2-19.669-3.119-5.197-1.92-9.04-4.719-11.526-8.4-1.964-2.921-3.15-6.566-3.56-10.935-.41-4.37-.044-9.462 1.1-15.28C3.663 27.473 8.511 18.36 15.804 12.368c7.293-5.99 17.032-8.864 29.22-8.619C57.207 3.993 65.79 7.011 70.77 12.8c4.98 5.792 6.357 14.353 4.133 25.687-.711 3.615-2.308 9.415-3.448 12.088a25.762 25.762 0 01-4.065 6.599c-2.022 2.393-4.802 5.208-12.364 5.444l-1.523.008c-.132 0-.246-.004-.373-.004-.263-.002-.53-.003-.773-.01l-.063-.001c-1.053-.027-3.946-.08-4.62-.179a7.421 7.421 0 01-.75-.149c-.477-.121-.805-.27-.955-.457-.223-.269-.43-.729-.404-1.638.018-.645.021-.653.18-1.738" fill="#2e56ff"/><path d="M40.865 25.91c1.987 0 3.672.159 5.055.48a10.721 10.721 0 01.001 0c-1.384-.321-3.068-.48-5.056-.48M49.166 27.828c.78.64 1.299 1.501 1.554 2.578-.255-1.077-.774-1.938-1.554-2.578M28.215 25.91c-.9-.146-1.313-.539-1.534-.825.217.286.633.679 1.534.824M57.121 23.686c-1.238-1.584-3.13-2.77-5.687-3.563 2.556.792 4.45 1.979 5.687 3.563M57.121 23.686c1.082 1.314 1.76 3.048 2.04 5.203-.278-2.155-.958-3.889-2.04-5.203" fill="#244eff"/><path d="M26.64 47.107c1.175-3.733 4.712-6.042 8.625-6.042H49.51l-.115.657-.116.657c-.506 2.864-1.483 7.081-2.028 8.756-.55 1.676-1.29 2.372-1.88 2.861-.59.489-2.052 1.345-3.847 1.587-1.792.243-4.343.182-7.34.182-3.098 0-5.334-.497-6.708-1.491-1.374-.993-2.014-2.51-1.535-4.47.153-.628.504-2.08.699-2.697zm23.895-12.811H37.67c-2.898 0-5.5.328-7.804.984-2.306.658-4.315 1.642-6.028 2.955-1.56 1.214-2.952 2.568-3.784 4.271-1.052 2.156-1.774 5.325-2.136 7.379-.36 2.054-.286 3.873.228 5.454.51 1.584 1.274 2.95 2.66 4.062 1.27 1.01 2.81 1.769 4.625 2.275 1.815.505 3.901.758 6.259.758a29.77 29.77 0 005.7-.53c1.815-.355 2.994-.7 4.635-1.408 1.42-.606 2.66-1.288 3.72-2.046" fill="#2e56ff"/><path d="M46.923 62.283c.222.056.466.109.758.152.675.097 3.565.15 4.613.176-1.053-.027-3.946-.08-4.62-.179a7.421 7.421 0 01-.75-.149M53.51 62.626h-.007.007M53.503 62.626h.007-.007M26.275 23.308c.045-1.02 1.086-2.62 1.393-4.372-.31 1.753-1.348 3.352-1.393 4.372M41.792 18.936c3.873 0 7.087.396 9.642 1.187-2.554-.79-5.77-1.187-9.642-1.187M32.378 25.91c-1.582 0-3.262.141-4.163 0 .901.141 2.578 0 4.163 0M49.166 27.828c-.486-.4-1.106-.729-1.83-1.004.723.275 1.343.605 1.83 1.004" fill="#244eff"/><path d="M105.724 24.616s-12.58.41-15.334 16.08c-1.741 9.573-2.786 15.858 10.018 15.44 0 0 12.489-.408 15.33-16.266 1.656-9.29 1.911-15.643-10.014-15.254zm-11.515-1.672c2.424-3.077 7.832-6.247 16.876-6.247 15.106 0 16.97 11.002 14.267 23.59-2.611 12.494-10.35 23.496-26.108 23.496-18.462 0-20.7-11.282-18.183-23.497L89.546.006h6.06a2.76 2.76 0 012.7 3.325L94.21 22.944M162.741 25.088s-6.76-.095-9.489-.127c-3.333-.04-11.556.044-12.584 5.951-1.555 8.945 29.417 3.029 26.176 19.165-2.397 11.058-8.579 13.333-23.03 13.333-4.477 0-17.788-.56-17.788-.56 1.47-7.179 1.47-7.179 8.743-7.179h10.536s11.626.384 12.808-5.203c2.222-10.5-28.945-2.986-26.047-19.412 1.935-10.977 8.763-13.614 22.937-13.614 4.08 0 16.222.482 16.222.482-1.397 7.164-1.397 7.164-8.484 7.164M197.693 24.697c-2.933.108-12.952.475-15.642 16.156-1.543 8.827-3.632 15.808 10.077 15.305 0 0 13.139-.482 15.919-16.259 1.46-8.544 2.982-15.69-10.354-15.202zm-7.817 39.18c-17.996 0-20.233-11.282-17.53-23.497 2.611-12.121 9.603-23.404 27.6-23.404 17.809 0 20.42 11.283 17.809 23.404-2.704 12.307-9.978 23.496-27.879 23.496M229.503 63.41h-6.144a2.728 2.728 0 01-2.67-3.293L233.42.007l5.961.01a2.723 2.723 0 012.66 3.28L229.503 63.41M276.71 58.482c-2.837 2.704-7.263 5.394-13.666 5.394h-7.34c-15.105 0-16.317-8.39-13.521-21.352l5.221-25.082h6.043a2.733 2.733 0 012.673 3.302l-4.799 22.526c-1.513 7.4-3.32 12.372 5.512 12.441 1.246.01 3.736.021 4.982.021 4.86 0 10.145-1.25 12.816-12.928 1.446-6.32 5.558-25.362 5.558-25.362h6.078a2.73 2.73 0 012.672 3.3c-1.268 5.932-3.722 18.097-4.496 21.07-2.775 10.629-5.127 14.186-7.732 16.67M355.659 36.557c1.398-6.248 3.398-12.308-8.951-12.308 0 0-12.308 0-14.919 12.308h23.87zm-1.679 7.646h-23.87c-1.491 6.806.309 11.738 10.163 11.468h10.071c7.367.02 8.908-.023 5.967 7.74h-17.25c-18.089 0-20.326-10.91-17.809-23.125 2.61-12.214 9.604-23.403 27.879-23.403 13.893 0 18.649 8.578 16.318 19.674-1.585 7.646-1.585 7.646-11.469 7.646M305.665.006l5.298.01a2.738 2.738 0 012.67 3.317l-3.025 14.024h12.4c-1.677 7.832-1.677 7.857-9.323 7.857h-4.476l-5.202 24.62c-.654 2.983-.619 5.141 3.262 5.5 6.816.632 8.2.011 5.595 8.113-15.197.839-20.057-2.722-17.727-13.631l5.11-24.643-6.982.018 1.999-7.836 6.681-.014 3.72-17.335" fill="#2e56ff"/><path d="M279.637 102.246h-3.633l-1.796-19.764-8.123 16.375c-.997 1.978-3.418 3.39-5.633 3.39h-2.385l-2.086-25.655h2.736c1.282 0 2.215.93 2.284 2.21l1.132 18.439 10.43-20.65h2.25c1.711 0 3.14 1.3 3.303 3.002l1.695 17.752 8.59-18.581a3.742 3.742 0 013.398-2.172h3.55l-11.056 22.74a5.178 5.178 0 01-4.656 2.914M314.62 87.28c.783-3.493 1.66-6.882-5.005-6.882 0 0-6.883 0-8.344 6.883h13.349m-.939 4.276h-13.349c-.833 3.806.087 6.622 5.684 6.413h5.632c4.02 0 4.937-.03 3.337 4.328h-9.646c-10.116 0-11.368-6.1-9.96-12.931 1.46-6.831 5.37-13.089 15.592-13.089 7.768 0 10.428 4.797 9.125 11.003-.887 4.276-.887 4.276-6.415 4.276M338.443 80.6s-7.036.239-8.564 9.004c-.968 5.354-2.242 8.894 5.613 8.628 0 0 6.984-.237 8.561-9.108.92-5.197 1.702-8.77-5.61-8.524zm-3.614 21.907c-10.324 0-11.576-6.31-10.168-13.14l4.746-22.527h2.773a2.028 2.028 0 011.987 2.44l-2.154 10.388c1.356-1.721 4.38-3.494 9.439-3.494 8.448 0 9.49 6.153 7.979 13.193-1.462 6.987-5.79 13.14-14.602 13.14" fill="#a5afbf"/></svg>