<?xml version="1.0" encoding="UTF-8" standalone="no"?>
<svg
   xmlns:dc="http://purl.org/dc/elements/1.1/"
   xmlns:cc="http://creativecommons.org/ns#"
   xmlns:rdf="http://www.w3.org/1999/02/22-rdf-syntax-ns#"
   xmlns:svg="http://www.w3.org/2000/svg"
   xmlns="http://www.w3.org/2000/svg"
   viewBox="0 0 366.01334 102.50667"
   height="102.50667"
   width="366.01334"
   xml:space="preserve"
   id="svg2"
   version="1.1"><metadata
     id="metadata8"><rdf:RDF><cc:Work
         rdf:about=""><dc:format>image/svg+xml</dc:format><dc:type
           rdf:resource="http://purl.org/dc/dcmitype/StillImage" /></cc:Work></rdf:RDF></metadata><defs
     id="defs6" /><g
     transform="matrix(1.3333333,0,0,-1.3333333,0,102.50667)"
     id="g10"><g
       transform="scale(0.1)"
       id="g12"><path
         id="path14"
         style="fill:#2e56ff;fill-opacity:1;fill-rule:nonzero;stroke:none"
         d="m 379.012,511.582 h 1.269 c 1.992,11.379 2.047,21.094 0.117,29.176 -1.914,8.074 -5.8,14.535 -11.652,19.332 -3.648,2.996 -8.293,5.465 -13.723,7.527 -3.253,1.235 -6.718,2.36 -10.613,3.258 -10.379,2.41 -23.015,3.605 -37.922,3.605 H 274.66 242.836 c -11.867,0 -24.465,-1.066 -31.227,0 -6.746,1.09 -9.847,4.036 -11.5,6.184 -1.64,2.145 -3.39,5.699 -3.046,13.328 0.339,7.645 10.449,32.785 10.449,32.785 h 51.363 54.566 c 29.043,0 53.149,-2.968 72.313,-8.902 19.168,-5.941 33.371,-14.84 42.656,-26.723 8.113,-9.855 13.203,-22.859 15.293,-39.019 2.067,-16.168 1.602,-35.586 -2.844,-57.977 -5.164,-26 -17.144,-77.656 -22.211,-103.676 -1.812,-9.328 -6.562,-37.437 -6.562,-37.437 l 0.019,-0.004 h 10 c 8.715,0 9.211,-0.082 16.028,1.141 11.961,2.148 17.433,6.754 21.582,11.461 4.129,4.675 10.191,15.828 15.09,32.566 4.894,16.742 15.269,54.473 20.922,83.277 6.144,31.297 8.191,58.774 6.121,82.403 -2.075,23.633 -8.278,43.398 -18.571,59.336 -12.988,19.336 -31.851,36.086 -58.683,44.129 -69.571,20.855 -137.031,17.871 -181.758,12.105 C 163.184,669.188 127.93,633.621 103.004,575.328 92.1953,550.047 78.7617,499.246 74.0742,470.66 68.1719,434.656 66.1094,401.969 68.7383,375.523 71.3906,349.086 78.8594,327.32 91.1758,310.23 c 14.6482,-20.796 37.1372,-36.613 67.4692,-47.46 30.312,-10.868 68.472,-16.754 114.433,-17.688 l 34.274,-0.684 46.929,-0.648 c 20.352,-0.281 35.379,-19.082 31.168,-38.996 l -4.039,-19.102 -59.777,1.192 -59.754,1.211 c -59.344,1.195 -108.516,8.992 -147.516,23.39 C 75.3789,225.84 46.5625,246.836 27.9141,274.449 13.1875,296.355 4.28516,323.688 1.21875,356.461 -1.85547,389.227 0.886719,427.422 9.46484,471.051 27.4727,562.762 63.832,631.098 118.527,676.047 c 54.7,44.926 127.746,66.48 219.149,64.641 91.387,-1.833 155.746,-24.469 193.101,-67.887 37.352,-43.442 47.676,-107.645 30.993,-192.656 -5.332,-27.11 -17.305,-70.61 -25.856,-90.661 -8.551,-20.046 -19.187,-36.121 -30.488,-49.488 -15.164,-17.945 -36.016,-39.062 -92.731,-40.828 l -11.425,-0.063 c -0.985,0 -1.844,0.028 -2.797,0.032 -1.973,0.011 -3.977,0.023 -5.797,0.066 -0.164,0 -0.309,0.012 -0.469,0.016 -7.898,0.199 -29.594,0.597 -34.652,1.34 -2.164,0.316 -3.981,0.703 -5.629,1.117 -3.574,0.91 -6.031,2.031 -7.16,3.426 -1.668,2.019 -3.223,5.468 -3.032,12.285 0.141,4.843 0.161,4.898 1.356,13.039" /><path
         id="path16"
         style="fill:#244eff;fill-opacity:1;fill-rule:nonzero;stroke:none"
         d="m 306.488,574.48 c 14.899,0 27.543,-1.195 37.914,-3.605 3.899,-0.898 7.368,-2.023 10.621,-3.258 -3.253,1.235 -6.718,2.36 -10.613,3.258 -10.379,2.41 -23.015,3.605 -37.922,3.605" /><path
         id="path18"
         style="fill:#244eff;fill-opacity:1;fill-rule:nonzero;stroke:none"
         d="m 368.746,560.09 c 5.844,-4.797 9.738,-11.258 11.652,-19.332 -1.914,8.074 -5.8,14.535 -11.652,19.332" /><path
         id="path20"
         style="fill:#244eff;fill-opacity:1;fill-rule:nonzero;stroke:none"
         d="m 211.609,574.48 c -6.746,1.09 -9.847,4.036 -11.5,6.184 1.629,-2.148 4.743,-5.094 11.5,-6.184" /><path
         id="path22"
         style="fill:#244eff;fill-opacity:1;fill-rule:nonzero;stroke:none"
         d="m 428.41,591.152 c -9.285,11.883 -23.48,20.782 -42.656,26.723 19.168,-5.941 33.371,-14.84 42.656,-26.723" /><path
         id="path24"
         style="fill:#244eff;fill-opacity:1;fill-rule:nonzero;stroke:none"
         d="m 428.41,591.152 c 8.113,-9.855 13.203,-22.859 15.293,-39.019 -2.078,16.16 -7.18,29.164 -15.293,39.019" /><path
         id="path26"
         style="fill:#2e56ff;fill-opacity:1;fill-rule:nonzero;stroke:none"
         d="m 199.805,415.496 c 8.804,27.996 35.332,45.32 64.679,45.32 h 62.899 43.949 l -0.863,-4.933 -0.871,-4.922 c -3.793,-21.481 -11.118,-53.113 -15.211,-65.672 -4.121,-12.57 -9.672,-17.793 -14.102,-21.461 -4.418,-3.664 -15.383,-10.082 -28.844,-11.902 -13.445,-1.821 -32.578,-1.36 -55.058,-1.36 -23.231,0 -40.004,3.723 -50.309,11.18 -10.301,7.445 -15.105,18.82 -11.511,33.524 1.152,4.71 3.785,15.601 5.242,20.226 z m 179.207,96.086 c 0,0 0,0 -0.457,0 -15.567,0 -47.153,0 -47.153,0 h -48.879 c -21.734,0 -41.242,-2.461 -58.531,-7.383 -17.289,-4.933 -32.363,-12.316 -45.207,-22.164 -11.703,-9.101 -22.14,-19.258 -28.379,-32.031 -7.894,-16.172 -13.304,-39.934 -16.019,-55.34 -2.699,-15.41 -2.149,-29.051 1.707,-40.91 3.832,-11.875 9.554,-22.125 19.945,-30.465 9.535,-7.578 21.086,-13.262 34.691,-17.062 13.614,-3.786 29.262,-5.684 46.942,-5.684 14.898,0 29.156,1.336 42.75,3.984 13.613,2.653 22.461,5.243 34.766,10.551 10.644,4.547 19.953,9.664 27.902,15.348" /><path
         id="path28"
         style="fill:#244eff;fill-opacity:1;fill-rule:nonzero;stroke:none"
         d="m 351.926,301.676 c 1.664,-0.422 3.488,-0.813 5.683,-1.137 5.059,-0.73 26.735,-1.125 34.598,-1.32 -7.898,0.199 -29.594,0.597 -34.652,1.34 -2.164,0.316 -3.981,0.703 -5.629,1.117" /><path
         id="path30"
         style="fill:#244eff;fill-opacity:1;fill-rule:nonzero;stroke:none"
         d="m 401.324,299.105 v 0.004 c -0.015,0 -0.027,-0.004 -0.051,-0.004 0.024,0 0.036,0 0.051,0" /><path
         id="path32"
         style="fill:#244eff;fill-opacity:1;fill-rule:nonzero;stroke:none"
         d="m 401.27,299.105 h 0.003 c 0.024,0 0.036,0.004 0.051,0.004 l -0.054,-0.004" /><path
         id="path34"
         style="fill:#244eff;fill-opacity:1;fill-rule:nonzero;stroke:none"
         d="m 197.063,593.992 c 0.339,7.645 8.144,19.641 10.449,32.785 -2.321,-13.144 -10.11,-25.14 -10.449,-32.785" /><path
         id="path36"
         style="fill:#244eff;fill-opacity:1;fill-rule:nonzero;stroke:none"
         d="m 313.441,626.777 c 29.043,0 53.149,-2.968 72.313,-8.902 -19.152,5.934 -43.27,8.902 -72.313,8.902" /><path
         id="path38"
         style="fill:#244eff;fill-opacity:1;fill-rule:nonzero;stroke:none"
         d="m 242.836,574.48 c -11.867,0 -24.465,-1.066 -31.227,0 6.762,-1.066 19.34,0 31.227,0" /><path
         id="path40"
         style="fill:#244eff;fill-opacity:1;fill-rule:nonzero;stroke:none"
         d="m 368.746,560.09 c -3.648,2.996 -8.293,5.465 -13.723,7.527 5.422,-2.062 10.067,-4.531 13.723,-7.527" /><path
         id="path42"
         style="fill:#2e56ff;fill-opacity:1;fill-rule:nonzero;stroke:none"
         d="m 792.93,584.18 c 0,0 -94.352,-3.078 -115.008,-120.602 -13.055,-71.793 -20.891,-118.93 75.141,-115.797 0,0 93.664,3.059 114.968,121.996 12.422,69.676 14.34,117.321 -75.101,114.403 z m -86.364,12.543 c 18.184,23.078 58.739,46.851 126.571,46.851 113.293,0 127.277,-82.515 107,-176.922 -19.582,-93.707 -77.625,-176.226 -195.809,-176.226 -138.465,0 -155.25,84.613 -136.367,176.226 l 63.637,302.102 h 45.441 c 13.137,0 22.949,-12.074 20.262,-24.934 L 706.566,596.723" /><path
         id="path44"
         style="fill:#2e56ff;fill-opacity:1;fill-rule:nonzero;stroke:none"
         d="m 1220.56,580.641 c 0,0 -50.7,0.711 -71.17,0.953 -25,0.293 -86.67,-0.332 -94.38,-44.637 -11.66,-67.086 220.63,-22.711 196.32,-143.734 -17.98,-82.934 -64.34,-100 -172.73,-100 -33.57,0 -133.405,4.199 -133.405,4.199 11.028,53.844 11.028,53.844 65.575,53.844 19.76,0 79.02,0 79.02,0 0,0 87.19,-2.875 96.06,39.023 16.66,78.75 -217.092,22.399 -195.358,145.594 14.518,82.324 65.728,102.101 172.028,102.101 30.6,0 121.67,-3.613 121.67,-3.613 -10.48,-53.73 -10.48,-53.73 -63.63,-53.73" /><path
         id="path46"
         style="fill:#2e56ff;fill-opacity:1;fill-rule:nonzero;stroke:none"
         d="m 1482.7,583.57 c -22,-0.808 -97.14,-3.562 -117.32,-121.164 -11.57,-66.203 -27.24,-118.562 75.58,-114.793 0,0 98.54,3.614 119.39,121.942 10.95,64.082 22.37,117.679 -77.65,114.015 z m -58.63,-293.843 c -134.97,0 -151.75,84.613 -131.47,176.226 19.58,90.906 72.02,175.527 206.99,175.527 133.57,0 153.15,-84.621 133.57,-175.527 -20.28,-92.308 -74.83,-176.226 -209.09,-176.226" /><path
         id="path48"
         style="fill:#2e56ff;fill-opacity:1;fill-rule:nonzero;stroke:none"
         d="m 1721.27,293.223 h -46.08 c -13.01,0 -22.71,11.976 -20.02,24.699 l 95.47,450.832 44.71,-0.082 c 12.94,-0.027 22.6,-11.93 19.95,-24.594 l -94.03,-450.855" /><path
         id="path50"
         style="fill:#2e56ff;fill-opacity:1;fill-rule:nonzero;stroke:none"
         d="m 2075.33,330.188 c -21.28,-20.282 -54.48,-40.461 -102.5,-40.461 h -55.05 c -113.29,0 -122.38,62.933 -101.41,160.14 l 39.16,188.117 h 45.32 c 13.04,0 22.76,-12.011 20.05,-24.761 l -35.99,-168.95 c -11.35,-55.503 -24.9,-92.789 41.34,-93.308 9.34,-0.074 28.02,-0.156 37.36,-0.156 36.45,0 76.09,9.379 96.12,96.961 10.85,47.398 41.69,190.214 41.69,190.214 H 2147 c 13.04,0 22.76,-11.996 20.04,-24.746 -9.51,-44.496 -27.91,-135.734 -33.72,-158.023 -20.81,-79.719 -38.45,-106.402 -57.99,-125.027" /><path
         id="path52"
         style="fill:#2e56ff;fill-opacity:1;fill-rule:nonzero;stroke:none"
         d="m 2667.44,494.625 c 10.49,46.855 25.49,92.309 -67.13,92.309 0,0 -92.31,0 -111.89,-92.309 h 179.02 z m -12.59,-57.344 h -179.02 c -11.19,-51.051 2.31,-88.035 76.22,-86.015 h 75.53 c 55.25,-0.145 66.81,0.172 44.75,-58.043 h -129.37 c -135.67,0 -152.45,81.816 -133.57,173.429 19.58,91.61 72.03,175.528 209.09,175.528 104.2,0 139.87,-64.336 122.39,-147.555 -11.89,-57.344 -11.89,-57.344 -86.02,-57.344" /><path
         id="path54"
         style="fill:#2e56ff;fill-opacity:1;fill-rule:nonzero;stroke:none"
         d="m 2292.49,768.754 39.73,-0.078 c 13.07,-0.028 22.79,-12.094 20.03,-24.871 l -22.69,-105.184 h 93 c -12.58,-58.742 -12.58,-58.926 -69.92,-58.926 h -33.57 l -39.02,-184.648 c -4.9,-22.375 -4.64,-38.563 24.47,-41.258 51.12,-4.734 61.5,-0.078 41.96,-60.84 -113.98,-6.293 -150.43,20.41 -132.95,102.231 l 38.32,184.824 -52.36,-0.133 14.99,58.766 50.11,0.105 27.9,130.012" /><path
         id="path56"
         style="fill:#a5afbf;fill-opacity:1;fill-rule:nonzero;stroke:none"
         d="m 2097.28,1.95313 h -27.25 L 2056.56,150.184 1995.64,27.375 C 1988.16,12.5352 1970,1.95313 1953.39,1.95313 h -17.89 l -15.64,192.40987 20.52,0.004 c 9.61,0 16.61,-6.98 17.13,-16.578 L 1966,39.4961 2044.22,194.363 h 16.88 c 12.83,0 23.55,-9.746 24.77,-22.511 l 12.71,-133.1372 64.43,139.3552 c 4.59,9.938 14.54,16.293 25.48,16.293 h 26.63 L 2132.2,23.8047 C 2125.7,10.4375 2112.14,1.95313 2097.28,1.95313" /><path
         id="path58"
         style="fill:#a5afbf;fill-opacity:1;fill-rule:nonzero;stroke:none"
         d="m 2359.65,114.195 c 5.87,26.2 12.45,51.621 -37.54,51.621 0,0 -51.62,0 -62.58,-51.621 h 100.12 m -7.04,-32.07 h -100.12 c -6.25,-28.5508 0.65,-49.668 42.63,-48.1016 h 42.24 c 30.15,0 37.03,0.2266 25.03,-32.4609 h -72.35 c -75.87,0 -85.26,45.7578 -74.7,96.9883 10.95,51.2302 40.28,98.1642 116.94,98.1642 58.26,0 78.21,-35.981 68.44,-82.52 -6.65,-32.07 -6.65,-32.07 -48.11,-32.07" /><path
         id="path60"
         style="fill:#a5afbf;fill-opacity:1;fill-rule:nonzero;stroke:none"
         d="m 2538.32,164.297 c 0,0 -52.77,-1.789 -64.23,-67.5275 -7.26,-40.1562 -16.81,-66.7031 42.1,-64.707 0,0 52.38,1.7773 64.21,68.3085 6.9,38.973 12.76,65.781 -42.08,63.926 z M 2511.22,0 c -77.43,0 -86.82,47.3203 -76.26,98.5508 L 2470.55,267.5 h 20.8 c 9.65,0 16.86,-8.859 14.9,-18.301 l -16.15,-77.906 c 10.17,12.906 32.85,26.203 70.79,26.203 63.36,0 71.17,-46.148 59.84,-98.9452 C 2609.77,46.1484 2577.31,0 2511.22,0" /></g></g></svg>