<svg id="Layer_1" data-name="Layer 1" xmlns="http://www.w3.org/2000/svg" viewBox="0 0 2156 462"><defs><linearGradient id="linear-gradient" x1="212.75" y1="160.13" x2="257.3" y2="176.47" gradientUnits="userSpaceOnUse"><stop offset="0" stop-color="#f18221"/><stop offset="1" stop-color="#f2b81a"/></linearGradient><linearGradient id="linear-gradient-2" x1="255.57" y1="98.18" x2="450.73" y2="92.36" gradientUnits="userSpaceOnUse"><stop offset="0" stop-color="#215f70"/><stop offset="1" stop-color="#00b7b1"/></linearGradient><style>.cls-2{fill:#fff}</style></defs><path fill="#4d3475" d="M1 0h2155v462H1z"/><path class="cls-2" d="M819.83 318.07a53.65 53.65 0 01-47.75 53.19 215.5 215.5 0 01-24.54 1.34q-56 0-89.69-35.34t-33.72-92.74q0-61.71 37.93-99.73t95.88-38q6.31 0 12.26.3a52.54 52.54 0 0149.63 52.61 110.48 110.48 0 00-57.4-15.42q-41.8 0-67.72 26.72t-25.92 71.4q0 42.51 24.22 67.71t63.68 25.21q36.4 0 63.14-17.22zM1005 368.29h-40.41v-28.7h-.72q-19 33-55.78 33-27.09 0-42.43-14.71T850.32 319q0-52 59.92-60.64l54.53-7.71q0-39.28-37.31-39.28-32.84 0-59.2 22.6c0-25.22 17.75-47.61 42.64-51.71a149.89 149.89 0 0124.45-1.93q69.6 0 69.6 68.53zm-40.18-90.22l-38.57 5.38q-17.94 2.32-27 8.7t-9.06 22.33a24.45 24.45 0 008.35 19.1q8.34 7.46 22.33 7.45 19 0 31.48-13.37T964.77 294zM1044.23 324q23.32 17.76 51.49 17.76 37.66 0 37.66-22.25a17.54 17.54 0 00-3.22-10.67 31 31 0 00-8.7-7.8 68.51 68.51 0 00-12.92-6.1q-7.44-2.7-16.59-6.1a175.83 175.83 0 01-20.36-9.51 61.5 61.5 0 01-15.07-11.39 42.85 42.85 0 01-9.06-14.44 53.23 53.23 0 01-3-18.83 43.48 43.48 0 016.28-23.41 54.58 54.58 0 0116.86-17 80.72 80.72 0 0124-10.41 110.09 110.09 0 0127.8-3.5h2.66c23.89.39 42.91 20.21 42.91 44.11q-19.38-13.27-44.49-13.27a58.38 58.38 0 00-14.26 1.61 36.82 36.82 0 00-10.85 4.48 22.12 22.12 0 00-7 6.91 16.51 16.51 0 00-2.51 8.88 19 19 0 002.51 10.05 22.65 22.65 0 007.45 7.26 63.78 63.78 0 0011.84 5.74q6.9 2.61 15.87 5.65a232.44 232.44 0 0121.26 9.87 72 72 0 0116 11.39 44.74 44.74 0 0110.22 14.71q3.6 8.34 3.59 19.82 0 14-6.45 24.39a53.84 53.84 0 01-17.15 17.19 80.48 80.48 0 01-24.85 10.14 129.19 129.19 0 01-29.69 3.32c-1.65 0-3.29 0-4.91-.07a48.58 48.58 0 01-47.32-48.53zM1377.34 368.29a41.61 41.61 0 01-41.61-41.62v-58.83q0-54.52-36.42-54.53-18.3 0-30.85 15.78t-12.56 40.37v98.83h-41.79V138.15a41.8 41.8 0 0141.79-41.8V215.1h.72q20.81-34.78 59.55-34.8 61.17 0 61.17 74.8zM1531.79 130.26a37.82 37.82 0 00-19.19-4.85q-30.33 0-30.32 34.26v24.94H1525a32.64 32.64 0 01-32.64 32.64h-9.87v151h-41.62v-151h-31.39V216a31.39 31.39 0 0131.39-31.39v-29.78q0-29.06 19-45.83t47.54-16.77q15.42 0 24.39 3.41zM1661.12 224.25q-7.53-5.91-21.7-5.92-18.48 0-30.86 16.68t-12.38 45.39v87.89h-41.61V226.23a41.61 41.61 0 0141.61-41.62v37.85h.72q6.11-19.38 18.75-30.23t28.25-10.85q11.31 0 17.22 3.41zM1842.84 287.75h-125.21q.7 25.47 15.69 39.29t41.17 13.81q29.41 0 54-17.58v33.54q-25.12 15.79-66.37 15.79-40.55 0-63.59-25t-23.06-70.41q0-42.87 25.39-69.87t63.05-27q37.66 0 58.3 24.22t20.63 67.27zm-40.19-29.42q-.18-22.41-10.58-34.88t-28.7-12.45a40.37 40.37 0 00-30.4 13.09q-12.48 13.1-15.34 34.26zM2038 287.75h-125.21q.72 25.47 15.7 39.29t41.17 13.81q29.41 0 54-17.58v33.54q-25.11 15.79-66.37 15.79-40.54 0-63.59-25t-23-70.41q0-42.87 25.38-69.87t63-27q37.68 0 58.3 24.22t20.62 67.25zm-40.18-29.42q-.18-22.41-10.59-34.88t-28.7-12.45a40.37 40.37 0 00-30.4 13.09q-12.47 13.1-15.34 34.26z"/><path d="M220.69 154.26c-16.76 2.15-16 34.7-18.34 61.86l-13.54 138.76a64.73 64.73 0 01-70.7 58.12l20.82-213.39a53.09 53.09 0 0158-47.68z" fill="#f2b81a"/><path d="M410.32 172.76a63.36 63.36 0 01-69.21 56.9l-138.76-13.54c2.34-27.16 1.58-59.71 18.34-61.86z" fill="url(#linear-gradient)"/><path d="M540.09 73.67A65.07 65.07 0 01469 132.12l-142.5-13.91c2.4-27.9 1.62-61.34 18.84-63.54z" fill="url(#linear-gradient-2)"/><path d="M345.61 54.06c-17.49 2.81-16.71 36.25-19.11 64.15l-13.91 142.5a66.45 66.45 0 01-72.6 59.7l21.38-219.16c2.92-30 29.59-51.89 59.83-49.57z" fill="#00b7b1"/></svg>