<svg enable-background="new 0 0 326.4 98.3" viewBox="0 0 326.4 98.3" xmlns="http://www.w3.org/2000/svg"><path d="m33.2 64v-35.5h9.9c2.9 0 5.5.7 7.8 2s4.1 3.2 5.4 5.7 1.9 5.3 1.9 8.4v3.3c0 3.2-.6 6-1.9 8.4-1.3 2.5-3.1 4.4-5.4 5.7s-5 2-8 2zm3-33v30.5h6.8c3.7 0 6.7-1.2 9-3.7s3.4-5.8 3.4-10.1v-3.1c0-4.1-1.1-7.4-3.3-9.8-2.2-2.5-5.2-3.7-8.8-3.7h-7.1z"/><path d="m81 64c-.3-.8-.5-2.1-.6-3.7-1 1.3-2.3 2.4-3.9 3.1s-3.3 1.1-5 1.1c-2.5 0-4.6-.7-6.2-2.1s-2.4-3.2-2.4-5.4c0-2.6 1.1-4.6 3.2-6.1s5.1-2.2 8.9-2.2h5.3v-3c0-1.9-.6-3.4-1.7-4.5-1.2-1.1-2.9-1.6-5.1-1.6-2 0-3.7.5-5.1 1.6-1.3 1-2 2.3-2 3.8h-2.9c0-2.1 1-3.9 2.9-5.5s4.4-2.3 7.2-2.3c2.9 0 5.3.7 7 2.2s2.6 3.5 2.6 6.2v12.4c0 2.6.3 4.5.8 5.7v.3zm-9.2-2.1c2 0 3.7-.5 5.2-1.4s2.7-2.2 3.4-3.8v-5.8h-5.2c-2.9 0-5.2.6-6.8 1.6s-2.5 2.5-2.5 4.3c0 1.5.5 2.7 1.6 3.7s2.5 1.4 4.3 1.4z"/><path d="m94.6 30.9v6.8h5.5v2.3h-5.5v17.6c0 1.5.3 2.6.8 3.3s1.4 1.1 2.6 1.1c.5 0 1.3-.1 2.4-.2l.1 2.4c-.8.3-1.8.4-3.1.4-2 0-3.5-.6-4.4-1.7-.9-1.2-1.4-2.9-1.4-5.1v-17.8h-4.9v-2.4h4.9v-6.8h3z"/><path d="m121.8 64c-.3-.8-.5-2.1-.6-3.7-1 1.3-2.3 2.4-3.9 3.1s-3.3 1.1-5 1.1c-2.5 0-4.6-.7-6.2-2.1s-2.4-3.2-2.4-5.4c0-2.6 1.1-4.6 3.2-6.1s5.1-2.2 8.9-2.2h5.3v-3c0-1.9-.6-3.4-1.7-4.5-1.2-1.1-2.9-1.6-5.1-1.6-2 0-3.7.5-5.1 1.6-1.3 1-2 2.3-2 3.8h-2.9c0-2.1 1-3.9 2.9-5.5s4.4-2.3 7.2-2.3c2.9 0 5.3.7 7 2.2s2.6 3.5 2.6 6.2v12.4c0 2.6.3 4.5.8 5.7v.3zm-9.2-2.1c2 0 3.7-.5 5.2-1.4s2.7-2.2 3.4-3.8v-5.8h-5.2c-2.9 0-5.2.6-6.8 1.6s-2.5 2.5-2.5 4.3c0 1.5.5 2.7 1.6 3.7s2.6 1.4 4.3 1.4z"/><path d="m137.2 58 .4 2.3.6-2.4 6.3-20.2h2.5l6.3 20 .7 2.8.6-2.6 5.4-20.3h3l-7.6 26.4h-2.5l-6.8-20.9-.3-1.4-.3 1.5-6.7 20.8h-2.5l-7.7-26.4h3z"/><path d="m179.8 40.1c-.6-.1-1.3-.2-2-.2-1.8 0-3.4.5-4.6 1.5-1.3 1-2.2 2.5-2.7 4.4v18.2h-2.9v-26.4h2.9v4.2c1.5-3.1 4-4.7 7.4-4.7.8 0 1.5.1 1.9.3z"/><path d="m199.1 64c-.3-.8-.5-2.1-.6-3.7-1 1.3-2.3 2.4-3.9 3.1s-3.3 1.1-5 1.1c-2.5 0-4.6-.7-6.2-2.1s-2.4-3.2-2.4-5.4c0-2.6 1.1-4.6 3.2-6.1s5.1-2.2 8.9-2.2h5.3v-3c0-1.9-.6-3.4-1.7-4.5-1.2-1.1-2.9-1.6-5.1-1.6-2 0-3.7.5-5.1 1.6-1.3 1-2 2.3-2 3.8h-2.9c0-2.1 1-3.9 2.9-5.5s4.4-2.3 7.2-2.3c2.9 0 5.3.7 7 2.2s2.6 3.5 2.6 6.2v12.4c0 2.6.3 4.5.8 5.7v.3zm-9.2-2.1c2 0 3.7-.5 5.2-1.4s2.7-2.2 3.4-3.8v-5.8h-5.2c-2.9 0-5.2.6-6.8 1.6s-2.5 2.5-2.5 4.3c0 1.5.5 2.7 1.6 3.7 1.2.9 2.6 1.4 4.3 1.4z"/><path d="m229.5 51.1c0 4.1-.9 7.4-2.7 9.8s-4.3 3.6-7.3 3.6c-3.6 0-6.4-1.3-8.3-3.8v13.5h-2.9v-36.6h2.7l.1 3.7c1.9-2.8 4.7-4.2 8.3-4.2 3.2 0 5.6 1.2 7.4 3.6s2.7 5.7 2.7 10zm-3-.5c0-3.4-.7-6-2.1-8s-3.3-2.9-5.8-2.9c-1.8 0-3.3.4-4.6 1.3s-2.3 2.1-3 3.8v12.7c.7 1.5 1.7 2.7 3 3.5s2.8 1.2 4.6 1.2c2.5 0 4.4-1 5.8-2.9 1.5-2.2 2.1-5 2.1-8.7z"/><path d="m256.2 51.1c0 4.1-.9 7.4-2.7 9.8s-4.3 3.6-7.3 3.6c-3.6 0-6.4-1.3-8.3-3.8v13.5h-2.9v-36.6h2.7l.1 3.7c1.9-2.8 4.7-4.2 8.3-4.2 3.2 0 5.6 1.2 7.4 3.6s2.7 5.7 2.7 10zm-3-.5c0-3.4-.7-6-2.1-8s-3.3-2.9-5.8-2.9c-1.8 0-3.3.4-4.6 1.3s-2.3 2.1-3 3.8v12.7c.7 1.5 1.7 2.7 3 3.5s2.8 1.2 4.6 1.2c2.5 0 4.4-1 5.8-2.9 1.5-2.2 2.1-5 2.1-8.7z"/><path d="m271.9 64.5c-2.2 0-4.3-.6-6.1-1.7s-3.2-2.6-4.2-4.6-1.5-4.2-1.5-6.7v-1c0-2.5.5-4.8 1.5-6.9 1-2 2.4-3.6 4.1-4.8s3.7-1.7 5.7-1.7c3.2 0 5.7 1.1 7.6 3.3s2.8 5.2 2.8 9v1.6h-18.8v.6c0 3 .9 5.5 2.6 7.5s3.9 3 6.5 3c1.6 0 2.9-.3 4.1-.9s2.3-1.5 3.3-2.7l1.8 1.4c-2.2 3.1-5.3 4.6-9.4 4.6zm-.6-24.9c-2.2 0-4 .8-5.6 2.4-1.5 1.6-2.4 3.8-2.7 6.5h15.8v-.3c-.1-2.5-.8-4.6-2.2-6.2-1.3-1.6-3-2.4-5.3-2.4z"/><path d="m298.7 40.1c-.6-.1-1.3-.2-2-.2-1.8 0-3.4.5-4.6 1.5-1.3 1-2.2 2.5-2.7 4.4v18.2h-2.9v-26.4h2.9v4.2c1.5-3.1 4-4.7 7.4-4.7.8 0 1.5.1 1.9.3z"/><path d="m323.2 93.4h-320.4v-89.7h2.7v87h317.7z"/></svg>