<?xml version="1.0" encoding="utf-8"?>
<!-- Generator: Adobe Illustrator 23.0.2, SVG Export Plug-In . SVG Version: 6.00 Build 0)  -->
<svg version="1.1" id="Layer_1" xmlns="http://www.w3.org/2000/svg" xmlns:xlink="http://www.w3.org/1999/xlink" x="0px" y="0px"
	 viewBox="0 0 326.4 98.3" style="enable-background:new 0 0 326.4 98.3;" xml:space="preserve">
<g>
	<path d="M33.2,64V28.5h9.9c2.9,0,5.5,0.7,7.8,2c2.3,1.3,4.1,3.2,5.4,5.7c1.3,2.5,1.9,5.3,1.9,8.4v3.3c0,3.2-0.6,6-1.9,8.4
		c-1.3,2.5-3.1,4.4-5.4,5.7c-2.3,1.3-5,2-8,2H33.2z M36.2,31v30.5H43c3.7,0,6.7-1.2,9-3.7c2.3-2.5,3.4-5.8,3.4-10.1v-3.1
		c0-4.1-1.1-7.4-3.3-9.8c-2.2-2.5-5.2-3.7-8.8-3.7H36.2z"/>
	<path d="M81,64c-0.3-0.8-0.5-2.1-0.6-3.7c-1,1.3-2.3,2.4-3.9,3.1c-1.6,0.7-3.3,1.1-5,1.1c-2.5,0-4.6-0.7-6.2-2.1
		c-1.6-1.4-2.4-3.2-2.4-5.4c0-2.6,1.1-4.6,3.2-6.1c2.1-1.5,5.1-2.2,8.9-2.2h5.3v-3c0-1.9-0.6-3.4-1.7-4.5c-1.2-1.1-2.9-1.6-5.1-1.6
		c-2,0-3.7,0.5-5.1,1.6c-1.3,1-2,2.3-2,3.8l-2.9,0c0-2.1,1-3.9,2.9-5.5s4.4-2.3,7.2-2.3c2.9,0,5.3,0.7,7,2.2
		c1.7,1.5,2.6,3.5,2.6,6.2V58c0,2.6,0.3,4.5,0.8,5.7V64H81z M71.8,61.9c2,0,3.7-0.5,5.2-1.4c1.5-0.9,2.7-2.2,3.4-3.8v-5.8h-5.2
		c-2.9,0-5.2,0.6-6.8,1.6c-1.6,1-2.5,2.5-2.5,4.3c0,1.5,0.5,2.7,1.6,3.7S70,61.9,71.8,61.9z"/>
	<path d="M94.6,30.9v6.8h5.5V40h-5.5v17.6c0,1.5,0.3,2.6,0.8,3.3c0.5,0.7,1.4,1.1,2.6,1.1c0.5,0,1.3-0.1,2.4-0.2l0.1,2.4
		c-0.8,0.3-1.8,0.4-3.1,0.4c-2,0-3.5-0.6-4.4-1.7c-0.9-1.2-1.4-2.9-1.4-5.1V40h-4.9v-2.4h4.9v-6.8H94.6z"/>
	<path d="M121.8,64c-0.3-0.8-0.5-2.1-0.6-3.7c-1,1.3-2.3,2.4-3.9,3.1c-1.6,0.7-3.3,1.1-5,1.1c-2.5,0-4.6-0.7-6.2-2.1
		c-1.6-1.4-2.4-3.2-2.4-5.4c0-2.6,1.1-4.6,3.2-6.1c2.1-1.5,5.1-2.2,8.9-2.2h5.3v-3c0-1.9-0.6-3.4-1.7-4.5c-1.2-1.1-2.9-1.6-5.1-1.6
		c-2,0-3.7,0.5-5.1,1.6c-1.3,1-2,2.3-2,3.8l-2.9,0c0-2.1,1-3.9,2.9-5.5s4.4-2.3,7.2-2.3c2.9,0,5.3,0.7,7,2.2
		c1.7,1.5,2.6,3.5,2.6,6.2V58c0,2.6,0.3,4.5,0.8,5.7V64H121.8z M112.6,61.9c2,0,3.7-0.5,5.2-1.4c1.5-0.9,2.7-2.2,3.4-3.8v-5.8H116
		c-2.9,0-5.2,0.6-6.8,1.6c-1.6,1-2.5,2.5-2.5,4.3c0,1.5,0.5,2.7,1.6,3.7S110.9,61.9,112.6,61.9z"/>
	<path d="M137.2,58l0.4,2.3l0.6-2.4l6.3-20.2h2.5l6.3,20l0.7,2.8l0.6-2.6l5.4-20.3h3L155.4,64h-2.5l-6.8-20.9l-0.3-1.4l-0.3,1.5
		L138.8,64h-2.5l-7.7-26.4h3L137.2,58z"/>
	<path d="M179.8,40.1c-0.6-0.1-1.3-0.2-2-0.2c-1.8,0-3.4,0.5-4.6,1.5c-1.3,1-2.2,2.5-2.7,4.4V64h-2.9V37.6h2.9l0,4.2
		c1.5-3.1,4-4.7,7.4-4.7c0.8,0,1.5,0.1,1.9,0.3L179.8,40.1z"/>
	<path d="M199.1,64c-0.3-0.8-0.5-2.1-0.6-3.7c-1,1.3-2.3,2.4-3.9,3.1c-1.6,0.7-3.3,1.1-5,1.1c-2.5,0-4.6-0.7-6.2-2.1
		c-1.6-1.4-2.4-3.2-2.4-5.4c0-2.6,1.1-4.6,3.2-6.1c2.1-1.5,5.1-2.2,8.9-2.2h5.3v-3c0-1.9-0.6-3.4-1.7-4.5c-1.2-1.1-2.9-1.6-5.1-1.6
		c-2,0-3.7,0.5-5.1,1.6c-1.3,1-2,2.3-2,3.8l-2.9,0c0-2.1,1-3.9,2.9-5.5s4.4-2.3,7.2-2.3c2.9,0,5.3,0.7,7,2.2
		c1.7,1.5,2.6,3.5,2.6,6.2V58c0,2.6,0.3,4.5,0.8,5.7V64H199.1z M189.9,61.9c2,0,3.7-0.5,5.2-1.4c1.5-0.9,2.7-2.2,3.4-3.8v-5.8h-5.2
		c-2.9,0-5.2,0.6-6.8,1.6c-1.6,1-2.5,2.5-2.5,4.3c0,1.5,0.5,2.7,1.6,3.7C186.8,61.4,188.2,61.9,189.9,61.9z"/>
	<path d="M229.5,51.1c0,4.1-0.9,7.4-2.7,9.8c-1.8,2.4-4.3,3.6-7.3,3.6c-3.6,0-6.4-1.3-8.3-3.8v13.5h-2.9V37.6h2.7l0.1,3.7
		c1.9-2.8,4.7-4.2,8.3-4.2c3.2,0,5.6,1.2,7.4,3.6c1.8,2.4,2.7,5.7,2.7,10V51.1z M226.5,50.6c0-3.4-0.7-6-2.1-8
		c-1.4-2-3.3-2.9-5.8-2.9c-1.8,0-3.3,0.4-4.6,1.3c-1.3,0.9-2.3,2.1-3,3.8v12.7c0.7,1.5,1.7,2.7,3,3.5c1.3,0.8,2.8,1.2,4.6,1.2
		c2.5,0,4.4-1,5.8-2.9C225.9,57.1,226.5,54.3,226.5,50.6z"/>
	<path d="M256.2,51.1c0,4.1-0.9,7.4-2.7,9.8c-1.8,2.4-4.3,3.6-7.3,3.6c-3.6,0-6.4-1.3-8.3-3.8v13.5h-2.9V37.6h2.7l0.1,3.7
		c1.9-2.8,4.7-4.2,8.3-4.2c3.2,0,5.6,1.2,7.4,3.6c1.8,2.4,2.7,5.7,2.7,10V51.1z M253.2,50.6c0-3.4-0.7-6-2.1-8
		c-1.4-2-3.3-2.9-5.8-2.9c-1.8,0-3.3,0.4-4.6,1.3c-1.3,0.9-2.3,2.1-3,3.8v12.7c0.7,1.5,1.7,2.7,3,3.5c1.3,0.8,2.8,1.2,4.6,1.2
		c2.5,0,4.4-1,5.8-2.9C252.6,57.1,253.2,54.3,253.2,50.6z"/>
	<path d="M271.9,64.5c-2.2,0-4.3-0.6-6.1-1.7c-1.8-1.1-3.2-2.6-4.2-4.6c-1-2-1.5-4.2-1.5-6.7v-1c0-2.5,0.5-4.8,1.5-6.9
		c1-2,2.4-3.6,4.1-4.8s3.7-1.7,5.7-1.7c3.2,0,5.7,1.1,7.6,3.3c1.9,2.2,2.8,5.2,2.8,9V51h-18.8v0.6c0,3,0.9,5.5,2.6,7.5
		c1.7,2,3.9,3,6.5,3c1.6,0,2.9-0.3,4.1-0.9c1.2-0.6,2.3-1.5,3.3-2.7l1.8,1.4C279.1,63,276,64.5,271.9,64.5z M271.3,39.6
		c-2.2,0-4,0.8-5.6,2.4c-1.5,1.6-2.4,3.8-2.7,6.5h15.8v-0.3c-0.1-2.5-0.8-4.6-2.2-6.2C275.3,40.4,273.6,39.6,271.3,39.6z"/>
	<path d="M298.7,40.1c-0.6-0.1-1.3-0.2-2-0.2c-1.8,0-3.4,0.5-4.6,1.5c-1.3,1-2.2,2.5-2.7,4.4V64h-2.9V37.6h2.9l0,4.2
		c1.5-3.1,4-4.7,7.4-4.7c0.8,0,1.5,0.1,1.9,0.3L298.7,40.1z"/>
</g>
<g>
	<polygon points="323.2,93.4 2.8,93.4 2.8,3.7 5.5,3.7 5.5,90.7 323.2,90.7 	"/>
</g>
</svg>
