<svg clip-rule="evenodd" fill-rule="evenodd" stroke-linejoin="round" stroke-miterlimit="1" viewBox="0 0 1909 925" xmlns="http://www.w3.org/2000/svg"><path d="m1675 494 168-182h-197l-123 137v-345h-177v413l-106 102c-5 6-38 27-45 31-8 5-17 9-27 13-11 3-23 4-36 4s-25-2-36-8c-11-5-21-12-29-22-9-9-15-21-21-34-5-14-7-29-7-45 0-33 9-59 28-79 19-19 40-28 65-28 28 0 49 5 63 15 14 11 25 21 32 30l104-119c-21-24-48-44-81-59s-74-23-123-23a273 273 0 0 0 -190 76c-11 10-21 22-29 35a228 228 0 0 1 21 47l7 20c8 31 12 66 12 105v34h-333c1 8 3 17 7 26 3 9 10 18 20 26 9 8 22 14 37 19a276 276 0 0 0 197-27l5 11c6 15 14 29 22 43l4 5a254 254 0 0 0 115 89 324 324 0 0 0 230-6c17-8 32-17 46-27l48-51v86h177v-152l35-37 109 189h203zm-889-14c-4-9-9-18-16-25-8-8-17-14-28-20-11-5-24-8-39-8a90 90 0 0 0 -66 28 81 81 0 0 0 -21 51h175c0-8-2-17-5-26m-374 99c0 28-6 50-19 65-13 16-32 23-58 23-30 0-51-9-66-27-14-17-21-41-21-71 0-40 10-69 30-89s45-29 77-29c20 0 39 3 57 9zm0-266a311 311 0 0 0 -77-12c-40 0-76 7-109 20a251 251 0 0 0 -138 138 339 339 0 0 0 2 225 195 195 0 0 0 193 135 180 180 0 0 0 136-63l9 50h162v-7c-27-11-51-26-71-45-48-46-72-110-72-193 0-33 5-65 16-97a239 239 0 0 1 127-145v-215h-178z" fill="#030404" fill-rule="nonzero"/></svg>