<svg xmlns="http://www.w3.org/2000/svg" width="523" height="158"><rect id="backgroundrect" width="100%" height="100%" x="0" y="0" fill="none" stroke="none"/><style>.st0{fill:#fff}</style><g class="currentLayer"><path class="st0" d="M21.1 18.7v27.6h53.3V65H21.1v26.7h60.1v18.7H0V0h81.2v18.7H21.1z" id="svg_1"/><path d="M195.9 156.4H0v-18.7h195.9v18.7z" id="svg_2" fill="#ff5959"/><path class="st0" d="M193.7 110.2l-72.4-65.5v65.5h-21.1V0h2.3l72.4 66.7V0H196v110.2h-2.3z" id="svg_3"/><path class="st0" d="M299.8 64.9h-31.5v91.5h-21.1V64.9h-31.5V46.2h84.2v18.7z" id="svg_4"/><path class="st0" d="M363.1 158.4c-7.1 0-13.6-1.1-19.4-3.3-5.8-2.2-10.8-5.3-14.9-9.3-4.1-4-7.3-8.9-9.6-14.6-2.3-5.7-3.4-12.1-3.4-19.1V46.3h21.1V112c0 5.5.9 10.1 2.7 13.7 1.8 3.6 4 6.5 6.7 8.6 2.7 2.1 5.5 3.6 8.6 4.4 3.1.8 5.8 1.2 8.2 1.2 2.4 0 5.1-.4 8.2-1.2 3.1-.8 5.9-2.3 8.6-4.4 2.7-2.1 4.9-5 6.7-8.6 1.8-3.6 2.7-8.2 2.7-13.7V46.2h21.1V112c0 7-1.1 13.4-3.3 19.1-2.2 5.7-5.4 10.6-9.5 14.6s-9.1 7.1-14.9 9.3c-5.8 2.3-12.4 3.4-19.6 3.4z" id="svg_5"/><path class="st0" d="M451.2 121.4v35.1h-21.1V46.2h50.1c5.6 0 10.8.9 15.5 2.8 4.7 1.9 8.7 4.5 12 7.8 3.3 3.4 5.9 7.4 7.8 12 1.9 4.7 2.8 9.8 2.8 15.3 0 4.1-.6 8.1-1.7 12-1.1 3.9-2.6 7.4-4.6 10.5-2 3.1-4.4 5.8-7.2 8.1-2.9 2.3-6 3.8-9.4 4.7l27.4 37h-25.1l-25.5-35.1h-21zm0-18.4h24c4.4 0 8-.6 10.9-1.7 2.9-1.1 5.1-2.6 6.8-4.4 1.7-1.8 2.8-3.8 3.4-6.1.6-2.3.9-4.5.9-6.9 0-2.7-.4-5.2-1.3-7.5s-2.2-4.3-3.9-6c-1.8-1.7-4-3.1-6.8-4.1-2.8-1-6.1-1.5-10-1.5h-24V103z" id="svg_6"/></g></svg>