<svg version="1.1" xmlns="http://www.w3.org/2000/svg" xmlns:xlink="http://www.w3.org/1999/xlink" style="" xml:space="preserve" width="523" height="158"><rect id="backgroundrect" width="100%" height="100%" x="0" y="0" fill="none" stroke="none"/>
<style type="text/css">
	.st0{fill:#FFFFFF;}
	.st1{fill:#FF5959;}
</style>






<g class="currentLayer" style=""><title>Layer 1</title><path class="st0" d="M21.099990844726562,18.699996948242188 v27.600000381469727 h53.29999923706055 v18.700000762939453 h-53.29999923706055 v26.700000762939453 h60.099998474121094 v18.700000762939453 h-81.19999694824219 V0 h81.19999694824219 v18.700000762939453 H21.099990844726562 z" id="svg_1"/><path class="st1" d="M195.90000915527344,156.39999389648438 H0 v-18.700000762939453 h195.89999389648438 V156.39999389648438 z" id="svg_2"/><path class="st0" d="M193.6999969482422,110.19999694824219 l-72.4000015258789,-65.5 v65.5 h-21.100000381469727 V0 h2.299999952316284 l72.4000015258789,66.69999694824219 V0 h21.100000381469727 v110.19999694824219 H193.6999969482422 z" id="svg_3"/><path class="st0" d="M299.8000030517578,64.89999389648438 h-31.5 v91.5 h-21.100000381469727 v-91.5 H215.6999969482422 v-18.700000762939453 h84.19999694824219 V64.89999389648438 z" id="svg_4"/><path class="st0" d="M363.09999084472656,158.39999389648438 c-7.099999904632568,0 -13.600000381469727,-1.100000023841858 -19.399999618530273,-3.299999952316284 c-5.800000190734863,-2.200000047683716 -10.800000190734863,-5.300000190734863 -14.899999618530273,-9.300000190734863 c-4.099999904632568,-4 -7.300000190734863,-8.899999618530273 -9.600000381469727,-14.600000381469727 c-2.299999952316284,-5.699999809265137 -3.4000000953674316,-12.100000381469727 -3.4000000953674316,-19.100000381469727 v-65.80000305175781 h21.100000381469727 V112 c0,5.5 0.8999999761581421,10.100000381469727 2.700000047683716,13.699999809265137 c1.7999999523162842,3.5999999046325684 4,6.5 6.699999809265137,8.600000381469727 c2.700000047683716,2.0999999046325684 5.5,3.5999999046325684 8.600000381469727,4.400000095367432 c3.0999999046325684,0.800000011920929 5.800000190734863,1.2000000476837158 8.199999809265137,1.2000000476837158 c2.4000000953674316,0 5.099999904632568,-0.4000000059604645 8.199999809265137,-1.2000000476837158 c3.0999999046325684,-0.800000011920929 5.900000095367432,-2.299999952316284 8.600000381469727,-4.400000095367432 c2.700000047683716,-2.0999999046325684 4.900000095367432,-5 6.699999809265137,-8.600000381469727 c1.7999999523162842,-3.5999999046325684 2.700000047683716,-8.199999809265137 2.700000047683716,-13.699999809265137 v-65.80000305175781 h21.100000381469727 V112 c0,7 -1.100000023841858,13.399999618530273 -3.299999952316284,19.100000381469727 c-2.200000047683716,5.699999809265137 -5.400000095367432,10.600000381469727 -9.5,14.600000381469727 c-4.099999904632568,4 -9.100000381469727,7.099999904632568 -14.899999618530273,9.300000190734863 C376.90000915527344,157.29998779296875 370.3000030517578,158.39999389648438 363.09999084472656,158.39999389648438 z" id="svg_5"/><path class="st0" d="M451.1999969482422,121.39999389648438 v35.099998474121094 h-21.100000381469727 V46.19999694824219 h50.099998474121094 c5.599999904632568,0 10.800000190734863,0.8999999761581421 15.5,2.799999952316284 c4.699999809265137,1.899999976158142 8.699999809265137,4.5 12,7.800000190734863 c3.299999952316284,3.4000000953674316 5.900000095367432,7.400000095367432 7.800000190734863,12 c1.899999976158142,4.699999809265137 2.799999952316284,9.800000190734863 2.799999952316284,15.300000190734863 c0,4.099999904632568 -0.6000000238418579,8.100000381469727 -1.7000000476837158,12 c-1.100000023841858,3.9000000953674316 -2.5999999046325684,7.400000095367432 -4.599999904632568,10.5 c-2,3.0999999046325684 -4.400000095367432,5.800000190734863 -7.199999809265137,8.100000381469727 c-2.9000000953674316,2.299999952316284 -6,3.799999952316284 -9.399999618530273,4.699999809265137 l27.399999618530273,37 h-25.100000381469727 l-25.5,-35.099998474121094 H451.1999969482422 zM451.1999969482422,103 h24 c4.400000095367432,0 8,-0.6000000238418579 10.899999618530273,-1.7000000476837158 c2.9000000953674316,-1.100000023841858 5.099999904632568,-2.5999999046325684 6.800000190734863,-4.400000095367432 c1.7000000476837158,-1.7999999523162842 2.799999952316284,-3.799999952316284 3.4000000953674316,-6.099999904632568 c0.6000000238418579,-2.299999952316284 0.8999999761581421,-4.5 0.8999999761581421,-6.900000095367432 c0,-2.700000047683716 -0.4000000059604645,-5.199999809265137 -1.2999999523162842,-7.5 c-0.8999999761581421,-2.299999952316284 -2.200000047683716,-4.300000190734863 -3.9000000953674316,-6 c-1.7999999523162842,-1.7000000476837158 -4,-3.0999999046325684 -6.800000190734863,-4.099999904632568 c-2.799999952316284,-1 -6.099999904632568,-1.5 -10,-1.5 h-24 V103 z" id="svg_6"/></g></svg>