<svg xmlns="http://www.w3.org/2000/svg" viewBox="0 0 340.28 71.94"><defs><style>.cls-1{fill:#9acc60;}.cls-2{fill:#b3967e;}.cls-3{fill:#80b747;}</style></defs><title>Asset 1</title><g id="Layer_2" data-name="Layer 2"><g id="Layer_1-2" data-name="Layer 1"><path class="cls-1" d="M18,19.82a11,11,0,0,0-2.7,7.79v2.14h8.1a3.81,3.81,0,0,1,2.7,1,3.27,3.27,0,0,1,1,2.54,3.09,3.09,0,0,1-1,2.38,3.81,3.81,0,0,1-2.7,1h-8.1v31a4,4,0,0,1-1.12,2.94A4.19,4.19,0,0,1,11,71.62,3.81,3.81,0,0,1,8.3,70.51a3.92,3.92,0,0,1-1.15-2.94v-31H3.73a3.81,3.81,0,0,1-2.7-1,3.09,3.09,0,0,1-1-2.38,3.27,3.27,0,0,1,1-2.54,3.81,3.81,0,0,1,2.7-1H7.15V28.4a20.83,20.83,0,0,1,2.26-9.89,16.28,16.28,0,0,1,6.36-6.59,18.48,18.48,0,0,1,9.34-2.35,4.19,4.19,0,0,1,2.9,1,3.36,3.36,0,0,1,1.15,2.62A3.36,3.36,0,0,1,28,15.85a4.19,4.19,0,0,1-2.9,1A9.24,9.24,0,0,0,18,19.82Z"/><path class="cls-1" d="M64.71,30.75a21.41,21.41,0,0,1,7.87,7.94,22.2,22.2,0,0,1,2.9,11.24V67.65a4.06,4.06,0,1,1-8.11,0V64.71a20,20,0,0,1-25.7,4.37,20.06,20.06,0,0,1-7.31-7.9A23.79,23.79,0,0,1,31.7,49.93a22.37,22.37,0,0,1,2.86-11.24,20.85,20.85,0,0,1,7.9-7.94,22,22,0,0,1,11.17-2.9A21.51,21.51,0,0,1,64.71,30.75ZM60.82,62.84a13.73,13.73,0,0,0,5-5.32,15.66,15.66,0,0,0,1.83-7.59,15.89,15.89,0,0,0-1.83-7.62,14,14,0,0,0-19.42-5.37,14,14,0,0,0-5.09,5.37,15.69,15.69,0,0,0-1.87,7.62,15.47,15.47,0,0,0,1.87,7.59,14,14,0,0,0,5.09,5.32,14.23,14.23,0,0,0,14.38,0Z"/><path class="cls-1" d="M115.44,29c1.59.85,2.38,1.91,2.38,3.18a2.87,2.87,0,0,1-.08.79,3.06,3.06,0,0,1-3.18,2.54,6.91,6.91,0,0,1-1.18-.15,31.7,31.7,0,0,0-5.17-.56q-5.73,0-9.22,2.62a8.39,8.39,0,0,0-3.49,7.07v23.2a4.08,4.08,0,0,1-1,2.94,4,4,0,0,1-3,1,4.09,4.09,0,0,1-3-1,4,4,0,0,1-1-3V32.14a3.59,3.59,0,0,1,4-4c2.64,0,4,1.32,4,4v1.51a16.62,16.62,0,0,1,5.88-4.37,17.78,17.78,0,0,1,7.46-1.59A14.15,14.15,0,0,1,115.44,29Z"/><path class="cls-1" d="M183,32.3q4.25,4.53,4.25,12.63V67.65a4,4,0,0,1-1.11,2.9,4.07,4.07,0,0,1-7-2.9V44.93q0-4.84-2.43-7.35a8.57,8.57,0,0,0-6.47-2.5,8.89,8.89,0,0,0-6.8,2.86,10.32,10.32,0,0,0-2.66,7.31v22.4a4,4,0,0,1-1.11,2.9,3.89,3.89,0,0,1-2.94,1.15,3.93,3.93,0,0,1-4.05-4V44.93q0-4.84-2.42-7.35a8.61,8.61,0,0,0-6.48-2.5,8.94,8.94,0,0,0-6.87,2.86,10.28,10.28,0,0,0-2.66,7.31v22.4a4,4,0,0,1-1.11,2.9,4.29,4.29,0,0,1-5.85,0,4,4,0,0,1-1.15-2.9V32.3a3.92,3.92,0,0,1,1.15-2.94,4,4,0,0,1,2.91-1.11,3.93,3.93,0,0,1,2.86,1.07,4,4,0,0,1,1.19,2.82,14.54,14.54,0,0,1,4.92-3.22,16.4,16.4,0,0,1,6.2-1.15,15.84,15.84,0,0,1,7.27,1.63A13.87,13.87,0,0,1,157.94,34a16.68,16.68,0,0,1,6-4.6,18.47,18.47,0,0,1,7.95-1.67A14.61,14.61,0,0,1,183,32.3Z"/><path class="cls-2" d="M234.49,30.71a20,20,0,0,1,7.31,7.9,23.66,23.66,0,0,1,2.66,11.24A22.38,22.38,0,0,1,241.6,61.1,20.85,20.85,0,0,1,233.7,69a22,22,0,0,1-11.16,2.9A21.42,21.42,0,0,1,203.59,61.1a22.11,22.11,0,0,1-2.9-11.25V13.62a3.88,3.88,0,0,1,1.15-2.93,4.37,4.37,0,0,1,5.84,0,4,4,0,0,1,1.11,2.93V35.08a20,20,0,0,1,25.7-4.37Zm-4.77,32.13a13.9,13.9,0,0,0,5.09-5.36,15.7,15.7,0,0,0,1.87-7.63,15.45,15.45,0,0,0-1.87-7.58,14.1,14.1,0,0,0-5.09-5.33,14.29,14.29,0,0,0-14.38,0,13.82,13.82,0,0,0-5,5.33,15.65,15.65,0,0,0-1.83,7.58,15.9,15.9,0,0,0,1.83,7.63,14,14,0,0,0,19.42,5.36Z"/><path class="cls-2" d="M263,69.12a19.93,19.93,0,0,1-7.78-7.83,22.9,22.9,0,0,1-2.78-11.36,23.1,23.1,0,0,1,2.78-11.44A20,20,0,0,1,263,30.67a22.76,22.76,0,0,1,11.36-2.82,22.37,22.37,0,0,1,11.25,2.82,20.39,20.39,0,0,1,7.79,7.82,23,23,0,0,1,2.81,11.44,23,23,0,0,1-2.78,11.36,19.92,19.92,0,0,1-7.75,7.83,22.51,22.51,0,0,1-11.32,2.82A22.76,22.76,0,0,1,263,69.12Zm18.63-6.24a13.14,13.14,0,0,0,5-5.28,16.16,16.16,0,0,0,1.78-7.67,16.34,16.34,0,0,0-1.78-7.7,13,13,0,0,0-5-5.32,14.79,14.79,0,0,0-14.54,0,13.33,13.33,0,0,0-5,5.32,16,16,0,0,0-1.83,7.7,15.84,15.84,0,0,0,1.83,7.67,13.48,13.48,0,0,0,5,5.28,14.79,14.79,0,0,0,14.54,0Z"/><path class="cls-2" d="M340.28,68.29a3.18,3.18,0,0,1-1,2.38,3.58,3.58,0,0,1-2.59,1,3.35,3.35,0,0,1-2.86-1.27L321.21,55.26l-12,15.09a3.77,3.77,0,0,1-2.86,1.27,3.19,3.19,0,0,1-3.41-3.33,4.53,4.53,0,0,1,1.11-2.94l12.31-15.42L303.25,34.44a4.67,4.67,0,0,1-1.19-3,3.23,3.23,0,0,1,.91-2.3,3.41,3.41,0,0,1,2.59-.95,3.71,3.71,0,0,1,3,1.35l13,15.57,11.68-15.57a3.47,3.47,0,0,1,2.93-1.35,3.24,3.24,0,0,1,2.51,1,3.44,3.44,0,0,1,.91,2.42,5,5,0,0,1-1.11,3.18l-12,15.65,12.63,15.1A3.94,3.94,0,0,1,340.28,68.29Z"/><path class="cls-1" d="M279.8,8.76A19.39,19.39,0,0,0,279.22,5a30.43,30.43,0,0,0-5.38,1.49C262.07,11.2,261,21.73,261.22,26.63c1.94-4.55,7.13-13.71,17.53-14.6-8,2.35-13,10.67-15,14.85,2.7-1.62,6.78-2,9-2.22l.28,0A19.43,19.43,0,0,0,279.8,8.76Z"/><path class="cls-3" d="M295.19,0c-3.58,3.4-10.12,3.84-16,5A19.45,19.45,0,0,1,273,24.63C299.84,21.32,295.19,0,295.19,0Z"/></g></g></svg>