<?xml version="1.0" encoding="UTF-8"?>
<svg width="735px" height="115px" viewBox="0 0 735 115" version="1.1" xmlns="http://www.w3.org/2000/svg" xmlns:xlink="http://www.w3.org/1999/xlink">
    <!-- Generator: Sketch 51.1 (57501) - http://www.bohemiancoding.com/sketch -->
    <title>logo colour</title>
    <desc>Created with Sketch.</desc>
    <defs></defs>
    <g id="Page-3" stroke="none" stroke-width="1" fill="none" fill-rule="evenodd">
        <g id="concept-one-rough-test-copy" transform="translate(-23.000000, -11.000000)" fill="#373C8B">
            <g id="logo-colour">
                <path d="M185.446,92 L185.446,24.638 L226.131,24.638 L226.131,34.732 L197.394,34.732 L197.394,53.787 L221.805,53.787 L221.805,63.881 L197.394,63.881 L197.394,92 L185.446,92 Z M234.268,73.151 L234.268,41.427 L246.113,41.427 L246.113,71.606 C246.113,79.949 248.482,83.039 253.941,83.039 C258.37,83.039 261.357,80.979 265.168,76.035 L265.168,41.427 L277.013,41.427 L277.013,92 L267.331,92 L266.404,84.584 L266.095,84.584 C261.666,89.837 256.722,93.236 249.821,93.236 C239.006,93.236 234.268,85.923 234.268,73.151 Z M287.004,86.232 L292.566,78.61 C297.098,82.112 301.424,84.275 306.574,84.275 C312.033,84.275 314.608,81.7 314.608,78.198 C314.608,73.975 309.149,72.121 303.793,70.061 C297.098,67.589 289.579,63.778 289.579,55.332 C289.579,46.474 296.686,40.191 308.016,40.191 C315.02,40.191 320.685,43.075 324.805,46.268 L319.346,53.478 C315.844,50.903 312.239,49.152 308.222,49.152 C303.175,49.152 300.806,51.521 300.806,54.714 C300.806,58.628 305.853,60.276 311.312,62.233 C318.213,64.808 325.835,68.104 325.835,77.58 C325.835,86.232 318.934,93.236 306.162,93.236 C299.261,93.236 291.948,90.249 287.004,86.232 Z M342.418,32.569 C338.195,32.569 335.105,29.788 335.105,25.874 C335.105,21.857 338.195,19.076 342.418,19.076 C346.641,19.076 349.731,21.857 349.731,25.874 C349.731,29.788 346.641,32.569 342.418,32.569 Z M336.444,92 L336.444,41.427 L348.289,41.427 L348.289,92 L336.444,92 Z M360.134,66.765 C360.134,49.873 371.567,40.191 384.133,40.191 C396.802,40.191 408.235,49.873 408.235,66.765 C408.235,83.554 396.802,93.236 384.133,93.236 C371.567,93.236 360.134,83.554 360.134,66.765 Z M372.288,66.765 C372.288,76.859 376.717,83.554 384.133,83.554 C391.549,83.554 396.081,76.859 396.081,66.765 C396.081,56.568 391.549,49.873 384.133,49.873 C376.717,49.873 372.288,56.568 372.288,66.765 Z M419.977,92 L419.977,41.427 L429.762,41.427 L430.586,48.225 L430.998,48.225 C435.53,43.796 440.68,40.191 447.581,40.191 C458.396,40.191 463.134,47.504 463.134,60.276 L463.134,92 L451.289,92 L451.289,61.821 C451.289,53.478 448.92,50.388 443.358,50.388 C438.929,50.388 436.045,52.551 431.822,56.671 L431.822,92 L419.977,92 Z M474.979,58.525 C474.979,36.483 488.781,23.402 506.085,23.402 C514.325,23.402 521.02,27.419 525.243,31.951 L518.651,39.367 C515.149,35.968 511.338,33.805 506.188,33.805 C495.167,33.805 487.236,43.075 487.236,58.216 C487.236,73.563 494.549,82.833 505.776,82.833 C511.75,82.833 516.179,80.361 519.99,76.138 L526.582,83.451 C521.123,89.734 514.119,93.236 505.57,93.236 C488.472,93.236 474.979,80.876 474.979,58.525 Z M536.676,92 L536.676,19.282 L548.521,19.282 L548.521,38.028 L548.109,47.813 C552.332,43.796 557.379,40.191 564.28,40.191 C575.095,40.191 579.833,47.504 579.833,60.276 L579.833,92 L567.988,92 L567.988,61.821 C567.988,53.478 565.619,50.388 560.057,50.388 C555.628,50.388 552.744,52.551 548.521,56.671 L548.521,92 L536.676,92 Z M591.987,78.404 C591.987,67.589 601.051,61.924 621.754,59.658 C621.651,54.302 619.385,49.77 612.587,49.77 C607.54,49.77 602.802,52.036 598.373,54.714 L594.047,46.783 C599.609,43.281 606.716,40.191 614.75,40.191 C627.419,40.191 633.599,47.916 633.599,62.027 L633.599,92 L623.917,92 L622.99,86.438 L622.681,86.438 C618.149,90.249 612.999,93.236 607.025,93.236 C598.167,93.236 591.987,87.262 591.987,78.404 Z M603.523,77.477 C603.523,82.009 606.51,83.966 610.733,83.966 C614.853,83.966 618.046,81.906 621.754,78.404 L621.754,67.074 C608.055,68.825 603.523,72.43 603.523,77.477 Z M648.019,92 L648.019,41.427 L657.804,41.427 L658.628,50.388 L659.04,50.388 C662.645,43.796 668.001,40.191 673.357,40.191 C675.932,40.191 677.58,40.5 679.125,41.221 L677.065,51.521 C675.314,51.006 673.975,50.697 671.812,50.697 C667.795,50.697 662.954,53.478 659.864,61.1 L659.864,92 L648.019,92 Z M688.189,74.902 L688.189,50.8 L680.979,50.8 L680.979,41.942 L688.807,41.427 L690.249,27.625 L700.137,27.625 L700.137,41.427 L713.012,41.427 L713.012,50.8 L700.137,50.8 L700.137,74.902 C700.137,80.876 702.403,83.76 707.244,83.76 C708.995,83.76 711.055,83.245 712.497,82.627 L714.557,91.382 C711.776,92.309 708.274,93.236 704.257,93.236 C692.515,93.236 688.189,85.82 688.189,74.902 Z M718.574,86.232 L724.136,78.61 C728.668,82.112 732.994,84.275 738.144,84.275 C743.603,84.275 746.178,81.7 746.178,78.198 C746.178,73.975 740.719,72.121 735.363,70.061 C728.668,67.589 721.149,63.778 721.149,55.332 C721.149,46.474 728.256,40.191 739.586,40.191 C746.59,40.191 752.255,43.075 756.375,46.268 L750.916,53.478 C747.414,50.903 743.809,49.152 739.792,49.152 C734.745,49.152 732.376,51.521 732.376,54.714 C732.376,58.628 737.423,60.276 742.882,62.233 C749.783,64.808 757.405,68.104 757.405,77.58 C757.405,86.232 750.504,93.236 737.732,93.236 C730.831,93.236 723.518,90.249 718.574,86.232 Z" id="FusionCharts"></path>
                <rect id="Rectangle-2-Copy-4" x="23.4041667" y="22.8571429" width="23.4041667" height="68.5714286"></rect>
                <rect id="Rectangle-2-Copy-5" x="57.0833333" y="56.5714286" width="23.975" height="34.8571429"></rect>
                <rect id="Rectangle-2-Copy-6" x="91.9041667" y="11.4285714" width="22.2625" height="80"></rect>
                <rect id="Rectangle-2-Copy-7" x="91.9041667" y="101.714286" width="22.2625" height="23.4285714"></rect>
            </g>
        </g>
    </g>
</svg>