<svg viewBox="0 0 418.42 116.61" xmlns="http://www.w3.org/2000/svg"><g fill="#232222"><path d="m160.07 79.19a7.75 7.75 0 1 0 -7.75 7.81 7.81 7.81 0 0 0 7.75-7.83m13.47.08c0 11.23-9.45 20.22-21.22 20.22s-21.22-9-21.22-20.22 9.45-20.45 21.22-20.45 21.22 9.2 21.22 20.47"/><path d="m215.8 71.06c0-7.59-5.26-14.18-13-14.18h-10.8v28.67h10.77c7.75 0 13-6.9 13-14.49m14.57 0c0 16.19-11.31 27.27-27.27 27.27h-23.07a1.92 1.92 0 0 1 -1.94-1.94v-50.39a1.91 1.91 0 0 1 1.94-1.9h23.1c16 0 27.27 10.77 27.27 27"/><path d="m252.91 87.09a7.9 7.9 0 1 0 -7.75-7.9 7.8 7.8 0 0 0 7.75 7.9m-2-28.27c4.57 0 8.21 1.71 9.84 4.11v-1.16a1.81 1.81 0 0 1 1.76-1.77h9.68a1.76 1.76 0 0 1 1.81 1.77v34.78a1.76 1.76 0 0 1 -1.79 1.78h-9.68a1.76 1.76 0 0 1 -1.78-1.78v-1.17c-1.63 2.4-5.34 4.11-9.92 4.11-9.75 0-19.13-7.82-19.13-20.45s9.45-20.22 19.21-20.22"/><path d="m297 87.09a7.9 7.9 0 1 0 -7.74-7.9 7.8 7.8 0 0 0 7.74 7.9m-2.32-28.27c4.72 0 8.36 1.78 10 3.87v-16.8a1.81 1.81 0 0 1 1.78-1.79h9.84a1.75 1.75 0 0 1 1.78 1.79v50.66a1.75 1.75 0 0 1 -1.78 1.78h-9.68a1.75 1.75 0 0 1 -1.78-1.78v-1.17c-1.94 2.4-5.35 4.11-9.92 4.11-9.76 0-19.13-7.82-19.13-20.45s9.29-20.22 18.9-20.22"/><path d="m341.06 87.09a7.9 7.9 0 1 0 -7.75-7.9 7.79 7.79 0 0 0 7.75 7.9m-2.33-28.27c4.73 0 8.37 1.78 10 3.87v-16.8a1.81 1.81 0 0 1 1.78-1.79h9.83a1.76 1.76 0 0 1 1.79 1.79v50.66a1.76 1.76 0 0 1 -1.79 1.78h-9.68a1.75 1.75 0 0 1 -1.78-1.78v-1.17c-1.94 2.4-5.34 4.11-9.91 4.11-9.76 0-19.14-7.82-19.14-20.45s9.3-20.22 18.9-20.22"/><path d="m394.51 103.9c-2.41 8.14-8.06 12.71-16.89 12.71a19.42 19.42 0 0 1 -12.47-4.26 2.47 2.47 0 0 1 -.78-1.63 3.17 3.17 0 0 1 .62-1.63l3.64-5.57a2.05 2.05 0 0 1 1.55-.86 3 3 0 0 1 2 .78 8.34 8.34 0 0 0 4.49 1.7 4.12 4.12 0 0 0 4.18-2.94l1.24-3.87h-5.89a2.43 2.43 0 0 1 -2.32-1.86l-9.82-33.47a7 7 0 0 1 -.31-1.63c0-.78.54-1.4 1.63-1.4h11.62c1 0 1.63.93 1.86 1.86l6.43 24h.46l5.19-24c.23-.93.85-1.86 1.86-1.86h11.77c1.09 0 1.63.62 1.63 1.4a7 7 0 0 1 -.31 1.63z"/><path d="m117.31 90.81c-4.65 6.51-12.4 8.68-19.21 8.68-15.73 0-27.35-11.85-27.35-28.27 0-15.73 12.55-28.28 29-28.28 12.17 0 21.92 5.19 26.34 15.11.54 1.16.93 3-2.32 3.64l-8.6 1.55a3.37 3.37 0 0 1 -3.49-1.47 14.24 14.24 0 0 0 -11.68-5.89c-8.59 0-14.71 6.58-14.71 15.41 0 9.76 7 15.42 14.48 15.42 5 0 9.22-1.94 11.93-5.5h-7.59a1.92 1.92 0 0 1 -1.94-1.94v-7.27a1.92 1.92 0 0 1 1.94-1.94h23.19a1.93 1.93 0 0 1 1.94 1.94v24.4a1.92 1.92 0 0 1 -1.94 1.94h-8.06a1.91 1.91 0 0 1 -1.93-1.94z"/></g><path d="m28.87 9.94a3.75 3.75 0 0 1 0-.48c-.05-2.39 2.21-5 2.29-7.66v-.07a1.07 1.07 0 0 0 -.68-.92 2.86 2.86 0 0 0 -1.18-.21 3.62 3.62 0 0 0 -3 1.44c-1.11 2.34-2.89 4.79-2.91 7.33a4.42 4.42 0 0 0 .61 2.38c1 2.16 2.31 4.1 3.33 6.42a2.91 2.91 0 0 1 .26 1.15 3 3 0 0 1 -.86 2c-.17.23-1.29.18-1.86 1.11v.06.07.34a2.13 2.13 0 0 0 1.58 1.9 3.86 3.86 0 0 0 1.35.2 4.8 4.8 0 0 0 3.92-2.29 5.48 5.48 0 0 0 .79-2.83c0-3.6-3.26-6.76-3.64-10" fill="#ec7632"/><path d="m42 14.33a31.28 31.28 0 0 1 -3.13-5.07 4.76 4.76 0 0 1 -.69-2 2.91 2.91 0 0 1 1.16-2.18 2.53 2.53 0 0 0 .71-1.93 3.16 3.16 0 0 0 -1-2.43 3.44 3.44 0 0 0 -1.88-.72c-1.23 0-2 1-2.58 2.09a28.13 28.13 0 0 0 -1.46 4 5.67 5.67 0 0 0 -.26 1.65c.07 4.12 4.48 7.32 5.45 11.14a4.16 4.16 0 0 1 .16 1.12 8.6 8.6 0 0 1 -.69 2.87 2.43 2.43 0 0 0 -.17.85 2 2 0 0 0 2.14 1.91 2.24 2.24 0 0 0 1.6-.65c2.08-2.15 2.88-4 2.88-5.59 0-2.06-1.23-3.62-2.23-5" fill="#ec7632"/><path d="m5.74 14a5.66 5.66 0 0 1 -.48-2.51c0-1.24.22-2.58.22-3.86a6.11 6.11 0 0 0 -.3-2.1 1.18 1.18 0 0 0 -1.18-.71 3.68 3.68 0 0 0 -3.32 2.45 54.59 54.59 0 0 0 -.68 5.55 5.7 5.7 0 0 0 1.77 4.34c2 1.91 4.1 3.41 5.29 5.08a3.2 3.2 0 0 1 .76 1.81 3.37 3.37 0 0 1 -.29 1.29 10 10 0 0 0 -1.31 2.66v.14a.89.89 0 0 0 .78.86h.08c.45 0 .78-.19 1.16-.19h.28a4.42 4.42 0 0 0 4.18-3.53 5 5 0 0 0 .11-1.13c-.08-4.61-5.42-6.78-7.07-10.15" fill="#ec7632"/><path d="m19.14 13.11c-1.7-2.82-4-5.36-4.28-8.12l.1-.08a18.57 18.57 0 0 1 2.29-.73 7.13 7.13 0 0 0 1.68-.73c.53-.35 1.1-.7 1.14-1.43a1.07 1.07 0 0 0 -.48-.86 5.67 5.67 0 0 0 -2.91-.77c-3 0-6.18 2-6.95 4.9a5.72 5.72 0 0 0 -.17 1.34c.08 4.28 4.88 7.29 6.1 11.14a4.44 4.44 0 0 1 .24 1.37 9.7 9.7 0 0 1 -.53 2.66 1.81 1.81 0 0 0 -.1.61 1.38 1.38 0 0 0 .73 1.23 2.43 2.43 0 0 0 1.3.34 3.42 3.42 0 0 0 2.46-1 6.32 6.32 0 0 0 1.4-4 11.72 11.72 0 0 0 -2-5.88" fill="#ec7632"/><path d="m52.19 87.74-.19-.01" fill="#232222"/><path d="m9.69 62a5.15 5.15 0 0 1 .87-2.89 11.9 11.9 0 0 1 1.58-1.67l.58 2.47a12 12 0 0 0 -3 2.09m54.87-14a16.64 16.64 0 0 0 -7.59-1.62h-.1c-2.7-6.77-6.12-11.82-10.2-15a31.1 31.1 0 0 0 -19.32-6.16 45.33 45.33 0 0 0 -11.38 1.55c-.28-.73-.54-1.46-.87-2.12a.71.71 0 0 0 -1.06-.22 1.65 1.65 0 0 0 -.43 1.57 6 6 0 0 1 .08 1.46 52.17 52.17 0 0 0 -6.3 2.35l-1.06.49a.8.8 0 0 0 -.44.91l1.34 5.59c-.59.53-1.16 1.07-1.78 1.54s-.63 1.6-.17 1.74a12 12 0 0 0 2.81.35l1.37 5.83-.05.16c-.16.38-.4.78-.53 1.09-.32.71.3 1.54.67 1.32.16-.09.3-.22.45-.32l1.51 6.39a11.82 11.82 0 0 0 -2.86 2.74 7.45 7.45 0 0 0 -1.37 4.41 6 6 0 0 0 .49 2.49l.07.1a8.56 8.56 0 0 0 -.53 3c0 .4 0 .82.06 1.25a6.33 6.33 0 0 0 3.38 5 12.77 12.77 0 0 0 5.61 1.43l6.18 26.09a.8.8 0 0 0 .43.59l.32.07.39-.1 1.63-.89a78 78 0 0 0 7-4.39 5.6 5.6 0 0 1 3.4-1.08 15.89 15.89 0 0 1 3.74.7 24.65 24.65 0 0 0 6.34 1.06 14.07 14.07 0 0 0 3.18-.37 8.67 8.67 0 0 0 5.93-4.31 10.39 10.39 0 0 0 1.07-4.83c0-.5 0-.88-.06-1.12 0-2.56-1.41-5.26-2.71-7.87l-.38-.87c-2.24-4.31-2.68-5.92-2.65-6.52v-.08a20 20 0 0 1 5.11-1.75c1.19-.29 2.33-.59 3.26-.89a7 7 0 0 0 1.35-.59 3.3 3.3 0 0 0 .83-.65 2.64 2.64 0 0 0 .66-1.71 42.84 42.84 0 0 0 -.89-7 15 15 0 0 0 4.08-1.31c2-1 3.52-2.63 3.55-4.73s-1.58-3.7-3.56-4.77" fill="#232222"/><path d="m12.75 46.14c.49-.59 1-1.24 1.55-2l.13-.17c.52-.69 1.12-1.48 1.71-1.48h.06a9.05 9.05 0 0 1 4.31 2c.38.26.77.53 1.19.8.26.17.52.37.77.55a4.19 4.19 0 0 0 2.4 1.16h.37c.27 0 .43-.3.6-.61a2.69 2.69 0 0 1 .28-.46 1 1 0 0 0 -.12-.93l-.06-.1-.33-.7a11.13 11.13 0 0 0 -1.3-2.24c-.71-.91-1.37-1.81-2-2.67-.36-.49-.72-1-1.1-1.49a8.78 8.78 0 0 1 2.75-1.3c.45-.15.92-.31 1.37-.5a1.3 1.3 0 0 0 .54-1.39 1.18 1.18 0 0 0 -.51-.72 10.39 10.39 0 0 1 -3.27-.89 8.1 8.1 0 0 0 -1.67-.15 5.44 5.44 0 0 1 -2.22-.34c-.35-.17-.47-.73-.57-1.23l-.09-.39-.24-.78-.1-.34a41.73 41.73 0 0 1 10.15-1.35 27.89 27.89 0 0 1 17.35 5.48c3.37 2.62 6.31 6.86 8.74 12.61a14.55 14.55 0 0 0 -4.11 1.24 6.71 6.71 0 0 0 -3.07 2.84c-.22 0-.43 0-.62-.05a9.76 9.76 0 0 0 -1.61.19c-1-4-5.14-6.93-10.06-6.94-5.24 0-9.58 3.3-10.16 7.67a28.47 28.47 0 0 0 -9.38 1.77z" fill="#fff"/><path d="m9.49 32.35c1.08-.47 2.17-.87 3.21-1.24-.14.44-.27.87-.38 1.29a2.18 2.18 0 0 1 -.5.51l-.2.17v.42a15.33 15.33 0 0 1 -1.62 1.16z" fill="#fff"/><path d="m15.06 55.87a26.65 26.65 0 0 1 8.88-1.71c1 4 5.18 6.82 10 6.83 5.14 0 9.47-3.24 10.14-7.52a7.77 7.77 0 0 1 1.52-.21h.09a5.87 5.87 0 0 0 3.6 4.51 17.5 17.5 0 0 0 7.71 1.53h.32a42.32 42.32 0 0 1 .87 6.18 25.59 25.59 0 0 1 -3.29 1c-2.58.67-5.49 1.42-6.86 2.61-2.25 2-.21 6 2 10.27a39.72 39.72 0 0 1 2.4 5.37c-4.75-.7-7.91-1.93-10.56-4.09s-4.64-5.1-7.06-8.6a1.59 1.59 0 0 0 -1.3-.68 1.63 1.63 0 0 0 -.91.28 1.59 1.59 0 0 0 -.4 2.22l.14.21c2.47 3.57 4.61 6.65 7.51 9 3.13 2.57 7 4.09 12.22 4.8l.87.11a5.61 5.61 0 0 1 -4.57 5.9 10.89 10.89 0 0 1 -2.26.23 21.48 21.48 0 0 1 -5.44-.88 19.47 19.47 0 0 0 -4.91-.85 8.67 8.67 0 0 0 -5.17 1.7c-.92.64-3 2.09-5.55 3.54z" fill="#fff"/><path d="m15.58 72.7a8.92 8.92 0 0 1 -3.52-1 3.65 3.65 0 0 1 -2.09-3c0-.42-.05-.75-.05-1a4.9 4.9 0 0 1 1.18-3.5 8.19 8.19 0 0 1 2.08-1.6z" fill="#fff"/><path d="m57 56.61a15 15 0 0 1 -6.43-1.27c-1.44-.73-2.18-1.6-2.18-2.58s.74-1.84 2.18-2.58a12.66 12.66 0 0 1 4.05-1.1 18.7 18.7 0 0 1 2.38-.16h.48.3a14.15 14.15 0 0 1 5.64 1.32c1.65.86 2.21 1.84 2.19 2.47s-.54 1.62-2.19 2.48a12.47 12.47 0 0 1 -3.42 1.13 16.87 16.87 0 0 1 -3 .29z" fill="#00a753"/><path d="m34 58.27a8.78 8.78 0 0 1 -5.45-1.81 5 5 0 0 1 0-8.16 9.15 9.15 0 0 1 10.91 0 5 5 0 0 1 0 8.15 8.72 8.72 0 0 1 -5.46 1.82" fill="#00a753"/><path d="m11.43 44.9c.22-.81.37-1.59.48-2.25l.15-.88c.06-.38.13-.76.2-1.15a3.32 3.32 0 0 1 .33-.79c.09-.18.19-.38.28-.59a1.34 1.34 0 0 0 -.09-1.3.92.92 0 0 0 -.59-.2 2.22 2.22 0 0 0 -1 .31l-.25.06-.25.06a4.62 4.62 0 0 1 -1.42.22 4.85 4.85 0 0 1 -1.06-.12 2.65 2.65 0 0 1 .79-.65l.41-.23c.32-.17.65-.33 1-.53a4.59 4.59 0 0 0 .88-.63l.29-.14a.76.76 0 0 0 .42-.29l.31-.31a3.59 3.59 0 0 0 .83-1 11.23 11.23 0 0 0 1.26-3.49l.15-.61c.11-.45.24-.91.4-1.37.15.31.29.66.44 1.07.26.7.47 1.41.7 2.17s.54 1.8.89 2.7a.3.3 0 0 0 .32.23h.24l.13.09.08.21.18-.14a2.09 2.09 0 0 1 1.38-.41h.51.82.3a.89.89 0 0 1 .64.22l-.71.39a11.18 11.18 0 0 1 -2 .92 1.63 1.63 0 0 0 -.58 1 1 1 0 0 0 .15.77 1.21 1.21 0 0 0 .52.55l.32.26a22.81 22.81 0 0 1 3.56 4.52c-.14 0-.31-.18-.48-.35l-.11-.11a14.67 14.67 0 0 0 -2.35-1.53 13.69 13.69 0 0 1 -2.61-1.75 1.05 1.05 0 0 0 -.69-.29c-.62 0-1.13.63-1.66 1.3a8.52 8.52 0 0 1 -.84.92 12.56 12.56 0 0 0 -1.67 1.91l-.39.49-.17.23c-.13.17-.26.34-.4.49z" fill="#fcdb30"/><path d="m406.24 50.49.19-.2h4.74l.19.2v.75l-.19.18h-1.73v4.68l-.2.2h-.89l-.19-.2v-4.68h-1.73l-.19-.18z" fill="#232222"/><path d="m415.2 53.47 1.33-3 .27-.17h1.43l.19.19v5.63l-.18.18h-.85l-.19-.18v-4.26l-1.39 3.14a.27.27 0 0 1 -.28.19h-.69c-.13 0-.2 0-.27-.19l-1.39-3.09v4.25l-.18.18h-.86l-.18-.18v-5.68l.19-.19h1.46l.27.17z" fill="#232222"/></svg>