<svg viewBox="0 0 122 29" xmlns="http://www.w3.org/2000/svg" fill-rule="evenodd" clip-rule="evenodd" stroke-linejoin="round" stroke-miterlimit="1.414"><g fill-rule="nonzero"><path d="M91.431 1.26l-.55 3.392h1.185l-1.481 9.084H89.38l-.582 3.58h12.676l.912-5.608h-4.08l-.315 2.028H94.83l.47-2.865h3.483l.624-3.863h-3.49l.375-2.356h2.98l-.26 1.634h3.965l.813-5.027M68.414 1.26l-.543 3.392h1.182l-.744 4.585-4.152-7.978h-5.365l-.54 3.393h1.19l-1.48 9.084h-1.184l-.572 3.58h6.71l.573-3.58h-1.19l.865-5.413 4.539 8.994h3.583l2.051-12.665h1.191l.548-3.393M37.499 1.26l-.545 3.392h1.191l-4.632 9.084h-1.175l-.587 3.58h6.703l.589-3.58H37.84l.597-1.326h4.15l.168 1.326h-1.187l-.577 3.58 6.891-.002.582-3.578H47.27L45.155 1.259H37.5zm4.36 3.99l.333 3.78H40.23M27.38 7.89c-.772.71-1.974.433-3.023.48l.571-3.515c1.19.027 2.826-.335 3.267 1.024.104.775-.168 1.507-.815 2.011zm1.064 2.971c.794-.187 1.481-.669 2.128-1.234 1.462-1.34 2.274-3.287 1.688-5.296-.561-1.884-2.542-2.943-4.38-3.069h-7.957l-.54 3.391h1.184l-1.471 9.084h-1.198l-.577 3.58h6.491l.587-3.58h-.904l.342-2.142 3.19 5.723h3.993l.586-3.58h-1.492M55.496 17.31l.574-3.578H54.88l1.48-9.084h1.185l.54-3.392h-6.885l-.55 3.392h1.184l-1.465 9.084h-1.194l-.576 3.585M112.25 7.886c-.772.711-1.973.435-3.024.482l.572-3.518c1.19.03 2.827-.333 3.267 1.027.103.774-.17 1.506-.815 2.01zm1.063 2.973c.795-.189 1.482-.67 2.128-1.235 1.463-1.34 2.275-3.288 1.689-5.296-.562-1.885-2.543-2.943-4.38-3.07h-7.959l-.538 3.393h1.184l-1.472 9.084h-1.198l-.576 3.58h6.491l.586-3.58h-.904l.343-2.143 3.19 5.723h3.993l.586-3.58h-1.494"/><path d="M25.076 20.897l-1.157 7.157h90.227l1.163-7.157H25.076zM8.546 20.897H6.942l-1.157 7.157H7.39l1.157-7.157zM13.74 20.897h-2.258l-1.156 7.157h2.258l1.156-7.157zM3.35 20.897h-.949l-1.156 7.157h.95l1.156-7.157zM24.13 20.897h-3.565l-1.156 7.157h3.566l1.155-7.157zM18.935 20.897h-2.912l-1.156 7.157h2.912l1.156-7.157z" fill="#ed1b2d"/><path d="M120.652 15.57a1.605 1.605 0 0 1-1.621 1.615 1.61 1.61 0 0 1-1.614-1.62c0-.89.707-1.62 1.625-1.62.922 0 1.614.735 1.61 1.624zm.16.005a1.764 1.764 0 0 0-1.781-1.79c-.956 0-1.774.754-1.774 1.78 0 1.056.848 1.78 1.77 1.78 1.006 0 1.779-.785 1.784-1.77zm-2.494-1.13v2.224h.325v-1.034h.159c.32.006.498.045.562.376.011.054.046.304.057.354.02.105.04.205.089.304h.374c-.101-.199-.114-.319-.165-.644-.045-.269-.12-.4-.359-.49.274-.044.5-.225.5-.535a.535.535 0 0 0-.34-.505c-.134-.05-.26-.05-.518-.05h-.684zm.33.25h.304c.268 0 .378 0 .473.084a.321.321 0 0 1 .106.246c0 .356-.37.35-.509.35h-.375M15.144 1.24h3.308l-.878 5.45h-3.76c-.21-.879-1.108-1.707-1.986-1.896-1.61-.356-3.259.209-4.283 1.506-1.127 1.574-1.629 4.22-.564 5.938.732 1.153 2.141 1.58 3.458 1.37 1.024-.187 2.057-1.098 2.496-2.062l-4.191-.003.524-3.262h8.83l-1.465 9.04H13.23l.21-1.023c-.402.535-1.48 1.445-4.138 1.445-3.356 0-7.024-2.848-7.024-7.873 0-4.136 3.119-9.155 8.654-9.136 1.41.006 2.992.361 4.013 1.34M86.611 1.24h3.308l-.878 5.45H85.28c-.208-.879-1.107-1.707-1.985-1.896-1.61-.356-3.258.209-4.282 1.506-1.128 1.574-1.63 4.22-.565 5.938.732 1.153 2.141 1.58 3.458 1.37 1.025-.187 2.057-1.098 2.496-2.062l-4.191-.003.524-3.262h8.83l-1.465 9.04h-3.402l.208-1.023c-.4.535-1.478 1.445-4.137 1.445-3.356 0-7.024-2.848-7.024-7.873 0-4.136 3.12-9.155 8.654-9.136 1.41.006 2.993.361 4.013 1.34"/></g></svg>
