<svg xmlns="http://www.w3.org/2000/svg" width="110" height="28" viewBox="0 0 2866.82 728.18"><path fill="#000" d="M1306.73 364c-.59 42.83 7 84.12 25.25 123 37.1 79 99.17 123.36 187.69 126.33 87.28 3 155.11-33.44 195.55-110.92 46.87-90.14 47.17-183.32 1.25-273.76-73.62-145.65-269.8-144.17-353.44-37.44-39.86 50.94-56 109.15-56.3 172.76m-33.44 1.21c-.62-50.94 9.1-99.79 31.93-145.63 47.13-94.37 146.63-145.31 254.9-131.14 113.74 14.79 193.42 91 215 206.52 12.48 65.41 8.81 130.22-15.82 192.65-40.44 102.51-129 158-244.88 154.37-106.43-3.3-192.5-67.53-224.73-171.87-10.35-33.44-17.69-104.61-16.44-104.9M2866.82 628.38a8.74 8.74 0 01-2.13.92c-31.34 2.71-31.34 2.71-42.87-26.87Q2733.74 375 2645.67 147.21c-1.54-3.63-3.05-7.26-5.47-13.58-3.05 6.65-5.18 10.87-6.68 15.38q-91.24 227.49-181.91 454.67c-11.24 28.32-11.24 28.32-45.3 25.62 2.13-5.76 4-11.16 6.1-16.59 67.49-167 135.36-333.77 202.26-500.51 6.1-15 15.2-12.33 26.14-13.25 10.68-.92 16.73 1.21 21.32 13 66.28 168.2 133.54 336.15 200.43 504.05 1.51 3.93 2.75 8.15 4.26 12.37M2107.92 127.89h-188.25v-27.74h408.5v27.16h-188V628.7h-32.5c.29-165.82.29-331.94.29-500.81M1007.45 99.6h31.01v529.39h-31.01zM455.44 181.71a14.88 14.88 0 0016.29 5.64 14.52 14.52 0 004.25-2 14.73 14.73 0 00-8.62-26.79 14.43 14.43 0 00-8.29 2.57 14.88 14.88 0 00-3.63 20.63M417.77 144.79a16.7 16.7 0 005.62 11.73A17.16 17.16 0 10446.33 131a16.91 16.91 0 00-11.32-4.16 17.17 17.17 0 00-12.85 5.55 16.89 16.89 0 00-4.39 12.4M380.12 136.29a20.05 20.05 0 009.66 2.52 18.82 18.82 0 005.67-.84 19.52 19.52 0 0011.76-9.48 20 20 0 00-7.75-27.16 19.11 19.11 0 00-9.22-2.28 20.65 20.65 0 00-17.92 10.11 20.15 20.15 0 007.8 27.13M325.23 124.63a23.57 23.57 0 0012.77-.12 23.34 23.34 0 00-.11-44.81 21.14 21.14 0 00-5.92-.81 24.14 24.14 0 00-22.86 16.87 23.64 23.64 0 0016.12 28.87M258.84 125.59a27.21 27.21 0 0021.46-45.48 26.5 26.5 0 00-18.63-8.84h-1.33a27.66 27.66 0 00-27.22 25.83 27.2 27.2 0 0025.72 28.49M146.39 118.66a31.6 31.6 0 1025.72-36.78 31.59 31.59 0 00-25.72 36.78M460.87 238.12a17.16 17.16 0 00-1.34-24.21 17.41 17.41 0 00-24.05 1.22 17.12 17.12 0 0012.67 28.66 17.76 17.76 0 004.91-.7 17.08 17.08 0 007.83-5M422.2 196.12a20 20 0 00-9.57-12 19.06 19.06 0 00-9.25-2.34A20.47 20.47 0 00385.49 192a19.95 19.95 0 0023.18 28.77 19.29 19.29 0 0011.7-9.5 19.66 19.66 0 001.83-15.17M367.1 191.28a23.45 23.45 0 00-2.1-17.74 23.06 23.06 0 00-13.89-11 21.74 21.74 0 00-6-.84c-10.39 0-20 7.08-22.77 16.85a23.254 23.254 0 1044.73 12.74M300.55 182.64a26.93 26.93 0 00-7-19.67 26.56 26.56 0 00-18.66-8.84 11.09 11.09 0 00-1.41-.06c-13.94 0-26.35 11.79-27.12 25.77a27.24 27.24 0 0025.72 28.55h1.53a27 27 0 0026.92-25.78M190.77 164.16a31.76 31.76 0 00-.32 63.52 33.52 33.52 0 009.45-1.36 31.77 31.77 0 00-9.13-62.2M65.87 249.22a37 37 0 0034 22.68 36.2 36.2 0 0010.39-1.53 39.33 39.33 0 004.23-1.5 37.13 37.13 0 10-48.66-19.74v.09M449.67 275.57a19 19 0 00-9.33-2.37 20.28 20.28 0 00-17.76 10.12 20 20 0 007.75 27.13 19.71 19.71 0 0015.3 1.76 20 20 0 004-36.64M361.39 287.73A23.29 23.29 0 10388.15 254a21 21 0 00-6-.84 24 24 0 00-22.78 16.74 23.39 23.39 0 002 17.83M337.67 274a27.28 27.28 0 00-25.77-28.55h-1.29c-14 0-26.45 11.79-27.14 25.77a27.22 27.22 0 0025.67 28.61h1.34a26.91 26.91 0 007.72-1.13 27.38 27.38 0 0019.47-24.7M227.88 319.14a31.45 31.45 0 005.48-.49 25.56 25.56 0 003.46-.81 31.67 31.67 0 10-8.94 1.3M171.42 340a37 37 0 00-.25-28.43A37.82 37.82 0 00136.75 289a35.61 35.61 0 00-14.21 2.92 36.58 36.58 0 00-19.94 20.19 37.22 37.22 0 0034.39 51.17 36.12 36.12 0 0010.48-1.53A36.81 36.81 0 00171.42 340M78.19 369.07A43.67 43.67 0 0043 351.12a42.87 42.87 0 00-12.22 1.79 43.56 43.56 0 0024.63 83.56 43.55 43.55 0 0022.78-67.4M545.16 521.52A14.89 14.89 0 00530.43 508a9.07 9.07 0 00-1.28.06 14.74 14.74 0 00-13 11.33 15.66 15.66 0 00-.36 4.73 14.87 14.87 0 0014.62 13.44 9.07 9.07 0 001.28-.06 14.78 14.78 0 0010-5.26 14.59 14.59 0 003.49-10.72M555.51 505.09a17.06 17.06 0 1032.88-1.24 16.69 16.69 0 00-8.48-10 17 17 0 00-7.67-1.88 16.14 16.14 0 00-5.29.89 16.81 16.81 0 00-11.43 12.25M596.93 477.83a20.09 20.09 0 0014.54 24.07 19.83 19.83 0 004.91.61 19.51 19.51 0 0010.17-2.86c9.09-5.52 12.28-18.38 6.82-27.48a20.19 20.19 0 00-17.15-9.62 19.87 19.87 0 00-19.29 15.28M659.93 463.54a23.05 23.05 0 0016.12-6.54c8.84-8.61 9.08-24.07.49-33.05a23 23 0 00-16.66-6.95 23.27 23.27 0 00-.39 46.53zM721.43 395c8-12.36 4.31-29.61-8-37.7a27 27 0 00-37.35 7.95l-.09.14a27.93 27.93 0 00-3.63 8.43 27.2 27.2 0 0026.31 33.62A27.08 27.08 0 00721.43 395M738.15 271.24a31.43 31.43 0 00-10.78-1.91 31.94 31.94 0 00-29.89 21 28.26 28.26 0 00-1 3.38 31.83 31.83 0 0020 37.33 31.3 31.3 0 0010.67 1.87 31.93 31.93 0 0029.9-20.91c5.81-16.56-2.67-34.82-18.9-40.71M477.36 475.31A17.11 17.11 0 00490 495.93a16.85 16.85 0 003.94.47 17.26 17.26 0 005.38-.87 17.24 17.24 0 002.58-31.46l-.13-.07a16.57 16.57 0 00-7.77-1.91 17.11 17.11 0 00-16.64 13.24M533.34 472a20.06 20.06 0 0015.13-2.31c9.14-5.57 12.25-18.17 6.77-27.53a20.09 20.09 0 00-17.16-9.51 19.81 19.81 0 00-19.28 15.26 19.37 19.37 0 002.34 14.94 19.74 19.74 0 0012.2 9.15M581.67 433.62a23.15 23.15 0 0016.21-6.56 24 24 0 00.54-33 23.26 23.26 0 10-17 39.48zM643.27 365.12a27 27 0 003.6-20.37 26.86 26.86 0 00-49.13-9.11 27.19 27.19 0 0022.75 41.9 27.41 27.41 0 005.78-.61 27 27 0 0017-11.78M638.36 301.1a31.81 31.81 0 0021.66-59.81 31.69 31.69 0 00-40.61 19 33.7 33.7 0 00-1 3.53 31.82 31.82 0 0020 37.24M656.67 209.82a32.71 32.71 0 004.53.29 37.19 37.19 0 004.47-74.11 40.72 40.72 0 00-4.55-.29 36.83 36.83 0 00-36 28.29 44 44 0 00-.79 4.42 37 37 0 007.69 27.58 36.5 36.5 0 0024.65 13.82M459.89 443.67a19.73 19.73 0 00-2.07-14.91 19.95 19.95 0 00-36.49 5.58 20.37 20.37 0 002.34 15.14 19.78 19.78 0 0036.25-5.81M484.33 420a22.9 22.9 0 0016.09-6.5c8.89-8.61 9.19-24 .6-33a23.21 23.21 0 00-32.82-.74l-.1.1a23.93 23.93 0 00-6.43 11.41A23.19 23.19 0 00484.33 420M508.34 359.61a27.14 27.14 0 0037.52-8.08c7.85-12.16 4.09-29.73-8-37.59a27.2 27.2 0 00-29.56 45.67M562.47 227.73a31.76 31.76 0 00-21.56 59.75 30.89 30.89 0 0010.76 1.91 31.77 31.77 0 0010.8-61.66M568.13 122.45a39.8 39.8 0 00-4.5-.26 36.9 36.9 0 00-36 28.43 31.93 31.93 0 00-.77 4.22 37.16 37.16 0 0032.3 41.46 36 36 0 004.28.26c18.6 0 34.83-14.36 37-32.68a37 37 0 00-32-41.4h-.27M551.33 87.05a39.8 39.8 0 004.63-.26A43.52 43.52 0 00551.46 0c-1.52 0-3.08.09-4.61.23a43.63 43.63 0 00-37.72 33.11 44.48 44.48 0 00-.95 14.77 43.44 43.44 0 0043.15 38.94M207.15 392a14.73 14.73 0 00-23.43 4.42 15 15 0 00-.43 11.29 14.53 14.53 0 007.5 8.41 14.25 14.25 0 006.19 1.39A14.76 14.76 0 00207.15 392M191.5 428.92a17.14 17.14 0 1013.17 20.51v-.11A17 17 0 00191.83 429l-.34-.07M189.32 517.35a20 20 0 0013.35-34.48 19.63 19.63 0 00-13.55-5.49 20.09 20.09 0 00-14.54 6.07 19.72 19.72 0 00-5.56 14.22c.21 10.48 9.6 19.67 20 19.67zM204.16 579.56a20.66 20.66 0 005.19-.63 23.32 23.32 0 00-5.68-45.93 22.15 22.15 0 00-5.67.72A23.33 23.33 0 00181.09 562c2.54 10 12.44 17.59 23.07 17.59M248.5 644.24a27.2 27.2 0 10-38.26-32.45 26.75 26.75 0 001.69 20.6 27.58 27.58 0 0024.57 14.71 26.33 26.33 0 0012-2.84M314.33 664a29.68 29.68 0 00-2.42-2.6 31.72 31.72 0 10-21.6 54.81 31.33 31.33 0 0020.18-7.37 32 32 0 003.84-44.84M256.43 376a16.34 16.34 0 00-3.55-.37 17.26 17.26 0 103.55.4M254.29 464.49A20.06 20.06 0 00267.58 430a19.5 19.5 0 00-13.45-5.44h-.71a19.58 19.58 0 00-13.94 6 20.11 20.11 0 00-5.56 14.3c.22 10.64 9.49 19.62 20.21 19.62zM248.59 491.51a23.12 23.12 0 00-2.57 17.59c2.49 10 12.36 17.6 23 17.6a20.8 20.8 0 005.21-.67 23.28 23.28 0 10-22.41-38.77 23 23 0 00-3.23 4.25M275.17 558.82a27 27 0 001.67 20.63 27.59 27.59 0 0024.57 14.73 26.64 26.64 0 0011.89-2.8 27.31 27.31 0 0011.78-36.61 26.38 26.38 0 00-5.48-7.39 26.85 26.85 0 00-18.63-7.38 27.38 27.38 0 00-12.3 2.95 26.81 26.81 0 00-13.5 15.89M379.25 611.15a35.93 35.93 0 00-2.51-2.72 31.42 31.42 0 00-21.74-8.67A31.77 31.77 0 00330.76 652a31.38 31.38 0 0024.19 11.35 32.29 32.29 0 0020.46-7.35 31.86 31.86 0 003.84-44.81M459.59 664.28a39.14 39.14 0 00-3.41-2.89 36.85 36.85 0 00-22.29-7.51 32.69 32.69 0 00-5.32.4 37.16 37.16 0 1031 10M314.58 386.6a20.06 20.06 0 0013.45-34.47 20.31 20.31 0 00-14.07-5.54A20 20 0 00294.34 367c.2 10.46 9.44 19.64 19.81 19.64zM306.46 431.22c2.48 10 12.36 17.62 23 17.62a22.37 22.37 0 005.15-.6A23.33 23.33 0 00351.67 420a24.15 24.15 0 00-6.57-11.24 23.17 23.17 0 00-16-6.44 22.38 22.38 0 00-5.7.72 23.34 23.34 0 00-16.89 28.23M337.29 501.69a27.65 27.65 0 0024.55 14.65 26 26 0 0011.83-2.83 27.18 27.18 0 10-36.52-12 1.19 1.19 0 00.08.16M391.18 574.2a31.47 31.47 0 0024.19 11.33 31.82 31.82 0 0024.38-52.27 29 29 0 00-2.42-2.54 31.54 31.54 0 00-42.28-1.33 32 32 0 00-3.87 44.81M524 635.56a37.13 37.13 0 00-56.33-48.14 35 35 0 00-2.9 3.41 37.37 37.37 0 0029.6 59.58 38.63 38.63 0 005.15-.35 36.72 36.72 0 0024.52-14.5M630.47 628.89a43.82 43.82 0 00-12.3-8.23 42.56 42.56 0 00-17.5-3.73 43.56 43.56 0 00-30 75.12 44.15 44.15 0 0012.33 8.24 42.76 42.76 0 0017.47 3.71 43.6 43.6 0 0030-75.15"/></svg>