<svg xmlns="http://www.w3.org/2000/svg" width="360" height="101" viewBox="0 0 360 101">
  <metadata><?xpacket begin="﻿" id="W5M0MpCehiHzreSzNTczkc9d"?>
<x:xmpmeta xmlns:x="adobe:ns:meta/" x:xmptk="Adobe XMP Core 5.6-c142 79.160924, 2017/07/13-01:06:39        ">
   <rdf:RDF xmlns:rdf="http://www.w3.org/1999/02/22-rdf-syntax-ns#">
      <rdf:Description rdf:about=""/>
   </rdf:RDF>
</x:xmpmeta>
                                                                                                    
                                                                                                    
                                                                                                    
                                                                                                    
                                                                                                    
                                                                                                    
                                                                                                    
                                                                                                    
                                                                                                    
                                                                                                    
                                                                                                    
                                                                                                    
                                                                                                    
                                                                                                    
                                                                                                    
                                                                                                    
                                                                                                    
                                                                                                    
                                                                                                    
                                                                                                    
                           
<?xpacket end="w"?></metadata>
<defs>
    <style>
      .cls-1 {
        fill: #0c66ff;
      }

      .cls-1, .cls-2 {
        fill-rule: evenodd;
      }

      .cls-2 {
        fill: #3b506c;
      }
    </style>
  </defs>
  <path id="IT" class="cls-1" d="M0.143,101H21.574V1.222H0.143V101ZM31.46,1.222V20.5H59.988V101H81.349V20.5h28.458V1.222H31.46Z"/>
  <path id="Sailors" class="cls-2" d="M149.813,80.481a9.642,9.642,0,0,1-3.665,7.665q-3.666,3.094-10,3.094a24.717,24.717,0,0,1-6.5-.833,22.719,22.719,0,0,1-4.928-1.857,20.843,20.843,0,0,1-3.451-2.38,19.73,19.73,0,0,1-2.047-1.9q-0.453-.547-0.643-0.833l-6.808,6.808,0.952,1.19a21.76,21.76,0,0,0,2.9,2.618,38.494,38.494,0,0,0,4.714,3.118,29.263,29.263,0,0,0,6.926,2.666,34.477,34.477,0,0,0,8.879,1.119q11.425,0,17.9-5.713a18.774,18.774,0,0,0,6.474-14.758,18.427,18.427,0,0,0-2-8.855,14.958,14.958,0,0,0-5.166-5.713,36.458,36.458,0,0,0-7.022-3.4,79.586,79.586,0,0,0-7.712-2.38,62.411,62.411,0,0,1-7.022-2.19,13.575,13.575,0,0,1-5.166-3.356,7.452,7.452,0,0,1-2-5.284,7.746,7.746,0,0,1,3.213-6.141,13.039,13.039,0,0,1,8.5-2.618,19.51,19.51,0,0,1,4.975.619,17.459,17.459,0,0,1,3.809,1.4,19.894,19.894,0,0,1,2.713,1.761,10.728,10.728,0,0,1,1.619,1.428,7.984,7.984,0,0,0,.548.643l6.807-6.855-0.761-.952a16.724,16.724,0,0,0-2.547-2.166,37.667,37.667,0,0,0-4.047-2.523,26.238,26.238,0,0,0-5.808-2.19,28.384,28.384,0,0,0-7.308-.928q-10.33,0-16.377,5.308A16.87,16.87,0,0,0,113.727,49.3a18.393,18.393,0,0,0,2,8.879,15,15,0,0,0,5.165,5.689,37.495,37.495,0,0,0,7.022,3.428,75.634,75.634,0,0,0,7.713,2.4,62.541,62.541,0,0,1,7.022,2.19,13.724,13.724,0,0,1,5.165,3.332A7.368,7.368,0,0,1,149.813,80.481ZM203.425,100V69.769a16.36,16.36,0,0,0-5.475-12.5q-5.475-5.07-14.044-5.07a23.806,23.806,0,0,0-6.641.928,21.537,21.537,0,0,0-5.166,2.119,27.743,27.743,0,0,0-3.689,2.69,23.968,23.968,0,0,0-2.238,2.095q-0.5.6-.785,0.976l6.332,6.332L173,65.675a11.719,11.719,0,0,1,4.166-3.118,14.567,14.567,0,0,1,6.736-1.547,9.954,9.954,0,0,1,7.022,2.523,8.144,8.144,0,0,1,2.738,6.236l-17.091,2.952a16.939,16.939,0,0,0-9.974,4.951,13.629,13.629,0,0,0-3.642,9.664q0,5.332,4.713,9.474a17.3,17.3,0,0,0,11.854,4.142,19.02,19.02,0,0,0,4.809-.619,20.415,20.415,0,0,0,3.951-1.4,21.413,21.413,0,0,0,2.928-1.761,20.506,20.506,0,0,0,1.809-1.4q0.452-.429.643-0.619V100h9.759ZM181,92.192a9.62,9.62,0,0,1-6.07-1.761,5.115,5.115,0,0,1-2.261-4.094,5.77,5.77,0,0,1,1.618-4.189A7.632,7.632,0,0,1,178.527,80l15.139-2.428v0.952q0,6.57-3.357,10.117T181,92.192ZM221.426,53.2h-9.759V100h9.759V53.2Zm1-14.616a5.7,5.7,0,1,0-1.666,4.189A5.68,5.68,0,0,0,222.426,38.586Zm18-6.855h-9.712V100h9.712V31.731ZM285.279,76.6a15.4,15.4,0,0,1-4.332,11.069,13.979,13.979,0,0,1-20.59,0,16.241,16.241,0,0,1,0-22.138,13.979,13.979,0,0,1,20.59,0A15.4,15.4,0,0,1,285.279,76.6Zm-38.99,0a23.385,23.385,0,0,0,7.26,17.091,23.8,23.8,0,0,0,34.23,0,23.775,23.775,0,0,0,0-34.206,23.749,23.749,0,0,0-34.23,0A23.463,23.463,0,0,0,246.289,76.6ZM326.18,61.486V52.2h-2.428a18.638,18.638,0,0,0-4.832.643,20.64,20.64,0,0,0-3.952,1.428,23.554,23.554,0,0,0-2.928,1.761,16.438,16.438,0,0,0-1.809,1.4l-0.618.619V53.2h-9.76V100h9.76V74.673q0-6.475,3.308-10.069A11.483,11.483,0,0,1,321.8,61.01,18.515,18.515,0,0,1,326.18,61.486Zm31.665-2.9-0.619-.714a20.63,20.63,0,0,0-1.833-1.547,23.375,23.375,0,0,0-2.928-1.9,17.385,17.385,0,0,0-4.309-1.571,22.978,22.978,0,0,0-5.451-.643,17.324,17.324,0,0,0-11.83,4.142q-4.737,4.142-4.737,9.521a12.25,12.25,0,0,0,1.762,6.689,10.872,10.872,0,0,0,4.451,4.094,53.178,53.178,0,0,0,5.76,2.38q3.072,1.071,5.737,1.809a12.766,12.766,0,0,1,4.428,2.095,4.137,4.137,0,0,1,1.761,3.4,5.223,5.223,0,0,1-1.952,4.261q-1.951,1.595-5.856,1.595a13.535,13.535,0,0,1-6.308-1.595,16.291,16.291,0,0,1-4-2.595,17.92,17.92,0,0,1-1.4-1.666l-6.332,6.332,0.714,0.9a13.965,13.965,0,0,0,2.166,2.071,29.777,29.777,0,0,0,3.5,2.4,20.9,20.9,0,0,0,5.117,2.047,24.609,24.609,0,0,0,6.546.857q7.808,0,12.688-4.285a13.279,13.279,0,0,0,4.88-10.331,12.138,12.138,0,0,0-1.762-6.665,11.091,11.091,0,0,0-4.451-4.094,50.265,50.265,0,0,0-5.761-2.4q-3.07-1.071-5.736-1.785a12.209,12.209,0,0,1-4.428-2.095,4.2,4.2,0,0,1-1.761-3.428,4.257,4.257,0,0,1,1.832-3.4,7.8,7.8,0,0,1,4.975-1.452,10.939,10.939,0,0,1,4.642,1.071,12.978,12.978,0,0,1,3.047,1.762q0.738,0.69,1.119,1.071Z"/>
</svg>
