<svg height="33" viewBox="0 0 110 33" width="110" xmlns="http://www.w3.org/2000/svg"><g fill="none" fill-rule="evenodd"><g fill="#5a3650"><path d="m54.33 22.08c-.26-.21-.64-.18-.88.14-.65.87-1.74 1.74-3.09 1.73-2.17-.02-2.99-1.5-2.99-2.95 0-.01 0-.1-.01-.27l5.33-2.84.04-.02c1.15-.62 1.77-1.68 1.78-3.05.01-1.79-1.35-3.67-4.04-3.69h-.45c-2.69.02-4.07 1.9-4.05 3.69v6.29c.02 2.35 1.66 4.11 4.38 4.13 1.94.02 3.38-1.12 4.09-2.25.18-.29.21-.67-.11-.91zm-6.98-7.28c0-.78.52-2.38 2.68-2.42h.46c2.15.04 2.7 1.64 2.7 2.43 0 .93-.46 1.41-.91 1.69l-4.92 2.63c-.01-1.82-.01-4.33-.01-4.33z"/><path d="m64.84 14.4c0-1.62-1.64-3.27-4.13-3.27-.31 0-.76.05-1.17.16-.61.15-1.34.51-1.79.96-.27.27-.27.67-.01.9.26.24.62.24.99-.05.54-.43 1.16-.72 1.98-.71 2.19.02 2.74 1.63 2.73 2.42v.16s-4.5 2.42-5.47 2.95c-.98.53-1.72 1.55-1.73 3.07-.02 2.23 1.4 3.95 3.82 4.2.31.03.76.03.95 0 2.31-.24 3.84-1.97 3.84-3.92 0-1.96-.01-5.41-.01-6.87zm-1.39 6.6c.01 1.39-.81 2.85-2.92 2.91-2.1-.06-2.87-1.52-2.88-2.91-.02-1.35.92-1.8 1.51-2.13.6-.32 4.29-2.3 4.29-2.3z"/><path d="m73.73 12.4c-.13.34-.51.51-.84.38-.39-.16-.81-.26-1.25-.25-2.17.01-3.01 1.54-3 2.95l-.01 9.76h-1.37v-9.83h.01c.02-2.36 1.64-4.15 4.36-4.17.64-.01 1.23.12 1.75.33.32.14.47.5.35.83z"/><path d="m83.85 25.08v-10.26c.02-1.79-1.35-3.67-4.04-3.69-.08-.01-.37-.01-.44 0-2.7.02-4.06 1.9-4.05 3.69v10.26h1.36v-10.29c0-.78.54-2.36 2.69-2.4h.47c2.16.04 2.7 1.63 2.69 2.42v10.27z"/><path d="m98.95 25.08v-10.26c.02-1.79-1.35-3.67-4.04-3.69-.08-.01-.37-.01-.44 0-2.69.02-4.06 1.9-4.05 3.69v10.26h1.36v-10.29c0-.78.54-2.36 2.69-2.4h.47c2.16.04 2.7 1.63 2.69 2.42v10.27z"/><path d="m88.05 7.53c-.01-.52-.41-.91-.92-.9-.52 0-.91.4-.91.92.01.52.4.9.92.9s.91-.4.91-.92z"/><path d="m87.21 11.15c-.59 0-.69.4-.69.53v.95 12.45h1.37v-12.36-1.04c0-.11-.09-.53-.68-.53z"/><path d="m105.86 11.13c-.08-.01-.37-.01-.44 0-2.7.02-4.06 1.9-4.05 3.69v6.74c-.01 1.78 1.35 3.67 4.05 3.69h.43c1.13-.01 2-.35 2.66-.87v1.2.25c.01 1.34-.92 1.79-1.67 2.2-.4.22-3.25 1.74-3.46 1.86-.2.11-.42.51-.21.91.21.39.64.42.86.31s4.11-2.2 4.11-2.2l.03-.01c1.02-.59 1.75-1.55 1.77-3.06l.01-.77v-10.08c.02-1.96-1.4-3.84-4.09-3.86zm2.72 10.44c0 .78-.53 2.38-2.69 2.42 0 0-.39.01-.47.01-2.15-.04-2.7-1.63-2.69-2.42v-6.79c0-.78.54-2.37 2.69-2.41h.47c2.16.04 2.7 1.64 2.69 2.43z"/><path d="m39.86 20.87v-13.89c0-.06-.02-.11-.03-.16h-1.32c-.02.05-.04.1-.04.16v13.97l.01.13c.02 2.36 1.64 4.14 4.36 4.17.65 0 1.23-.13 1.76-.34.31-.14.47-.5.34-.83s-.5-.5-.84-.38c-.4.14-.83.23-1.27.23-2.07.01-2.98-1.52-2.97-2.93z"/></g><path d="m9.05.18c-4.94 0-8.99 4.04-8.99 8.99v14.67c0 4.94 4.05 8.99 8.99 8.99h14.68c4.95 0 9-4.05 9-8.99v-23.66z" fill="#ee7203"/><g fill="#fff" transform="translate(5.984991 6.6)"><path d="m17.28 18.64c-1.94.01-3.38-1.12-4.09-2.25-.18-.29-.22-.67.1-.91.27-.21.65-.18.89.14.65.87 1.74 1.74 3.09 1.73 2.17-.02 3-1.55 2.99-2.95-.02-2.52-3.04-2.55-3.04-2.55-2.57-.13-4.08-1.52-4.1-3.63-.01-1.79 1.35-3.67 4.04-3.69 1.18-.01 2.32.48 2.97 1.12.27.26.27.67.01.9-.26.24-.61.24-.99-.05-.54-.43-1.16-.72-1.98-.72-2.19.02-2.74 1.64-2.73 2.43.02 2.19 2.74 2.38 2.74 2.38 2.35.13 4.44 1.13 4.46 3.8.02 2.4-1.61 4.23-4.36 4.25z"/><path d="m10.54 17.09c-.39.17-.81.26-1.25.26-2.17-.02-3.01-1.55-3-2.95v-8.5h4.11.02c.34 0 .62-.29.62-.63 0-.35-.28-.63-.62-.63h-.02-4.11v-4.26c0-.06-.02-.11-.04-.16h-1.31c-.01.05-.03.1-.03.16v14.09.02c.02 2.36 1.65 4.13 4.37 4.15.64.01 1.23-.13 1.75-.33.32-.15.47-.51.35-.83-.13-.34-.51-.51-.84-.39z"/><path d="m1.99.93c0-.52-.4-.91-.92-.91-.52.01-.91.41-.9.93 0 .51.4.9.92.9.52-.01.91-.4.9-.92z"/><path d="m1.1 4.55c-.57 0-.66.37-.66.53v.95 12.45h1.32v-12.36-1.04c0-.13-.08-.53-.66-.53z"/></g></g></svg>
