<svg xmlns="http://www.w3.org/2000/svg" viewBox="0 0 187.09 22.97"><defs><style>.cls-1{fill:#606463;}.cls-1,.cls-2,.cls-3{fill-rule:evenodd;}.cls-2{fill:#fff;}.cls-3{fill:#fcc14f;}</style></defs><title>Asset 1</title><g id="Layer_2" data-name="Layer 2"><g id="Layer_1-2" data-name="Layer 1"><polygon class="cls-1" points="187.09 0 0 0 0 22.97 187.09 22.97 187.09 0 187.09 0"/><path class="cls-2" d="M147.91,10.73a6.74,6.74,0,0,0-1.44-4.25,12.93,12.93,0,0,0-4.1-3.38,14.42,14.42,0,0,0-5.69,3.24,5.79,5.79,0,0,0-2.09,4.39,6.13,6.13,0,0,0,2.09,4.39,16,16,0,0,0,5.62,3.24,13.57,13.57,0,0,0,4.18-3.46,6.69,6.69,0,0,0,1.44-4.18Z"/><path class="cls-2" d="M153.53,4.75a18.74,18.74,0,0,1,6.12,4.61,9.65,9.65,0,0,1,2.16,5.91,9.3,9.3,0,0,1-.5,3.1,15.6,15.6,0,0,0,5.62-3.24,6.11,6.11,0,0,0,2.16-4.39c0-2.52-1.73-4.68-5-6.48A25.83,25.83,0,0,0,151.8,1.58l-5.69.5H146a21.19,21.19,0,0,1,7.49,2.66Z"/><path class="cls-2" d="M144.82,2.38l-1.51.36a16.1,16.1,0,0,1,6,4.46,9.08,9.08,0,0,1,2.23,6,9.5,9.5,0,0,1-2.74,6.48l3,.14,3-.14a8.43,8.43,0,0,0,2.09-5.47,9.55,9.55,0,0,0-3.31-6.91,21.9,21.9,0,0,0-8.79-4.9Z"/><polygon class="cls-3" points="35.93 5.62 36.01 5.62 33.05 18.22 36.29 18.22 39.61 2.95 34.49 2.95 28.45 13.97 28.45 13.97 27.36 2.95 22.32 2.95 19.08 18.22 21.96 18.22 24.77 5.62 24.84 5.62 26.07 18.22 28.95 18.22 35.93 5.62 35.93 5.62"/><path class="cls-3" d="M45.58,8.86a1.67,1.67,0,0,1,1.87,1.87l-.07.79h-5A6,6,0,0,1,43.5,9.58a3.08,3.08,0,0,1,2.09-.72ZM50.26,11A4.18,4.18,0,0,0,49,7.78,5.16,5.16,0,0,0,45.66,6.7,6,6,0,0,0,41,8.79a7.26,7.26,0,0,0-1.87,4.82,4.63,4.63,0,0,0,1.51,3.74,6.05,6.05,0,0,0,4,1.22,10.6,10.6,0,0,0,3.6-.72l.36-2.3a7.77,7.77,0,0,1-3.46.79c-2.09,0-3.1-.94-3.1-2.81H50A10.83,10.83,0,0,0,50.26,11Z"/><path class="cls-3" d="M56.39,9.15H59L59.48,7H56.82l.72-3.38L54.37,4.68,53.86,7H51.78l-.5,2.16h2.16L52.57,13a9.61,9.61,0,0,0-.36,2.59c0,2,1.15,3,3.38,3l1.58-.36.5-2.23-1.44.29c-.72,0-1.08-.36-1.08-1.15L55.31,14l1.08-4.9Z"/><path class="cls-3" d="M66.61,9.51l1.08.14.65-2.88L67.19,6.7a3.11,3.11,0,0,0-1.94.72,4.23,4.23,0,0,0-1.37,1.66H63.8l.36-2.16H61.43l-2.3,11.31h3l1-5a6,6,0,0,1,1.08-2.45,2.85,2.85,0,0,1,2.45-1.22Z"/><path class="cls-3" d="M74.6,9c1.51,0,2.3.86,2.3,2.66a5.32,5.32,0,0,1-.86,3,3,3,0,0,1-2.59,1.58c-1.51,0-2.3-.94-2.3-2.66a5.73,5.73,0,0,1,.86-3.1A3,3,0,0,1,74.6,9Zm3.89-1a5.26,5.26,0,0,0-3.74-1.3,6.52,6.52,0,0,0-6.63,6.7,5.26,5.26,0,0,0,1.3,3.74,5.22,5.22,0,0,0,3.82,1.44,6.68,6.68,0,0,0,4.82-1.94,6.79,6.79,0,0,0,1.87-5A4.73,4.73,0,0,0,78.49,8Z"/><polygon class="cls-3" points="92.46 6.99 89.3 6.99 84.9 15.27 84.83 15.27 83.68 6.99 80.65 6.99 82.6 18.22 85.84 18.22 92.46 6.99 92.46 6.99"/><polygon class="cls-3" points="91.89 18.22 94.84 18.22 97.29 6.91 94.33 6.91 91.89 18.22 91.89 18.22"/><path class="cls-3" d="M105.07,13a7.53,7.53,0,0,1-1,2.38,2.84,2.84,0,0,1-2.3.94,2.09,2.09,0,0,1-1-.22,1,1,0,0,1-.5-.94c0-1.44,1.22-2.16,3.82-2.16Zm.36-1.73h-1.08a13.64,13.64,0,0,0-4.46.58,3.37,3.37,0,0,0-2.45,3.38,2.88,2.88,0,0,0,1,2.45,3.93,3.93,0,0,0,2.52.86,4.68,4.68,0,0,0,3.6-2.09h.07l-.29,1.73h2.45l.79-4.25a30.31,30.31,0,0,0,.58-3.82,3.25,3.25,0,0,0-1.3-2.74,5.64,5.64,0,0,0-3.1-.72,10.51,10.51,0,0,0-3.82.72l-.43,2.38a7.94,7.94,0,0,1,3.67-.94c1.51,0,2.3.5,2.3,1.44l-.07,1Z"/><path class="cls-3" d="M117.74,9.36l.65-2.16a11.13,11.13,0,0,0-3.24-.5,6.83,6.83,0,0,0-3.31.79,3.14,3.14,0,0,0-1.51,2.81A3.26,3.26,0,0,0,112.19,13l1.3.94a1.48,1.48,0,0,1,.65,1.15c0,.86-.72,1.22-2,1.22a5.41,5.41,0,0,1-2.81-.86l-.65,2.38a7.22,7.22,0,0,0,3.46.72,6.79,6.79,0,0,0,3.46-.86,3.31,3.31,0,0,0,1.66-3q0-1.51-1.94-2.81l-1.3-.94a1.25,1.25,0,0,1-.65-.94c0-.79.65-1.15,1.94-1.15a8.72,8.72,0,0,1,2.45.5Z"/></g></g></svg>