<svg xmlns="http://www.w3.org/2000/svg" viewBox="0 0 700.16 377.01" height="100.535998" width="186.709338">
  <defs>
    <style>
      .cls-1 {fill: none;}
      .cls-2 {fill: #9b00c3;}
      .cls-3 {fill: #ff0041;}
      .cls-4 {fill: #ffb819;}
      .cls-5 {fill: #ff5a00;}
    </style>
  </defs>
  <title>Nesta_Horizontal_Logo_RGB_pos</title>
  <g id="Layer_2" data-name="Layer 2">
    <rect class="cls-1" width="700.16" height="377.01"/>
  </g>
  <g id="Layer_1" data-name="Layer 1">
    <g>
      <g>
        <path d="M118.94,208.92h.26c6.8-6.64,12.34-8.47,20.57-8.47,17.31,0,24.21,10.92,24.21,26.72v39.77H141.15V235.58c0-6.15,1-16.94-10.29-16.94-9.28,0-11.92,6.9-11.92,14.93v33.37H96.11V202.58h22.83Z"/>
        <path d="M241.72,239.39H195a13.8,13.8,0,0,0,14,13.5A15.68,15.68,0,0,0,222.18,246h19.18c-3.49,15.18-17.81,23.11-31.88,23.11-20.45,0-35.72-12.05-35.72-34.25,0-21.46,14.07-34.38,34.16-34.38,21.41,0,33.8,14.6,33.8,36.56Zm-20.05-13.17c-1.11-6.15-6.64-11-12.66-11a13.32,13.32,0,0,0-13.28,11Z"/>
        <path d="M293.68,221a28.36,28.36,0,0,0-11.86-4.51c-2.62-.3-7.24.31-7.61,3.55-.49,4.36,8.11,5.34,11.24,6,11.62,2.06,21.35,8.82,19.87,22.34-1.84,16.84-18,22.06-32.88,20.37a49.89,49.89,0,0,1-25-10.29l10-14.9c4.24,3.77,11.6,7.89,17.21,8.53,2.87.33,7.26-.56,7.66-4.05.57-5-8.22-5.94-15.37-7.82s-16.74-8.35-15.44-19.81c1.79-15.71,16.8-21.07,30.76-19.48a51.2,51.2,0,0,1,20.6,6.51Z"/>
        <path d="M343.58,267.08H320.75V221.53l-10.17-.13V202.58l10.17.14V183.4h22.83v19.32l10.16-.14V221.4l-10.16.13Z"/>
        <path d="M430.42,266.94H408.6v-4.86h-.24c-4.65,4.86-11.11,7-18.3,7-18.23,0-31.35-14.12-31.35-34.38s12.88-34.25,31.11-34.25a30.74,30.74,0,0,1,18.78,6.26v-4.13h21.82Zm-51.83-32.11c0,8.5,5.64,15,15.36,15s15.37-6.54,15.37-15c0-8.24-5.65-15.17-15.37-15.17S378.59,226.59,378.59,234.83Z"/>
      </g>
      <path class="cls-2" d="M472.24,269.59a11.95,11.95,0,1,1-11.95,12A11.95,11.95,0,0,1,472.24,269.59Z"/>
      <path class="cls-3" d="M600.7,150.1A14.94,14.94,0,1,1,585.76,165,14.93,14.93,0,0,1,600.7,150.1Z"/>
      <circle class="cls-4" cx="564.85" cy="105.31" r="20.91"/>
      <path class="cls-5" d="M484.19,209.85a59.75,59.75,0,0,0,59.75,59.74V150.1A59.75,59.75,0,0,0,484.19,209.85Z"/>
      <path d="M585.76,251.67a41.82,41.82,0,0,0-41.82-41.82v83.64A41.82,41.82,0,0,0,585.76,251.67Z"/>
    </g>
  </g>
</svg>
