<svg id="Layer_1" data-name="Layer 1" xmlns="http://www.w3.org/2000/svg" viewBox="0 0 1860.5 516.6"><defs><style>.cls-1{fill:#2258a1}.cls-2{fill:#ef7d38}</style></defs><path class="cls-1" d="M520 251.6l-6.2-2c-20-6.3-40.3-11.2-59.6-19-34.4-14-68.3-29.5-102.2-44.8a4740 4740 0 0 1-107.5-50c-17.8-8.6-34.6-19.3-52.2-28.3A271.6 271.6 0 0 0 125.2 82c-9.7-2.1-19.5-3.3-29.2-.6a22 22 0 0 0-16.3 21.4c-.6 13.6 3 26.3 7.7 38.7 12.4 32.8 30.4 62.7 49.3 92.1Q212 351.2 287 469.1c1 1.5 1.4 3.1 2.4 4-10.5-9.8-21.4-19.4-31.4-29.7a1989.6 1989.6 0 0 1-166.7-194 678.3 678.3 0 0 1-71.9-115.9c-8.5-18.2-15.6-37-18.3-57C-1.6 57-.1 38.2 14.4 23A70.8 70.8 0 0 1 53.5 3.4c24-4.8 48-4 72.1-1 4.4.4 8.6 2.7 12.6 4.5a977 977 0 0 1 105.2 58A4911.4 4911.4 0 0 1 518.2 249l2.2 1.7z"/><path class="cls-2" d="M295 272.1l46.5 22.9c77.6 38.6 155 77.4 232.8 115.7a334 334 0 0 0 80.9 29.1 68.9 68.9 0 0 0 33.6.5 21 21 0 0 0 16-19.3 70.7 70.7 0 0 0-5.6-32.7 288.6 288.6 0 0 0-37.2-68.2c-33-45.4-60.2-94.3-89-142.2-17.6-29.4-35-59-51.3-89.1-7.9-14.6-13.3-30.5-20-45.7-3.6-8.3-7.7-16.3-11.5-24.5L492 17c.7 1.5 1.1 3.2 2.1 4.4 75.4 86 150.3 172.3 219.1 263.6 19.5 26 37.2 53.2 56 79.7a86.7 86.7 0 0 1 15.3 44.2c1.3 15.4 2.6 30.9 2 46.2-1 19.6-6.6 37.8-23.3 50.4a58.7 58.7 0 0 1-33.1 11 180.5 180.5 0 0 1-68.3-11.7c-43.6-14.7-84-36.2-123.5-59.4-65.2-38.3-127-81.8-187.3-127.5-19.2-14.6-38-29.8-57-44.8z"/><path class="cls-1" d="M958.8 206.7V98.6h46.4v177.8c-11.3 0-22.4-.7-33.4.2-9.8.8-15.5-2.7-21.3-10.4-24.2-32-49.2-63.4-74-95-.6-.9-1.3-1.7-2.7-3.2v108h-46.4V98.6l4.2-.3c12.5 0 25 .1 37.5-.1 3.6 0 5.7 1.2 7.8 4q39.1 50.2 78.4 100.3l3.5 4.2z"/><path class="cls-1" d="M1511.5 276.4c-16.9 0-32.5-.6-48 .2-9 .5-15.1-2.4-21-9-11.9-13.4-24.6-26.1-38-40.2v48.8h-43V80.6h42.8v117.7l4.9-4.3 36.9-36c1.4-1.3 3.6-2.6 5.4-2.6 18.4-.2 36.7-.2 56.4-.2l-60.6 56z"/><path class="cls-1" d="M1204.2 155.4h42.5v13.8l1.6 1.1a18.8 18.8 0 0 1 1.9-3.4c16.4-19.3 49.6-16.8 63.9-6.8a38.8 38.8 0 0 1 17.4 32c.7 27.7.3 55.4.3 83 0 .3-.2.6-.5 1h-42.5V271v-58a81.8 81.8 0 0 0-1.1-12.4 16.5 16.5 0 0 0-15.7-14.2c-15.5-1.1-24.9 8.2-25.1 25.8-.3 19.5 0 39 0 58.5v5.5h-42.7z"/><path class="cls-1" d="M1773.3 184.8l-25.7-4.4a10.5 10.5 0 0 0-4.4.6c-3.7 1-6.2 3.3-6.4 7.4s2.3 6.2 5.5 7.3c4.6 1.5 9.3 2.5 14 3.6 8.5 2 16.8 4.5 23.4 10.5 14.3 12.8 14.7 37.8 1 53.4a53.6 53.6 0 0 1-34.6 17 92 92 0 0 1-56.4-10.1l-5.3-3.2 14.9-29c9.3 3.5 18 7.3 27 9.8 4.5 1.2 9.8.5 14.7-.1 4.1-.5 6.3-3.6 6.5-7.7a7.8 7.8 0 0 0-5.5-8.1c-5-1.8-10.2-3-15.4-4.4l-6.7-1.6c-23-5.1-30.4-23.6-24-44.8a36.9 36.9 0 0 1 20.7-23.7c23.5-10.6 47-7.2 70.6 1.2z"/><path class="cls-2" d="M1664.8 386v32.7c0 9.6 0 9.6 9.3 11.2 3 .5 6 .5 9.7 2-1.1.8-2.3 2.4-3.4 2.4-17.5.2-35 .2-52.5 0-1 0-2-1-3.1-1.5 1-.7 2-2.1 3-2.2 17.3-1 15-4 15.2-17.3v-17c0-8.4-3-12.4-11-15a57.7 57.7 0 0 0-32.5 1.1c-3.6.9-7 2.1-10.7 3.3v38c0 3.6 2 5.2 5.2 5.6 4.4.6 8.9 1 14 2.7-1.2.8-2.4 2.3-3.7 2.3q-27.2.3-54.4 0c-1 0-2-1-3-1.5 1-.8 2-2.1 3-2.2 19.6-1 17.1-5.3 17.3-19.8q.2-10.3 0-20.5c-.1-6.8-1.2-8-7.9-9.2-2.3-.5-4.6-.5-6.9-1a19.3 19.3 0 0 1-4-2l.5-1.4 41-6-1.2 9c8-2.3 15.6-5 23.4-6.7a66.8 66.8 0 0 1 34.6-.4c4.6 1.3 8.6 4.7 13 6.8 1.5.8 3.7 1.4 5 .8 12.2-5 24.8-9 38-9.2a86.8 86.8 0 0 1 25.5 3.6c8.5 2.5 12.7 9.6 12.6 18.9V422c0 4.6 2 7 6.7 7.4a51 51 0 0 1 12.4 2.4c-1.2.8-2.4 2.4-3.7 2.4-17.5.2-35 .2-52.5 0-1 0-1.9-1-2.9-1.7 1-.7 1.7-1.8 2.7-2 3.3-.6 6.6-.7 9.9-1.3 3.5-.6 5.5-2.8 5.5-6.6 0-9.6.2-19.3.1-29a11.2 11.2 0 0 0-7.8-11 55.3 55.3 0 0 0-16-3.2c-10.8 0-21 3-30.4 6.5z"/><path class="cls-1" d="M1854.7 276.2h-42.5V155.6h42.5z"/><path class="cls-2" d="M945.7 432.2c-1.3.7-2.5 2.1-3.7 2.1q-35.7.2-71.4 0c-1.3 0-2.5-1.6-4.8-3.2 7.5-.7 13-1 18.7-1.8 6.8-.9 9.5-3.7 10-10.2.2-1.5.1-3 .1-4.5v-77.8c-11 0-21.7-.2-32.5 0a63 63 0 0 0-10.3 1.5c-8 1.4-13.8 6-16 14-1.5 5.3-4.6 6.1-9.5 4.7l-1.2-26h162.3l-2.2 26.2h-7l-1.7-4.2c-3-9.4-9.7-14.9-19.4-15.3-12.9-.7-25.9-.2-39.4-.2l-.2 4V419c0 7.6 1.9 9.7 9.4 10.4l17.8 1.5z"/><path class="cls-2" d="M1161.1 432c-1 .8-2.2 2.3-3.3 2.3q-28.2.2-56.5 0c-1 0-1.9-1.2-2.8-1.8 1-.7 1.8-1.7 2.8-1.9a28.3 28.3 0 0 1 5-.3c9-.4 12.3-3.7 12.3-12.6v-76-5c.3-5-2.5-7.6-7.3-8.3-3.4-.4-7-.6-10.3-1.2-1.3-.2-2.5-1.4-3.7-2l.6-1.5 43.5-5.6c-.6 8.7-1.6 16.7-1.6 24.8-.3 26-.1 52-.1 78 0 6.6.9 7.6 7.4 8.5l6.4.9c2.1.2 4.3 0 6.5 0z"/><path class="cls-2" d="M1854.7 373l-1 18c-3.7 1-5.9.5-8-3.4-4-7.7-12-10-19.8-10.7a70.3 70.3 0 0 0-20.2 1.2c-2.9.5-6.6 4-7.3 7-1.1 4 3 6.4 6.6 7.5 9.6 2.8 19.5 5 29.1 7.9 6.7 2 13.5 3.9 19.6 7.1 9 5 9 14.1.6 20a50.6 50.6 0 0 1-29.7 8.6c-15 0-30.1-1.3-45-2l-4.3-20.4c3.3-1.8 6-1.7 9 2 12.3 14.8 28.5 17.7 46.4 14.4a15.6 15.6 0 0 0 5-2.2c5-3 5.4-8 .5-11.2a46 46 0 0 0-12.2-5.4c-8.5-2.4-17.2-4-25.6-6.5a56.2 56.2 0 0 1-14-6.2c-7.6-4.8-7.5-13.1-.5-18.6 6.8-5.4 15-7.3 23.2-8.4a110 110 0 0 1 18-1c9.7.4 19.5 1.5 29.6 2.2z"/><path class="cls-2" d="M1395 421a49.5 49.5 0 0 1-25.3 12.8 85 85 0 0 1-60-5.7 39.5 39.5 0 0 1-8.2-5.8c-10.4-9.4-11.3-22.4-1-31.8a71.6 71.6 0 0 1 22-13.2c20-7.7 40.9-8.7 61.8-3.7 2.4.5 4.3 2.9 6.5 4.4-1.9 2.1-3.4 4.7-5.7 6.2-3.6 2.3-7.4 2-11.6 0a52.3 52.3 0 0 0-42.6-2.8c-7.7 2.7-14 7.4-15.1 16.2-1.4 9.6 3.3 16.8 11.1 21.2a61.3 61.3 0 0 0 58.7 1.5c3.6-1.6 6-2.2 9.3.8z"/><path class="cls-1" d="M1833.5 132.6c-13.5 0-23.3-10.1-24-23.4a24 24 0 1 1 48.2-.8c0 14-10.2 24.2-24.2 24.2z"/><path class="cls-2" d="M294 273l-1.4-1.5.2-.3 2.2.9z"/><path class="cls-2" d="M292.6 271.5l-.7-.7 1 .5z"/><path class="cls-2" d="M290.3 269.7l.1.3h-.3l.2-.3z"/><path class="cls-1" d="M1634.8 160.2c-18.5-10.5-38.4-11.2-58.7-7.7a63.7 63.7 0 0 0-54.6 63c.2 30 18.2 53.8 47 62a96.3 96.3 0 0 0 49.7.7 64 64 0 0 0 16.6-118zm-40.6 84.2a28.4 28.4 0 0 1-27.8-28.6 28 28 0 0 1 28.2-28.2 28.3 28.3 0 0 1 28.1 28.8 28.5 28.5 0 0 1-28.5 28z"/><path class="cls-1" d="M1169.5 181.2c-15.3-23.1-38.3-31.1-68.5-30.4-3.4.5-10.3 1.1-16.9 2.7a64.2 64.2 0 0 0-50.3 56.4 63.4 63.4 0 0 0 41.6 66c18 6.6 36.5 7 54.9 2.4a63.8 63.8 0 0 0 39.2-97zm-63 63.1a28.4 28.4 0 0 1-28-28.5 28.1 28.1 0 1 1 56.2 0 28 28 0 0 1-28.2 28.5z"/><path class="cls-2" d="M1521.4 387.7a58 58 0 0 0-18-11.2 96.3 96.3 0 0 0-49.1-4.8 67.6 67.6 0 0 0-34.5 13.5c-7.5 6.1-12.3 13.7-10 24 2 8.3 8 13.6 15.2 17.6 13.4 7.5 28 10 43.2 10.3 7.4-.9 14.9-1.3 22.2-2.8 11.9-2.4 23-6.7 31.4-16 9-9.5 9.1-21.7-.4-30.6zm-18 24.2c-2.6 11-11.5 15.8-21.6 18.4-3.5.8-7.2 1-10.8 1.3l-.4 1c-6.8-2-13.9-3.2-20.2-6.1a27.9 27.9 0 0 1-16.6-29.6c1.7-10 10.6-18 23.6-20 13.1-2 26-.9 36.8 8.2 8.4 7 11.5 16.4 9.1 26.8z"/><path class="cls-2" d="M1201.3 399.2h66c7.6 0 9.8-2.8 7.4-10-2.4-7.5-8.7-11.1-15.5-13.7a80.8 80.8 0 0 0-47.6-2.4 59.7 59.7 0 0 0-30.3 15.5c-10.1 10.4-10.2 23.1.5 33a48 48 0 0 0 13.8 8.7 84.2 84.2 0 0 0 54.2 3.5 55 55 0 0 0 24.3-12c-2.6-1-5.6-2-7.5-1-12 6.1-24.8 7-37.5 5.2-7.7-1-15.4-4-22.3-7.7s-11.3-9.7-11.2-19zm5.4-17.6a41.2 41.2 0 0 1 36.2-2c1.5.6 3.3 1.4 4.1 2.6a94.1 94.1 0 0 1 4.6 9.4c-2.8 1-5.7 2.6-8.5 2.6-15.4.3-30.7.1-46.7.1 1.3-6.6 5.6-10 10.3-12.7z"/><path class="cls-2" d="M1074 421a66 66 0 0 1-51.4 1.3c-10.3-3.7-17.7-10.5-19-23h73.4c5.7-.3 7-1.7 6.6-7.5-.5-7.5-5.7-12-11.7-14.2-8.2-3-16.8-5.6-25.4-6.4a74 74 0 0 0-51.3 12.8c-6.6 4.7-12 10.5-12.6 19.4-.7 11.1 5.7 18.1 14.3 23.3a78.5 78.5 0 0 0 50.5 9.2 74.1 74.1 0 0 0 35.3-13c-2.5-3.1-5-3.5-8.7-1.8zm-60.6-38.3a39.8 39.8 0 0 1 39-2.4 15.8 15.8 0 0 1 6.5 5.8c3.1 5 1.3 8-4.5 8.2h-49.7a18 18 0 0 1 8.7-11.6z"/></svg>