<?xml version="1.0" standalone="no"?>
<!DOCTYPE svg PUBLIC "-//W3C//DTD SVG 20010904//EN"
 "http://www.w3.org/TR/2001/REC-SVG-20010904/DTD/svg10.dtd">
<svg version="1.0" xmlns="http://www.w3.org/2000/svg"
 width="4134.000000pt" height="2575.000000pt" viewBox="0 0 4134.000000 2575.000000"
 preserveAspectRatio="xMidYMid meet">
<metadata>
Created by potrace 1.15, written by Peter Selinger 2001-2017
</metadata>
<g transform="translate(0.000000,2575.000000) scale(0.100000,-0.100000)"
fill="#000000" stroke="none">
<path d="M2340 18456 c-772 -82 -1198 -370 -1332 -901 -20 -81 -23 -114 -23
-320 0 -249 9 -316 66 -550 325 -1315 1716 -3354 4034 -5910 416 -459 896
-966 1306 -1380 319 -323 360 -362 337 -325 -8 14 -167 264 -353 555 -186 292
-552 865 -813 1275 -261 410 -543 851 -625 980 -82 129 -227 357 -322 505 -94
149 -340 533 -545 855 -791 1241 -736 1153 -886 1420 -328 588 -533 1071 -615
1450 -33 153 -33 387 0 480 57 162 169 259 340 296 87 18 291 18 415 -1 522
-79 1385 -449 2261 -971 94 -56 301 -160 555 -278 579 -270 1365 -635 1575
-731 99 -46 349 -160 555 -255 493 -226 926 -421 1184 -532 409 -175 550 -226
831 -299 219 -56 453 -131 749 -238 138 -50 251 -89 253 -88 5 5 -1164 828
-1817 1278 -2524 1742 -4586 3024 -5680 3529 -243 112 -298 129 -458 146 -205
21 -825 27 -992 10z"/>
<path d="M10695 18023 c34 -67 61 -110 68 -106 6 3 7 1 3 -6 -10 -16 3 -53 16
-45 6 4 8 -1 4 -14 -4 -12 -2 -23 5 -28 8 -5 9 -3 4 6 -5 9 -4 11 4 6 6 -4 9
-11 6 -16 -8 -14 57 -150 69 -143 5 3 6 1 2 -5 -4 -6 5 -36 19 -65 14 -30 25
-59 25 -64 0 -6 7 -14 16 -17 8 -3 13 -10 9 -16 -3 -5 2 -24 12 -42 9 -18 18
-37 19 -43 8 -33 42 -107 46 -99 3 5 4 4 2 -3 -4 -17 18 -83 26 -78 4 3 7 -1
7 -8 -2 -26 24 -97 34 -91 6 4 9 -2 7 -13 -3 -21 22 -103 31 -103 4 0 7 -10 8
-21 1 -12 7 -27 14 -33 8 -8 10 -5 5 14 -6 21 -5 22 4 7 6 -9 8 -22 5 -27 -4
-6 4 -35 16 -65 19 -46 25 -53 37 -42 13 10 14 9 4 -10 -7 -13 -8 -24 -3 -27
5 -4 12 0 15 6 3 7 3 3 1 -8 -7 -27 42 -127 57 -118 6 4 8 3 5 -4 -10 -15 42
-114 55 -106 7 4 8 2 4 -5 -7 -10 61 -147 90 -181 7 -8 14 -19 15 -25 1 -5 6
-21 12 -33 10 -22 12 -23 24 -6 15 20 18 7 3 -16 -6 -10 -2 -23 14 -45 13 -16
26 -40 30 -53 4 -12 11 -20 16 -17 5 3 12 0 16 -6 4 -8 3 -9 -4 -5 -21 13 -13
-5 48 -106 33 -54 60 -101 60 -104 0 -3 9 -19 21 -35 20 -28 22 -29 35 -12 16
22 19 10 3 -15 -10 -15 -4 -31 31 -90 24 -39 47 -69 53 -65 6 4 7 1 3 -6 -5
-7 7 -36 27 -69 19 -31 42 -72 51 -90 10 -19 21 -30 28 -26 6 4 8 3 4 -4 -6
-11 42 -101 73 -136 9 -10 15 -21 15 -25 -1 -3 3 -16 9 -28 10 -22 27 -23 27
-2 0 6 -5 7 -12 3 -7 -4 -8 -3 -4 5 12 19 27 2 20 -24 -4 -16 1 -34 13 -52 10
-15 24 -40 31 -55 6 -16 16 -28 22 -28 5 0 9 -4 8 -8 -5 -14 65 -121 75 -115
6 3 7 1 4 -5 -10 -15 3 -43 16 -35 6 3 7 1 3 -5 -9 -16 63 -134 77 -125 6 3 7
1 3 -5 -4 -6 8 -36 26 -67 18 -31 39 -67 46 -81 7 -13 17 -24 23 -24 5 0 8 -4
6 -9 -4 -16 116 -210 126 -204 6 3 8 2 4 -3 -6 -11 57 -127 65 -119 2 3 5 -1
5 -8 0 -23 85 -157 96 -150 6 3 7 1 3 -5 -4 -6 15 -48 41 -92 26 -44 53 -88
58 -98 81 -138 129 -211 136 -206 5 3 7 -1 4 -8 -2 -7 18 -49 45 -93 27 -44
57 -95 66 -112 9 -18 19 -31 23 -28 4 2 8 -2 8 -8 0 -24 85 -157 96 -150 6 3
7 1 3 -5 -9 -15 43 -104 56 -96 6 4 5 10 -3 15 -8 5 -9 9 -3 9 18 0 24 -12 13
-26 -8 -10 -6 -21 7 -44 11 -16 50 -82 87 -145 41 -68 73 -112 79 -109 7 4 8
2 4 -4 -9 -15 55 -123 68 -115 5 3 6 1 2 -5 -4 -6 5 -30 20 -52 20 -30 30 -38
36 -28 6 9 8 7 4 -7 -4 -13 4 -30 22 -50 15 -16 40 -49 56 -72 16 -24 32 -40
37 -38 4 3 11 0 15 -6 4 -8 3 -9 -4 -5 -7 4 -12 3 -12 -2 0 -12 35 -43 42 -37
3 3 8 -1 12 -10 4 -11 2 -14 -6 -9 -7 5 -2 -5 10 -21 13 -17 37 -51 54 -77 17
-27 35 -48 39 -48 5 0 8 -6 6 -12 -1 -7 4 -12 11 -10 8 1 11 -1 8 -6 -7 -12
23 -54 35 -47 5 3 6 0 3 -8 -3 -8 0 -18 7 -23 8 -5 10 -3 4 6 -5 9 -4 11 4 6
6 -4 9 -11 6 -16 -10 -16 36 -69 54 -63 13 4 13 3 2 -5 -12 -9 -12 -15 5 -39
10 -15 23 -36 29 -46 5 -9 43 -64 83 -122 39 -58 72 -108 72 -111 0 -3 14 -27
32 -52 61 -90 68 -101 68 -106 0 -3 32 -57 70 -121 39 -64 70 -118 70 -120 0
-3 41 -73 79 -135 9 -14 16 -27 16 -30 4 -21 30 -58 36 -54 5 3 6 -3 2 -12 -5
-13 -3 -15 7 -9 9 5 11 4 6 -3 -8 -13 7 -47 38 -81 11 -13 15 -21 8 -17 -7 5
4 -25 24 -66 39 -74 40 -78 43 -100 1 -9 4 -9 12 2 9 12 10 12 5 -4 -4 -10 -2
-24 2 -30 5 -6 17 -34 27 -63 10 -29 23 -49 28 -46 6 3 7 1 4 -4 -10 -16 13
-73 29 -73 8 0 14 -5 14 -11 0 -5 -5 -7 -12 -3 -8 5 -9 2 -3 -12 4 -10 15 -39
23 -64 9 -25 22 -51 29 -58 7 -8 11 -18 8 -22 -9 -14 16 -100 27 -94 5 3 6 -5
3 -19 -4 -14 -2 -28 4 -32 6 -3 9 -10 7 -14 -3 -4 1 -43 9 -87 19 -105 19
-267 -1 -361 -8 -41 -13 -82 -9 -91 4 -12 3 -13 -10 -2 -12 10 -15 10 -15 0 0
-7 -12 -28 -26 -47 -25 -33 -29 -49 -8 -35 6 4 18 18 27 32 9 13 17 19 17 13
0 -17 -33 -54 -51 -56 -8 -2 -32 -17 -53 -34 -48 -39 -145 -86 -216 -104 -38
-10 -115 -14 -255 -13 -177 0 -217 4 -345 29 -80 15 -152 29 -160 30 -8 1 -22
5 -30 8 -8 3 -40 13 -70 21 -30 8 -101 28 -158 45 -57 16 -111 27 -120 25 -12
-4 -13 -3 -4 3 9 7 2 13 -27 21 -21 7 -45 11 -52 9 -8 -2 -10 -2 -5 1 14 7
-65 31 -83 25 -9 -4 -12 -2 -8 2 10 11 -143 66 -163 59 -8 -3 -11 -2 -7 2 4 4
-32 23 -80 41 -49 19 -96 38 -106 44 -10 5 -22 7 -27 4 -6 -4 -10 -1 -10 5 0
6 -4 9 -9 6 -5 -4 -11 -3 -13 2 -1 4 -70 36 -153 71 -82 35 -175 75 -205 89
-60 26 -575 278 -600 292 -69 41 -114 60 -127 56 -9 -4 -11 -2 -7 6 5 7 0 9
-14 6 -12 -4 -20 -3 -18 1 6 9 -90 68 -125 76 -16 4 -30 2 -33 -4 -4 -6 -13
-11 -19 -11 -7 0 -4 5 7 11 17 10 16 12 -10 30 -16 10 -35 17 -42 14 -7 -3
-10 0 -7 5 8 12 -43 33 -57 24 -7 -5 -8 -2 -3 6 6 10 3 12 -13 8 -12 -4 -20
-3 -18 1 7 11 -53 43 -66 35 -7 -4 -8 -3 -4 4 9 14 -40 35 -57 25 -7 -3 -9 -3
-5 1 9 11 -81 58 -94 50 -7 -4 -8 -2 -4 5 9 13 -32 31 -53 23 -10 -4 -12 -1
-6 8 6 10 3 12 -14 7 -13 -3 -20 -3 -17 0 10 10 -33 35 -46 27 -7 -5 -8 -3 -3
6 6 10 4 12 -9 7 -9 -4 -15 -3 -12 1 5 9 -156 92 -179 92 -8 0 -15 4 -15 9 0
10 -78 46 -97 44 -7 0 -10 4 -6 10 4 7 0 8 -13 3 -10 -4 -15 -4 -11 0 10 10
-122 76 -136 67 -6 -4 -7 -1 -2 7 6 10 4 12 -11 6 -10 -4 -15 -4 -11 0 8 8
-75 54 -98 54 -8 0 -15 5 -15 11 0 6 -7 8 -17 5 -10 -4 -14 -4 -10 0 10 10
-162 96 -176 87 -7 -3 -9 -2 -4 2 9 11 -122 77 -136 68 -6 -4 -7 -1 -2 7 6 10
4 12 -11 6 -10 -4 -15 -4 -11 0 10 10 -143 85 -157 77 -6 -3 -8 -3 -4 2 12 13
-403 216 -427 209 -14 -4 -16 -2 -7 4 16 11 -592 317 -609 306 -7 -4 -9 -3 -6
3 7 11 -192 113 -220 113 -9 0 -14 3 -10 6 6 6 -124 73 -148 77 -5 1 -12 5
-15 8 -10 12 -150 79 -150 72 0 -5 -4 -3 -8 3 -12 19 -112 65 -124 58 -7 -4
-8 -3 -4 4 6 11 0 14 -20 11 -4 0 -10 4 -13 9 -9 13 -151 84 -151 75 0 -5 -4
-3 -8 3 -9 15 -152 86 -152 77 0 -5 -4 -3 -8 3 -9 15 -152 86 -152 77 0 -5 -4
-3 -8 3 -8 13 -152 87 -152 78 0 -3 -7 2 -16 11 -10 9 -24 13 -38 10 -14 -4
-17 -3 -8 3 9 6 -3 16 -40 33 -28 13 -56 23 -60 22 -4 -2 -8 1 -8 6 0 8 -53
34 -65 32 -3 -1 -13 5 -21 14 -8 8 -27 18 -42 22 -15 3 -29 9 -32 13 -3 4 -37
23 -76 43 -48 23 -76 32 -85 26 -12 -7 -12 -9 0 -9 8 0 12 -3 8 -6 -12 -12
-28 7 -17 21 8 9 3 16 -21 25 -17 8 -37 13 -45 13 -8 0 -14 4 -14 9 0 7 -63
38 -77 37 -3 -1 -9 3 -12 8 -3 4 -22 17 -41 27 -40 21 -37 18 42 -48 34 -27
63 -44 69 -40 7 4 9 3 6 -3 -4 -6 2 -18 13 -28 11 -10 20 -14 20 -9 0 5 5 1
11 -9 6 -9 15 -14 21 -11 6 4 8 3 5 -3 -4 -6 5 -18 19 -28 14 -9 34 -25 45
-36 11 -11 25 -17 31 -13 6 4 8 3 5 -3 -4 -6 30 -38 74 -72 81 -62 96 -71 83
-48 -4 7 -3 9 2 4 5 -5 9 -12 9 -16 0 -16 75 -72 86 -65 8 5 9 3 4 -6 -6 -9
-1 -10 16 -5 18 5 20 4 9 -4 -13 -9 -11 -13 10 -28 14 -10 28 -17 32 -15 5 1
7 -1 5 -6 -1 -4 1 -8 5 -10 4 -1 20 -15 36 -30 16 -15 51 -43 77 -62 26 -19
63 -48 81 -63 19 -16 38 -25 45 -21 7 4 9 3 6 -3 -9 -14 19 -37 33 -28 6 4 9
1 8 -7 -2 -7 3 -12 10 -10 8 1 11 -2 7 -8 -3 -5 2 -13 12 -17 10 -4 23 -12 28
-19 6 -7 89 -72 185 -143 187 -139 193 -144 228 -175 20 -18 24 -18 33 -6 8
13 9 12 7 -2 -2 -11 27 -39 85 -82 48 -36 87 -63 87 -61 0 2 11 -6 24 -18 37
-34 54 -47 110 -84 28 -19 59 -42 68 -50 9 -8 22 -12 29 -7 8 4 10 3 5 -4 -4
-7 10 -23 34 -39 22 -16 55 -40 73 -55 17 -15 39 -28 48 -28 9 0 19 -6 22 -13
3 -7 36 -36 75 -64 53 -39 73 -48 82 -40 8 9 10 8 5 -5 -4 -11 1 -21 17 -29
13 -7 26 -12 31 -11 4 1 6 -4 5 -10 -2 -7 5 -12 14 -12 10 1 16 -2 13 -6 -3
-5 12 -19 32 -31 21 -13 43 -27 48 -31 68 -51 145 -106 145 -103 0 2 12 -7 26
-20 15 -14 33 -25 40 -25 7 0 17 -6 21 -13 9 -13 94 -76 132 -96 18 -10 26
-10 39 1 15 12 16 11 3 -5 -8 -9 -12 -19 -10 -21 40 -34 288 -193 294 -188 3
4 5 2 3 -5 -4 -14 219 -165 227 -153 3 4 0 10 -7 12 -8 3 -7 6 4 10 11 5 15 0
14 -20 -1 -23 3 -27 24 -24 19 1 21 0 10 -7 -12 -8 -11 -11 5 -17 11 -4 22
-10 25 -13 18 -21 72 -51 82 -45 6 4 8 3 5 -3 -4 -6 11 -22 32 -36 30 -20 41
-23 51 -14 10 9 12 9 7 -4 -4 -12 16 -30 74 -68 45 -30 84 -49 90 -45 8 4 9 3
5 -4 -8 -13 52 -54 66 -46 5 3 7 0 6 -8 -2 -7 5 -12 14 -12 10 1 15 -2 12 -7
-3 -5 8 -14 23 -21 15 -7 30 -15 33 -18 3 -3 14 -11 25 -18 11 -6 46 -29 78
-50 32 -20 93 -59 135 -86 42 -27 96 -62 120 -78 23 -16 42 -26 42 -22 0 4 10
-2 23 -13 32 -29 66 -45 79 -37 6 4 8 3 5 -3 -8 -13 101 -85 116 -76 5 3 7 1
4 -4 -4 -6 1 -14 10 -17 9 -4 56 -32 104 -62 52 -33 93 -53 100 -48 7 4 9 3 5
-4 -3 -6 13 -21 36 -35 24 -13 83 -47 131 -76 49 -28 92 -49 97 -46 5 3 15 -4
24 -16 8 -12 19 -18 25 -14 7 3 10 1 9 -5 -2 -6 15 -21 37 -34 115 -64 138
-75 148 -69 5 3 7 1 3 -5 -8 -14 163 -105 187 -98 13 3 16 1 8 -8 -8 -9 8 -21
62 -47 39 -19 73 -33 75 -31 2 2 9 -4 16 -14 8 -11 18 -14 26 -9 8 5 11 4 7
-1 -3 -5 21 -24 54 -41 33 -18 58 -29 55 -25 -2 4 7 8 20 8 22 2 23 1 8 -10
-16 -12 -16 -13 0 -19 10 -4 23 -4 28 0 7 3 8 1 4 -5 -5 -8 0 -12 13 -12 12 0
21 -4 21 -8 0 -11 131 -77 148 -73 6 1 12 -2 12 -7 0 -13 50 -33 63 -26 7 4 9
3 5 -1 -9 -10 63 -56 75 -48 5 3 14 -3 21 -12 7 -9 24 -18 38 -18 14 -1 24 -6
20 -11 -3 -5 2 -6 12 -3 9 4 15 3 12 -1 -7 -11 110 -66 123 -58 5 4 13 1 17
-5 4 -8 3 -9 -4 -5 -7 4 -12 4 -12 1 0 -3 17 -13 38 -22 20 -8 56 -24 80 -34
23 -11 48 -17 54 -13 6 4 8 3 5 -3 -4 -6 13 -18 36 -28 23 -9 50 -21 60 -26
10 -5 23 -7 29 -3 6 4 8 3 5 -3 -9 -14 47 -34 71 -27 14 5 15 4 2 -5 -11 -8
-12 -11 -2 -11 7 0 37 -11 65 -23 29 -13 90 -39 137 -57 47 -18 101 -40 120
-48 19 -9 48 -15 63 -15 16 0 23 -4 16 -8 -7 -4 2 -10 22 -14 19 -4 40 -12 46
-17 7 -6 19 -8 28 -5 8 4 20 1 27 -6 20 -20 166 -70 184 -63 8 3 12 2 9 -4 -3
-6 2 -11 12 -11 28 -2 35 -4 78 -23 22 -10 56 -19 76 -20 20 0 35 -4 33 -7 -6
-10 253 -72 271 -65 10 4 14 2 9 -5 -4 -8 4 -9 27 -4 22 4 29 3 21 -3 -10 -6
-1 -11 30 -16 24 -4 58 -9 77 -13 24 -4 32 -2 27 6 -5 7 3 11 26 10 23 -1 26
-3 11 -6 -43 -8 -25 -26 20 -19 24 4 37 3 29 -2 -21 -14 195 -32 369 -31 85 0
195 7 244 15 50 8 105 16 123 19 65 11 198 57 221 78 13 12 21 16 16 8 -8 -14
76 27 128 62 20 14 25 22 17 27 -7 4 0 8 16 8 17 0 35 8 47 23 11 13 22 23 26
23 3 -1 5 2 3 8 -1 5 1 7 6 4 12 -7 56 40 48 52 -3 5 2 9 12 8 11 -1 16 5 14
16 -2 12 2 16 11 12 8 -3 17 2 21 11 8 21 -2 38 -16 29 -7 -4 -8 -2 -4 5 6 9
11 9 22 0 10 -8 17 -8 26 3 42 44 128 206 120 227 -3 8 0 11 6 7 9 -5 36 52
37 79 0 6 4 13 10 17 5 4 9 23 9 42 0 20 3 31 6 25 9 -14 31 91 25 121 -5 21
-4 22 3 5 7 -16 12 -5 21 49 7 37 10 71 7 74 -3 3 -1 11 5 18 37 44 30 774 -8
847 -8 16 -10 26 -4 23 16 -10 13 24 -4 58 -17 33 -20 48 -4 26 7 -11 9 -3 4
30 -12 88 -37 235 -41 242 -2 3 -7 32 -10 63 -3 31 -9 66 -13 78 -5 12 -12 45
-16 74 -4 29 -13 57 -21 64 -8 6 -14 17 -14 23 0 6 5 4 10 -4 20 -30 9 4 -16
54 -15 28 -35 67 -45 87 -34 68 -117 199 -121 192 -3 -5 -3 -2 -1 6 3 14 -41
88 -62 103 -5 4 -7 8 -3 8 4 0 -18 36 -48 81 -30 44 -54 83 -54 85 0 13 -44
63 -51 58 -5 -3 -6 1 -4 8 3 8 -6 30 -20 49 -14 18 -49 69 -76 112 -29 44 -55
74 -61 70 -7 -3 -8 -1 -4 5 8 13 -22 64 -34 57 -4 -3 -11 7 -14 21 -4 15 -19
43 -34 63 -15 20 -31 42 -37 49 -5 8 -20 25 -32 38 -13 14 -23 28 -24 32 0 4
-5 6 -9 5 -4 -1 -7 4 -6 12 2 20 -207 305 -218 298 -5 -4 -6 -1 -2 5 3 5 -4
23 -17 39 -12 15 -39 54 -60 86 -23 35 -42 55 -49 51 -7 -4 -8 -3 -4 4 4 6 -2
20 -14 32 -11 11 -20 23 -20 26 0 14 -63 84 -71 79 -5 -4 -6 0 -4 7 3 8 -2 23
-12 34 -10 11 -34 42 -53 69 -40 57 -58 80 -82 107 -10 10 -18 22 -18 26 0 14
-37 44 -42 35 -3 -4 -3 -2 -1 6 4 18 -16 43 -30 34 -6 -4 -7 -1 -2 6 8 14 -33
63 -46 55 -5 -3 -6 1 -3 9 3 8 -10 31 -30 52 -20 21 -36 41 -36 45 0 4 -21 35
-47 68 -27 33 -68 85 -92 116 -33 41 -47 53 -53 44 -6 -9 -8 -7 -4 7 4 13 -4
31 -24 54 -17 18 -30 36 -30 40 0 13 -72 81 -81 76 -5 -3 -6 1 -3 9 6 16 -43
83 -58 79 -4 -2 -7 3 -5 10 1 6 -4 11 -11 9 -8 -1 -11 2 -7 8 3 5 -4 20 -16
32 -12 13 -18 17 -14 9 5 -10 4 -12 -4 -7 -6 4 -9 12 -6 17 8 13 -56 90 -68
82 -6 -4 -7 -1 -2 6 8 14 -33 64 -46 56 -4 -3 -11 0 -15 6 -5 8 -3 9 6 4 8 -5
11 -3 8 6 -3 8 -11 13 -17 11 -7 -1 -10 2 -6 7 3 6 -9 25 -27 42 -18 18 -26
29 -18 25 8 -4 -3 9 -25 30 -22 20 -33 33 -25 29 8 -5 4 4 -9 18 -13 15 -28
24 -34 20 -6 -4 -7 -1 -3 6 10 15 -23 53 -37 44 -6 -3 -7 -1 -3 5 4 7 -18 42
-50 82 -43 53 -60 68 -67 58 -6 -9 -7 -8 -3 5 5 17 -53 100 -105 150 -11 10
-19 22 -19 28 0 6 -4 7 -10 4 -5 -3 -10 -1 -10 6 0 11 -107 149 -116 149 -2 0
-1 -7 2 -15 4 -8 1 -15 -4 -15 -6 0 -9 10 -7 21 4 21 -69 124 -101 142 -8 4
-14 14 -14 21 0 18 -35 48 -45 39 -4 -5 -5 -2 -1 5 4 6 2 12 -3 12 -6 0 -10 6
-8 13 1 6 -4 11 -11 9 -8 -1 -11 1 -8 6 7 12 -38 54 -49 45 -4 -5 -5 -2 -1 5
8 14 -61 105 -74 97 -4 -3 -14 3 -21 12 -10 12 -10 14 -1 9 24 -14 12 7 -35
63 -26 31 -50 58 -53 61 -3 3 -17 21 -32 42 -38 50 -58 69 -68 63 -4 -3 -14 3
-21 13 -13 15 -12 16 4 3 10 -8 17 -9 17 -3 0 6 -12 20 -26 31 -15 12 -23 21
-19 21 5 0 -2 11 -15 25 -12 13 -27 22 -31 19 -5 -3 -6 3 -2 12 5 13 2 16 -9
12 -10 -4 -15 -1 -14 10 0 9 -5 16 -12 14 -8 -1 -11 1 -8 6 3 5 -9 25 -26 46
-24 29 -33 35 -40 24 -7 -9 -8 -7 -4 7 4 15 -11 39 -56 90 -34 39 -66 69 -71
67 -4 -1 -6 2 -2 8 3 5 -9 26 -27 45 -75 82 -85 94 -82 98 3 2 -14 21 -36 41
-22 20 -37 36 -34 36 4 0 1 7 -6 15 -7 8 -16 12 -21 9 -5 -3 -8 -1 -7 4 2 6
-35 54 -82 108 -47 54 -103 120 -124 147 -29 37 -41 45 -48 35 -6 -9 -8 -7 -3
8 3 14 -1 26 -12 35 -15 12 -16 12 -10 -4 4 -11 3 -16 -4 -12 -6 4 -8 13 -5
20 5 15 -31 58 -44 50 -5 -3 -12 0 -16 6 -4 8 -3 9 4 5 19 -12 14 3 -14 40
-14 18 -30 31 -35 28 -5 -3 -8 -1 -7 4 2 5 -35 54 -82 108 -133 154 -142 164
-154 157 -6 -3 -8 -3 -4 2 11 11 -31 67 -44 59 -7 -5 -8 -2 -3 6 4 7 4 15 -1
19 -5 3 -27 29 -49 56 -22 28 -58 69 -81 92 -22 24 -39 44 -37 46 2 3 -15 21
-37 41 -22 20 -37 36 -33 36 4 0 -15 24 -43 53 -28 28 -77 84 -110 122 -32 39
-106 123 -163 188 -57 64 -114 129 -127 145 -111 130 -187 211 -197 209 -6 -1
-11 5 -12 13 0 23 -118 159 -133 154 -7 -2 -10 1 -7 6 5 8 -92 126 -172 210
-8 8 11 -36 42 -97z"/>
<path d="M27832 14958 l3 -1933 420 0 420 0 5 484 5 484 305 -319 c168 -175
358 -375 424 -444 65 -69 138 -144 162 -167 l43 -43 580 0 c390 0 581 3 581
10 0 6 -181 194 -402 418 -221 224 -504 510 -628 635 l-225 228 50 47 c28 26
271 250 540 497 269 248 514 473 545 502 l55 52 -577 1 -577 0 -416 -407
c-229 -223 -428 -415 -441 -425 l-24 -19 0 1165 0 1166 -425 0 -425 0 2 -1932z"/>
<path d="M37015 16786 c-120 -39 -237 -141 -289 -250 -125 -264 26 -587 309
-661 165 -43 335 5 456 127 227 227 162 607 -128 754 -74 38 -79 39 -192 41
-75 2 -130 -2 -156 -11z"/>
<path d="M17300 14780 l0 -1760 453 2 452 3 5 1075 5 1074 121 -154 c66 -85
170 -218 230 -295 60 -77 134 -171 164 -210 65 -85 99 -129 171 -220 83 -105
269 -343 629 -805 177 -228 334 -427 348 -443 l26 -27 450 2 451 3 3 1758 2
1757 -455 0 -455 0 0 -1064 c0 -586 -4 -1067 -8 -1070 -5 -3 -150 175 -323
396 -173 221 -381 488 -463 592 -82 105 -206 263 -274 351 -69 88 -164 210
-212 270 -47 61 -159 203 -249 318 l-162 207 -455 0 -454 0 0 -1760z"/>
<path d="M22645 15493 c-445 -38 -792 -218 -1028 -532 -171 -227 -240 -435
-240 -726 -1 -370 111 -652 358 -901 243 -245 529 -365 938 -394 249 -17 503
12 711 81 434 145 756 506 843 946 23 120 23 376 0 494 -46 232 -148 432 -308
603 -275 295 -639 439 -1094 434 -77 -1 -158 -3 -180 -5z m253 -723 c176 -29
325 -135 406 -290 116 -219 76 -481 -98 -656 -112 -113 -235 -164 -391 -164
-162 0 -285 50 -395 160 -218 217 -226 553 -18 775 69 74 129 116 205 145 99
37 189 46 291 30z"/>
<path d="M32270 15494 c-219 -26 -374 -64 -521 -128 -309 -136 -561 -400 -677
-709 -124 -332 -88 -763 90 -1071 198 -343 551 -570 983 -632 135 -19 413 -22
550 -5 576 72 1006 431 1140 951 32 127 45 353 26 492 -38 282 -159 521 -371
727 -189 184 -434 306 -715 357 -86 15 -424 27 -505 18z m351 -748 c164 -57
296 -194 349 -365 25 -79 27 -226 4 -315 -30 -118 -107 -229 -212 -303 -93
-67 -175 -94 -297 -100 -177 -9 -294 35 -416 156 -119 118 -169 237 -169 399
0 147 46 267 144 378 143 162 386 223 597 150z"/>
<path d="M35266 15489 c-131 -14 -235 -38 -341 -80 -158 -63 -272 -148 -365
-271 -115 -152 -161 -289 -162 -483 -2 -212 49 -344 175 -461 94 -87 192 -133
377 -179 301 -73 346 -86 400 -113 61 -30 87 -61 100 -115 22 -99 -40 -185
-149 -208 -77 -16 -247 -6 -346 21 -99 26 -236 85 -350 151 -48 28 -88 49 -90
47 -2 -2 -53 -102 -115 -223 -62 -121 -130 -253 -151 -292 l-38 -73 42 -24
c157 -92 386 -180 565 -216 201 -41 487 -45 672 -10 401 75 688 308 780 630
30 106 37 280 16 390 -45 243 -215 423 -486 515 -38 13 -142 40 -231 60 -89
20 -179 43 -201 51 -110 39 -152 116 -113 210 30 73 102 104 241 104 132 0
249 -27 395 -93 l56 -25 139 265 c76 146 140 268 142 272 6 16 -210 85 -363
116 -207 42 -412 54 -599 34z"/>
<path d="M26116 15444 c-182 -36 -293 -94 -432 -227 l-104 -99 0 146 0 146
-425 0 -425 0 2 -1192 3 -1193 420 0 420 0 5 715 c5 655 7 720 24 770 39 120
109 199 224 253 64 31 72 32 192 32 142 0 185 -13 259 -81 57 -51 87 -105 108
-194 15 -66 18 -159 23 -785 l5 -710 418 -3 417 -2 0 834 c0 905 -1 923 -56
1078 -14 40 -42 102 -62 138 -46 84 -176 214 -267 268 -79 47 -219 96 -315
111 -90 15 -351 12 -434 -5z"/>
<path d="M36732 14218 l3 -1193 420 0 420 0 3 1193 2 1192 -425 0 -425 0 2
-1192z"/>
<path d="M23440 12189 c0 -5 -4 -8 -9 -5 -5 3 -33 1 -62 -5 -58 -12 -70 -14
-169 -24 -36 -3 -72 -9 -80 -11 -15 -5 -170 -24 -362 -45 l-118 -12 0 -29 c0
-26 3 -28 38 -29 43 -1 86 0 122 5 14 2 19 1 13 -1 -25 -9 -12 -23 20 -23 44
0 146 -27 176 -47 22 -14 24 -14 18 0 -3 9 -2 19 3 22 4 3 7 -7 5 -22 -1 -15
1 -38 6 -51 14 -36 12 -1726 -2 -1791 -7 -36 -20 -61 -40 -78 -16 -14 -26 -30
-22 -36 3 -6 2 -7 -4 -4 -6 4 -41 0 -79 -9 -67 -15 -104 -20 -192 -25 -49 -3
-56 -10 -47 -40 6 -17 9 -19 16 -8 6 10 9 10 9 2 0 -10 133 -12 591 -13 524 0
591 1 585 15 -3 8 -1 15 4 15 12 0 14 29 3 31 -5 1 -35 3 -68 5 -126 9 -251
25 -280 36 -16 7 -34 13 -39 13 -5 0 -11 16 -15 35 -3 19 -5 449 -5 955 1 949
1 926 39 1136 6 32 5 37 -16 42 -33 9 -39 9 -39 -4z"/>
<path d="M17258 11935 c-3 -3 -1 -26 3 -53 5 -26 11 -138 15 -249 l7 -203 66
0 67 0 32 88 c38 101 99 189 156 225 130 80 252 98 695 98 184 0 313 4 316 10
4 5 12 9 18 9 7 0 6 -4 -3 -10 -8 -5 -10 -10 -5 -10 7 0 8 -292 5 -864 l-5
-865 -34 -35 c-39 -40 -119 -74 -190 -81 -25 -3 -66 -8 -91 -11 -25 -3 -83 -8
-129 -9 -46 -2 -85 -5 -86 -7 -2 -2 -1 -15 2 -30 6 -32 39 -39 46 -10 4 16 5
16 6 0 1 -17 42 -18 724 -18 397 0 727 4 732 8 6 4 11 17 11 30 2 28 -17 33
-114 29 -41 -1 -76 1 -78 5 -3 5 -29 8 -57 8 -142 0 -260 40 -283 96 -11 27
-14 185 -14 894 l0 861 322 0 c431 0 582 -19 680 -86 39 -26 64 -33 52 -13 -4
7 -3 8 5 4 6 -4 9 -11 6 -16 -8 -12 36 -71 47 -64 5 3 8 2 7 -3 -4 -21 2 -34
13 -27 6 4 8 3 5 -4 -9 -13 2 -44 13 -37 4 3 7 -1 6 -8 0 -6 10 -44 23 -83
l24 -71 67 -2 68 -2 6 108 c3 59 14 174 24 256 l18 147 -1597 0 c-878 0 -1598
-2 -1601 -5z"/>
<path d="M21376 11149 c-60 -4 -149 -15 -197 -24 -99 -18 -268 -69 -254 -77 6
-3 4 -3 -3 -1 -22 5 -183 -68 -175 -80 3 -5 1 -7 -5 -3 -15 9 -103 -46 -98
-61 3 -7 -1 -10 -8 -7 -33 13 -211 -174 -200 -211 4 -16 3 -17 -5 -5 -8 11
-14 4 -31 -34 -11 -27 -22 -69 -25 -92 -2 -24 -6 -48 -9 -52 -3 -5 -1 -36 4
-70 9 -63 43 -143 86 -200 22 -28 28 -31 47 -20 20 10 21 9 9 -5 -11 -13 -11
-19 0 -36 7 -12 19 -19 26 -16 7 3 11 1 8 -4 -8 -13 21 -34 35 -25 7 4 9 3 6
-3 -9 -14 29 -47 44 -37 8 4 10 3 5 -4 -9 -14 191 -115 212 -107 7 2 11 1 8
-4 -6 -10 -6 -10 154 -50 63 -16 156 -35 205 -41 105 -13 430 -6 490 10 22 6
56 13 75 16 19 2 39 9 44 14 4 4 15 6 24 2 11 -4 14 -1 9 11 -3 9 -2 17 3 17
6 0 10 -5 10 -10 0 -13 30 -6 135 30 112 39 116 41 108 53 -3 5 -1 7 5 3 11
-6 147 60 191 93 31 24 20 45 -14 29 -21 -9 -23 -14 -12 -27 10 -14 10 -14 -5
-3 -9 8 -22 11 -28 7 -5 -3 -10 -4 -10 -1 0 3 14 13 32 22 l32 16 -25 14 c-34
19 -40 18 -120 -21 -40 -19 -78 -35 -86 -35 -7 0 -13 -5 -13 -11 0 -5 -4 -8
-8 -5 -5 3 -30 -2 -57 -10 -69 -20 -261 -44 -360 -44 -46 0 -135 7 -196 16
-61 8 -118 13 -126 10 -8 -3 -11 -1 -8 4 3 6 -2 10 -12 10 -66 1 -277 101
-350 164 -34 31 -53 42 -57 34 -3 -7 -4 -4 -3 7 1 12 -3 19 -11 17 -8 -1 -10
2 -7 8 9 14 -24 52 -38 43 -6 -3 -7 -1 -3 5 3 6 -5 39 -19 73 -14 34 -25 75
-25 91 0 15 -4 28 -9 28 -5 0 -6 11 -3 25 l7 25 753 0 c835 0 800 -3 822 65
14 43 -4 139 -32 167 -10 10 -18 24 -18 32 0 23 -106 108 -188 151 -155 81
-300 113 -572 129 -30 1 -104 -1 -164 -5z m269 -129 c39 -12 78 -22 87 -23 9
-1 15 -4 12 -8 -2 -4 6 -11 18 -14 32 -10 96 -73 119 -117 25 -49 25 -119 0
-142 -17 -15 -65 -17 -557 -16 -390 0 -540 3 -543 11 -2 6 1 14 6 18 6 3 20
25 32 48 27 54 90 118 166 169 53 35 96 53 235 93 20 6 103 9 195 7 129 -3
174 -8 230 -26z"/>
<path d="M25180 11148 c-149 -9 -197 -15 -270 -33 -36 -9 -93 -23 -128 -31
-39 -10 -60 -20 -56 -26 4 -6 2 -8 -3 -5 -21 13 -226 -78 -250 -110 -7 -9 -13
-13 -13 -9 0 4 -13 -1 -30 -11 -16 -9 -29 -24 -27 -31 1 -8 -9 -21 -23 -29
l-25 -15 25 21 c14 12 19 21 12 21 -33 0 -206 -201 -216 -252 -2 -7 -9 -26
-16 -43 -6 -16 -13 -66 -13 -110 -1 -65 4 -92 26 -145 25 -60 142 -218 153
-207 3 3 16 -5 29 -17 58 -53 128 -91 146 -80 7 4 9 3 5 -4 -8 -14 30 -36 46
-26 6 4 8 3 5 -3 -4 -6 30 -22 81 -38 48 -15 97 -32 109 -38 12 -5 29 -7 38
-3 9 3 14 2 11 -3 -10 -15 199 -44 360 -49 155 -4 267 4 396 30 32 7 54 16 51
21 -3 6 -1 7 5 3 14 -8 94 12 88 22 -3 5 10 8 27 8 39 1 239 83 231 95 -3 5 1
7 8 4 15 -6 104 50 91 57 -4 3 -2 3 5 2 15 -4 52 17 52 29 0 5 -8 6 -17 3 -10
-4 -14 -4 -10 0 8 9 -47 44 -69 44 -8 0 -13 -4 -10 -8 2 -4 -3 -8 -12 -9 -9 0
-60 -19 -112 -40 -53 -22 -129 -46 -170 -53 -41 -7 -79 -15 -85 -18 -17 -11
-358 -12 -405 -2 -25 5 -85 18 -133 29 -48 11 -95 17 -104 14 -11 -4 -14 -2
-9 5 4 7 1 12 -7 12 -18 0 -174 76 -205 100 -13 10 -31 16 -40 13 -11 -3 -13
-2 -5 4 8 6 -4 25 -41 63 -60 62 -102 138 -112 202 -4 24 -11 51 -16 61 -5 10
-7 25 -4 35 5 16 54 17 743 14 406 -1 752 0 769 3 52 9 73 37 72 97 0 29 -3
58 -7 63 -5 10 -6 13 -10 45 -1 13 -2 13 -12 0 -8 -12 -9 -11 -5 6 4 13 -3 32
-19 53 -28 38 -65 75 -65 65 0 -4 -11 5 -24 21 -16 18 -28 25 -37 20 -8 -5
-11 -5 -7 0 5 5 -2 14 -15 21 -69 40 -100 52 -114 47 -10 -4 -14 -2 -10 5 9
13 -88 43 -111 35 -9 -4 -13 -2 -9 4 18 28 -319 63 -503 51z m204 -119 c98
-24 171 -56 218 -98 l36 -31 22 27 c12 16 18 21 14 13 -4 -8 -14 -23 -22 -32
-13 -15 -13 -20 1 -41 35 -54 33 -137 -3 -157 -12 -7 -199 -10 -539 -10 -323
-1 -523 -4 -526 -10 -3 -6 -10 -10 -15 -10 -12 0 -3 47 18 90 31 66 204 218
242 212 9 -2 6 4 -7 15 l-23 18 27 2 c15 0 21 -2 14 -7 -10 -5 -9 -9 3 -13 9
-4 16 -3 16 2 0 5 6 9 13 8 6 0 21 1 32 2 17 1 18 3 5 12 -12 9 -12 10 4 5 10
-3 37 -1 60 5 48 14 210 26 281 21 28 -2 86 -13 129 -23z"/>
<path d="M27695 11153 c-63 -3 -199 -17 -250 -27 -11 -2 -40 -7 -65 -10 -25
-4 -56 -11 -70 -16 -14 -4 -52 -13 -84 -20 -32 -7 -54 -15 -48 -19 7 -4 -3 -7
-21 -7 -17 -1 -50 -9 -72 -19 -22 -10 -46 -19 -54 -21 -27 -5 -71 -27 -71 -34
0 -4 -6 -7 -12 -6 -17 1 -128 -55 -128 -65 0 -4 9 -11 21 -14 11 -4 18 -9 15
-12 -3 -3 -16 1 -30 10 -20 13 -26 14 -35 3 -6 -7 -7 -17 -3 -21 4 -5 1 -5 -6
-1 -36 21 -269 -228 -247 -264 3 -6 1 -10 -5 -10 -7 0 -10 -6 -7 -14 3 -8 1
-16 -5 -18 -7 -3 -11 -34 -11 -79 -1 -85 4 -119 16 -119 4 0 6 -4 3 -9 -10
-15 13 -63 26 -55 7 4 8 3 4 -5 -15 -24 102 -170 124 -156 6 4 9 1 8 -5 -4
-17 114 -99 131 -92 8 3 12 1 8 -5 -4 -5 5 -15 19 -22 20 -9 24 -9 18 1 -4 7
4 4 17 -8 24 -21 114 -60 157 -69 12 -2 27 -7 33 -11 6 -3 15 0 20 7 7 11 9
10 9 -5 0 -13 5 -16 17 -12 9 4 19 2 23 -3 5 -9 45 -18 106 -25 11 -1 26 -6
33 -10 7 -5 97 -10 199 -13 183 -5 334 7 462 37 25 6 56 13 70 15 45 10 172
55 242 87 49 22 65 34 56 41 -9 6 -8 7 5 3 17 -5 46 5 71 25 6 5 26 20 44 35
17 14 29 30 26 36 -3 5 2 8 11 6 35 -6 24 17 -17 37 -53 25 -57 25 -92 1 -16
-10 -53 -31 -82 -46 -49 -25 -65 -46 -26 -33 14 4 15 3 3 -5 -9 -7 -21 -7 -31
-2 -25 14 -62 1 -55 -19 5 -13 4 -14 -6 -3 -7 6 -20 12 -28 12 -14 0 -14 -2
-1 -11 12 -8 11 -9 -5 -5 -11 3 -56 -1 -100 -10 -44 -8 -96 -17 -115 -18 -50
-5 -258 -6 -305 -1 -62 5 -187 33 -252 56 -32 11 -65 21 -73 21 -8 1 -17 4
-20 8 -3 3 -35 23 -71 43 -36 20 -72 43 -79 52 -10 12 -16 13 -29 3 -9 -7 -13
-9 -9 -4 9 10 -44 89 -72 109 -11 8 -17 17 -13 20 3 4 1 7 -5 7 -7 0 -11 3
-10 8 1 4 -5 21 -14 37 -9 17 -21 64 -28 107 -10 62 -10 86 1 130 7 29 13 55
14 58 0 3 14 28 32 56 34 56 100 116 163 150 22 12 38 23 35 25 -2 3 4 5 13 6
9 0 49 12 89 26 95 34 249 51 393 42 120 -7 189 -21 302 -60 36 -13 69 -21 72
-19 3 2 4 1 1 -2 -2 -4 25 -22 61 -40 76 -38 97 -37 189 8 98 49 133 89 114
132 -14 29 -69 60 -83 45 -6 -5 -15 -9 -20 -9 -6 0 -4 4 4 10 19 12 -13 24
-122 45 -68 13 -401 39 -418 33 -3 -1 -36 -3 -75 -5z"/>
<path d="M29920 11156 c-3 -2 -39 -5 -80 -6 -174 -4 -423 -57 -585 -126 -36
-15 -38 -18 -20 -26 17 -7 17 -8 -4 -4 -13 3 -40 -2 -60 -11 -33 -14 -34 -16
-16 -24 18 -8 17 -9 -4 -5 -16 3 -30 -1 -38 -12 -8 -9 -11 -11 -7 -3 5 10 3
12 -7 6 -60 -37 -179 -134 -179 -147 0 -5 6 -6 13 -2 7 4 9 3 4 -2 -5 -5 -12
-9 -16 -9 -22 0 -115 -141 -104 -158 3 -5 -1 -13 -8 -18 -10 -6 -14 -34 -14
-111 0 -97 2 -107 34 -173 24 -47 56 -91 102 -136 72 -71 183 -146 207 -141 8
2 11 -1 8 -6 -9 -15 39 -32 53 -19 10 9 12 9 9 -2 -4 -21 136 -77 212 -85 14
-1 34 -7 45 -13 48 -26 225 -45 460 -49 132 -3 235 -1 228 3 -6 4 12 8 40 8
69 1 207 26 207 38 0 5 7 7 15 3 32 -12 351 107 338 127 -3 6 -1 7 5 3 15 -9
54 12 47 25 -4 5 -3 8 2 7 19 -5 54 15 49 27 -3 10 0 12 11 8 12 -5 14 -3 8 7
-5 8 -4 11 2 7 28 -18 182 150 215 233 23 58 36 196 22 228 -4 9 -9 27 -10 39
-4 36 -44 105 -98 169 -54 65 -180 159 -198 148 -6 -4 -8 -3 -5 2 9 16 -161
91 -279 123 -142 39 -258 60 -369 66 -49 2 -121 7 -160 11 -38 3 -72 3 -75 0z
m105 -101 c103 -9 219 -41 309 -86 43 -21 83 -36 90 -32 6 3 8 2 3 -2 -10 -11
33 -56 46 -48 6 3 7 2 4 -4 -8 -13 58 -77 72 -69 6 4 9 1 5 -7 -3 -8 6 -31 20
-51 14 -21 28 -46 31 -57 4 -11 11 -16 17 -13 7 4 8 2 4 -4 -4 -6 1 -37 10
-69 10 -32 19 -69 20 -83 7 -57 3 -153 -7 -172 -6 -11 -8 -26 -5 -34 3 -8 2
-13 -3 -9 -8 4 -14 -13 -24 -62 -6 -33 -147 -166 -209 -198 -31 -16 -54 -33
-52 -37 3 -4 -5 -7 -18 -6 -13 0 -54 -10 -93 -22 -63 -22 -87 -24 -245 -23
-149 1 -185 4 -245 22 -38 12 -74 23 -80 24 -5 1 -16 6 -22 10 -7 5 -17 5 -23
2 -5 -3 -10 -2 -10 4 0 5 -10 13 -22 17 -13 4 -34 15 -48 26 -16 13 -33 17
-50 13 -16 -4 -20 -3 -12 3 10 7 0 22 -44 63 -31 30 -63 53 -70 53 -7 -1 -10
4 -7 12 2 7 -6 28 -19 46 -63 85 -105 240 -93 345 3 32 7 68 8 80 1 11 5 20 8
18 3 -2 11 13 19 33 7 20 23 52 36 71 19 28 21 38 11 50 -10 14 -10 14 5 3 14
-11 19 -10 32 9 8 12 13 26 10 31 -3 4 1 5 9 3 7 -3 22 4 32 15 19 20 18 21
-1 14 -15 -5 -16 -4 -4 4 8 6 18 9 22 6 9 -6 95 42 105 59 4 7 0 8 -13 3 -10
-4 -15 -3 -10 1 4 4 24 9 44 9 20 1 57 7 82 14 54 15 245 38 280 34 14 -2 57
-6 95 -9z"/>
<path d="M33061 11149 c-125 -8 -299 -36 -317 -51 -7 -5 -16 -8 -20 -6 -19 5
-232 -57 -244 -71 -3 -3 -9 -6 -15 -6 -5 0 -27 -6 -47 -13 -27 -10 -36 -18
-32 -30 5 -14 4 -14 -4 -3 -9 12 -15 13 -36 3 -26 -12 -26 -11 -26 36 1 26 5
66 9 89 7 37 6 42 -13 47 -23 6 -53 3 -143 -13 -32 -6 -78 -13 -103 -16 -25
-4 -67 -10 -95 -15 -41 -8 -417 -60 -431 -60 -7 0 -4 -25 4 -38 5 -6 46 -17
93 -22 131 -16 147 -19 183 -34 18 -7 42 -26 54 -41 22 -27 22 -33 22 -394 0
-228 -4 -380 -11 -404 -9 -32 -69 -114 -69 -94 0 3 -17 0 -37 -7 -21 -7 -85
-19 -143 -25 -136 -16 -140 -18 -140 -47 l0 -24 590 0 c465 0 590 3 591 13 0
6 2 20 4 29 4 22 -9 25 -125 33 -139 9 -193 22 -221 51 l-24 26 -3 402 -4 403
39 15 c21 8 59 21 86 28 26 7 47 16 47 20 0 5 10 6 23 3 18 -4 19 -3 7 6 -11
8 -7 10 18 5 17 -4 32 -3 32 2 0 5 10 10 23 10 12 1 46 6 75 12 171 37 403 33
518 -7 31 -11 61 -18 67 -14 6 3 7 2 4 -4 -3 -5 9 -17 27 -26 43 -20 99 -91
114 -143 8 -28 12 -144 13 -342 1 -298 -4 -352 -35 -391 -15 -19 -92 -51 -122
-51 -13 0 -24 -3 -24 -7 0 -5 -39 -9 -86 -11 -48 -1 -90 -4 -94 -7 -4 -2 -5
-16 -3 -30 l5 -25 570 0 569 0 -3 32 c-3 33 -4 33 -56 34 -29 1 -56 4 -59 8
-3 3 -30 6 -58 6 -70 0 -146 25 -168 55 -16 22 -18 59 -21 372 -2 191 -5 359
-8 373 -3 14 -6 30 -7 37 0 7 -8 10 -18 6 -15 -6 -14 -4 2 14 11 11 32 23 48
27 26 6 38 26 15 26 -6 0 -8 3 -5 6 4 4 13 2 21 -5 11 -9 27 -7 72 8 77 26
201 56 292 71 83 14 329 20 352 9 8 -4 29 -9 46 -12 17 -3 53 -14 79 -26 26
-11 52 -18 58 -14 6 4 7 1 2 -7 -6 -10 -4 -12 9 -7 9 4 14 3 11 -2 -3 -5 4
-12 15 -16 11 -3 25 -15 31 -26 5 -11 14 -17 20 -14 5 4 9 3 8 -2 -4 -21 2
-34 13 -27 7 4 8 3 4 -5 -4 -6 0 -23 9 -37 14 -22 16 -66 15 -357 0 -293 -2
-335 -18 -367 -25 -51 -81 -75 -204 -90 -134 -15 -140 -17 -136 -43 l3 -22
525 -3 c289 -2 544 0 566 3 34 5 43 10 46 30 4 21 1 24 -31 29 -20 2 -45 5
-56 5 -11 0 -62 5 -113 11 -98 11 -132 26 -151 68 -7 15 -11 143 -12 360 0
185 -4 346 -9 357 l-9 20 -1 -20 c-1 -12 -4 -15 -7 -7 -3 7 0 19 7 27 26 31
-34 145 -115 217 -39 35 -136 87 -152 81 -7 -3 -13 0 -13 5 0 10 -55 26 -144
42 -74 12 -343 13 -417 1 -30 -5 -90 -15 -134 -21 -44 -7 -84 -17 -90 -21 -5
-5 -16 -9 -25 -9 -35 0 -239 -64 -233 -73 3 -6 1 -7 -5 -3 -14 9 -55 -12 -47
-24 3 -5 1 -12 -5 -15 -6 -4 -9 -1 -8 7 3 15 -35 12 -40 -3 -2 -5 -10 -9 -18
-9 -8 0 -33 -9 -56 -21 l-41 -21 -18 23 c-10 13 -19 20 -19 15 0 -5 -9 -1 -20
9 -11 10 -17 21 -15 26 8 12 -26 41 -42 35 -8 -3 -12 -2 -8 3 8 13 -115 69
-188 86 -34 7 -96 17 -137 20 -41 3 -88 7 -105 9 -16 2 -81 0 -144 -5z"/>
<path d="M36785 11149 c-187 -11 -423 -58 -408 -82 3 -6 1 -7 -6 -3 -6 4 -21
4 -32 1 -17 -6 -19 -9 -8 -17 11 -8 10 -8 -4 -4 -21 7 -120 -43 -150 -75 -10
-10 -23 -19 -29 -19 -6 0 -9 -3 -6 -6 3 -3 -5 -16 -18 -29 -13 -13 -24 -33
-24 -44 0 -11 -4 -23 -10 -26 -14 -8 -13 -90 2 -118 6 -12 14 -29 19 -37 4 -8
12 -14 19 -12 6 1 9 -2 6 -7 -4 -5 0 -13 8 -18 8 -4 15 -12 16 -18 1 -5 6 -9
11 -8 5 2 9 -1 9 -7 0 -14 99 -62 112 -54 6 4 8 3 5 -3 -4 -6 0 -14 9 -17 9
-4 13 -2 8 5 -4 7 6 2 22 -9 31 -23 241 -85 261 -78 6 3 13 1 15 -4 2 -5 26
-14 53 -19 81 -16 176 -39 235 -56 30 -8 72 -16 94 -16 26 -1 34 -4 25 -10
-10 -6 -7 -9 12 -9 14 0 30 -5 36 -11 8 -8 17 -8 32 1 12 6 21 7 20 3 -3 -21
3 -31 27 -42 14 -6 30 -8 36 -5 6 4 8 3 5 -2 -3 -6 7 -18 23 -29 31 -21 63
-69 66 -100 7 -68 -36 -127 -116 -159 -25 -10 -56 -23 -69 -30 -38 -17 -471
-13 -471 5 0 3 -27 14 -61 24 -48 15 -65 16 -80 7 -10 -7 -22 -12 -26 -12 -5
0 0 5 11 11 17 10 16 12 -10 30 -16 10 -35 17 -42 14 -7 -3 -11 -1 -8 4 3 5
-20 24 -52 44 -67 42 -221 194 -222 220 0 6 -120 0 -127 -6 -1 -1 7 -27 17
-57 11 -30 19 -68 20 -83 0 -19 4 -26 12 -21 8 5 9 0 5 -15 -3 -11 1 -52 9
-89 8 -37 14 -79 14 -94 0 -24 4 -28 28 -29 42 -2 74 -5 248 -28 183 -24 160
-23 434 -24 224 -1 323 6 415 28 68 17 88 22 128 31 20 4 27 10 22 21 -4 13
-3 13 8 4 17 -13 81 12 163 64 93 59 124 99 144 182 9 38 -2 99 -17 96 -6 -1
-9 6 -6 17 10 38 -164 171 -204 156 -8 -3 -12 -2 -9 2 6 11 -143 64 -155 56
-6 -3 -15 -1 -22 4 -15 12 -225 66 -302 77 -5 0 -17 4 -25 8 -20 8 -138 29
-167 29 -13 0 -21 4 -18 8 4 6 -66 29 -105 35 -24 3 -155 84 -167 102 -10 14
-19 20 -22 14 -4 -6 -6 17 -5 50 1 50 5 64 28 88 14 15 23 31 19 36 -5 4 -3 5
3 2 7 -4 15 0 18 9 4 9 9 14 12 11 3 -3 27 4 52 15 68 29 99 33 287 33 159 0
176 -2 253 -28 46 -15 93 -32 104 -38 15 -8 19 -8 14 0 -10 16 7 14 30 -4 19
-15 19 -15 -1 -8 -11 4 9 -16 44 -43 48 -36 74 -66 99 -112 l34 -63 55 2 54 2
-1 106 c0 58 3 135 8 171 5 36 7 68 3 71 -3 4 -73 10 -156 14 -82 4 -166 9
-185 11 -166 17 -292 21 -435 13z"/>
</g>
</svg>
