<svg xmlns="http://www.w3.org/2000/svg" viewBox="0 0 600 90" title="Neue Zürcher Zeitung"> <path d="M40.74.114c3.01.4 5.7 3.7 5.7 5.988v15.48c0 2.7 3.2 3.6 4.5 4.19-4.1 2.2-5.8 4.9-5.8 7.89v20.57c0 3.7 1.5 4.9 3.4 5.3 2.5.4 3.5-4.09 4.3-3.39.7.7-1.9 3.69-4 6.09-2.3 2.6-3.8 6.49-3.9 6.4 0 0-3.61-2.4-5.41-4.69-1.6-2.1-3-4.89-3-8.39v-17.87c0-6.79 7.51-10.39 9.61-11.19-1.7-.2-8.61-1.19-8.61-6.79V7.522c0-1.598-.4-3.994-2.1-3.994-3.1-.1-5.9 4.493-5.9 9.484v34.85c0 .2-.7 3.9-7.9 10.99-3.7 3.69-5.9 10.28-6.5 10.88-.5-1.1-3.01-9.29-8.918-8.49-5.902.7-5.502 7.59-6.002 7.69-.4.1 0-2.2-.22-4.79-.18-3.4 3.92-8.99 8.323-10.09 6.717-1.69 11 4.9 11.5 4.9 0 0 1.1-.8 1.1-1.5V6.032c0-2.696-1.6-4.393-3.6-4.393-4.41-.1-6.01 2.193-5.31 6 .7 4.4 7.6 12.4 6.6 19.07-.5 3.5-3.4 6.99-7.71 6.89-5.508-.2-8.41-9.28-7.51-9.68.6-.3.9 4.6 4 4.6 1.4 0 2.2-1.4 2.708-2.8.8-2.19-4.904-6.99-5.004-12.38-.2-6.79 3.3-11.38 9.118-12.68 5.3-1.2 11.7 2.1 14.7 8.1 0 0 4.2-9.59 11.8-8.59M105.2 20.28c2.4 5 5 7.5 6.7 8.59-2.1.9-2.9 2.4-2.9 4.09v24.27c0 1.4 1 2.7 1.7 2.5 3.2-.69 3.4-4.49 4.3-3.39.4.4-1.4 3-2.2 3.69-1.8 1.5-6 5.8-7.5 8.69-2.1-3.59-4.4-6.09-4.5-7.29 0-.2.1-1.3 0-4.79 0 0-11.14 6.09-12.14 12.08-1-4.39-3.3-7.69-6.8-9.29 1-.99 3-2.49 3-4.69V33.17c0-2.19-.9-3.29-2.5-3.69s-3 2.69-3.8 1.9c-.4-.5 3.9-4.3 6.6-7.49 1.7-2.1 2.8-3.6 2.8-3.6 3.1 1.1 5.3 4.1 5.3 6.59v27.46c0 1.7.3 4.6 2.7 4.2.8-.1 1.91-.8 4.84-2.9V34.57c0-3.49-.4-3.99-2.73-5.79 2.73-1.5 4.83-3.59 7.13-8.49M187.4 0c8.7.2 16.6 5.3 17.3 14.7.3 5.19-2.3 9.29-4.9 11.98-3.3 3.3-5.6 4.1-10 5.3 7 .3 15.7 7.3 14.6 17.37-1.5 14.68-16.8 24.16-26.3 18.47-5.3-3.09-4.9-11.08-10.7-11.58-5.5-.5-8.8 3.99-7.9 8.5.9 4.3 3.7 7.1 9.2 4.9 0 0 .8-.5 1 0 .2.4-.6.8-.6.8-5.9 2.2-8.9-.3-10.2-4.1-2.4-6.79 4.1-13.87 12.8-15.07 8.9-1.2 11.3 10.4 13.6 13.7 1.2 1.8 2.8 2.3 4 2.2 3.4-.2 4.5-3.29 4.5-5.19V39.41c0-3.39-2.6-6.69-5.7-6.69-5.9.1-7.2 5.7-7.9 5s2.3-5.69 7.7-5.79c-4.7.1-8.6-4.7-8.6-7.89 0-3.8 2.2-5 4.5-5.4 2.9-.39 5.4 1.6 5.5 4.6 0 4.19-4 4.59-5.3 4.6 0 2.5 3.2 3.6 4.9 3.2 1.8-.4 4.9-1.7 4.9-5.89V9.57c0-3.598-2.4-7.99-8.7-7.99-6.7-.1-11.4 4.392-11.6 10.1 0 .2 0 2.29-.5 2.29-.6-.1-.6-2.2-.6-2.29.2-7.3 5.8-11.72 15-11.6m44.3 19.8c2.4 4.9 4.9 7.4 6.7 8.49-2.1 1-2.9 2.5-2.9 4.09v24.27c0 1.4 1 2.7 1.7 2.6 3.2-.7 3.4-4.5 4.3-3.4.4.4-1.4 3-2.2 3.69-1.8 1.5-6 5.7-7.5 8.59-2.1-3.59-4.5-5.99-4.5-7.29 0-.1.1-1.3 0-4.69 0 0-11.2 6.09-12.2 11.98-1-4.29-3.3-7.69-6.8-9.28 1-.9 3-2.4 3-4.6V32.66c0-2.09-.9-3.19-2.5-3.59s-3 2.7-3.8 1.8c-.4-.4 3.9-4.2 6.6-7.49 1.7-2 2.8-3.5 2.8-3.5 3.1 1 5.3 4.1 5.3 6.49v27.46c0 1.8.3 4.6 2.7 4.3.7-.1 1.9-.8 5-2.9V34.36c0-3.49-.5-4.19-2.9-5.99 2.8-1.5 4.9-3.69 7.2-8.49M217.9 1.208c2.2 0 4.2 1.9 4.1 4.194-.2 3.8-4.1 10.49-4.1 10.5 0-.1-4-6.9-4-10.49 0-2.396 2.2-4.194 4-4.194m13.7-.11c2.2 0 4.1 1.9 4 4.294-.1 3.7-4.1 10.39-4.1 10.39s-4-6.9-4-10.49c0-2.296 2.3-4.194 4.1-4.194m19.1 18.772c4.4 1.3 5.6 5.8 5.4 8.9 1.5-1.2 4.4-4.19 6.4-6.29 1.5-1.5 2.1-2.6 2.1-2.6l5.5 8.49-6.3 5.89c-1.2-1.1-4.4-5.99-5-6.49 0 0-2.7 1.6-2.7 2.5l.1 26.46c-.1 1.6.1 2.6 1 2.7 2.1 0 2.8-3.89 3.5-3.09.2.3.1 1.4-1.2 2.8-1.9 2.19-5.5 5.09-7.7 9.18-1.3-3.29-4-7.89-6.9-9.18 1.2-.8 2.6-2.3 2.6-4.6V30.79c0-1.4-1.4-2.5-2.3-2.5-1.1 0-2.6 2.5-3.1 1.6-.4-.5 2.4-2.4 5-5.39 2.9-3.4 3.5-4.7 3.6-4.6m39.8 8.8l-4.7-8.72c-3.6 2.9-1.4 1.3-8.4 6.79-3.7 2.9-7.1 4.7-7.1 8.29v23.37c0 5.5 9.5 10.1 9.5 10.1.9-5.49 2.9-8.49 7.9-8.69 3.9-.1 6.4 3.2 7.2 8.6 1.4-5.59 4.3-7.59 6.4-9.38-.8-.7-2.4-1.2-2.4-4.9V32c0-1.1 4.7-5.2 5.1-5.2.2 0 2 1.5 2 3.9 0 0 0 35.64-.1 35.74-.6 2.9-1.9 4.1-1.6 4.4.4.4 1.3-1.5 5-5.59 3.3-3.6 4.9-4.4 4.9-5.6V27.6c0-2.89-3.3-7.09-4.5-7.69L298.9 30V14.12c0-3.79 2.7-11.68 5.6-14.09-5.4 0-9.1 8.6-10.4 11.69-2.1-3.492-5.4-5.49-8.3-5.19 3.3 2.3 5.2 4.9 5.2 9.49v37.64c0 2.4-1 5.89-6.7 5.99-3.4.1-5.6-2.59-5.6-5.79V28.7c0-.5.3-2.4 1.5-2.6s4.1 6.4 4.7 6.99c2.9-2.09 3.3-2.59 5.6-4.39m62.8-8.72c3.6 1.4 5.5 5.7 5.4 8.8 1.4-1.2 4.3-4.19 6.3-6.29 1.5-1.5 1.8-2.4 1.9-2.4l6.1 9.19-7.2 5.99c-1.1-1.4-4.3-6.59-5-7.09 0 0-2.2 1.4-2.2 2.3v26.16c-.1 1.6.9 2.6 1.8 2.5 3.4-.2 3.6-3.9 4.6-3.2.4.3-.6 2.2-2 3.4-2.1 1.89-6.5 4.89-8.7 8.98-1.3-3.29-4-7.89-6.9-9.18 1.2-.8 3.2-2.2 3.2-4.5V31.38c0-1.4-1.6-3.2-3.2-2.9-1.1.2-3 2.8-3.5 1.8-.3-.8 3.1-2.8 5.7-5.79 3-3.4 3.6-4.6 3.7-4.5M415.6 0c8.9.1 16.8 5.1 17.4 14.5.3 5.19-2.3 9.39-4.9 11.98-3.2 3.3-5.6 4.1-10 5.3 7.1.4 15.7 7.3 14.7 17.37-1.6 14.68-16.9 24.16-26.5 18.47-5.2-2.99-4.9-11.08-10.7-11.58-5.5-.4-8.8 4.09-7.9 8.6.9 4.3 3.7 7 9.3 4.9 0 0 .7-.5.9-.1s-.6.9-.6.9c-5.8 2.2-8.9-.4-10.2-4.19-2.4-6.79 4.2-13.78 12.8-14.98 8.9-1.2 11.3 10.3 13.6 13.7 1.3 1.8 2.9 2.3 4.1 2.2 3.4-.3 4.5-3.29 4.5-5.19V39.31c0-3.39-2.5-6.69-5.8-6.69-5.8.1-7.1 5.6-7.9 4.9-.7-.7 2.3-5.59 7.8-5.69-4.8 0-8.6-4.7-8.6-7.99 0-3.7 2.1-5 4.4-5.3 2.9-.49 5.6 1.6 5.6 4.6.1 4.19-4 4.49-5.4 4.5 0 2.6 3.2 3.6 5.1 3.2 1.7-.3 4.8-1.7 4.8-5.79V9.47c0-3.694-2.4-7.988-8.8-8.088-6.7 0-11.4 4.394-11.6 10.1 0 .3.1 2.39-.5 2.29s-.5-2.19-.5-2.29c.1-7.192 5.7-11.69 14.9-11.4m56.8 34.478v22.37c-.1 1.7 1 2.9 1.9 2.9 2 0 2.5-3.59 3.3-2.69.1.2 0 1.3-1.2 2.69-1.9 2.3-6.7 5.1-8.8 9.59-1.3-3.29-3.2-7.49-6-8.79 1.2-.8 2.9-2.29 2.9-4.59V32.17c0-1.29-.8-2.49-1.8-2.49-1.1 0-2.2 2.49-2.8 1.9-.9-.7 4-4.3 6.9-7.29 1.1-1.1 1.1-1.1 2.7-3.1.7 1.7 3.3 6.6 6.2 8.39-2.5 1.5-3.3 2.79-3.3 5m-2.9-32.47c2.2 0 4.1 1.9 4 4.295-.1 3.695-4.1 10.48-4.1 10.5 0-.1-4-6.988-4-10.58 0-2.297 2.3-4.194 4.1-4.194m22.6 7.67v17.17c0 1.2 3.5.1 3.5.8v.8c0 .8-3.5-.1-3.6.7v27.56c0 .1-.4 3.2 1.8 3.3 2 .1 3.1-3.99 3.7-3.49.8.5-.6 2.79-4.8 6.69-3.9 3.59-3.7 3.19-5.4 6.09-1.3-2.6-3.8-7.09-6.8-8.99 1-.5 3.2-2.19 3.2-5.09V29.48c0-1.4-3.2.1-3-1 .1-.6-.1-.5 0-.6 4.8-2.2 9.7-12.28 11.4-18.07m50.2 11.37c2.5 1.4 5.2 4 5.9 10.7 4.4-4.5 10.3-10.69 10.3-10.69 1.4 3.6 4.7 7.1 6.2 8.2 0 0-2 2.7-2 4.49v24.47c0 1.3.9 2.6 1.9 2.5 1.7 0 2.4-2.59 2.7-2.39.5.3.2 1.39-1 2.69-2.2 2.4-5.9 5.69-7 8.49-1.7-1.1-4.7-4.59-4.7-7.69V33.49c0-2.19-.9-3.59-2.6-3.39-1.2.2-4.1 2.79-4.1 4.59v21.37c0 3 1.5 4 2.4 4.39-3.8 3.2-6.4 7.49-6.9 9.29-1.5-4.69-5-8.19-6.3-9.39 0 0 2.6-2.39 2.6-5.09V34.69c0-2-.4-4.69-2.4-4.69-2.2 0-3.4 3.39-4 2.39-.5-.69 5-5.99 7-8.28 1-1.1.8-1 2-2.9M520.8 56.7V35.4c0-3.5-.4-4-2.8-5.8 2.8-1.5 4.9-3.6 7.2-8.5 2.4 5 4.9 7.5 6.6 8.6-2.1.9-2.8 2.4-2.8 4.1l-.1 24.3c0 1.4 1.1 2.7 1.7 2.5 3.3-.7 3.4-4.5 4.4-3.4.3.4-1.4 3-2.2 3.7-1.8 1.5-6.1 5.7-7.5 8.6-2.2-3.6-4.5-6-4.5-7.2 0-.2.1-.9 0-4.4 0 0-10.7 5.7-11.7 11.6-1-4.3-3.3-7.6-6.8-9.2 1-1 3.1-2.5 3.1-4.7V34c0-2.2-.8-3.7-2.5-4.1-1.6-.4-3.1 3.1-3.9 2.2-.4-.4 3.9-4.2 6.6-7.5 1.7-2 2.8-3.5 2.8-3.5 3.2 1.1 5.3 4.1 5.3 6.5v27.6c0 1.7.3 4.6 2.8 4.2.7-.1 1.3-.6 4.3-2.7M134.2 20.28c.4.8 2.9 5.4 4.7 9 1.4 2.5 2.4 4.4 2.2 4.49-.1.1-13.8 10.39-13.8 10.69v11.18c0 2.6 1.5 4.5 3.5 4.7 3.5.4 3.9-4.69 4.8-3.79.8.7-1.9 4.59-4.3 6.59s-4.9 5.59-4.9 5.59-7.6-3.99-7.6-9.98V37.18c0-3.1.5-5.69 4.5-8.59 4.6-3.1 10.9-8.29 10.9-8.29zm-6.9 6.69c.1 1.3 0 16.2 0 16.2 1.3-.8 5.3-4.2 6.3-4.89 0 0-2-4-3.8-7.29-1.4-2.7-2.6-5-2.5-4zm-56.54-6.69c.4.9 2.8 5.5 4.7 9.1 1.3 2.5 2.3 4.4 2.1 4.49-.1 0-13.71 10.39-13.71 10.69v11.18c0 2.5 1 4 3 4.2 3.2.4 3.91-4.49 4.91-3.59.8.6-2.2 4.29-4.71 6.29-2.3 2-4.4 5.99-4.4 5.99s-7.3-3.79-7.3-9.78V37.28c0-3.1.5-5.79 4.5-8.59 4.6-3.1 10.91-8.39 10.91-8.39zm-6.91 6.79c.1 1.3 0 16.2 0 16.2 1.3-.8 5.3-4.2 6.31-4.99 0 0-2.01-3.9-3.81-7.29-1.4-2.7-2.6-5-2.5-3.9zm272.05-7.09c.4.9 2.8 5.5 4.7 9.1 1.2 2.5 2.3 4.4 2 4.49-.1 0-13.6 10.39-13.6 10.69v11.18c0 2.5 1.4 4.5 3.4 4.7 3.5.3 3.9-4.69 4.9-3.79.7.6-2 4.59-4.4 6.59-2.3 2-4.9 5.59-4.9 5.59s-7.5-3.99-7.5-9.98V36.98c0-3.1.4-5.79 4.5-8.59 4.5-3.19 10.9-8.39 10.9-8.39zm-6.9 6.79v16.08c1.3-.7 5.3-4.09 6.3-4.89 0 0-2.1-3.9-3.8-7.29-1.4-2.7-2.6-5-2.5-3.9zm258.1-5.59c3.7 5.2 9.3 8.8 9.3 8.79-.8 1.4-2.3 1.7-2.3 6.29v22.27c2.3 3.2 6.5 9.1 5.8 15.67-1 9.89-10.4 16.18-19.5 15.78-8.9-.3-12.4-7.59-11.5-12.68.7-3.5 3.6-4.69 5.6-4.2 1.8.4 3.4 2.4 2.9 4.7-.4 2.39-3.4 3.89-5.5 2.69-.6.1-1.2 1.9-.7 2.8 1.9 4.7 6.5 5.2 9.9 5.1 4.9-.2 10.3-4.49 11.1-10.78 1.2-8.49-6-10.39-6.3-17.98l-9.4 9.99c-1.7-.5-6.5-5.39-6.6-8.79-.1-1.2 0-10.68 0-22.46 0-3.6 1.6-5.1 7-8.99 6.3-4.59 7-4.69 10.2-8.19zm-5.8 6.79c-3.1 1-3.2 3.2-3.2 3.2v25.96c0 .2 1.5 4.1 3.7 4.5 1.4.3 4-2.99 4-3.29V31.48c-2-1.8-2.6-2.2-4.5-3.5zm-129-6.79c.4.9 2.8 5.5 4.7 9.1 1.2 2.5 2.3 4.4 2 4.5 0 0-13.6 10.39-13.6 10.69v11.18c0 2.6 1.5 4.5 3.4 4.7 3.5.3 3.9-4.69 4.9-3.79.8.6-2 4.59-4.4 6.59-2.3 2-4.8 5.59-4.8 5.59s-7.6-3.99-7.6-9.99V38.19c0-3.1.5-5.7 4.5-8.59 4.5-3.2 10.9-8.39 10.9-8.39zm-6.9 6.79v16.18c1.3-.8 5.3-4.2 6.3-5 0 0-2.1-3.89-3.8-7.28-1.4-2.7-2.6-5-2.5-3.9z"></path> </svg>