<svg id="svg" version="1.1" xmlns="http://www.w3.org/2000/svg" xmlns:xlink="http://www.w3.org/1999/xlink" width="400" height="400" viewBox="0, 0, 400,400"><g id="svgg"><path id="path0" d="M70.519 151.530 C 80.697 160.833,82.528 176.420,74.857 188.474 C 64.824 204.238,40.873 205.632,28.496 191.172 C 25.138 187.248,24.996 188.839,28.205 194.436 C 39.049 213.346,65.721 216.585,79.982 200.724 C 93.889 185.256,90.073 160.129,72.266 149.912 C 66.430 146.564,65.762 147.183,70.519 151.530 M263.535 149.682 C 242.745 157.273,243.059 197.934,263.963 205.056 C 268.635 206.648,278.402 206.593,283.232 204.948 C 302.388 198.420,303.954 160.215,285.452 150.777 C 280.659 148.331,268.848 147.741,263.535 149.682 M95.313 177.675 L 95.313 206.250 105.273 206.226 C 129.567 206.167,137.109 202.286,137.109 189.844 C 137.109 183.821,135.157 179.994,130.919 177.712 L 128.207 176.251 131.273 173.627 C 138.470 167.467,136.736 155.811,127.905 150.984 C 125.807 149.837,122.901 149.567,110.352 149.354 L 95.313 149.099 95.313 177.675 M149.219 177.734 L 149.219 206.250 168.750 206.250 L 188.281 206.250 188.281 202.734 L 188.281 199.219 173.047 199.219 L 157.813 199.219 157.813 189.844 L 157.813 180.469 171.094 180.469 L 184.375 180.469 184.375 176.953 L 184.375 173.438 171.094 173.438 L 157.813 173.438 157.813 164.844 L 157.813 156.250 173.047 156.250 L 188.281 156.250 188.281 152.734 L 188.281 149.219 168.750 149.219 L 149.219 149.219 149.219 177.734 M197.656 177.734 L 197.656 206.250 201.953 206.250 L 206.250 206.250 206.250 194.922 L 206.250 183.594 213.127 183.594 L 220.004 183.594 226.589 194.922 L 233.175 206.250 237.681 206.250 C 243.462 206.250,243.512 206.555,235.547 193.248 C 227.760 180.240,228.156 181.772,232.021 179.600 C 241.055 174.522,242.471 161.598,234.802 154.223 C 230.312 149.905,227.047 149.219,210.982 149.219 L 197.656 149.219 197.656 177.734 M310.156 177.734 L 310.156 206.250 314.441 206.250 L 318.725 206.250 318.933 185.217 L 319.141 164.185 333.984 185.197 L 348.828 206.209 353.320 206.229 L 357.813 206.250 357.813 177.734 L 357.813 149.219 353.125 149.219 L 348.438 149.219 348.438 170.017 L 348.438 190.816 333.789 170.046 L 319.141 149.276 314.648 149.248 L 310.156 149.219 310.156 177.734 M281.796 157.507 C 287.172 161.489,289.054 166.634,289.054 177.344 C 289.054 194.018,282.279 201.344,269.138 198.879 C 254.774 196.184,252.459 165.375,265.982 156.881 C 269.307 154.792,278.630 155.161,281.796 157.507 M122.672 157.430 C 125.495 158.890,126.563 160.799,126.563 164.389 C 126.563 170.521,120.739 173.421,108.398 173.433 L 103.906 173.438 103.906 164.844 L 103.906 156.250 112.148 156.250 C 117.971 156.250,121.060 156.596,122.672 157.430 M225.502 157.527 C 230.394 159.849,232.156 167.175,228.837 171.395 C 226.140 174.824,223.173 175.840,214.402 176.336 L 206.250 176.798 206.250 166.524 L 206.250 156.250 214.530 156.250 C 220.576 156.250,223.537 156.595,225.502 157.527 M123.797 181.678 C 126.762 183.085,128.125 185.614,128.125 189.707 C 128.125 196.088,124.256 198.379,112.426 199.003 L 103.906 199.453 103.906 189.961 L 103.906 180.469 112.577 180.469 C 118.786 180.469,121.972 180.812,123.797 181.678 M124.207 219.415 C 113.077 225.330,117.166 237.356,131.654 241.317 C 141.590 244.034,143.642 251.456,135.159 253.998 C 129.872 255.582,122.656 252.087,122.656 247.942 C 122.656 247.213,121.638 246.875,119.447 246.875 C 116.338 246.875,116.253 246.942,116.766 249.023 C 120.348 263.551,146.094 263.022,146.094 248.420 C 146.094 242.685,142.692 239.336,133.911 236.425 C 126.837 234.079,124.219 232.132,124.219 229.215 C 124.219 220.967,137.720 220.541,140.197 228.711 C 141.049 231.520,146.094 231.265,146.094 228.413 C 146.094 220.456,132.649 214.929,124.207 219.415 M228.929 219.206 C 217.342 224.232,215.532 248.578,226.144 256.672 C 233.126 261.998,246.474 259.171,249.288 251.772 C 251.301 246.477,251.200 246.094,247.803 246.094 C 244.944 246.094,244.608 246.308,244.143 248.428 C 242.456 256.110,230.873 256.381,227.020 248.829 C 224.710 244.301,224.784 232.978,227.155 228.428 C 231.033 220.984,242.461 221.260,244.126 228.838 C 244.626 231.118,250.788 233.010,250.777 230.880 C 250.725 221.417,238.676 214.978,228.929 219.206 M152.344 238.672 L 152.344 258.594 155.469 258.594 L 158.594 258.594 158.594 251.172 L 158.594 243.750 165.820 243.749 C 177.162 243.747,182.031 240.130,182.031 231.708 C 182.031 221.859,177.434 218.781,162.695 218.763 L 152.344 218.750 152.344 238.672 M194.782 220.070 C 194.497 220.848,191.160 229.561,187.366 239.432 C 179.336 260.328,179.695 258.594,183.398 258.593 L 186.328 258.591 189.165 250.975 C 190.726 246.787,193.324 239.571,194.940 234.941 C 196.555 230.311,197.990 226.636,198.128 226.774 C 198.381 227.027,208.390 254.683,209.149 257.227 C 209.560 258.604,215.625 259.334,215.625 258.005 C 215.625 257.682,212.316 248.805,208.271 238.279 L 200.917 219.141 198.108 218.898 C 195.969 218.713,195.176 218.992,194.782 220.070 M257.031 238.672 L 257.031 258.594 270.313 258.594 L 283.594 258.594 283.594 256.250 L 283.594 253.906 273.438 253.906 L 263.281 253.906 263.281 247.266 L 263.281 240.625 271.875 240.625 L 280.469 240.625 280.469 238.281 L 280.469 235.938 271.875 235.938 L 263.281 235.938 263.281 229.688 L 263.281 223.438 273.438 223.438 L 283.594 223.438 283.594 221.094 L 283.594 218.750 270.313 218.750 L 257.031 218.750 257.031 238.672 M171.538 224.581 C 180.977 228.525,176.571 238.470,165.172 238.947 L 158.594 239.223 158.594 231.330 L 158.594 223.438 163.697 223.438 C 166.504 223.438,170.032 223.952,171.538 224.581 " stroke="none" fill="#000000" fill-rule="evenodd"></path></g></svg>