<?xml version="1.0" encoding="UTF-8"?><svg width="338.41" height="73.575" version="1.1" viewBox="0 0 338.40898 73.574781" xmlns="http://www.w3.org/2000/svg"><path d="m117.93 21.04-44.5 44.49a31.51 31.51 0 0 0 44.5 -44.49" fill="#035c6e"/><path d="m126 8.0001-44.49 44.49a31.51 31.51 0 0 1 44.49 -44.49" fill="#7dd0e3"/><path d="m54.949 21.04-44.49 44.49a31.51 31.51 0 0 0 44.49 -44.49" fill="#035c6e"/><path d="m52.469 18.55-44.5 44.5a31.52 31.52 0 0 1 44.5 -44.5" fill="#7dd0e3"/><path d="m322.28 64.71h3.26v-14.13h0.05l8.68 14.13h4.14v-18.28h-3.26v13.68h-0.05l-8.5-13.68h-4.32zm-21.33-11.83a6.23 6.23 0 0 1 1.28 -2.12 5.81 5.81 0 0 1 2 -1.42 6.15 6.15 0 0 1 2.57 -0.52 6.24 6.24 0 0 1 2.59 0.52 5.8 5.8 0 0 1 2 1.42 6.57 6.57 0 0 1 1.28 2.12 7.45 7.45 0 0 1 0.45 2.63 7.8 7.8 0 0 1 -0.45 2.7 6.39 6.39 0 0 1 -1.3 2.13 5.81 5.81 0 0 1 -2 1.41 6.29 6.29 0 0 1 -2.56 0.5 6.16 6.16 0 0 1 -2.54 -0.5 5.87 5.87 0 0 1 -2 -1.41 6.21 6.21 0 0 1 -1.29 -2.13 7.8 7.8 0 0 1 -0.46 -2.7 7.45 7.45 0 0 1 0.46 -2.63m-3.31 6.55a9 9 0 0 0 5.14 5 10.43 10.43 0 0 0 3.92 0.71 10.55 10.55 0 0 0 3.94 -0.71 9.15 9.15 0 0 0 3.13 -2 8.92 8.92 0 0 0 2 -3 10.14 10.14 0 0 0 0.74 -3.92 10.29 10.29 0 0 0 -0.74 -4 8.61 8.61 0 0 0 -2 -3 9.28 9.28 0 0 0 -3.13 -1.89 11.18 11.18 0 0 0 -3.95 -0.67 11.05 11.05 0 0 0 -3.92 0.67 9.24 9.24 0 0 0 -3.1 1.91 8.72 8.72 0 0 0 -2 3 10.29 10.29 0 0 0 -0.74 4 10.14 10.14 0 0 0 0.71 3.9m-9.69 5.28h3.25v-18.28h-3.25zm-13.5 0h3.25v-15.45h5.61v-2.83h-14.45v2.84h5.61zm-18.46-7 2.87-7.44 2.81 7.44zm-6.41 7h3.64l1.66-4.19h7.93l1.71 4.19h3.72l-7.87-18.28h-2.81zm-15.9-2.84v-12.66h2.71a12.77 12.77 0 0 1 2.53 0.25 6.4 6.4 0 0 1 2.29 1 5.2 5.2 0 0 1 1.66 1.94 6.8 6.8 0 0 1 0.65 3.2 6.42 6.42 0 0 1 -0.65 3.08 5.29 5.29 0 0 1 -1.66 1.92 6.49 6.49 0 0 1 -2.29 1 10.93 10.93 0 0 1 -2.53 0.3zm-3.26 2.84h6.49a12.9 12.9 0 0 0 3.59 -0.53 9.77 9.77 0 0 0 3.25 -1.64 8.39 8.39 0 0 0 2.35 -2.84 8.78 8.78 0 0 0 0.91 -4.14 9.28 9.28 0 0 0 -0.91 -4.33 7.92 7.92 0 0 0 -2.33 -2.8 9.2 9.2 0 0 0 -3.25 -1.54 14.43 14.43 0 0 0 -3.59 -0.46h-6.49zm-22.74 0h3.26v-14.13h0.05l8.68 14.13h4.14v-18.28h-3.26v13.68h-0.05l-8.48-13.68h-4.32zm-6.47-18.28h-3.25v11.43a6.09 6.09 0 0 1 -0.21 1.59 4 4 0 0 1 -0.68 1.41 3.58 3.58 0 0 1 -1.27 1 4.4 4.4 0 0 1 -1.95 0.38 4.35 4.35 0 0 1 -2 -0.38 3.58 3.58 0 0 1 -1.27 -1 3.85 3.85 0 0 1 -0.68 -1.41 6.09 6.09 0 0 1 -0.21 -1.59v-11.43h-3.26v11.56a7.73 7.73 0 0 0 0.56 3 6.55 6.55 0 0 0 1.65 2.25 7 7 0 0 0 2.34 1.43 8.78 8.78 0 0 0 5.84 0 6.86 6.86 0 0 0 2.32 -1.43 6.55 6.55 0 0 0 1.5 -2.26 7.55 7.55 0 0 0 0.57 -3zm-35.87 6.45a6.4 6.4 0 0 1 1.3 -2.12 5.81 5.81 0 0 1 2 -1.42 6.15 6.15 0 0 1 2.57 -0.52 6.24 6.24 0 0 1 2.59 0.52 5.8 5.8 0 0 1 2 1.42 6.4 6.4 0 0 1 1.28 2.12 7.45 7.45 0 0 1 0.45 2.63 7.8 7.8 0 0 1 -0.45 2.7 6.37 6.37 0 0 1 -1.29 2.13 5.85 5.85 0 0 1 -2 1.41 6.29 6.29 0 0 1 -2.56 0.5 6.19 6.19 0 0 1 -2.54 -0.5 5.87 5.87 0 0 1 -2 -1.41 6.21 6.21 0 0 1 -1.29 -2.13 7.8 7.8 0 0 1 -0.45 -2.7 7.45 7.45 0 0 1 0.45 -2.63m-3.32 6.55a9 9 0 0 0 5.14 5 11.26 11.26 0 0 0 7.87 0 9.15 9.15 0 0 0 3.13 -2 8.92 8.92 0 0 0 2 -3 10.14 10.14 0 0 0 0.74 -3.92 10.29 10.29 0 0 0 -0.74 -4 8.61 8.61 0 0 0 -2 -3 9.28 9.28 0 0 0 -3.13 -1.91 11.89 11.89 0 0 0 -7.87 0 9.24 9.24 0 0 0 -3.1 1.91 8.72 8.72 0 0 0 -2 3 10.29 10.29 0 0 0 -0.73 4 10.14 10.14 0 0 0 0.73 3.92m-16.93 5.28h3.26v-7.7h8.06v-2.74h-8.06v-5h8.55v-2.84h-11.85z" fill="#035c6e"/><path d="m258.67 20.05a9.16 9.16 0 0 0 -3.23 -1.92 10.74 10.74 0 0 0 -3.62 -0.65 11.65 11.65 0 0 0 -2.93 0.37 8 8 0 0 0 -2.6 1.16 6.27 6.27 0 0 0 -1.86 2 6 6 0 0 0 -0.71 3 5.66 5.66 0 0 0 0.46 2.41 5.17 5.17 0 0 0 1.21 1.68 6.72 6.72 0 0 0 1.71 1.14 19.61 19.61 0 0 0 2 0.77c0.69 0.21 1.3 0.41 1.85 0.6a7.16 7.16 0 0 1 1.35 0.62 2.9 2.9 0 0 1 0.85 0.76 1.71 1.71 0 0 1 0.29 1 2.3 2.3 0 0 1 -0.23 1.06 1.84 1.84 0 0 1 -0.64 0.71 2.77 2.77 0 0 1 -0.93 0.39 4.92 4.92 0 0 1 -1.09 0.11 5.54 5.54 0 0 1 -2.5 -0.63 6 6 0 0 1 -2 -1.58l-3.38 3.38a9.16 9.16 0 0 0 3.48 2.23 12.39 12.39 0 0 0 4.35 0.78 11 11 0 0 0 3 -0.41 7.73 7.73 0 0 0 2.57 -1.27 6.21 6.21 0 0 0 1.79 -2.17 6.9 6.9 0 0 0 0.66 -3.12 5 5 0 0 0 -0.62 -2.62 6 6 0 0 0 -1.56 -1.76 8.16 8.16 0 0 0 -2.1 -1.13c-0.77-0.29-1.51-0.55-2.22-0.79-0.49-0.15-0.93-0.31-1.33-0.45a6.07 6.07 0 0 1 -1 -0.49 2.15 2.15 0 0 1 -0.65 -0.62 1.72 1.72 0 0 1 -0.22 -0.89 1.8 1.8 0 0 1 0.28 -1 2.42 2.42 0 0 1 0.7 -0.65 2.71 2.71 0 0 1 0.93 -0.34 5.86 5.86 0 0 1 1 -0.09 4.86 4.86 0 0 1 2 0.49 4.61 4.61 0 0 1 1.7 1.32z" fill="#035c6e"/><path d="m159.67 31a6.21 6.21 0 0 1 -1.24 2 5.66 5.66 0 0 1 -1.93 1.43 6.25 6.25 0 0 1 -4.83 0 5.48 5.48 0 0 1 -1.87 -1.34 6 6 0 0 1 -1.23 -2 7.39 7.39 0 0 1 -0.44 -2.62 7.56 7.56 0 0 1 0.42 -2.54 5.8 5.8 0 0 1 1.23 -2 5.63 5.63 0 0 1 1.89 -1.44 5.82 5.82 0 0 1 2.42 -0.49 5.91 5.91 0 0 1 2.44 0.49 5.44 5.44 0 0 1 1.89 1.33 6.12 6.12 0 0 1 1.23 2 7.33 7.33 0 0 1 0.42 2.61 7.62 7.62 0 0 1 -0.44 2.62m5-7.15a9.91 9.91 0 0 0 -2.39 -3.47 10.55 10.55 0 0 0 -3.57 -2.21 13.77 13.77 0 0 0 -9.08 0 10.7 10.7 0 0 0 -3.66 2.21 10 10 0 0 0 -2.37 3.45 11.33 11.33 0 0 0 -0.89 4.55 11.52 11.52 0 0 0 0.86 4.54 10.27 10.27 0 0 0 2.4 3.46 10.57 10.57 0 0 0 3.61 2.26 13.28 13.28 0 0 0 9.08 0 10.43 10.43 0 0 0 3.62 -2.26 10.15 10.15 0 0 0 2.43 -3.51 11.7 11.7 0 0 0 0.86 -4.54 11.5 11.5 0 0 0 -0.86 -4.53" fill="#035c6e"/><path d="m338.41 38.93v-4.31h-9.74v-4.35h8.69v-4.05h-8.69v-3.95h9.19v-4.26h-14.05v20.92zm-19.4-16.61v-4.31h-16.88v4.31h5.91v16.61h5.06v-16.61zm-25.9 8.45h-5.26l2.66-7.17zm8.63 8.16-8.69-20.92h-4.9l-8.78 20.92h5.5l1.54-4.11h8.09l1.63 4.11zm-22.78-16.61v-4.31h-16.87v4.31h5.91v16.61h5.05v-16.61z" fill="#035c6e"/><path d="m230.84 38.93v-20.92h-4.9l0.11 13.65h-0.08l-8.4-13.65h-5.76v20.92h4.91l-0.12-13.68h0.07l8.42 13.68zm-25.2 0v-4.31h-9.72v-4.35h8.68v-4.05h-8.68v-4h9.19v-4.21h-14.07v20.92z" fill="#035c6e"/><path d="m181.01 25.71a2.33 2.33 0 0 1 -0.81 0.78 3.69 3.69 0 0 1 -1.17 0.41 7.48 7.48 0 0 1 -1.36 0.12h-2.13v-4.93h2.22a9.54 9.54 0 0 1 1.32 0.09 3.33 3.33 0 0 1 1.13 0.35 2 2 0 0 1 0.8 0.74 2.21 2.21 0 0 1 0.3 1.21 2.34 2.34 0 0 1 -0.3 1.23m4.71-4.28a5.36 5.36 0 0 0 -1.74 -2 7.72 7.72 0 0 0 -2.6 -1.09 14.18 14.18 0 0 0 -3.21 -0.34h-7.68v20.93h5.05v-7.89h2.52a14 14 0 0 0 3.13 -0.35 8.07 8.07 0 0 0 2.66 -1.13 5.48 5.48 0 0 0 1.83 -2 7.43 7.43 0 0 0 0 -6.12" fill="#035c6e"/></svg>