<svg width="197" height="36" xmlns="http://www.w3.org/2000/svg">
    <defs>
        <linearGradient x1="0%" y1="49.167%" x2="100%" y2="50.833%" id="a">
            <stop stop-color="#594666" offset="0%"/>
            <stop stop-color="#341D44" offset="100%"/>
        </linearGradient>
    </defs>
    <path d="M17.3 2.021c1.298 1.356 1.948 3.557 1.922 6.678 0 3.096-.624 5.374-1.897 6.832-1.274 1.458-3.272 2.175-5.97 2.175h-4.27V24H.491V0h10.315c3.047 0 5.195.665 6.494 2.021zm-4.97 9.135v-3.94c0-.64-.125-1.05-.375-1.28-.25-.205-.7-.333-1.349-.333H7.11v7.164h3.497c.649 0 1.099-.102 1.348-.332.25-.256.375-.665.375-1.28zM25.452 0h10.232l6.229 24h-6.604L30.73 6.455h-.326L25.827 24h-6.604l6.23-24zm159.162 11.145c1.251 1.124 1.877 2.883 1.877 5.254 0 2.664-.746 4.595-2.19 5.792-1.47 1.198-3.83 1.809-7.104 1.809-3.203 0-6.165-.415-8.91-1.222l.915-5.328a24.544 24.544 0 0 0 7.272 1.1c1.252 0 2.312-.073 3.203-.22v-3.153l-3.3-.293c-1.95-.171-3.49-.513-4.598-1.002-1.108-.489-1.903-1.222-2.408-2.15-.506-.93-.747-2.2-.747-3.789 0-1.98.265-3.544.819-4.692.53-1.15 1.42-1.98 2.649-2.493C173.32.244 174.982 0 177.1 0c2.818 0 5.538.318 8.212.978l-.795 5.18a51.023 51.023 0 0 0-3.203-.537 21.435 21.435 0 0 0-2.841-.17c-1.228 0-2.24.072-3.034.195v3.152l2.961.245c2.89.269 4.96.953 6.213 2.102zM58.772 12.64h.025V0h6.597v24h-6.497l-6.072-9.979c-.35-.614-.575-1.1-.725-1.51-.125-.409-.2-.792-.2-1.15h-.225V24H45.08V0h6.52l6.021 9.979c.282.473.525.97.725 1.484.125.41.2.793.2 1.177h.225zm50.362-1.471c1.252 1.124 1.878 2.884 1.902 5.23 0 2.664-.722 4.595-2.191 5.792C107.376 23.39 105.016 24 101.74 24c-3.202 0-6.164-.415-8.909-1.222l.915-5.328a24.251 24.251 0 0 0 7.248 1.1c1.276 0 2.336-.073 3.227-.22v-3.153l-3.3-.293c-1.95-.171-3.49-.513-4.599-1.002-1.107-.489-1.926-1.222-2.407-2.15-.506-.93-.747-2.2-.747-3.789 0-1.98.29-3.544.819-4.692.53-1.15 1.42-1.98 2.649-2.493C97.864.244 99.527 0 101.645 0c2.793 0 5.514.318 8.187.978l-.794 5.205a51.06 51.06 0 0 0-3.203-.537 21.343 21.343 0 0 0-2.842-.171c-1.227 0-2.24.073-3.034.195v3.153l2.962.244c2.89.269 4.96.954 6.213 2.102zm18.05 7.112c.898-.136 1.785-.34 2.653-.61l.458 5.376c-.944.35-1.922.596-2.919.733-1.061.147-2.268.22-3.668.22-2.484 0-4.39-.367-5.766-1.1-1.375-.733-2.317-1.93-2.895-3.64-.555-1.688-.845-4.107-.845-7.236 0-3.177.314-5.596.917-7.307.603-1.71 1.64-2.933 3.088-3.641C119.655.366 121.707 0 124.36 0c.99 0 2.075.098 3.233.269 1.159.17 2.027.39 2.582.635l-.796 5.132c-.724-.22-1.544-.39-2.485-.512-.941-.123-1.714-.196-2.341-.196-1.35 0-2.292.195-2.799.562-.506.367-.748 1.05-.748 2.053v10.216c1.206.244 2.268.367 3.21.367.988 0 1.978-.074 2.967-.245zM157.997 0h6.596v24h-6.596V0zM85.146 0l6.367 24h-6.75l-4.68-17.545h-.358L75.046 24h-6.75l6.367-24h10.483zm63.72 0l6.23 24h-6.604l-4.579-17.545h-.325L139.011 24h-6.604l6.227-24h10.232z" transform="translate(4.509 6)" fill="url(#a)" fill-rule="evenodd"/>
</svg>
