<?xml version="1.0" encoding="UTF-8"?>
<svg width="800px" height="160px" viewBox="0 0 800 160" version="1.1" xmlns="http://www.w3.org/2000/svg" xmlns:xlink="http://www.w3.org/1999/xlink">
    <!-- Generator: Sketch 49.3 (51167) - http://www.bohemiancoding.com/sketch -->
    <title>Dark</title>
    <desc>Created with Sketch.</desc>
    <defs>
        <polygon id="path-1" points="0.321905678 0.275424046 91.2854215 0.275424046 91.2854215 120.758046 0.321905678 120.758046"></polygon>
        <polygon id="path-3" points="0.000265185374 0.245106383 217.001549 0.245106383 217.001549 160 0.000265185374 160"></polygon>
    </defs>
    <g id="Dark" stroke="none" stroke-width="1" fill="none" fill-rule="evenodd">
        <g id="Logo">
            <path d="M275.066842,101.866245 L298.520492,101.866245 C310.08215,101.866245 318.670431,93.9910625 318.670431,83.3267532 C318.670431,72.8265103 310.08215,64.951328 299.015612,64.951328 L275.066842,64.951328 L275.066842,101.866245 Z M275.066842,120.405359 L275.066842,156 L252.439024,156 L252.439024,46.4122137 L304.466487,46.4122137 C325.111926,46.4122137 341.463415,61.6703793 341.463415,83.3267532 C341.463415,105.147193 325.442259,120.405359 303.970608,120.405359 L275.066842,120.405359 Z" id="Fill-1" fill="#2C3E50"></path>
            <path d="M412.210747,116.169033 C412.210747,103.600873 402.12157,93.5132706 389.551448,93.5132706 C376.981707,93.5132706 366.727134,103.600873 366.727134,116.169033 C366.727134,128.737573 376.981707,138.990166 389.551448,138.990166 C402.12157,138.990166 412.210747,128.737573 412.210747,116.169033 M385.581936,73.5038168 C397.325456,73.5038168 409.564405,79.4571558 413.86471,89.0486465 L414.360899,89.0486465 L415.187881,75.6536337 L435.365854,75.6536337 L435.365854,156 L415.187881,156 L414.360899,143.45517 L413.86471,143.45517 C409.398629,153.377402 396.663491,159 385.581936,159 C365.07279,159 343.902439,141.801465 343.902439,116.169033 C343.902439,90.5369813 365.238567,73.5038168 385.581936,73.5038168 Z" id="Fill-3" fill="#2C3E50"></path>
            <path d="M442.682927,75.6460779 L462.812052,75.6460779 L464.131994,88.9940123 L464.46198,88.9940123 C469.411765,79.4362321 479.971306,73.5038168 490.860832,73.5038168 C512.804499,73.5038168 526.829268,90.3123268 526.829268,111.899348 L526.829268,156 L504.059879,156 L504.059879,114.206777 C504.059879,103.001104 495.810238,93.7729023 484.756098,93.7729023 C474.196557,93.7729023 465.451937,103.165893 465.451937,114.701145 L465.451937,156 L442.682927,156 L442.682927,75.6460779 Z" id="Fill-5" fill="#2C3E50"></path>
            <polygon id="Fill-7" fill="#2C3E50" points="534.146341 38.0839695 557.050183 38.0839695 557.050183 107.0289 557.382123 107.0289 588.086549 75.7649175 616.632984 75.7649175 579.621704 112.788055 617.914429 156 589.206787 156 557.382123 118.547209 557.050183 118.547209 557.050183 156 534.146341 156"></polygon>
            <path d="M680.792588,117.169033 C680.792588,104.766624 670.354166,94.5132706 657.92702,94.5132706 C645.499874,94.5132706 635.061071,104.766624 635.061071,117.169033 C635.061071,129.737573 645.499874,139.990166 657.92702,139.990166 C670.354166,139.990166 680.792588,129.737573 680.792588,117.169033 M612.195122,117.169033 C612.195122,93.686418 632.741337,74.5038168 657.92702,74.5038168 C683.112322,74.5038168 703.658537,93.686418 703.658537,117.169033 C703.658537,140.652028 683.112322,160 657.92702,160 C632.741337,160 612.195122,140.652028 612.195122,117.169033" id="Fill-9" fill="#2C3E50"></path>
            <g id="Group-13" transform="translate(708.536585, 37.862595)">
                <mask id="mask-2" fill="white">
                    <use xlink:href="#path-1"></use>
                </mask>
                <g id="Clip-12"></g>
                <path d="M68.5035169,78.1861569 C68.5035169,65.6940195 58.4330533,55.6674355 45.8862463,55.6674355 C33.3398188,55.6674355 23.1042658,65.6940195 23.1042658,78.1861569 C23.1042658,90.6786721 33.3398188,100.869248 45.8862463,100.869248 C58.4330533,100.869248 68.5035169,90.6786721 68.5035169,78.1861569 Z M91.2854974,0.275424046 L91.2854974,118.137405 L71.3027701,118.137405 L70.3195021,105.307245 L69.9893229,105.307245 C65.5319047,115.169458 52.6549185,120.758046 41.5942971,120.758046 C20.6275428,120.758046 0.321905678,103.663542 0.321905678,78.1861569 C0.321905678,52.7091492 20.6275428,35.7790156 41.0986489,35.7790156 C52.6549185,35.7790156 64.0460986,41.8607141 68.1733377,51.2298172 L68.5035169,51.2298172 L68.5035169,0.275424046 L91.2854974,0.275424046 Z" id="Fill-11" fill="#2C3E50" mask="url(#mask-2)"></path>
            </g>
            <g id="Group-16">
                <mask id="mask-4" fill="white">
                    <use xlink:href="#path-3"></use>
                </mask>
                <g id="Clip-15"></g>
                <path d="M182.173146,72.3045674 C179.882324,72.7406903 176.517879,72.4520851 172.983716,68.9373806 C169.314687,65.3250875 168.638464,63.1758676 168.732794,61.9972388 C168.784695,61.348539 169.590479,61.0701466 170.049629,61.5319905 C175.829533,67.3460804 179.87058,69.6632435 182.307255,70.5770969 C183.159257,70.8959622 183.066821,72.1343546 182.173146,72.3045674 M208.714793,77.9684917 C202.438992,73.3954421 181.685963,52.03374 159.689215,34.322156 C153.250514,28.1619669 145.345717,21.3685863 135.155401,15.1705721 C77.8814213,-19.6647943 18.2991925,17.3969551 18.2991925,17.3969551 C87.7360886,-8.66299764 129.308821,27.0866005 129.308821,27.0866005 C75.6527276,7.74437825 14.4218035,29.2055603 0.000265185374,46.0547329 C6.59466777,42.4590827 32.1161082,28.8768605 77.4082548,30.8399811 C107.795468,32.6922742 125.986806,45.028539 136.685142,57.3368132 C136.950706,57.7177116 137.28143,58.1092009 137.685269,58.5131726 C137.686785,58.5150638 137.688679,58.5169551 137.690194,58.5188463 C137.66216,58.5286809 123.69712,63.5155366 106.920356,56.5572388 C106.920356,56.5572388 117.255009,72.0348747 130.948045,72.8091537 C128.986052,80.5042837 127.100584,89.4154894 125.537885,101.514969 C121.14149,137.54069 172.870822,156.693787 181.428733,159.607073 L182.620173,160.000076 C182.620173,160.000076 163.760189,141.684804 165.568375,98.8630544 C153.16717,92.9298156 152.650438,83.1274515 151.875339,80.0318487 C151.875339,80.0318487 158.334497,90.3505248 164.018177,90.8660804 C169.702236,91.6399811 175.263173,89.971896 177.453226,89.5766241 C180.489977,89.028539 188.304232,90.3505248 188.820965,96.5413522 C189.079331,104.538326 186.754034,117.178326 198.380519,122.853598 C198.380519,122.853598 195.279744,106.602061 203.547466,106.344095 C207.939694,106.85965 211.298077,106.602061 211.815189,103.764426 C212.590288,100.410856 214.140107,96.2837636 215.94905,92.1559149 C217.757235,88.0284444 218.273968,84.9332199 208.714793,77.9684917" id="Fill-14" fill="#2C3E50" mask="url(#mask-4)"></path>
            </g>
        </g>
    </g>
</svg>