<?xml version="1.0" encoding="UTF-8"?>
<svg width="275px" height="424px" viewBox="0 0 275 424" version="1.1" xmlns="http://www.w3.org/2000/svg" xmlns:xlink="http://www.w3.org/1999/xlink">
    <!-- Generator: Sketch 50.2 (55047) - http://www.bohemiancoding.com/sketch -->
    <title>Logo--gradient--shadow</title>
    <desc>Created with Sketch.</desc>
    <defs>
        <linearGradient x1="93.6192181%" y1="19.8016827%" x2="3.21017795%" y2="50%" id="linearGradient-1">
            <stop stop-color="#5EB3C0" offset="0%"></stop>
            <stop stop-color="#2F7EC4" offset="100%"></stop>
        </linearGradient>
        <path d="M326,231.945968 L351,231.945968 C362.045695,231.945968 371,240.900273 371,251.945968 L371,588.945968 C371,599.991663 362.045695,608.945968 351,608.945968 L326,608.945968 C314.954305,608.945968 306,599.991663 306,588.945968 L306,251.945968 C306,240.900273 314.954305,231.945968 326,231.945968 Z M425.789423,233.983664 L522.789423,292.073947 C529.123237,295.867071 533,302.707533 533,310.090282 L533,385.015414 C533,392.407317 529.113693,399.254857 522.767388,403.044928 L425.767388,460.974199 C415.809962,466.920863 402.91715,463.669498 396.970486,453.712073 C395.026473,450.456908 394,446.73616 394,442.944685 L394,252 C394,240.40202 403.40202,231 415,231 C418.800191,231 422.529161,232.031195 425.789423,233.983664 Z" id="path-2"></path>
        <filter x="-18.3%" y="-8.1%" width="136.6%" height="122.0%" filterUnits="objectBoundingBox" id="filter-3">
            <feOffset dx="0" dy="11" in="SourceAlpha" result="shadowOffsetOuter1"></feOffset>
            <feGaussianBlur stdDeviation="12" in="shadowOffsetOuter1" result="shadowBlurOuter1"></feGaussianBlur>
            <feColorMatrix values="0 0 0 0 0   0 0 0 0 0   0 0 0 0 0  0 0 0 0.1 0" type="matrix" in="shadowBlurOuter1"></feColorMatrix>
        </filter>
    </defs>
    <g id="Logo" stroke="none" stroke-width="1" fill="none" fill-rule="evenodd">
        <g id="Logo--gradient--shadow" transform="translate(-282.000000, -219.000000)">
            <g>
                <use fill="black" fill-opacity="1" filter="url(#filter-3)" xlink:href="#path-2"></use>
                <use fill="url(#linearGradient-1)" fill-rule="evenodd" xlink:href="#path-2"></use>
            </g>
        </g>
    </g>
</svg>