<svg height="76.6" viewBox="0 0 136.5 76.599998" width="136.5" xmlns="http://www.w3.org/2000/svg"><g fill="#ec1b23" transform="translate(-20.6 -7)"><path d="m36.4 57.2v5.2c0 4.2 1.4 7.9 6.8 7.9 4 0 5.7-3.6 5.7-7.3 0-6.1-5.1-8.5-9.5-11.2-5.3-3-9.7-5.8-12.9-9.5-3.1-3.7-5-8.2-5-14.6 0-13.7 8.3-20.7 21.5-20.7 14.9 0 22.5 9.9 21.7 23.7h-15.8c-.2-4.3 0-10.1-5.6-10.5-3.5-.3-5.5 1.7-5.9 4.9-.5 4.4 1.8 6.6 5.2 9 6.4 4.1 12 6.6 16 10.3s6.3 8.6 6.3 17.4c0 14-7.8 21.8-22 21.8-15.7 0-22.3-8.8-22.3-18.4v-7.8h15.8z"/><path d="m72.8 81.6v-73h20.3c6.6 0 16.2.6 20.9 6 4 4.5 4.8 9.9 4.8 15.9 0 7.9-1.8 16.7-9.6 20.3-5.9 2.9-12.8 2-19.3 2.3v28.4h-17.1zm17.1-41.5c3.2-.1 6.9.3 9.6-1.8 1.8-1.9 2.1-4.9 2.1-7.4 0-2.8-.3-7.1-3.2-8.5-1.7-.6-4-.6-6.7-.6h-1.8z"/><path d="m152.1 54.5c-2.2-2.2-4.8-3.3-7.7-3.3-2.5 0-4.2.8-5.3 1.4-.2.1-.2.3-.2.5l.7 2c.1.2.2.3.4.3h4.3c.2 0 .3.1.4.3s0 .3-.1.4l-3.4 2.5c-.1.1-.2.3-.1.4l1.3 4.1c.1.2 0 .3-.1.4s-.3.1-.4 0l-3.9-2.5c-.1-.1-.3-.1-.4 0l-3.5 2.5c-.1.1-.3.1-.4 0s-.2-.3-.1-.4l1.3-4.1c.1-.2 0-.3-.1-.4l-3.4-2.5c-.1-.1-.2-.3-.1-.4.1-.2.2-.3.4-.3h4.3c.2 0 .3-.1.4-.3l.7-2c.1-.2 0-.4-.2-.5-1.1-.6-2.8-1.4-5.3-1.4-2.9 0-5.6 1.1-7.7 3.3-2.9 2.9-4.6 7.3-4.6 11.9 0 9.4 8.5 17 18.9 17s18.9-7.6 18.9-17c-.4-4.6-2.1-9.1-5-11.9z"/></g></svg>