<svg version="1.1" xmlns="http://www.w3.org/2000/svg" xmlns:xlink="http://www.w3.org/1999/xlink" x="0px" y="0px"
	 viewBox="0 0 1563.3 700.7" style="enable-background:new 0 0 1563.3 590.7;" xml:space="preserve">
<style type="text/css">
	.st0{fill:#0DB14B;}
</style>
<g>
	<g>
		<g>
			<g>
				<path class="st0" d="M1380.1,270.4l-114.7-114.7c-8.8-8.8-8.8-23.1,0-31.9L1380.1,9.1c6.3-6.3,17-1.8,17,7v247.2
					C1397.1,272.2,1386.4,276.6,1380.1,270.4z"/>
			</g>
			<g>
				<g>
					<path class="st0" d="M1431.5,6c-5.7-0.4-10.6,4.2-10.6,9.9l0,53.6c0,4.9,3.5,9.2,8.3,9.8c29.8,4,52.8,29.5,52.8,60.3
						s-23,56.3-52.8,60.3c-4.8,0.7-8.3,5-8.3,9.8l0,53.6c0,5.8,4.9,10.4,10.6,9.9c69.3-5.4,123.9-63.2,123.9-133.6
						C1555.3,69.2,1500.8,11.4,1431.5,6z"/>
				</g>
			</g>
		</g>
	</g>
	<g>
		<g>
			<path class="st0" d="M19.1,549C11.7,545,6,536.5,6,525.2c0-15.3,11.9-27.8,27.8-27.8c5.7,0,10.8,1.7,14.8,4
				c29,19.3,59,28.9,86.3,28.9c29.5,0,46.6-12.5,46.6-32.3v-1.1c0-23.2-31.8-31.2-67-41.9c-44.3-12.5-93.7-30.6-93.7-87.8V366
				c0-56.6,47.1-91.2,106.7-91.2c31.8,0,65.3,9.1,94.2,24.4c9.6,5.1,16.5,14.2,16.5,26.1c0,15.9-12.5,27.8-28.4,27.8
				c-5.7,0-9.1-1.1-13.6-3.4c-24.4-12.5-49.4-20.4-70.4-20.4c-26.7,0-42,12.5-42,29.5v1.1c0,22.1,32.4,31.2,67.6,42.5
				c43.7,13.6,93.1,33.4,93.1,87.2v1.1c0,62.9-48.8,94-111.3,94C95.1,584.6,53.7,572.8,19.1,549"/>
		</g>
		<g>
			<path class="st0" d="M432.4,431.1V430c0-85.5,68.1-156.4,160.1-156.4c92,0,159.5,69.7,159.5,155.2v1.1
				c0,85-68.1,155.8-160.7,155.8C499.9,585.8,432.4,516.1,432.4,431.1 M683.3,431.1V430c0-52.7-38-96.3-92-96.3
				c-55.1,0-90.3,43.1-90.3,95.2v1.1c0,52.1,38,95.7,91.4,95.7C648.1,525.7,683.3,482.7,683.3,431.1"/>
		</g>
		<g>
			<path class="st0" d="M847.9,547.5l0-144.1c0-33.7,24.8-63.3,58.4-67c39.7-4.4,73.3,26.5,73.3,65.3v145.9
				c0,18.9,15.4,34.3,34.3,34.3h0c19,0,34.3-15.3,34.3-34.3V408.5c0-74.1-60.2-134.3-134.5-134.3h0c-74.3,0-134.5,60.1-134.5,134.3
				v139.1c0,18.9,15.4,34.3,34.3,34.3h0C832.5,581.8,847.9,566.5,847.9,547.5z"/>
		</g>
		<g>
			<path class="st0" d="M402.3,342.2c17.2,0,31.2-13.9,31.2-31.2v0c0-17.2-14-31.2-31.2-31.2h-52.8v-50.7
				c0-18.9-15.4-34.3-34.3-34.3c-19,0-34.3,15.3-34.3,34.3V311v0v166.2v0.8v3.5h0.2c1.7,55.1,44.2,100,102.5,103.9
				c1.5,0.2,3.1,0.4,4.7,0.4h13.4c17.6,0,31.9-14.3,31.9-31.9v0c0-17.6-14.3-31.9-31.9-31.9h-9.3c-24.5,0-42-19.6-42.8-43.3V342.2
				H402.3z"/>
		</g>
		<g>
			<path class="st0" d="M1190.2,424.4c0,16.3,13.2,29.5,29.5,29.5h76.7h18.4h17c16.3,0,29.5-13.2,29.5-29.5
				c0-85.5-57.2-150.8-136.8-150.8c-90.4,0-152.4,70.8-152.4,156.4v1.1c0,85,66.4,154.7,156.3,154.7c38.7,0,73-12.8,99.7-34
				c15.2-12.1,15.9-34.9,1.4-47.7c-11.9-10.5-29.6-10.2-41.5,0.3c-15,13.3-34.8,21.3-58.5,21.3c-52.5,0-89.9-43.6-89.9-95.7v-1.1
				c0-52.1,29.6-95.2,83.7-95.2c35.8,0,60.9,25.6,70.7,61.3h-74.5C1203.4,395,1190.2,408.2,1190.2,424.4z"/>
		</g>
	</g>
</g>
</svg>
