<svg enable-background="new 0 0 1563.3 590.7" viewBox="0 0 1563.3 700.7" xmlns="http://www.w3.org/2000/svg"><g fill="#0db14b"><path d="m1380.1 270.4-114.7-114.7c-8.8-8.8-8.8-23.1 0-31.9l114.7-114.7c6.3-6.3 17-1.8 17 7v247.2c0 8.9-10.7 13.3-17 7.1z"/><path d="m1431.5 6c-5.7-.4-10.6 4.2-10.6 9.9v53.6c0 4.9 3.5 9.2 8.3 9.8 29.8 4 52.8 29.5 52.8 60.3s-23 56.3-52.8 60.3c-4.8.7-8.3 5-8.3 9.8v53.6c0 5.8 4.9 10.4 10.6 9.9 69.3-5.4 123.9-63.2 123.9-133.6-.1-70.4-54.6-128.2-123.9-133.6z"/><path d="m19.1 549c-7.4-4-13.1-12.5-13.1-23.8 0-15.3 11.9-27.8 27.8-27.8 5.7 0 10.8 1.7 14.8 4 29 19.3 59 28.9 86.3 28.9 29.5 0 46.6-12.5 46.6-32.3v-1.1c0-23.2-31.8-31.2-67-41.9-44.3-12.5-93.7-30.6-93.7-87.8v-1.2c0-56.6 47.1-91.2 106.7-91.2 31.8 0 65.3 9.1 94.2 24.4 9.6 5.1 16.5 14.2 16.5 26.1 0 15.9-12.5 27.8-28.4 27.8-5.7 0-9.1-1.1-13.6-3.4-24.4-12.5-49.4-20.4-70.4-20.4-26.7 0-42 12.5-42 29.5v1.1c0 22.1 32.4 31.2 67.6 42.5 43.7 13.6 93.1 33.4 93.1 87.2v1.1c0 62.9-48.8 94-111.3 94-38.1-.1-79.5-11.9-114.1-35.7"/><path d="m432.4 431.1v-1.1c0-85.5 68.1-156.4 160.1-156.4s159.5 69.7 159.5 155.2v1.1c0 85-68.1 155.8-160.7 155.8-91.4.1-158.9-69.6-158.9-154.6m250.9 0v-1.1c0-52.7-38-96.3-92-96.3-55.1 0-90.3 43.1-90.3 95.2v1.1c0 52.1 38 95.7 91.4 95.7 55.7 0 90.9-43 90.9-94.6"/><path d="m847.9 547.5v-144.1c0-33.7 24.8-63.3 58.4-67 39.7-4.4 73.3 26.5 73.3 65.3v145.9c0 18.9 15.4 34.3 34.3 34.3 19 0 34.3-15.3 34.3-34.3v-139.1c0-74.1-60.2-134.3-134.5-134.3-74.3 0-134.5 60.1-134.5 134.3v139.1c0 18.9 15.4 34.3 34.3 34.3 19-.1 34.4-15.4 34.4-34.4z"/><path d="m402.3 342.2c17.2 0 31.2-13.9 31.2-31.2 0-17.2-14-31.2-31.2-31.2h-52.8v-50.7c0-18.9-15.4-34.3-34.3-34.3-19 0-34.3 15.3-34.3 34.3v81.9 166.2.8 3.5h.2c1.7 55.1 44.2 100 102.5 103.9 1.5.2 3.1.4 4.7.4h13.4c17.6 0 31.9-14.3 31.9-31.9 0-17.6-14.3-31.9-31.9-31.9h-9.3c-24.5 0-42-19.6-42.8-43.3v-136.5z"/><path d="m1190.2 424.4c0 16.3 13.2 29.5 29.5 29.5h76.7 18.4 17c16.3 0 29.5-13.2 29.5-29.5 0-85.5-57.2-150.8-136.8-150.8-90.4 0-152.4 70.8-152.4 156.4v1.1c0 85 66.4 154.7 156.3 154.7 38.7 0 73-12.8 99.7-34 15.2-12.1 15.9-34.9 1.4-47.7-11.9-10.5-29.6-10.2-41.5.3-15 13.3-34.8 21.3-58.5 21.3-52.5 0-89.9-43.6-89.9-95.7v-1.1c0-52.1 29.6-95.2 83.7-95.2 35.8 0 60.9 25.6 70.7 61.3h-74.5c-16.1 0-29.3 13.2-29.3 29.4z"/></g></svg>