<?xml version="1.0" encoding="UTF-8" standalone="no"?>
<svg
   xmlns:dc="http://purl.org/dc/elements/1.1/"
   xmlns:cc="http://creativecommons.org/ns#"
   xmlns:rdf="http://www.w3.org/1999/02/22-rdf-syntax-ns#"
   xmlns:svg="http://www.w3.org/2000/svg"
   xmlns="http://www.w3.org/2000/svg"
   xmlns:xlink="http://www.w3.org/1999/xlink"
   xmlns:sodipodi="http://sodipodi.sourceforge.net/DTD/sodipodi-0.dtd"
   xmlns:inkscape="http://www.inkscape.org/namespaces/inkscape"
   width="77.812546"
   height="65.824883"
   version="1.1"
   viewBox="0 0 20.587969 17.416218"
   id="svg3851"
   sodipodi:docname="strix-logo-web.svg"
   inkscape:version="0.92.2 (5c3e80d, 2017-08-06)">
  <metadata
     id="metadata3855">
    <rdf:RDF>
      <cc:Work
         rdf:about="">
        <dc:format>image/svg+xml</dc:format>
        <dc:type
           rdf:resource="http://purl.org/dc/dcmitype/StillImage" />
        <dc:title></dc:title>
      </cc:Work>
    </rdf:RDF>
  </metadata>
  <sodipodi:namedview
     pagecolor="#ffffff"
     bordercolor="#666666"
     borderopacity="1"
     objecttolerance="10"
     gridtolerance="10"
     guidetolerance="10"
     inkscape:pageopacity="0"
     inkscape:pageshadow="2"
     inkscape:window-width="2560"
     inkscape:window-height="1373"
     id="namedview3853"
     showgrid="false"
     inkscape:zoom="12.474013"
     inkscape:cx="9.5353719"
     inkscape:cy="29.397461"
     inkscape:window-x="-9"
     inkscape:window-y="-9"
     inkscape:window-maximized="1"
     inkscape:current-layer="g3849"
     fit-margin-top="0"
     fit-margin-left="0"
     fit-margin-right="0"
     fit-margin-bottom="0" />
  <defs
     id="defs3783">
    <linearGradient
       id="SVGID_1_"
       x1="675.27002"
       x2="707.73999"
       y1="88.300003"
       y2="88.300003"
       gradientUnits="userSpaceOnUse"
       gradientTransform="matrix(0.26458,0,0,0.26458,-179.34646,261.28646)">
      <stop
         stop-color="#565756"
         offset="0"
         id="stop3778"
         style="stop-color:#ff4081;stop-opacity:0.94117647" />
      <stop
         stop-color="#131313"
         offset="1"
         id="stop3780" />
    </linearGradient>
    <linearGradient
       id="2"
       gradientUnits="userSpaceOnUse"
       gradientTransform="matrix(0.71308228,0,0,0.71691205,-280.60594,-94.816757)"
       x1="396.64001"
       y1="546.10999"
       x2="394.41"
       y2="538.60999">
      <stop
         stop-color="#b7d7e1"
         id="stop5184" />
      <stop
         offset="1"
         stop-color="#fff"
         id="stop5186" />
    </linearGradient>
    <linearGradient
       id="1"
       gradientUnits="userSpaceOnUse"
       gradientTransform="matrix(0.45111156,0,0,0.45353436,-179.31551,50.009071)"
       x1="393.82999"
       y1="549.46002"
       x2="390.45001"
       y2="542.88">
      <stop
         stop-color="#c3e6ee"
         id="stop5179" />
      <stop
         offset="1"
         stop-color="#fff"
         id="stop5181" />
    </linearGradient>
    <linearGradient
       id="0"
       gradientUnits="userSpaceOnUse"
       gradientTransform="matrix(-0.59937345,0,0,0.60259335,245.86106,-30.678204)"
       x1="393.82999"
       y1="549.46002"
       x2="395.79001"
       y2="542.83002">
      <stop
         stop-color="#c8e1e8"
         id="stop5174" />
      <stop
         offset="1"
         stop-color="#fff"
         id="stop5176" />
    </linearGradient>
    <linearGradient
       inkscape:collect="always"
       xlink:href="#SVGID_1_"
       id="linearGradient5276"
       gradientUnits="userSpaceOnUse"
       gradientTransform="matrix(0.26458,0,0,0.26458,-179.34646,261.28646)"
       x1="675.27002"
       y1="88.300003"
       x2="707.73999"
       y2="88.300003" />
  </defs>
  <g
     transform="translate(5.7515037,-283.32597)"
     id="g3849">
    <path
       id="path5191"
       d="m -1.1904367,292.97168 c -0.299931,-0.23541 -0.6770741,-0.37577 -1.0861321,-0.37577 -0.96362,0 -1.7477619,0.77728 -1.7724709,1.7457 -0.994505,0.37715 -1.702464,1.34763 -1.702464,2.48489 0,1.34386 0.987985,2.45401 2.2693799,2.62937 v 0.024 H 5.595054 v -0.004 c 1.265609,-0.0741 2.2693798,-1.13555 2.2693798,-2.4341 0,-1.25223 -0.9334208,-2.2838 -2.1352008,-2.42278 0.0048,-0.0762 0.0076,-0.1534 0.0076,-0.23095 0,-1.94063 -1.6194168,-3.51372 -3.6166637,-3.51372 -1.47837401,0 -2.74878801,0.86205 -3.310556,2.09677"
       inkscape:connector-curvature="0"
       style="fill:url(#2);stroke-width:0.34316954" />
    <g
       id="g5271"
       transform="translate(0.795721,0.02191)">
      <polygon
         transform="matrix(0.26458,0,0,0.26458,-179.32,261.26)"
         class="st9"
         points="671.3,126.2 671.8,120.3 674.2,125.4 673.7,131.3 "
         id="polygon3805"
         style="fill:#567b03" />
      <polygon
         transform="matrix(0.26458,0,0,0.26458,-179.32,261.26)"
         class="st10"
         points="671.3,126.2 671.8,120.3 674.2,125.4 673.7,131.3 "
         id="polygon3807"
         style="fill:#231815" />
      <g
         transform="matrix(0.26458,0,0,0.26458,-179.32,261.26)"
         class="st11"
         id="g3813"
         style="enable-background:new">
        <path
           class="st9"
           d="m 670.8,127.3 -2.4,-5.1 c 0.3,-1.9 6.9,-37.6 6.8,-37.9 l 2.4,5.1 c 0.2,0.4 -6.4,36.1 -6.8,37.9"
           id="path3809"
           inkscape:connector-curvature="0"
           style="fill:#567b03" />
        <path
           class="st10"
           d="m 670.8,127.3 -2.4,-5.1 c 0.3,-1.9 6.9,-37.6 6.8,-37.9 l 2.4,5.1 c 0.2,0.4 -6.4,36.1 -6.8,37.9"
           id="path3811"
           inkscape:connector-curvature="0"
           style="fill:#580024;fill-opacity:0.94117647" />
      </g>
      <path
         sodipodi:nodetypes="ccccccccccc"
         class="st12"
         d="m 9.695952,294.54416 -0.899572,-0.44978 0.13229,1.56102 c -1.45519,0.13229 -5.000562,0.52916 -5.000562,1.95789 0,-1.42873 -3.545372,-1.58748 -5.000562,-1.61394 l 0.13229,-1.56102 -0.899572,0.52916 c 0.079374,-0.5027 1.82185242,-9.98946 1.79539442,-10.06883 0.52916,0.92603 2.72892358,1.12603 3.97244958,1.07311 1.243526,-0.0529 3.43954,-0.34395 3.9687,-1.29644 0,0.0794 1.71977,9.39259 1.799144,9.86883 z"
         id="path3815"
         inkscape:connector-curvature="0"
         style="fill:#ff4081;fill-opacity:1;stroke-width:0.26458001" />
      <path
         class="st13"
         d="m -0.040592,284.93991 -0.634992,-1.34936 c 0.52916,0.92603 2.725174,1.08478 3.9687,1.03187 1.243526,-0.0529 3.43954,-0.34396 3.9687,-1.29645 l 0.634992,1.34936 c -0.52916,0.97895 -2.725174,1.26999 -3.9687,1.29644 -1.243526,0.0529 -3.43954,-0.10583 -3.9687,-1.03186 z"
         id="path3817"
         inkscape:connector-curvature="0"
         style="fill:url(#linearGradient5276);stroke-width:0.26458001" />
      <path
         class="st6"
         d="m 5.727252,286.8978 c -1.005404,0 -1.825602,0.8202 -1.825602,1.8256 0,-1.0054 -0.820198,-1.8256 -1.799144,-1.8256 -0.978946,0 -1.799144,0.8202 -1.799144,1.8256 0,1.00541 0.820198,1.82561 1.799144,1.82561 0.502702,0 0.952488,-0.21167 1.296442,-0.52916 l 0.52916,1.69331 0.52916,-1.69331 c 0.317496,0.34395 0.79374,0.52916 1.296442,0.52916 1.005404,0 1.825602,-0.8202 1.825602,-1.82561 -0.026458,-1.03186 -0.846656,-1.8256 -1.85206,-1.8256 z"
         id="path3829"
         inkscape:connector-curvature="0"
         style="fill:#ffffff;stroke-width:0.26458001" />
      <g
         transform="matrix(0.26458,0,0,0.26458,-179.32,261.26)"
         id="g3835"
         style="fill:#231815">
        <circle
           class="st10"
           cx="699.40002"
           cy="103.7"
           r="4.0999999"
           id="circle3831" />
        <circle
           class="st10"
           cx="685.70001"
           cy="103.7"
           r="4.0999999"
           id="circle3833" />
      </g>
      <g
         transform="matrix(0.26458,0,0,0.26458,-179.32,261.26)"
         id="g3841"
         style="fill:#ffffff">
        <path
           class="st6"
           d="m 699.7,122.7 -3.3,3.3 -3.3,-3.3 c -0.2,-0.2 -0.6,-0.2 -0.8,0 l -3.3,3.3 -3.3,-3.3 c -0.2,-0.2 -0.6,-0.2 -0.8,0 -0.2,0.2 -0.2,0.6 0,0.8 l 3.7,3.7 c 0.2,0.2 0.6,0.2 0.8,0 l 3.3,-3.3 3.3,3.3 c 0.1,0.1 0.3,0.2 0.4,0.2 0.2,0 0.3,-0.1 0.4,-0.2 l 3.7,-3.7 c 0.2,-0.2 0.2,-0.6 0,-0.8 -0.2,-0.2 -0.6,-0.2 -0.8,0 z"
           id="path3837"
           inkscape:connector-curvature="0" />
        <path
           class="st6"
           d="m 704.2,116.4 c -0.2,-0.2 -0.6,-0.2 -0.8,0 l -3.3,3.3 -3.3,-3.3 c -0.2,-0.2 -0.6,-0.2 -0.8,0 l -3.3,3.3 -3.3,-3.3 c -0.2,-0.2 -0.6,-0.2 -0.8,0 l -3.3,3.3 -3.3,-3.3 c -0.2,-0.2 -0.6,-0.2 -0.8,0 -0.2,0.2 -0.2,0.6 0,0.8 l 3.7,3.7 c 0.2,0.2 0.6,0.2 0.8,0 l 3.3,-3.3 3.3,3.3 c 0.1,0.1 0.3,0.2 0.4,0.2 0.2,0 0.3,-0.1 0.4,-0.2 l 3.3,-3.3 3.3,3.3 c 0.2,0.2 0.6,0.2 0.8,0 l 3.7,-3.7 c 0.2,-0.2 0.2,-0.5 0,-0.8 z"
           id="path3839"
           inkscape:connector-curvature="0" />
      </g>
      <circle
         class="st16"
         cx="5.7272587"
         cy="288.69696"
         r="1.5874799"
         id="circle3843"
         style="fill:none;stroke-width:0.26458001" />
    </g>
    <path
       id="path5193"
       d="m -2.5511142,295.33257 c -0.189742,-0.14893 -0.428331,-0.23772 -0.68711,-0.23772 -0.6096081,0 -1.105673,0.49172 -1.121304,1.10437 -0.629146,0.23859 -1.077017,0.85253 -1.077017,1.57199 0,0.85015 0.625021,1.55246 1.4356599,1.6634 v 0.0152 h 5.7424231 v -0.003 c 0.800652,-0.0469 1.435659,-0.71837 1.435659,-1.53986 0,-0.79219 -0.590502,-1.44478 -1.350775,-1.53271 0.003,-0.0482 0.0048,-0.097 0.0048,-0.1461 0,-1.22768 -1.024479,-2.22285 -2.28798204,-2.22285 -0.93525196,0 -1.73894386,0.54534 -2.09433096,1.32646"
       inkscape:connector-curvature="0"
       style="fill:url(#1);stroke-width:0.21709661" />
    <path
       id="path5195"
       d="m 11.002773,295.27147 c 0.252287,-0.1981 0.570045,-0.31578 0.912918,-0.31578 0.809914,0 1.468852,0.6533 1.489735,1.46744 0.836159,0.3172 1.431037,1.13163 1.431037,2.08885 0,1.1288 -0.830233,2.06288 -1.907391,2.20991 v 0.0203 H 5.298379 v -0.004 c -1.063895,-0.0624 -1.907391,-0.9544 -1.907391,-2.04595 0,-1.05261 0.784516,-1.91953 1.794793,-2.03608 -0.0042,-0.0641 -0.0065,-0.12896 -0.0065,-0.19415 0,-1.63112 1.361052,-2.95351 3.040143,-2.95351 1.2428086,0 2.311219,0.72441 2.782776,1.76234"
       inkscape:connector-curvature="0"
       style="fill:url(#0);stroke-width:0.28220019" />
  </g>
</svg>
