<?xml version="1.0" encoding="UTF-8" standalone="no"?>
<svg
   xmlns:dc="http://purl.org/dc/elements/1.1/"
   xmlns:cc="http://creativecommons.org/ns#"
   xmlns:rdf="http://www.w3.org/1999/02/22-rdf-syntax-ns#"
   xmlns:svg="http://www.w3.org/2000/svg"
   xmlns="http://www.w3.org/2000/svg"
   id="svg1459"
   version="1.1"
   viewBox="0 0 274.77133 60.298889"
   height="60.298889mm"
   width="274.77133mm">
  <defs
     id="defs1453" />
  <metadata
     id="metadata1456">
    <rdf:RDF>
      <cc:Work
         rdf:about="">
        <dc:format>image/svg+xml</dc:format>
        <dc:type
           rdf:resource="http://purl.org/dc/dcmitype/StillImage" />
        <dc:title></dc:title>
      </cc:Work>
    </rdf:RDF>
  </metadata>
  <g
     transform="translate(-42.531001,-116.41603)"
     id="layer1">
    <g
       transform="translate(93.750421,-1.9345242)"
       id="g997">
      <g
         id="g958"
         transform="matrix(0.45367544,0,0,0.45367544,-70.17869,66.227085)">
        <path
           d="m 178.30147,211.4295 c 0,0 -41.87399,-81.14294 -120.817617,-67.37697 m -5.94379,67.68201 c 0,0 45.783,-83.2982 122.198207,-66.72283 m -58.28473,-25.96854 v 124.35097 m 45.89507,-84.33553 a 46.124953,39.331358 0 0 1 -46.12495,39.33136 46.124953,39.331358 0 0 1 -46.124947,-39.33136 46.124953,39.331358 0 0 1 46.124947,-39.33135 46.124953,39.331358 0 0 1 46.12495,39.33135 z m 26.30592,22.47508 a 72.482072,61.806418 0 0 1 -72.48207,61.80641 72.482072,61.806418 0 0 1 -72.482077,-61.80641 72.482072,61.806418 0 0 1 72.482077,-61.80643 72.482072,61.806418 0 0 1 72.48207,61.80643 z"
           style="fill:none;stroke:#646464;stroke-width:1.80000019;stroke-linecap:butt;stroke-linejoin:miter;stroke-miterlimit:4;stroke-dasharray:none;stroke-opacity:1"
           id="path4645-2-8" />
        <circle
           r="3.9503546"
           cy="198.46136"
           cx="115.33445"
           id="path4563-1-1-5-2"
           style="opacity:1;fill:#ffdd57;fill-opacity:1;stroke:#646464;stroke-width:1.80000019;stroke-miterlimit:4;stroke-dasharray:none;stroke-opacity:1" />
        <circle
           r="3.9503546"
           cy="179.61028"
           cx="154.28223"
           id="path4563-1-1-4-0-7"
           style="opacity:1;fill:#ffdd57;fill-opacity:1;stroke:#646464;stroke-width:1.80000019;stroke-miterlimit:4;stroke-dasharray:none;stroke-opacity:1" />
        <circle
           r="3.9503546"
           cy="211.14809"
           cx="178.06921"
           id="path4563-1-1-40-7-8"
           style="opacity:1;fill:#ffdd57;fill-opacity:1;stroke:#646464;stroke-width:1.80000019;stroke-miterlimit:4;stroke-dasharray:none;stroke-opacity:1" />
        <circle
           r="3.9503546"
           cy="242.95314"
           cx="115.79539"
           id="path4563-1-1-8-5-8"
           style="opacity:1;fill:#ffdd57;fill-opacity:1;stroke:#646464;stroke-width:1.80000019;stroke-miterlimit:4;stroke-dasharray:none;stroke-opacity:1" />
        <circle
           r="3.9503546"
           cy="211.14809"
           cx="52.719795"
           id="path4563-1-1-85-6-5"
           style="opacity:1;fill:#ffdd57;fill-opacity:1;stroke:#646464;stroke-width:1.80000019;stroke-miterlimit:4;stroke-dasharray:none;stroke-opacity:1" />
        <circle
           r="3.9503546"
           cy="142.72708"
           cx="157.48947"
           id="path4563-1-1-6-5-4"
           style="opacity:1;fill:#ffdd57;fill-opacity:1;stroke:#646464;stroke-width:1.80000019;stroke-miterlimit:4;stroke-dasharray:none;stroke-opacity:1" />
        <circle
           r="3.9503546"
           cy="151.54697"
           cx="115.2609"
           id="path4563-1-1-7-4-9"
           style="opacity:1;fill:#ffdd57;fill-opacity:1;stroke:#646464;stroke-width:1.80000019;stroke-miterlimit:4;stroke-dasharray:none;stroke-opacity:1" />
        <circle
           r="3.9503546"
           cy="119.7419"
           cx="115.2609"
           id="path4563-1-1-3-7-6"
           style="opacity:1;fill:#ffdd57;fill-opacity:1;stroke:#646464;stroke-width:1.80000019;stroke-miterlimit:4;stroke-dasharray:none;stroke-opacity:1" />
        <circle
           r="3.9503546"
           cy="142.19254"
           cx="73.834099"
           id="path4563-1-1-2-7-6"
           style="opacity:1;fill:#ffdd57;fill-opacity:1;stroke:#646464;stroke-width:1.80000019;stroke-miterlimit:4;stroke-dasharray:none;stroke-opacity:1" />
        <circle
           r="3.9503546"
           cy="178.80847"
           cx="76.506798"
           id="path4563-1-1-34-5-3"
           style="opacity:1;fill:#ffdd57;fill-opacity:1;stroke:#646464;stroke-width:1.80000019;stroke-miterlimit:4;stroke-dasharray:none;stroke-opacity:1" />
      </g>
      <g
         aria-label="THUNDERDOME"
         transform="matrix(0.22880747,0,0,0.22880747,0.22823691,-38.584587)"
         style="font-style:normal;font-weight:normal;font-size:40px;line-height:1.25;font-family:sans-serif;letter-spacing:0px;word-spacing:0px;fill:#ffdd57;fill-opacity:1;stroke:#646464;stroke-width:3.25098467;stroke-miterlimit:4;stroke-dasharray:none;stroke-opacity:1"
         id="flowRoot4650-39-9">
        <path
           d="m 99.216,745.60469 -7.296,25.92 h 18.624 v 113.28 h 28.416 v -113.28 h 18.624 l -6.912,-25.92 z"
           style="font-style:normal;font-variant:normal;font-weight:normal;font-stretch:normal;font-size:192px;font-family:'American Captain';-inkscape-font-specification:'American Captain';fill:#ffdd57;fill-opacity:1;stroke:#646464;stroke-width:3.25098467;stroke-miterlimit:4;stroke-dasharray:none;stroke-opacity:1"
           id="path4889-2" />
        <path
           d="m 237.135,745.60469 h -28.416 v 59.52 h -15.168 v -59.52 h -28.416 v 139.2 h 28.416 v -55.68 h 15.168 v 55.68 h 28.416 z"
           style="font-style:normal;font-variant:normal;font-weight:normal;font-stretch:normal;font-size:192px;font-family:'American Captain';-inkscape-font-specification:'American Captain';fill:#ffdd57;fill-opacity:1;stroke:#646464;stroke-width:3.25098467;stroke-miterlimit:4;stroke-dasharray:none;stroke-opacity:1"
           id="path4891-4" />
        <path
           style="font-style:normal;font-variant:normal;font-weight:normal;font-stretch:normal;font-size:192px;font-family:'American Captain';-inkscape-font-specification:'American Captain';fill:#ffdd57;fill-opacity:1;stroke:#646464;stroke-width:2.68477941;stroke-miterlimit:4;stroke-dasharray:none;stroke-opacity:1"
           d="m -814.90625,747.83984 v 0.0137 h -15.81836 v 97.19726 c 0,12.68484 4.7555,17.75977 17.91602,17.75977 h 23.62695 c 13.16052,0 17.91601,-5.07493 17.91602,-17.75977 v -97.19726 h -16.49805 v -0.0137 l -11.50586,40.55664 h 19.56055 l -29.33985,55.51563 7.76758,-41.70899 h -16.9707 l 14.60742,-54.36328 z"
           transform="matrix(1.2108945,0,0,1.2108945,1254.6805,-159.96715)"
           id="path4893-9" />
        <path
           d="m 332.385,884.80469 h 25.728 v -58.176 l 14.976,58.176 h 28.608 v -139.2 h -28.608 v 55.872 l -14.208,-55.872 h -26.496 z"
           style="font-style:normal;font-variant:normal;font-weight:normal;font-stretch:normal;font-size:192px;font-family:'American Captain';-inkscape-font-specification:'American Captain';fill:#ffdd57;fill-opacity:1;stroke:#646464;stroke-width:3.25098467;stroke-miterlimit:4;stroke-dasharray:none;stroke-opacity:1"
           id="path4895-2" />
        <path
           d="m 454.281,769.98869 c 1.92,0 2.496,0.96 2.496,2.688 v 84.864 c 0,2.112 -0.384,2.88 -2.688,2.88 h -13.056 v -90.432 z m 30.144,-7.488 c 0,-10.176 -5.568,-16.896 -16.512,-16.896 h -54.528 v 139.2 h 49.344 c 15.936,0 21.696,-6.144 21.696,-21.504 z"
           style="font-style:normal;font-variant:normal;font-weight:normal;font-stretch:normal;font-size:192px;font-family:'American Captain';-inkscape-font-specification:'American Captain';fill:#ffdd57;fill-opacity:1;stroke:#646464;stroke-width:3.25098467;stroke-miterlimit:4;stroke-dasharray:none;stroke-opacity:1"
           id="path4897-8" />
        <path
           d="m 495.885,884.80469 h 52.992 l 4.8,-25.92 h -29.184 v -30.336 h 23.04 v -24 h -23.04 v -33.024 h 30.336 l -4.8,-25.92 h -54.144 z"
           style="font-style:normal;font-variant:normal;font-weight:normal;font-stretch:normal;font-size:192px;font-family:'American Captain';-inkscape-font-specification:'American Captain';fill:#ffdd57;fill-opacity:1;stroke:#646464;stroke-width:3.25098467;stroke-miterlimit:4;stroke-dasharray:none;stroke-opacity:1"
           id="path4899-5" />
        <path
           d="m 605.982,769.98869 c 1.92,0 2.688,1.152 2.688,2.88 v 42.24 c 0,2.112 -0.576,2.88 -2.688,2.88 H 592.35 v -48 z m 30.144,-6.336 c 0,-10.944 -5.76,-18.048 -18.816,-18.048 h -52.8 v 139.2 h 27.84 v -44.352 h 3.648 l 13.44,44.352 h 28.8 l -14.592,-44.352 c 8.064,0 12.48,-6.144 12.48,-12.288 z"
           style="font-style:normal;font-variant:normal;font-weight:normal;font-stretch:normal;font-size:192px;font-family:'American Captain';-inkscape-font-specification:'American Captain';fill:#ffdd57;fill-opacity:1;stroke:#646464;stroke-width:3.25098467;stroke-miterlimit:4;stroke-dasharray:none;stroke-opacity:1"
           id="path4901-1" />
        <path
           d="m 689.031,769.98869 c 1.92,0 2.496,0.96 2.496,2.688 v 84.864 c 0,2.112 -0.384,2.88 -2.688,2.88 h -13.056 v -90.432 z m 30.144,-7.488 c 0,-10.176 -5.568,-16.896 -16.512,-16.896 h -54.528 v 139.2 h 49.344 c 15.936,0 21.696,-6.144 21.696,-21.504 z"
           style="font-style:normal;font-variant:normal;font-weight:normal;font-stretch:normal;font-size:192px;font-family:'American Captain';-inkscape-font-specification:'American Captain';fill:#ffdd57;fill-opacity:1;stroke:#646464;stroke-width:3.25098467;stroke-miterlimit:4;stroke-dasharray:none;stroke-opacity:1"
           id="path4903-4" />
        <path
           d="m 772.107,769.98869 c 1.92,0 2.496,0.96 2.496,2.688 v 84.864 c 0,2.112 -0.384,2.88 -2.688,2.88 h -10.56 c -2.304,0 -2.688,-0.768 -2.688,-2.88 v -84.864 c 0,-1.728 0.576,-2.688 2.496,-2.688 z m 30.72,-6.336 c 0,-10.944 -5.76,-18.048 -18.816,-18.048 h -34.56 c -13.056,0 -18.816,7.104 -18.816,18.048 v 101.376 c 0,10.56 4.416,19.776 19.968,19.776 h 32.256 c 15.552,0 19.968,-9.216 19.968,-19.776 z"
           style="font-style:normal;font-variant:normal;font-weight:normal;font-stretch:normal;font-size:192px;font-family:'American Captain';-inkscape-font-specification:'American Captain';fill:#ffdd57;fill-opacity:1;stroke:#646464;stroke-width:3.25098467;stroke-miterlimit:4;stroke-dasharray:none;stroke-opacity:1"
           id="path4905-7" />
        <path
           d="m 858.804,874.82069 17.664,-55.68 v 65.664 h 27.072 v -139.2 h -29.568 l -15.168,58.752 -15.168,-58.752 H 814.26 v 139.2 h 27.072 v -65.664 z"
           style="font-style:normal;font-variant:normal;font-weight:normal;font-stretch:normal;font-size:192px;font-family:'American Captain';-inkscape-font-specification:'American Captain';fill:#ffdd57;fill-opacity:1;stroke:#646464;stroke-width:3.25098467;stroke-miterlimit:4;stroke-dasharray:none;stroke-opacity:1"
           id="path4907-8" />
        <path
           d="m 915.135,884.80469 h 52.992 l 4.8,-25.92 h -29.184 v -30.336 h 23.04 v -24 h -23.04 v -33.024 h 30.336 l -4.8,-25.92 h -54.144 z"
           style="font-style:normal;font-variant:normal;font-weight:normal;font-stretch:normal;font-size:192px;font-family:'American Captain';-inkscape-font-specification:'American Captain';fill:#ffdd57;fill-opacity:1;stroke:#646464;stroke-width:3.25098467;stroke-miterlimit:4;stroke-dasharray:none;stroke-opacity:1"
           id="path4909-9" />
      </g>
    </g>
  </g>
</svg>
