<svg height="60.298889mm" viewBox="0 0 274.77133 60.298889" width="274.77133mm" xmlns="http://www.w3.org/2000/svg"><g stroke="#646464"><g stroke-width="1.8" transform="matrix(.45367544 0 0 .45367544 -18.95927 -52.123469)"><path d="m178.30147 211.4295s-41.87399-81.14294-120.817617-67.37697m-5.94379 67.68201s45.783-83.2982 122.198207-66.72283m-58.28473-25.96854v124.35097m45.89507-84.33553a46.124953 39.331358 0 0 1 -46.12495 39.33136 46.124953 39.331358 0 0 1 -46.124947-39.33136 46.124953 39.331358 0 0 1 46.124947-39.33135 46.124953 39.331358 0 0 1 46.12495 39.33135zm26.30592 22.47508a72.482072 61.806418 0 0 1 -72.48207 61.80641 72.482072 61.806418 0 0 1 -72.482077-61.80641 72.482072 61.806418 0 0 1 72.482077-61.80643 72.482072 61.806418 0 0 1 72.48207 61.80643z" fill="none"/><g fill="#ffdd57"><circle cx="115.33445" cy="198.46136" r="3.950355"/><circle cx="154.28223" cy="179.61028" r="3.950355"/><circle cx="178.06921" cy="211.14809" r="3.950355"/><circle cx="115.79539" cy="242.95314" r="3.950355"/><circle cx="52.719795" cy="211.14809" r="3.950355"/><circle cx="157.48947" cy="142.72708" r="3.950355"/><circle cx="115.2609" cy="151.54697" r="3.950355"/><circle cx="115.2609" cy="119.7419" r="3.950355"/><circle cx="73.834099" cy="142.19254" r="3.950355"/><circle cx="76.506798" cy="178.80847" r="3.950355"/></g></g><g fill="#ffdd57" stroke-width="3.250985" transform="matrix(.22880747 0 0 .22880747 51.447657 -156.935141)"><path d="m99.216 745.60469-7.296 25.92h18.624v113.28h28.416v-113.28h18.624l-6.912-25.92z" stroke-width="3.250985"/><path d="m237.135 745.60469h-28.416v59.52h-15.168v-59.52h-28.416v139.2h28.416v-55.68h15.168v55.68h28.416z" stroke-width="3.250985"/><path d="m-814.90625 747.83984v.0137h-15.81836v97.19726c0 12.68484 4.7555 17.75977 17.91602 17.75977h23.62695c13.16052 0 17.91601-5.07493 17.91602-17.75977v-97.19726h-16.49805v-.0137l-11.50586 40.55664h19.56055l-29.33985 55.51563 7.76758-41.70899h-16.9707l14.60742-54.36328z" stroke-width="2.684779" transform="matrix(1.2108945 0 0 1.2108945 1254.6805 -159.96715)"/><g stroke-width="3.250985"><path d="m332.385 884.80469h25.728v-58.176l14.976 58.176h28.608v-139.2h-28.608v55.872l-14.208-55.872h-26.496z"/><path d="m454.281 769.98869c1.92 0 2.496.96 2.496 2.688v84.864c0 2.112-.384 2.88-2.688 2.88h-13.056v-90.432zm30.144-7.488c0-10.176-5.568-16.896-16.512-16.896h-54.528v139.2h49.344c15.936 0 21.696-6.144 21.696-21.504z"/><path d="m495.885 884.80469h52.992l4.8-25.92h-29.184v-30.336h23.04v-24h-23.04v-33.024h30.336l-4.8-25.92h-54.144z"/><path d="m605.982 769.98869c1.92 0 2.688 1.152 2.688 2.88v42.24c0 2.112-.576 2.88-2.688 2.88h-13.632v-48zm30.144-6.336c0-10.944-5.76-18.048-18.816-18.048h-52.8v139.2h27.84v-44.352h3.648l13.44 44.352h28.8l-14.592-44.352c8.064 0 12.48-6.144 12.48-12.288z"/><path d="m689.031 769.98869c1.92 0 2.496.96 2.496 2.688v84.864c0 2.112-.384 2.88-2.688 2.88h-13.056v-90.432zm30.144-7.488c0-10.176-5.568-16.896-16.512-16.896h-54.528v139.2h49.344c15.936 0 21.696-6.144 21.696-21.504z"/><path d="m772.107 769.98869c1.92 0 2.496.96 2.496 2.688v84.864c0 2.112-.384 2.88-2.688 2.88h-10.56c-2.304 0-2.688-.768-2.688-2.88v-84.864c0-1.728.576-2.688 2.496-2.688zm30.72-6.336c0-10.944-5.76-18.048-18.816-18.048h-34.56c-13.056 0-18.816 7.104-18.816 18.048v101.376c0 10.56 4.416 19.776 19.968 19.776h32.256c15.552 0 19.968-9.216 19.968-19.776z"/><path d="m858.804 874.82069 17.664-55.68v65.664h27.072v-139.2h-29.568l-15.168 58.752-15.168-58.752h-29.376v139.2h27.072v-65.664z"/><path d="m915.135 884.80469h52.992l4.8-25.92h-29.184v-30.336h23.04v-24h-23.04v-33.024h30.336l-4.8-25.92h-54.144z"/></g></g></g></svg>