<?xml version="1.0" encoding="UTF-8"?>
<svg viewBox="0 0 4100 882" xmlns="http://www.w3.org/2000/svg">
  <path fill="#41AC47" d="M2016.02429,200.63322 C2089.68016,200.63322 2149.54305,225.818646 2194.92283,276.43955 C2237.59202,323.719736 2258.75658,383.692655 2258.75658,455.798188 C2258.75658,519.992016 2236.46178,574.863837 2191.82216,620.113585 C2147.28257,665.303319 2093.98108,688.068223 2032.21778,688.068223 C1982.27702,688.068223 1939.80787,677.856023 1896.47854,652.690602 L1896.47854,549.048276 C1931.34605,572.673365 1975.10548,595.188215 2018.32479,595.188215 C2108.40419,595.188215 2162.06575,533.184858 2162.06575,445.305928 C2162.06575,357.336977 2106.55379,293.483222 2016.45438,293.483222 C1976.1557,293.483222 1943.55868,307.95634 1918.05319,336.952586 C1890.7173,368.39936 1876.60426,413.319037 1876.60426,472.701829 L1876.60426,882 L1869.81279,882 C1820.1721,882 1779.90343,841.741327 1779.90343,792.100634 L1779.90343,457.358524 C1779.90343,315.317926 1866.76214,200.63322 2016.02429,200.63322 Z M2661.96344,231.179801 C2758.69428,285.221442 2793.93187,368.849457 2787.79054,476.612672 L2398.22662,475.802497 C2403.94786,519.761967 2431.21373,554.159377 2469.49198,575.543983 C2508.31034,597.248659 2544.02803,602.429775 2577.17517,592.14756 C2613.92309,580.595072 2643.74952,550.59861 2668.02474,522.65259 L2747.43185,580.49505 C2715.02487,638.437532 2670.92537,672.73492 2605.68131,686.637915 C2543.90801,699.740738 2483.30495,689.638562 2424.19222,656.621449 C2366.5298,624.384505 2327.86147,576.464182 2308.5273,513.200553 C2269.39887,385.192978 2349.58615,242.542248 2478.51392,207.974802 C2542.42769,190.861115 2603.7409,198.622787 2661.96344,231.179801 Z M3305.03197,0 L3305.03197,430.952836 C3305.03197,506.86919 3283.08724,568.98257 3238.75769,616.672843 C3194.36813,664.303104 3137.26583,688.068223 3067.9809,688.068223 C2994.92517,688.068223 2935.34233,662.842789 2890.02257,612.231887 C2847.39338,564.361574 2826.18882,504.368651 2826.18882,432.873249 C2826.18882,306.345993 2923.88986,200.63322 3052.34754,200.63322 C3101.94822,200.63322 3144.98749,211.055465 3188.48686,234.930609 L3188.48686,339.623161 C3153.58934,315.998072 3109.81992,293.483222 3066.64061,293.483222 C2976.56121,293.483222 2922.89965,355.476577 2922.89965,443.375512 C2922.89965,530.144203 2979.66188,595.188215 3068.48101,595.188215 C3108.68967,595.188215 3141.83681,580.084962 3168.33252,549.748427 C3194.64819,519.561924 3208.34114,475.242376 3208.34114,415.679545 L3208.34114,89.9093682 C3208.34114,40.2686747 3248.58981,0 3298.28051,0 L3305.03197,0 Z M3862.74211,200.63322 C4000.93188,200.63322 4099.79318,279.960309 4099.79318,423.311189 L4099.79318,678.506163 L4092.99171,678.506163 C4043.34101,678.506163 4003.08234,638.257493 4003.08234,588.606797 L4003.08234,415.679545 C4003.08234,377.571336 3988.66924,347.404838 3959.65299,324.519908 C3933.55736,303.955478 3900.92033,293.483222 3861.3118,293.483222 C3773.80295,293.483222 3717.64085,361.887958 3717.64085,446.226126 C3717.64085,527.453624 3777.14367,595.188215 3860.42161,595.188215 C3918.27407,595.188215 3949.26075,561.350926 3982.27786,519.251857 L3982.27786,640.718023 C3965.43423,653.310736 3946.09006,667.043694 3926.32581,675.105431 C3905.49132,683.817308 3880.64597,688.068223 3851.88977,688.068223 C3712.71979,688.068223 3620.93002,572.783389 3620.93002,439.564691 C3620.93002,371.159955 3642.1746,314.627777 3684.94381,270.518275 C3730.35359,223.808213 3789.85641,200.63322 3862.74211,200.63322 Z M531.154421,200.63322 C597.258661,200.63322 654.49099,223.778206 702.561345,269.868135 C750.801737,316.1281 774.876924,374.450664 774.876924,444.345721 C774.876924,514.840907 750.961772,573.333507 703.061453,619.293408 C655.251154,665.113278 597.848788,688.068223 531.154421,688.068223 C465.080187,688.068223 407.967884,665.093274 360.237602,619.293408 C312.297275,573.333507 288.382123,514.840907 288.382123,444.345721 C288.382123,306.806092 393.444756,200.63322 531.154421,200.63322 Z M1482.32932,200.63322 C1548.45357,200.63322 1605.6959,223.778206 1653.75625,269.868135 C1701.97664,316.1281 1726.07183,374.450664 1726.07183,444.345721 C1726.07183,514.840907 1702.15668,573.333507 1654.22635,619.293408 C1606.45606,665.113278 1549.03369,688.068223 1482.32932,688.068223 C1416.27509,688.068223 1359.18279,665.093274 1311.3925,619.293408 C1263.48218,573.333507 1239.59703,514.840907 1239.59703,444.345721 C1239.59703,306.806092 1344.60966,200.63322 1482.32932,200.63322 Z M3517.66777,210.175276 L3517.66777,678.506163 L3510.89632,678.506163 C3461.27563,678.506163 3420.99695,638.257493 3420.99695,588.606797 L3420.99695,210.175276 L3517.66777,210.175276 Z M96.6908291,93.6301698 L96.6908291,210.175276 L260.056021,210.175276 L260.056021,303.055284 L96.6908291,303.055284 L96.6908291,535.09527 C96.6908291,574.563772 114.314626,585.656162 152.002744,585.656162 L260.056021,585.656162 L260.056021,678.506163 L141.480478,678.506163 C46.950114,678.506163 0,614.172305 0,524.352956 L0,183.529536 C0,133.87884 40.2386682,93.6301698 89.9193704,93.6301698 L96.6908291,93.6301698 Z M936.87182,0 L936.87182,378.301494 L965.447976,378.301494 C996.84474,378.301494 1017.50919,367.589186 1029.33174,347.264808 L1110.56924,210.19528 L1220.75297,210.095259 L1155.08883,322.85955 C1140.90577,346.644674 1129.92341,363.718352 1122.18174,374.020571 C1113.6399,385.212982 1105.22809,394.174913 1096.89629,400.346242 C1164.09077,422.080924 1189.11616,468.630952 1189.11616,537.985893 L1189.11616,678.506163 L1182.31469,678.506163 C1132.654,678.506163 1092.39532,638.257493 1092.39532,588.606797 L1092.39532,547.507944 C1092.39532,502.628276 1072.29099,472.131706 1024.69074,472.131706 L936.87182,472.131706 L936.87182,678.506163 L930.100362,678.506163 C880.439664,678.506163 840.180991,638.257493 840.180991,588.606797 L840.180991,89.9093682 C840.180991,40.2686747 880.439664,0 930.100362,0 L936.87182,0 Z M1482.32932,293.483222 C1393.35015,293.483222 1340.08868,358.367199 1340.08868,444.345721 C1340.08868,529.133986 1394.63043,595.188215 1482.32932,595.188215 C1570.09823,595.188215 1624.55996,529.133986 1624.55996,444.345721 C1624.55996,399.326023 1611.06706,363.208242 1584.44132,335.372246 C1557.79558,307.466234 1523.90828,293.483222 1482.32932,293.483222 Z M531.154421,293.483222 C442.155249,293.483222 388.91378,358.367199 388.91378,444.345721 C388.91378,529.133986 443.445527,595.188215 531.154421,595.188215 C618.88332,595.188215 673.415067,529.133986 673.415067,444.345721 C673.415067,399.326023 659.902156,363.208242 633.236411,335.372246 C606.590671,307.466234 572.74338,293.483222 531.154421,293.483222 Z M2412.0496,387.933568 L2679.45721,388.31365 C2667.20457,350.505506 2651.91127,331.921502 2616.64368,312.257266 C2532.88563,265.417176 2450.42787,305.26576 2412.0496,387.933568 Z M3469.31736,57.3323505 C3501.69433,57.3323505 3526.27963,81.3175174 3526.27963,113.804516 C3526.27963,129.867976 3521.58862,143.630941 3511.79651,154.613307 C3501.63432,165.975754 3487.09119,171.216883 3469.31736,171.216883 C3436.15021,171.216883 3412.4151,146.711605 3412.4151,113.804516 C3412.4151,80.0872524 3435.73012,57.3323505 3469.31736,57.3323505 Z"></path>
</svg>
