<svg xmlns="http://www.w3.org/2000/svg" viewBox="0 0 97 44"><path d="M39.1 6.9h-2.3v9h-2.2v-9h-2.3V5.1h6.8v1.8zm3.1-1.8v4.1h2.5V5.1h2.2v10.7h-2.2V11h-2.5v4.8H40V5.1h2.2zm12.1 1.8h-3.8v2.5h3.6v1.8h-3.6v2.9h4v1.8h-6.1V5.1h6v1.8zM34.5 26.7c0 .3 0 .5.1.7 0 .2.1.4.2.5.1.1.3.3.4.3.2.1.4.1.7.1.3 0 .6-.1.9-.3.3-.2.4-.5.4-1 0-.2 0-.4-.1-.6-.1-.2-.2-.3-.3-.5-.1-.1-.3-.3-.6-.4-.2-.1-.5-.2-.9-.4-.5-.2-.9-.3-1.2-.5-.4-.2-.6-.4-.9-.7-.2-.3-.4-.6-.5-.9-.1-.3-.2-.7-.2-1.2 0-1.1.3-1.9.9-2.4.6-.5 1.4-.8 2.4-.8.5 0 .9.1 1.3.2s.8.3 1 .5c.3.2.5.5.7.9.2.4.2.8.2 1.3v.3h-2.1c0-.5-.1-.9-.3-1.2-.2-.3-.5-.4-.9-.4-.2 0-.4 0-.6.1-.2.1-.3.2-.4.3-.1.1-.2.2-.2.4s-.1.3-.1.5c0 .3.1.6.2.8.1.2.4.4.9.6l1.7.7c.4.2.7.4 1 .6.3.2.5.4.6.6.2.2.3.5.3.7.1.3.1.6.1.9 0 1.1-.3 2-1 2.5s-1.6.8-2.7.8c-1.2 0-2.1-.3-2.6-.8s-.8-1.3-.8-2.3v-.4h2.2v.5zm6-4.6c.1-.7.2-1.3.5-1.8s.6-.9 1.1-1.1c.5-.3 1.1-.4 1.9-.4.8 0 1.5.1 1.9.4.5.3.8.7 1.1 1.1.3.5.4 1.1.5 1.8.1.7.1 1.4.1 2.2 0 .8 0 1.6-.1 2.3-.1.7-.2 1.3-.5 1.8s-.6.9-1.1 1.1c-.5.3-1.1.4-1.9.4-.8 0-1.5-.1-1.9-.4-.5-.3-.8-.6-1.1-1.1-.3-.5-.4-1.1-.5-1.8-.1-.7-.1-1.4-.1-2.3 0-.8 0-1.5.1-2.2zm2.1 4.1c0 .5.1.9.2 1.2.1.3.3.5.4.7.2.1.5.2.8.2.3 0 .6-.1.8-.2.2-.1.3-.4.4-.7.1-.3.2-.7.2-1.2s.1-1.1.1-1.8 0-1.3-.1-1.8c0-.5-.1-.9-.2-1.2-.1-.3-.3-.6-.4-.7-.2-.1-.5-.2-.8-.2-.3 0-.6.1-.8.2-.2.1-.3.4-.4.7-.1.3-.2.7-.2 1.2s-.1 1.1-.1 1.8 0 1.3.1 1.8zM54.9 19v1.8h-3.8v2.5h3.6V25h-3.6v4.7h-2.2V19h6zm7.2 1.7h-2.3v9h-2.2v-9h-2.3V19h6.8v1.7zm2.4-1.7l1.2 7.9L67 19h2l1.3 7.9 1.2-7.9h2.1l-1.9 10.7h-2.4L68 21.9l-1.2 7.8h-2.4l-2-10.7h2.1zm14.4 0l2.8 10.7h-2.2l-.5-2.3h-2.8l-.5 2.3h-2.2L76.3 19h2.6zm-.2 6.7l-1-4.8-1 4.8h2zm7.8-6.7c.9 0 1.6.2 2.1.7.5.5.7 1.1.7 2.1 0 .7-.1 1.3-.4 1.8-.3.5-.7.7-1.3.9.5.1.9.3 1.2.5.2.3.4.7.5 1.3v1.5c0 .6 0 1 .1 1.3.1.3.2.5.4.6v.1h-2.3c-.1-.2-.2-.3-.2-.5s-.1-.4-.1-.6l-.1-2.1c0-.4-.1-.8-.3-1-.2-.2-.5-.4-1-.4h-1.2v4.5h-2.2V19h4.1zm-.9 4.7c.5 0 .9-.1 1.2-.4.3-.2.4-.7.4-1.2 0-1-.5-1.5-1.5-1.5h-1v3.1h.9zm11.3-3H93v2.5h3.6V25H93v2.9h4v1.8h-6.1V19h6v1.7zM35 32.8v4.1h2.5v-4.1h2.2v10.7h-2.2v-4.8H35v4.8h-2.2V32.8H35zm6 3.2c.1-.7.2-1.3.5-1.8s.6-.9 1.1-1.1c.5-.3 1.1-.4 1.9-.4.8 0 1.5.1 1.9.4.5.3.8.7 1.1 1.1.3.5.4 1.1.5 1.8.1.7.1 1.4.1 2.2 0 .8 0 1.6-.1 2.3-.1.7-.2 1.3-.5 1.8s-.6.9-1.1 1.1c-.5.3-1.1.4-1.9.4-.8 0-1.5-.1-1.9-.4-.5-.3-.8-.6-1.1-1.1-.3-.5-.4-1.1-.5-1.8-.1-.7-.1-1.4-.1-2.3 0-.8.1-1.5.1-2.2zm2.1 4.1c0 .5.1.9.2 1.2.1.3.3.5.4.7.2.1.5.2.8.2.3 0 .6-.1.8-.2.2-.1.3-.4.4-.7.1-.3.2-.7.2-1.2s.1-1.1.1-1.8 0-1.3-.1-1.8c0-.5-.1-.9-.2-1.2-.1-.3-.3-.6-.4-.7-.2-.1-.5-.2-.8-.2-.3 0-.6.1-.8.2-.2.1-.3.4-.4.7-.1.3-.2.7-.2 1.2s-.1 1.1-.1 1.8c.1.6.1 1.2.1 1.8zm8.4.2c0 .3 0 .5.1.7 0 .2.1.4.2.6.1.2.2.3.4.4.2.1.4.1.6.1.3 0 .5 0 .6-.1.2-.1.3-.2.4-.4.1-.2.2-.4.2-.6 0-.2.1-.5.1-.7v-7.5h2.2v7.5c0 .7-.1 1.2-.3 1.7-.2.4-.4.8-.8 1.1-.3.3-.7.4-1.1.5-.4.1-.8.1-1.3.1-.4 0-.9 0-1.3-.1s-.8-.2-1.1-.5c-.3-.2-.6-.6-.8-1-.2-.5-.3-1-.3-1.8v-7.5h2.2v7.5zm7.8.2c0 .3 0 .5.1.7 0 .2.1.4.2.5.1.1.3.3.4.3.2.1.4.1.7.1.3 0 .6-.1.9-.3.3-.2.4-.5.4-1 0-.2 0-.4-.1-.6-.1-.2-.2-.3-.3-.5-.1-.1-.3-.3-.6-.4-.2-.1-.5-.2-.9-.4-.5-.2-.9-.3-1.2-.5-.4-.2-.6-.4-.9-.7-.2-.3-.4-.6-.5-.9-.1-.3-.2-.7-.2-1.2 0-1.1.3-1.9.9-2.4.6-.5 1.4-.8 2.4-.8.5 0 .9.1 1.3.2s.8.3 1 .5c.3.2.5.5.7.9.2.4.2.8.2 1.3v.3h-2.1c0-.5-.1-.9-.3-1.2-.2-.3-.5-.4-.9-.4-.2 0-.4 0-.6.1-.2.1-.3.2-.4.3-.1.1-.2.2-.2.4s-.1.3-.1.5c0 .3.1.6.2.8.1.2.4.4.9.6l1.7.7c.4.2.7.4 1 .6.3.2.5.4.6.6.2.2.3.5.3.7.1.3.1.6.1.9 0 1.1-.3 2-1 2.5s-1.6.8-2.7.8c-1.2 0-2.1-.3-2.6-.8s-.8-1.3-.8-2.3V40h2.2v.5zm12-5.9h-3.8v2.5h3.6v1.8h-3.6v2.9h4v1.8h-6.1V32.8h6v1.8zM30.1 44L30 4.6 0 0v34.8l10.2 3.1V21.6l8.5 1.9v11.1L10 37.9l8.7 2.6z"/></svg>
