<svg xmlns="http://www.w3.org/2000/svg" fill-rule="evenodd" stroke-linejoin="round" stroke-miterlimit="1.4" clip-rule="evenodd" viewBox="0 0 616 143"><path fill="#c71a74" d="M140 38c0-20.8-17.2-38-38-38H38C17.3 0 0 17.2 0 38v64c0 20.8 17.2 38 38 38h64c20.8 0 38-17.2 38-38V38z"/><g fill-rule="nonzero"><path fill="#fff" d="M31.6 94a61 61 0 0 1-17 3.9l2.8 15.6c3 0 6-.5 9.2-1.2l14.6-5c5.4 4.5 11.7 7.9 18.5 9.8 14 4 26.1 2.8 36.5-3.7 10.4-6.4 17.9-17.5 22.4-33.2 4.5-15.7 4-29-1.3-40a43 43 0 0 0-28.5-22.4 42.6 42.6 0 0 0-35.7 4c-10.4 6.4-17.8 17.4-22.3 33.1-2.4 8.3-3.4 16-3 22.9A48 48 0 0 0 31.5 94zm17.9-6.7A31 31 0 0 1 47.3 75c0-4.4.8-9.4 2.3-14.8 3.2-11 7.9-18.7 14.1-22.8 6.2-4.2 13-5.2 20.5-3a23.5 23.5 0 0 1 15.7 13.4c3 6.9 3 15.8-.2 26.9-3.2 11.2-8 19-14.2 23.2a22.8 22.8 0 0 1-27-.3c4.2-1.4 8.6-2.4 13-2.7l-2-12.6c-6.9.5-13.6 2.2-20 4.9z"/><path d="M161.5 28.6l16.8 55.3h17l5.7-19.4c1.4-5.1 2.6-10.3 3.7-17.2h.2a158 158 0 0 0 3.8 17.3l5.4 19.3H231l17.7-55.3H231l-4.8 22a219 219 0 0 0-3.5 18.9h-.2c-1.1-6.4-2.6-12.6-4.3-18.8l-5.7-22.1h-14.2l-6.1 22.9c-1.3 5.4-3.1 11.7-4.2 18h-.3c-1-6.4-2.1-12.5-3.2-18.1l-4.7-22.8h-18.3zm144.1 33.2c.3-1.3.6-3.9.6-6.8 0-13.7-7-27.6-25.7-27.6-20 0-29.2 15.5-29.2 29.5 0 17.3 11.2 28.2 30.8 28.2 7.8 0 15-1.2 21-3.5l-2.4-11.7a49.4 49.4 0 0 1-16 2.4c-8.4 0-15.7-3.4-16.3-10.5h37.2zM268.3 50c.5-4.5 3.5-11.2 11.2-11.2 8.2 0 10 7 10 11.2h-21.2zm46.3 17.4c0 6.2-.3 13-.5 16.5h15.3l.7-7.7h.2c4 6.6 10.6 9 17.3 9 13.3 0 26.4-10 26.4-29.9 0-17-10-28-23.8-28-8 0-14 3.1-17.4 7.9h-.3V3.5h-17.9v64zm18-15.2c0-1 0-2.1.3-3.1a11 11 0 0 1 10.5-8.5c8.4 0 12.4 6.8 12.4 15.4 0 10-4.7 15.6-12.4 15.6a11 11 0 0 1-10.9-11.2v-8.1zm88.2-48.7v30h-.2c-2.6-3.6-8-6.1-15.2-6.1-13.8 0-26 10.8-25.9 29.4 0 17.2 11 28.4 24.7 28.4 7.4 0 14.5-3.2 18-9.3h.4l.7 8h16c-.3-3.7-.5-10.3-.5-16.5v-64h-18zm0 55.9c0 1.3 0 2.7-.3 3.8-1.1 5-5.5 8.4-10.5 8.3-7.5 0-12.3-5.9-12.3-15.2 0-8.7 4.1-15.7 12.4-15.7 5.5 0 9.4 3.7 10.5 8.4.2 1 .2 2.1.2 3.1v7.3zm81 2.4c.3-1.3.6-3.9.6-6.8 0-13.7-7-27.6-25.7-27.6-20 0-29.2 15.5-29.2 29.5 0 17.3 11.2 28.2 30.8 28.2 7.8 0 15-1.2 21-3.5l-2.4-11.7a49.4 49.4 0 0 1-16 2.4c-8.3 0-15.7-3.4-16.3-10.5h37.2zM464.5 50c.5-4.5 3.6-11.2 11.2-11.2 8.2 0 10 7 10 11.2h-21.2zm43 31.1c4.4 2.3 11 4 18.6 4 16.6 0 25-7.6 25-18-.2-8-4.6-13.4-15.6-17-7.1-2.3-9.4-3.7-9.4-6.3 0-2.8 2.5-4.4 6.9-4.4 4.8 0 10 1.8 12.5 3l3-11.8a39.3 39.3 0 0 0-16.1-3.2c-14.3 0-23.5 7.8-23.5 18.2-.1 6.4 4.5 12.6 16.5 16.5 6.6 2 8.4 3.5 8.4 6.3 0 2.9-2.2 4.6-7.7 4.6-5.3 0-12.1-2.2-15.4-4.1L507.5 81zm90.2 25.2h18v-61c0-5.8.2-11.3.3-16.7h-17.3l-.4 6.6-.3-.2c-3.3-5-8.7-7.6-16.1-7.6-12.4 0-25.5 9.8-25.5 29.6 0 17.5 11.3 28.2 23.8 28.2 7.8 0 13.6-3 17.3-8.3h.2v29.4zm0-46.2c0 1-.1 2.6-.5 3.7a10.6 10.6 0 0 1-10.4 7.8c-7.5 0-12.3-6-12.3-15.3 0-9 4.3-15.5 12.5-15.5 5.5 0 9.4 3.8 10.3 8.3.3.8.4 1.8.4 2.7v8.3z"/><path fill="#555" d="M166 108.2l7 23.8h4l3.8-11.3c.8-2.6 1.6-5.2 2.1-7.9h.1c.6 2.8 1.3 5.2 2.1 7.8l3.6 11.4h4l7.6-23.8H196l-3.4 12c-.7 2.8-1.4 5.3-1.8 7.6h-.1c-.6-2.6-1.3-5.1-2.1-7.7l-3.7-11.9h-3.6l-3.9 12.1c-.7 2.6-1.5 5.1-2 7.5h-.2c-.4-2.4-1-4.9-1.7-7.5l-3.2-12H166zm57.4 12.7l.2-2c0-4.4-2-11.2-9.7-11.2-7 0-11.2 5.6-11.2 12.8 0 7.1 4.4 12 11.7 12 3.7 0 6.3-.9 7.9-1.6l-.8-3c-2 .8-4.3 1.2-6.6 1.2-4.3 0-8-2.4-8-8.2h16.5zm-16.5-3.1c.4-3 2.2-7 6.6-7 4.8 0 6 4.3 6 7h-12.6zm22.3 8l-.1 6.2h3.7l.2-4h.1a8.4 8.4 0 0 0 8 4.5c5.2 0 10.6-4.2 10.6-12.7 0-7.2-4.1-12.1-10-12.1-3.8 0-6.5 1.7-8 4.3h-.1V97.2h-4.3v28.6zm4.4-7.6c0-.7 0-1.3.2-1.8.7-3 3.4-5.3 6.5-5.3 4.6 0 7 4 7 8.9 0 5.4-2.6 9-7.2 9-3 0-5.7-2-6.4-5l-.1-1.5v-4.3zm53.5 2.7l.1-2c0-4.4-2-11.2-9.7-11.2-6.9 0-11.1 5.6-11.1 12.8 0 7.1 4.4 12 11.6 12 3.8 0 6.4-.9 8-1.6l-.9-3c-2 .8-4.3 1.2-6.5 1.2-4.3 0-8-2.4-8-8.2H287zm-16.5-3.1c.3-3 2.2-7 6.6-7 4.8 0 6 4.3 5.9 7h-12.5zm22.3 14.2h4.3v-14.3c0-.7.1-1.5.3-2 .8-2.5 3-4.5 5.8-4.5 4 0 5.4 3.3 5.4 7V132h4.3v-14.2c0-8.1-5-10.1-8.3-10.1-4 0-6.7 2.2-7.8 4.4h-.1l-.3-3.9h-3.8c.2 2 .2 4 .2 6.5V132zm59.1 0v-23.8h-4.3V132h4.3zm-2.2-27.8h.2c1.4 0 2.5-1.1 2.5-2.5v-.1c0-1.5-1-2.7-2.6-2.7h-.1a2.6 2.6 0 0 0-2.6 2.6v.2c0 1.4 1.2 2.5 2.6 2.5zm9.7 27.8h4.3v-14.3c0-.7.1-1.5.3-2 .8-2.5 3-4.5 5.8-4.5 4 0 5.4 3.3 5.4 7V132h4.3v-14.2c0-8.1-5-10.1-8.3-10.1-4 0-6.7 2.2-7.8 4.4h-.1l-.3-3.9h-3.8c.2 2 .2 4 .2 6.5V132zm46.5-11.1l.1-2c0-4.4-2-11.2-9.7-11.2-6.9 0-11.1 5.6-11.1 12.8 0 7.1 4.4 12 11.6 12 3.8 0 6.4-.9 7.9-1.6l-.8-3c-2 .8-4.3 1.2-6.5 1.2-4.3 0-8-2.4-8-8.2H406zm-16.5-3.1c.3-3 2.2-7 6.6-7 4.7 0 6 4.3 5.9 7h-12.5zm41.3 3l.1-2c0-4.3-2-11.1-9.7-11.1-6.9 0-11.1 5.6-11.1 12.8 0 7.1 4.4 12 11.6 12 3.8 0 6.4-.9 8-1.6l-.9-3c-2 .8-4.3 1.2-6.5 1.2-4.3 0-8-2.4-8-8.2h16.5zm-16.5-3c.3-3 2.2-7 6.6-7 4.8 0 6 4.3 5.9 7h-12.5zm22.3 14.2h4.3v-12.7c0-.7 0-1.4.2-2 .5-3.2 2.7-5.5 5.7-5.5h1.5v-4l-1.2-.1c-2.9 0-5.5 2-6.6 5.2h-.1l-.2-4.7h-3.8c.2 2.2.2 4.6.2 7.4V132zm20.8 0v-23.8h-4.3V132h4.3zm-2.2-27.8h.1c1.4 0 2.6-1.1 2.6-2.5v-.1c0-1.5-1-2.7-2.6-2.7h-.1a2.6 2.6 0 0 0-2.6 2.6v.2c0 1.4 1.1 2.5 2.5 2.5h.1zm9.7 27.8h4.3v-14.3c0-.7 0-1.5.3-2 .8-2.5 3-4.5 5.7-4.5 4 0 5.5 3.3 5.5 7V132h4.3v-14.2c0-8.1-5-10.1-8.3-10.1-4 0-6.7 2.2-7.9 4.4l-.3-3.9h-3.8l.2 6.5V132zm-124.3-17.3c0-2.8 0-4.8.2-6.5H337l-.2 3.6c-1.1-2-3.3-4.1-7.4-4.1-5.5 0-10.7 4.5-10.7 12.5 0 6.7 4.2 11.7 10 11.7 3.7 0 6.3-1.8 7.6-4v2.6c0 6-3.2 8.3-7.6 8.3-3 0-5.3-.9-7-1.9l-1 3.3c2 1.3 5 2 7.9 2 3 0 6.3-.7 8.6-2.8 2.3-2.1 3.4-5.4 3.4-11v-13.7zm-4.3 7.1a7 7 0 0 1-.4 2.3 6.2 6.2 0 0 1-6 4.5c-4.5 0-6.9-4-6.9-8.5 0-5.6 3-9 7-9 3.2 0 5.3 2 6 4.5.3.6.3 1.3.3 2v4.2zm176.3-7c0-3 0-4.9.2-6.6H509l-.2 3.6h-.1c-1-2-3.3-4.1-7.4-4.1-5.4 0-10.7 4.5-10.7 12.5 0 6.7 4.2 11.7 10 11.7 3.8 0 6.3-1.8 7.6-4h.1v2.6c0 6-3.2 8.3-7.6 8.3-3 0-5.4-.9-7-1.9l-1 3.3c1.9 1.3 5 2 7.9 2 3 0 6.3-.7 8.6-2.8 2.2-2.1 3.4-5.4 3.4-11v-13.7zm-4.3 7c0 .8-.1 1.6-.4 2.3a6.2 6.2 0 0 1-6 4.5c-4.5 0-7-4-7-8.5 0-5.6 3-9 7.1-9 3.2 0 5.2 2 6 4.5.2.6.3 1.3.3 2v4.2z"/></g></svg>