<svg id="Layer_1" data-name="Layer 1" xmlns="http://www.w3.org/2000/svg" viewBox="0 0 2219.27 506.75"><path d="M431.45,2755.61L543.53,2584c9.12-13.74,13.75-30,13.75-47.54a95.29,95.29,0,0,0-24.77-64.64c-16.92-18.56-39.14-30.17-64.25-30.17h-232L120,2627.61H290.57l-109.84,168.6a83.29,83.29,0,0,0-13.82,46.68c0,23.67,8.53,45.24,25.35,63.64,23.17,25.35,51.13,32.36,67.2,32.36l250.4,0.5,108.49-183.77H431.45Zm53.15,129-3.41,5.41-217-1.38-2.25.08a44.72,44.72,0,0,1-44.67-44.67,48.4,48.4,0,0,1,6.43-23.43l0.57-.9,150.94-228.06,5.46-8.77,1.83-3.3H208.41l54.79-84H468.26c11.5,0,20.45,3,28.17,11.49,8.1,8.88,12,18.2,12,29.46,0,7.92-1.8,14.24-5.5,19.81L346.8,2792.24l-5.46,7.92-1.83,2.45h194l-10.24,17.61C506.76,2848.2,492.66,2871.85,484.6,2884.64Z" transform="translate(-119.96 -2432.63)" fill="#da291c"/><path d="M784.72,2832.35a20.51,20.51,0,0,1-4.81-13.36,16.91,16.91,0,0,1,2.14-8.55l146.42-235.13H792.73a7.31,7.31,0,0,1-7.48-7.48v-24.58a7.31,7.31,0,0,1,7.48-7.48H965.87a16,16,0,0,1,12.56,5.88,19.26,19.26,0,0,1,5.08,12.83,16.87,16.87,0,0,1-2.67,9.08L834.41,2798.68H978.7a7.31,7.31,0,0,1,7.48,7.48v24.58a7.31,7.31,0,0,1-7.48,7.48H797A15.16,15.16,0,0,1,784.72,2832.35Z" transform="translate(-119.96 -2432.63)" fill="#da291c"/><path d="M1097.33,2822.73a113.59,113.59,0,0,1-42.22-42.48,115.42,115.42,0,0,1-15.5-58.51v-76.42a115.46,115.46,0,0,1,15.5-58.51,115.81,115.81,0,0,1,200.93,0,115.54,115.54,0,0,1,15.5,58.51v36.34a19.16,19.16,0,0,1-19.24,19.24h-171v23.51a73.34,73.34,0,0,0,9.89,37.41,72.54,72.54,0,0,0,27,27,73.34,73.34,0,0,0,37.41,9.89h77.49a7.31,7.31,0,0,1,7.48,7.48v24.58a7.31,7.31,0,0,1-7.48,7.48h-77.49A114,114,0,0,1,1097.33,2822.73Zm132.53-160.31v-19.77a74.58,74.58,0,0,0-111.69-64.39,73.77,73.77,0,0,0-36.87,64.39v19.77h148.56Z" transform="translate(-119.96 -2432.63)" fill="#da291c"/><path d="M1426.23,2836.35a9.37,9.37,0,0,1-4-5.08l-100.46-283.76a9.09,9.09,0,0,1-.53-3.74,7.69,7.69,0,0,1,2.4-5.61,8.32,8.32,0,0,1,6.15-2.41h24.58a11.31,11.31,0,0,1,6.15,1.87,9.47,9.47,0,0,1,4,5.08l84.43,243.68,82.83-243.68a9.39,9.39,0,0,1,4-5.08,11.29,11.29,0,0,1,6.15-1.87h23.51a8.2,8.2,0,0,1,7.21,3.47q2.41,3.48.8,8.28L1473,2831.28a9.44,9.44,0,0,1-4,5.08,11.24,11.24,0,0,1-6.15,1.87h-30.46A11.22,11.22,0,0,1,1426.23,2836.35Z" transform="translate(-119.96 -2432.63)" fill="#da291c"/><path d="M1724.42,2836.35a9.37,9.37,0,0,1-4-5.08l-100.46-283.76a9.09,9.09,0,0,1-.53-3.74,7.69,7.69,0,0,1,2.4-5.61,8.32,8.32,0,0,1,6.15-2.41h24.58a11.31,11.31,0,0,1,6.15,1.87,9.47,9.47,0,0,1,4,5.08l84.43,243.68L1830,2542.71a9.39,9.39,0,0,1,4-5.08,11.29,11.29,0,0,1,6.15-1.87h23.51a8.2,8.2,0,0,1,7.21,3.47q2.41,3.48.8,8.28l-100.46,283.76a9.44,9.44,0,0,1-4,5.08,11.24,11.24,0,0,1-6.15,1.87h-30.46A11.22,11.22,0,0,1,1724.42,2836.35Z" transform="translate(-119.96 -2432.63)" fill="#da291c"/><path d="M1956.35,2832.61a18.55,18.55,0,0,1-5.61-13.63V2472.17H1901a7.31,7.31,0,0,1-7.48-7.48v-24.58a7.31,7.31,0,0,1,7.48-7.48h72.14a19.16,19.16,0,0,1,19.24,19.24v346.81h56.64a7.31,7.31,0,0,1,7.48,7.48v24.58a7.31,7.31,0,0,1-7.48,7.48H1970A18.55,18.55,0,0,1,1956.35,2832.61Z" transform="translate(-119.96 -2432.63)" fill="#da291c"/><path d="M2165,2822.73a113.59,113.59,0,0,1-42.22-42.48,115.42,115.42,0,0,1-15.5-58.51v-76.42a115.46,115.46,0,0,1,15.5-58.51,115.81,115.81,0,0,1,200.93,0,115.55,115.55,0,0,1,15.5,58.51v36.34a19.16,19.16,0,0,1-19.24,19.24H2149v23.51a73.34,73.34,0,0,0,9.89,37.41,72.54,72.54,0,0,0,27,27,73.34,73.34,0,0,0,37.41,9.89h77.49a7.31,7.31,0,0,1,7.48,7.48v24.58a7.31,7.31,0,0,1-7.48,7.48h-77.49A114,114,0,0,1,2165,2822.73Zm132.53-160.31v-19.77a74.58,74.58,0,0,0-111.69-64.39,73.77,73.77,0,0,0-36.87,64.39v19.77h148.56Z" transform="translate(-119.96 -2432.63)" fill="#da291c"/></svg>